<?xml version="1.0" encoding="UTF-8" standalone="no"?>
<!-- Generator: Adobe Illustrator 27.5.0, SVG Export Plug-In . SVG Version: 6.00 Build 0)  -->

<svg
   version="1.1"
   x="0px"
   y="0px"
   viewBox="0 0 1920 1080"
   style="enable-background:new 0 0 1920 1080;"
   xml:space="preserve"
   id="svg4955"
   sodipodi:docname="About2.svg"
   inkscape:version="1.2.2 (732a01da63, 2022-12-09)"
   xmlns:inkscape="http://www.inkscape.org/namespaces/inkscape"
   xmlns:sodipodi="http://sodipodi.sourceforge.net/DTD/sodipodi-0.dtd"
   xmlns:xlink="http://www.w3.org/1999/xlink"
   xmlns="http://www.w3.org/2000/svg"
   xmlns:svg="http://www.w3.org/2000/svg"><defs
   id="defs4959">
	
	
	
	
	
	
	
	
	
	
	
	
	
	
	
	
	
	
	
	

		
		
		
		
		
		
	</defs><sodipodi:namedview
   id="namedview4957"
   pagecolor="#ffffff"
   bordercolor="#000000"
   borderopacity="0.25"
   inkscape:showpageshadow="2"
   inkscape:pageopacity="0.0"
   inkscape:pagecheckerboard="0"
   inkscape:deskcolor="#d1d1d1"
   showgrid="false"
   inkscape:zoom="0.21851852"
   inkscape:cx="961.01695"
   inkscape:cy="540"
   inkscape:window-width="1440"
   inkscape:window-height="837"
   inkscape:window-x="-8"
   inkscape:window-y="-8"
   inkscape:window-maximized="1"
   inkscape:current-layer="svg4955" />

<g
   id="g1132"
   transform="translate(0.53303559,-1.6859601)">
	</g><g
   id="g1466"
   transform="translate(18.559592)">
	</g><g
   id="g1472"
   transform="translate(35.275886)">
	</g><g
   id="g1478"
   transform="translate(51.992173)">
	</g><g
   id="g1484"
   transform="translate(68.708463)">
	</g><g
   id="g1490"
   transform="translate(85.425273)">
	</g><g
   id="g1496"
   transform="translate(102.14157)">
	</g><g
   id="g1502"
   transform="translate(118.85786)">
	</g><g
   id="g1508"
   transform="translate(135.57415)">
	</g><g
   id="g1514"
   transform="translate(154.13374)">
	</g><g
   id="flowRoot3351_1_">
	</g><g
   id="flowRoot3351">
	</g><g
   id="g5576"
   transform="matrix(-1,0,0,1,1920,-0.002)"
   inkscape:export-filename="Home\About2.png"
   inkscape:export-xdpi="100"
   inkscape:export-ydpi="100"><g
     id="g4740">
		<defs
   id="defs4734">
			<rect
   id="SVGID_1_"
   width="1920"
   height="1080"
   x="0"
   y="0" />
		</defs>
		<clipPath
   id="SVGID_00000165914749304161106440000000749846377286731707_">
			<use
   xlink:href="#SVGID_1_"
   style="overflow:visible"
   id="use4736" />
		</clipPath>
		<path
   id="path2884_2_"
   style="fill:#edf0f4"
   d="m 1758.609,1008.625 -147.647,-82.327 32.673,165.862 -114.98,-123.924 -20.18,167.84 -71.058,-153.39 -71.057,153.39 -20.18,-167.84 -114.98,123.924 32.673,-165.862 -147.647,82.327 82.328,-147.647 -181.862,29.673 139.924,-111.98 -167.84,-20.18 153.39,-71.057 -135.39,-71.058 149.84,-20.18 -123.924,-114.98 165.862,32.673 -82.328,-147.647 147.647,82.328 -32.673,-165.862 114.98,123.924 20.18,-167.84 71.057,153.389 71.058,-153.389 20.18,167.84 114.98,-123.924 -32.673,165.862 147.647,-82.328 -82.328,147.647 165.212,-98.688 -45.56,178.262 90.125,22.913 121.542,58.169 -121.542,83.947 211.992,104.931 -70.2,149.221 L 1930,1080 Z"
   clip-path="url(#SVGID_00000165914749304161106440000000749846377286731707_)" />
	</g><g
     id="g4894">
		<g
   id="g4546"
   transform="scale(2)">
			<g
   id="g3428">
				<g
   id="g3405">
					<path
   id="path2988"
   style="clip-rule:evenodd;fill:#505a79;fill-rule:evenodd"
   d="m 803.067,415.654 c -4.308,0.125 -8.626,1.749 -12.546,3.483 -14.332,6.344 -12.469,13.786 -16.002,26.944 -5.735,6.716 -7.817,6.331 -6.104,14.975 -4.626,6.343 -12.624,15.705 -19.728,25.978 -2.643,1.176 -5.333,2.264 -7.66,3.97 -7.451,5.461 -10.543,19.145 -10.103,27.721 0.186,3.633 1.492,9.538 5.109,11.496 10.539,7.809 37.86,-1.31 45.799,-14.137 2.103,-3.752 3.398,-11.871 5.93,-15.705 8.683,-13.152 12.884,-19.192 20.47,-32.727 2.603,-4.643 7.533,-15.501 8.671,-21.073 -9.184,-7.228 -17.023,-20.662 -13.836,-30.925 z" />
					<path
   id="path3174"
   style="clip-rule:evenodd;fill:#3f4867;fill-rule:evenodd"
   d="m 803.067,415.654 c -1.666,0.048 -3.332,0.325 -4.977,0.741 -4.718,5.232 -6.305,13.07 -6.738,19.914 -0.125,1.978 -0.456,5.853 -1.27,6.601 -1.399,1.287 -14.526,6.749 -21.897,11.039 -0.534,1.607 -0.46,3.624 0.23,7.108 -0.076,0.104 -0.17,0.225 -0.248,0.332 2.603,-1.202 8.946,-0.766 9.438,0.285 0.502,1.073 -1.335,4.171 -1.76,5.731 -0.261,0.957 -1.256,5.383 -2.53,4.457 -3.538,-1.724 -6.986,-2.927 -10.683,-3.296 -4.245,5.385 -9.252,11.68 -13.947,18.47 -2.643,1.176 -5.332,2.265 -7.66,3.971 -7.452,5.461 -10.543,19.145 -10.103,27.72 0.186,3.633 1.492,9.539 5.109,11.496 10.539,7.809 37.86,-1.311 45.799,-14.138 2.102,-3.752 3.399,-11.87 5.93,-15.704 8.683,-13.152 12.884,-19.191 20.47,-32.726 2.602,-4.643 7.533,-15.501 8.672,-21.074 -9.183,-7.23 -17.022,-20.664 -13.835,-30.927 z m -24.551,21.833 c -0.291,-0.004 -0.578,-0.004 -0.859,0.002 -0.434,0.009 -0.849,0.033 -1.234,0.073 -0.524,2.56 -1.057,5.367 -1.903,8.52 -0.142,0.166 -0.271,0.31 -0.408,0.468 0.967,-0.721 1.945,-1.428 2.927,-2.127 1.232,-0.877 2.533,-1.665 3.822,-2.454 0.988,-0.604 1.99,-1.186 2.967,-1.808 0.343,-0.218 1.903,-0.965 1.835,-1.566 -0.052,-0.453 -1.525,-0.605 -1.851,-0.654 -1.051,-0.157 -3.259,-0.423 -5.296,-0.454 z" />
				</g>
				<g
   id="g3401">
					<path
   id="path3001"
   style="clip-rule:evenodd;fill:#373f5e;fill-rule:evenodd"
   d="m 773.454,520.893 c 6.672,-13.247 3.759,-26.825 -2.299,-35.995 -3.297,-4.991 -9.29,-9.452 -11.523,-14.972 -3.484,-8.614 -3.648,-23.602 -7.89,-30.661 -2.267,-3.772 -7.541,-2.523 -9.456,-4.843 -2.541,-3.077 -1.742,-12.279 -4.932,-13.934 -4.456,-2.313 -13.523,-0.622 -20.259,2.251 -6.716,2.865 -13.709,6.427 -14.382,13.223 -0.862,5.325 3.467,8.057 4.706,11.589 -0.386,2.609 -3.58,4.552 -4.257,8.299 -0.882,7.033 9.588,22.013 16.799,53.477 3.734,12.91 13.989,22.192 22.554,23.729 12.339,3.072 24.286,-3.659 30.939,-12.163 z" />
					<path
   id="path3016"
   style="clip-rule:evenodd;fill:#879fc9;fill-rule:evenodd"
   d="m 738.658,429.48 c 0.438,-2.944 -3.012,-3.876 -3.553,-6.218 -0.627,-2.711 -1.134,-7.729 -3.328,-11.469 -1.058,-2.198 -5.866,-3.556 -17.374,2.013 -12.484,5.316 -15.227,9.759 -15.227,13.498 0,4.46 4.757,5.404 6.233,8.526 0.788,1.749 -0.227,4.639 1.65,5.756 6.869,3.219 26.814,-0.885 31.599,-12.106 z" />
					<path
   id="path3012"
   style="clip-rule:evenodd;fill:#f4d9c7;fill-rule:evenodd"
   d="m 723.157,397.257 c 0,0 12.465,38.257 16.956,46.017 4.491,7.761 14.575,18.098 14.158,25.503 -0.47,8.36 -5.89,14.294 -6.825,19.784 -2.92,10.18 -11.083,11.068 -17.042,6.69 -12.662,-9.303 -23.819,-17.569 -21.745,-39.483 1.111,-16.307 -2.333,-36.593 -3.852,-42.305 -0.636,-2.399 18.35,-16.206 18.35,-16.206 z" />
					<path
   id="path3101"
   style="clip-rule:evenodd;fill:#e694a8;fill-rule:evenodd"
   d="m 712.828,409.79 c -0.263,0.115 -0.51,0.229 -0.715,0.348 -1.773,1.024 -4.184,3.172 -7.28,3.423 0.068,0.259 0.14,0.551 0.213,0.858 1.032,-0.1 1.973,-0.604 2.837,-0.976 1.787,-0.772 2.885,-1.891 4.945,-3.653 z" />
					<path
   id="path3087"
   style="clip-rule:evenodd;fill:#e694a8;fill-rule:evenodd"
   d="m 724.889,402.488 c -0.25,0.483 -0.539,0.959 -0.864,1.434 -1.978,2.885 -6.344,4.153 -9.422,5.202 5.778,-0.769 9.39,-3.713 10.143,-4.706 0.183,-0.266 0.354,-0.536 0.515,-0.808 -0.218,-0.652 -0.278,-0.837 -0.372,-1.122 z" />
					<path
   id="path3031"
   style="clip-rule:evenodd;fill:#e694a8;fill-rule:evenodd"
   d="m 728.103,411.99 c -1.802,4.812 -12.039,8.632 -21.893,8.217 0.675,3.851 1.378,8.757 1.895,14.069 8.7,-0.434 16.306,-4.848 21.379,-11.88 0.509,-0.706 1.024,-1.39 1.507,-2.087 -0.497,-1.405 -0.97,-2.765 -1.45,-4.144 -0.376,-1.083 -0.738,-2.139 -1.1,-3.192 -0.112,-0.326 -0.228,-0.661 -0.338,-0.983 z" />
					<path
   id="path3026"
   style="clip-rule:evenodd;fill:#cadafa;fill-rule:evenodd"
   d="m 729.704,410.199 c 0.009,0.026 0.006,0.06 0.027,0.077 2.11,1.711 0.482,5.175 -4.054,9.029 -1.681,1.428 -12.542,8.208 -16.298,8.697 -2.509,0.327 -7.404,-0.494 -8.179,-2.805 -0.37,-1.105 -0.276,-2.91 2.286,-5.288 -3.353,2.733 -4.312,5.187 -4.312,7.396 0,4.46 4.757,5.404 6.234,8.526 0.788,1.749 -0.227,4.639 1.649,5.756 6.871,3.22 26.815,-0.884 31.6,-12.106 0.438,-2.944 -3.012,-3.876 -3.553,-6.218 -0.627,-2.711 -1.134,-7.73 -3.328,-11.47 -0.319,-0.666 -0.985,-1.251 -2.072,-1.594 z" />
					<path
   id="path3194"
   style="clip-rule:evenodd;fill:#b0c1ea;fill-rule:evenodd"
   d="m 732.987,414.386 c -0.003,0.037 -0.002,0.074 -0.008,0.112 -0.38,2.558 -6.325,7.988 -8.102,9.712 -1.909,1.852 -9.275,8.473 -11.926,8.922 -3.227,0.546 -6.593,-0.105 -9.789,-0.594 -0.339,-0.052 -0.774,-0.176 -1.237,-0.314 1.326,1.118 2.778,2.115 3.483,3.606 0.788,1.749 -0.227,4.639 1.649,5.756 6.871,3.22 26.815,-0.884 31.6,-12.106 0.438,-2.944 -3.012,-3.876 -3.553,-6.218 -0.489,-2.12 -0.91,-5.649 -2.117,-8.876 z m -1.251,8.334 c 0.794,-0.098 1.905,1.863 1.356,2.644 -0.712,1.014 -6.647,5.678 -7.486,5.286 -0.507,-0.237 0.788,-1.941 0.924,-2.131 1.432,-1.965 4.479,-5.661 5.206,-5.799 z m -25.387,5.215 c -1.614,0.155 -3.26,0.142 -4.859,0.207 -0.558,0.023 -0.974,0.298 -0.869,0.903 0.141,0.817 1.634,0.366 2.095,0.307 2.237,-0.29 4.366,-0.592 6.428,-1.326 -0.795,0.076 -1.782,0.049 -2.795,-0.091 z" />
					<path
   id="path3007"
   style="clip-rule:evenodd;fill:#505a79;fill-rule:evenodd"
   d="m 734.4,419.593 c 1.85,0.781 2.465,1.637 2.39,2.896 -0.24,3.295 -7.239,10.916 -14.026,13.281 -8.645,3.059 -20.853,5.198 -19.523,-2.162 -0.261,0.741 -0.446,1.521 -0.529,2.354 -0.862,5.325 3.467,8.058 4.706,11.59 -0.386,2.609 -3.581,4.551 -4.257,8.298 -0.882,7.033 9.588,22.014 16.799,53.477 3.733,12.91 13.989,22.192 22.553,23.728 12.34,3.073 24.286,-3.658 30.94,-12.161 6.671,-13.247 3.758,-26.825 -2.3,-35.995 -3.297,-4.991 -9.29,-9.452 -11.523,-14.972 -3.484,-8.614 -3.647,-23.603 -7.89,-30.662 -2.266,-3.772 -7.541,-2.524 -9.456,-4.843 -2.541,-3.077 -1.743,-12.279 -4.932,-13.934 -0.834,-0.435 -1.835,-0.725 -2.952,-0.895 z m -28.755,10.111 c -0.055,0.059 -0.104,0.122 -0.157,0.182 0.005,10e-4 0.01,0.002 0.015,0.003 0.048,-0.061 0.093,-0.125 0.142,-0.185 z" />
					<path
   id="path3189"
   style="clip-rule:evenodd;fill:#3f4867;fill-rule:evenodd"
   d="m 734.646,429.021 c -9.811,10.278 -30.491,14.828 -32.014,7.62 -0.406,4.883 3.602,7.531 4.787,10.909 -0.386,2.609 -3.581,4.551 -4.257,8.298 -0.882,7.033 9.588,22.014 16.799,53.477 3.733,12.91 13.989,22.192 22.553,23.728 12.34,3.073 24.286,-3.658 30.94,-12.161 1.062,-2.109 1.879,-4.225 2.482,-6.332 -1.958,1.459 -3.949,2.883 -5.967,4.289 -0.757,0.527 -4.697,3.519 -5.657,1.91 -0.54,-0.906 1.973,-4.701 2.347,-5.611 3.873,-9.429 5.219,-20.399 1.904,-30.233 -0.605,-1.795 -1.213,-3.615 -1.857,-5.429 -2.382,-2.603 -4.842,-5.224 -6.383,-8.112 0.364,1.067 0.865,2.181 0.912,3.165 0.406,8.484 -1.612,41.287 -7.162,44.158 -4.551,2.176 -9.166,-3.456 -9.892,-6.736 -1.04,-5.354 5.93,-20.147 5.441,-28.795 -0.36,-6.369 -16.279,-12.591 -19.749,-18.219 -2.965,-4.809 12.856,-17.583 14.087,-29.435 -0.672,-0.256 -1.255,-0.587 -1.673,-1.093 -0.468,-0.567 -0.822,-1.344 -1.109,-2.241 -3.936,6.94 -10.879,11.416 -17.738,14.034 -0.585,0.224 -4.066,1.255 -4.514,0.967 -1.502,-0.963 -2.081,-4.594 -1.827,-5.468 4.584,-1.62 12.547,-5.416 17.547,-12.69 z m 19.655,27.518 c -0.221,-0.021 -0.471,0.038 -0.756,0.193 -0.553,2.5 -1.37,4.924 -2.106,7.373 -0.494,1.645 -1.244,3.872 -0.634,5.595 0.59,1.667 6.135,3.423 7.108,1.607 0.71,-1.326 -1.532,-4.04 -1.801,-5.411 -0.287,-1.472 0.327,-9.158 -1.811,-9.357 z" />
					<path
   id="path3039"
   style="clip-rule:evenodd;fill:#f4d9c7;fill-rule:evenodd"
   d="m 685.316,390.249 c 0,0 6.283,9.605 7.543,11.03 1.261,1.425 3.29,9.464 8.244,11.63 4.954,2.165 8.578,-1.368 11.009,-2.771 2.431,-1.404 9.089,-2.054 11.718,-5.889 2.629,-3.835 3.077,-8.152 -0.205,-13.977 -3.282,-5.824 -9.213,-18.521 -11.231,-18.958 -2.018,-0.437 -8.41,0.31 -10.715,1.23 -2.305,0.919 -15.478,11.93 -16.363,17.705 z" />
					<path
   id="path3069_4_"
   style="clip-rule:evenodd;fill:#e694a8;fill-rule:evenodd"
   d="m 720.322,384.055 c -1.966,0.939 -4.131,1.715 -6.122,2.798 -2.394,1.302 -4.561,3.138 -5.556,6.24 -0.466,2.081 -1.361,6.886 1.991,10.107 -1.788,-2.299 -2.499,-5.659 -1.159,-9.841 1.679,-5.237 6.793,-6.385 11.252,-8.527 -0.135,-0.258 -0.268,-0.512 -0.406,-0.777 z" />
					<path
   id="path3041"
   style="clip-rule:evenodd;fill:#f4d9c7;fill-rule:evenodd"
   d="m 722.656,405.541 c 3.878,-4.186 4.221,-9.368 7.022,-14.116 1.452,-2.462 2.538,-5.909 2.985,-8.5 0.362,-2.099 -0.402,-4.063 -0.121,-6.199 0.067,-3.032 1.928,-5.81 0.815,-7.839 -0.583,-1.063 -3.381,-1.582 -5.243,0.626 -1.508,1.787 -3.406,6.471 -2.413,9.976 -1.31,1.604 -1.939,3.726 -3.792,4.742 -4.695,2.574 -10.605,3.422 -12.434,9.129 -3.339,10.418 6.013,15.784 13.181,12.181 z" />
					<path
   id="path3043"
   style="clip-rule:evenodd;fill:#f4d9c7;fill-rule:evenodd"
   d="m 713.982,373.327 c 0,0 -3.197,-8.738 -3.906,-10.999 -0.977,-3.113 -3.01,-8.581 -3.357,-9.82 -1.292,-4.611 -2.204,-7.586 -4.117,-7.873 -2.402,-0.36 -4.839,2.625 -3.326,8.359 0.447,1.692 1.231,5.235 2.473,9.268 0.564,1.831 2.289,9.912 4.808,14.555 1.597,2.945 7.957,-1.988 7.425,-3.49 z" />
					<path
   id="path3045_4_"
   style="clip-rule:evenodd;fill:#f4d9c7;fill-rule:evenodd"
   d="m 703.587,373.215 c 0,0 -4.051,-8.376 -4.983,-10.555 -1.282,-3.001 -3.85,-8.239 -4.318,-9.436 -1.745,-4.459 -2.949,-7.328 -4.881,-7.423 -2.425,-0.119 -4.553,3.094 -2.476,8.648 0.613,1.639 1.746,5.086 3.384,8.975 0.743,1.766 3.266,9.635 6.234,14.004 1.882,2.77 7.719,-2.772 7.04,-4.213 z" />
					<path
   id="path3047_4_"
   style="clip-rule:evenodd;fill:#f4d9c7;fill-rule:evenodd"
   d="m 698.201,381.767 c 0,0 -5.306,-7.643 -6.565,-9.65 -1.734,-2.764 -5.086,-7.539 -5.735,-8.649 -2.417,-4.133 -4.054,-6.78 -5.977,-6.573 -2.414,0.26 -4.016,3.765 -1.099,8.929 0.86,1.523 2.517,4.753 4.74,8.339 1.009,1.628 4.726,9.009 8.338,12.862 2.29,2.443 7.193,-3.94 6.298,-5.258 z" />
					<path
   id="path3049_4_"
   style="clip-rule:evenodd;fill:#f4d9c7;fill-rule:evenodd"
   d="m 697.321,392.334 c 0,0 -6.581,-5.243 -8.193,-6.655 -2.22,-1.944 -6.364,-5.21 -7.214,-6.003 -3.167,-2.952 -5.273,-4.82 -6.885,-4.142 -2.024,0.852 -2.501,4.305 1.366,8.02 1.141,1.096 3.414,3.463 6.272,5.993 1.297,1.149 6.433,6.577 10.563,8.977 2.618,1.522 5.208,-5.281 4.091,-6.19 z" />
				</g>
			</g>
			<g
   id="g4190">
				<path
   id="path1057_2_"
   style="clip-rule:evenodd;fill:#cadafa;fill-rule:evenodd"
   d="m 875.494,380.685 c -10.967,-0.142 -20.707,3.261 -38.253,9.648 -9.756,5.84 -17.588,15.31 -27.531,20.756 -2.873,1.574 -7.112,2.018 -9.339,4.663 -5.239,6.222 -6.503,17.087 -5.819,27.418 -9.873,19.999 -10.795,31.19 -14.03,45.941 -0.693,3.231 -0.684,6.818 -1.55,9.962 -0.496,1.801 -6.246,3.478 -7.533,5.36 -1.104,1.615 -1.662,6.804 -2.991,8.555 -4.03,3.332 -15.499,16.037 -15.499,27.011 h 139.689 c 1.597,-6.372 -1.157,-10.877 -0.516,-13.397 0.589,-2.318 3.488,-5.898 4.633,-10.23 2.415,-8.64 -3.94,-7.114 4.858,-36.641 6.913,-25.829 11.82,-37.427 8.348,-69.024 -1.737,-15.807 -11.977,-24.897 -20.487,-28.195 -5.209,-1.173 -9.688,-1.772 -13.98,-1.827 z" />
				<path
   id="path1091"
   style="clip-rule:evenodd;fill:#b0c1ea;fill-rule:evenodd"
   d="m 874.47,380.682 c -10.559,0.077 -20.231,3.464 -37.228,9.651 -1.65,0.988 -3.242,2.086 -4.802,3.244 -0.989,1.043 -1.893,2.156 -2.694,3.347 -2.752,4.09 -5.841,20.053 -6.365,26.239 -0.354,4.184 2.963,8.176 2.325,12.151 -1.604,9.988 -6.125,20.043 -8.862,29.787 -1.783,6.349 -2.466,16.239 -6.308,21.722 -3.602,5.141 -14.842,7.625 -25.374,9.291 6.441,-8.439 9.929,-19.139 14.699,-29.278 2.233,-4.748 8.608,-12.923 9.541,-17.159 0.813,-3.69 0.507,-7.807 0.728,-11.566 0.18,-3.062 -0.082,-9.258 1.724,-11.859 3.008,-4.33 6.936,-7.912 10.943,-11.297 2.054,-3.691 2.554,-7.526 3.139,-11.7 0.236,-1.682 0.628,-3.421 0.85,-5.159 -5.523,4.66 -10.89,9.604 -17.076,12.992 -2.873,1.574 -7.112,2.018 -9.339,4.663 -5.239,6.222 -6.503,17.087 -5.819,27.419 -9.873,19.999 -10.795,31.19 -14.03,45.94 -0.693,3.231 -0.684,6.818 -1.55,9.962 -0.496,1.801 -6.246,3.478 -7.533,5.36 -0.717,1.049 -1.206,3.596 -1.823,5.739 h -10e-4 c -0.23,0.798 -0.477,1.539 -0.761,2.126 -0.041,0.085 -0.083,0.168 -0.126,0.247 -0.023,0.042 -0.047,0.084 -0.071,0.124 -0.068,0.114 -0.137,0.224 -0.209,0.319 -0.089,0.073 -0.199,0.175 -0.295,0.257 -1.865,1.604 -5.003,4.867 -7.961,8.954 -0.237,0.327 -0.472,0.659 -0.705,0.996 -0.224,0.323 -0.445,0.65 -0.664,0.981 -0.015,0.023 -0.031,0.047 -0.047,0.071 -0.219,0.333 -0.436,0.669 -0.649,1.009 -0.003,0.007 -0.008,0.012 -0.012,0.018 -0.218,0.348 -0.433,0.699 -0.644,1.053 -0.003,0.005 -0.007,0.012 -0.01,0.017 -0.635,1.071 -1.232,2.171 -1.771,3.29 -0.031,0.065 -0.06,0.131 -0.091,0.196 -0.143,0.301 -0.282,0.602 -0.416,0.905 -0.041,0.094 -0.08,0.187 -0.121,0.281 -0.116,0.269 -0.23,0.537 -0.337,0.807 -0.049,0.121 -0.094,0.243 -0.141,0.364 -0.096,0.249 -0.19,0.497 -0.279,0.747 -0.047,0.13 -0.091,0.26 -0.135,0.391 -0.081,0.239 -0.158,0.478 -0.232,0.716 -0.043,0.14 -0.086,0.28 -0.127,0.42 -0.065,0.225 -0.127,0.449 -0.185,0.674 -0.04,0.154 -0.081,0.308 -0.118,0.463 -0.052,0.218 -0.099,0.436 -0.144,0.654 -0.031,0.151 -0.065,0.303 -0.093,0.454 -0.042,0.229 -0.077,0.457 -0.112,0.686 -0.021,0.139 -0.045,0.278 -0.063,0.417 -0.032,0.25 -0.054,0.499 -0.076,0.747 -0.012,0.125 -0.027,0.251 -0.035,0.377 -0.002,0.034 -0.003,0.069 -0.005,0.103 -0.019,0.323 -0.031,0.644 -0.031,0.964 h 8.937 130.752 c 1.598,-6.372 -1.157,-10.877 -0.516,-13.397 0.589,-2.318 3.487,-5.898 4.633,-10.23 2.415,-8.64 -3.94,-7.114 4.858,-36.641 6.914,-25.829 11.82,-37.427 8.348,-69.024 -1.737,-15.807 -11.977,-24.897 -20.487,-28.195 -5.208,-1.174 -9.687,-1.773 -13.979,-1.828 -0.342,-0.004 -0.684,-0.004 -1.025,-0.002 z m -60.234,44.04 c -0.045,-0.005 -0.083,0.001 -0.112,0.017 -0.857,1.168 -0.495,6.278 0.363,7.447 0.954,1.3 3.997,2.46 5.519,2.809 0.668,0.153 3.203,1.013 3.834,0.44 0.572,-0.838 -8.201,-10.575 -9.604,-10.713 z m -43.816,89.033 c 9.291,1.981 22.648,3.596 26.148,4.24 0.935,0.172 2.088,0.758 3.163,1.585 -0.71,0.131 -1.271,0.235 -1.466,0.263 -5.4,0.778 -10.841,1.62 -16.289,1.974 -3.474,0.213 -14.052,1.273 -15.041,0.035 -0.584,-1.21 1.852,-5.001 3.485,-8.097 z m 31.409,7.944 c 1.282,1.751 1.818,3.828 0.398,5.573 -1.716,2.109 -12.811,2.129 -15.303,2.129 -5.87,0 -14.773,1.968 -21.074,-0.089 6.533,-1.246 19.506,-3.623 29.898,-5.921 1.789,-0.327 3.498,-0.982 5.26,-1.42 0.046,-0.011 0.592,-0.197 0.821,-0.272 z" />
				<path
   id="path1068"
   style="clip-rule:evenodd;fill:#505a79;fill-rule:evenodd"
   d="m 874.47,380.682 c -3.756,0.027 -7.399,0.474 -11.3,1.316 -31.366,26.918 -36.504,73.341 -43.332,111.858 -1.117,6.303 -6.583,10.118 -7.852,15.993 -0.996,4.613 3.765,8.567 3.869,13.102 0.125,5.443 -1.554,11.37 -2.202,17.049 h 59.88 19.105 21.905 c 0,-8.733 -4.741,-10.13 -5.995,-15.065 -0.756,-2.975 0.015,-7.614 -1.363,-10.532 -2.125,-4.504 -4.04,-5.725 -5.06,-10.783 -0.598,-10.551 1.273,-24.186 5.02,-44.33 3.574,-14.208 5.239,-26.527 2.815,-48.582 -1.737,-15.807 -11.977,-24.897 -20.487,-28.195 -5.208,-1.174 -9.687,-1.773 -13.979,-1.828 -0.342,-0.005 -0.684,-0.005 -1.024,-0.003 z m -42.15,12.982 c -7.613,5.678 -14.391,12.924 -22.609,17.426 -2.873,1.574 -7.112,2.018 -9.339,4.663 -5.239,6.222 -6.503,17.087 -5.819,27.419 -9.873,19.999 -10.795,31.19 -14.03,45.94 -0.693,3.231 -0.684,6.818 -1.55,9.962 -0.496,1.801 -6.246,3.478 -7.533,5.36 -0.58,0.849 -1.011,2.683 -1.481,4.488 3.688,-6.864 8.096,1.212 19.25,-19.065 5.488,-10.611 7.975,-19.761 13.386,-35.398 1.816,-5.248 3.12,-16.766 4.76,-22.228 5.7,-17.179 16.165,-26.922 24.965,-38.567 z" />
				<path
   id="path3361"
   style="clip-rule:evenodd;fill:#3f4867;fill-rule:evenodd"
   d="m 874.47,380.682 v 0 c -3.756,0.028 -7.4,0.475 -11.301,1.317 -11.005,9.444 -18.778,21.291 -24.531,34.353 6.721,-1.83 11.64,-6.29 16.253,-11.189 0.003,0.389 0.01,0.795 0.008,1.078 -0.084,14.969 3.297,30.067 10.931,42.521 -0.071,0.01 -0.142,0.02 -0.214,0.031 -0.231,0.035 -0.46,0.075 -0.688,0.119 -0.1,0.019 -0.201,0.038 -0.301,0.059 -0.321,0.068 -0.642,0.142 -0.956,0.23 -0.313,0.087 -0.621,0.187 -0.927,0.294 -0.092,0.032 -0.183,0.067 -0.273,0.101 -0.227,0.084 -0.45,0.175 -0.672,0.271 -0.112,0.049 -0.225,0.096 -0.336,0.148 -0.051,0.023 -0.101,0.047 -0.151,0.071 -0.22,0.106 -0.439,0.215 -0.654,0.333 -0.535,0.294 -1.065,0.64 -1.588,1.029 -0.523,0.389 -1.041,0.822 -1.554,1.289 -1.707,1.557 -3.353,3.499 -4.94,5.503 -0.635,0.802 -1.259,1.613 -1.875,2.414 -0.616,0.801 -1.223,1.591 -1.82,2.35 -1.195,1.518 -2.354,2.911 -3.478,4.014 -5.263,2.789 -11.107,5.608 -17.157,8.069 -1.833,0.745 -3.686,1.455 -5.546,2.124 -0.971,5.652 -1.903,11.232 -2.863,16.648 -1.117,6.303 -6.584,10.117 -7.852,15.992 -0.996,4.613 3.766,8.567 3.87,13.103 0.077,3.35 -0.532,6.884 -1.161,10.43 1.416,-0.675 2.875,-1.486 4.292,-2.335 1.658,-0.992 3.259,-2.029 4.661,-2.935 1.402,-0.905 2.607,-1.68 3.475,-2.147 3.484,-1.876 14.332,-5.605 19.694,-6.925 0.357,-0.088 0.691,-0.165 0.996,-0.231 5.766,-0.932 11.747,-2.046 17.709,-3.405 -2.469,1.864 -4.945,3.727 -7.419,5.57 -3.985,2.968 -7.824,6.114 -11.766,9.144 -4.228,3.251 -8.378,6.63 -12.61,9.881 h 15.043 7.079 17.684 19.106 21.905 c 0,-8.732 -4.741,-10.129 -5.995,-15.065 -0.756,-2.975 0.015,-7.615 -1.363,-10.533 -2.126,-4.504 -4.04,-5.725 -5.059,-10.783 -0.027,-0.476 -0.045,-0.965 -0.062,-1.454 h 0.001 c -0.021,-0.611 -0.033,-1.233 -0.039,-1.864 0,-0.052 -0.002,-0.104 -0.003,-0.156 -0.005,-0.602 0,-1.217 0.01,-1.84 10e-4,-0.075 10e-4,-0.148 0.003,-0.223 0.01,-0.561 0.027,-1.134 0.048,-1.712 0.007,-0.168 0.012,-0.333 0.018,-0.503 0.02,-0.488 0.046,-0.987 0.073,-1.488 0.015,-0.271 0.029,-0.539 0.046,-0.814 0.027,-0.433 0.059,-0.877 0.091,-1.32 0.025,-0.341 0.049,-0.68 0.077,-1.027 0.031,-0.385 0.067,-0.779 0.102,-1.171 0.04,-0.443 0.079,-0.885 0.123,-1.338 0.026,-0.268 0.055,-0.544 0.083,-0.815 0.061,-0.594 0.124,-1.189 0.193,-1.8 0.502,-4.433 1.218,-9.333 2.125,-14.779 0.055,-0.333 0.107,-0.656 0.164,-0.993 0.145,-0.859 0.298,-1.744 0.452,-2.631 0.049,-0.285 0.096,-0.559 0.146,-0.847 0.423,-2.413 0.88,-4.928 1.368,-7.556 0.258,-1.025 0.502,-2.039 0.739,-3.049 0.066,-0.279 0.128,-0.558 0.192,-0.837 0.177,-0.772 0.348,-1.542 0.512,-2.311 0.086,-0.402 0.171,-0.805 0.253,-1.207 0.05,-0.242 0.1,-0.485 0.148,-0.728 0.133,-0.674 0.261,-1.348 0.383,-2.025 0.053,-0.297 0.104,-0.596 0.156,-0.893 0.08,-0.466 0.157,-0.933 0.232,-1.402 0.048,-0.301 0.097,-0.601 0.143,-0.903 0.01,-0.069 0.02,-0.14 0.03,-0.209 0.083,-0.559 0.162,-1.12 0.237,-1.685 0.053,-0.398 0.103,-0.8 0.151,-1.202 0.044,-0.368 0.086,-0.739 0.127,-1.111 0.073,-0.664 0.14,-1.335 0.202,-2.012 0.03,-0.336 0.061,-0.674 0.088,-1.014 0.037,-0.467 0.073,-0.938 0.105,-1.413 0.018,-0.273 0.033,-0.551 0.05,-0.827 0.049,-0.815 0.09,-1.643 0.122,-2.484 0.012,-0.33 0.023,-0.662 0.033,-0.997 0.015,-0.492 0.028,-0.985 0.036,-1.486 0,-0.003 0,-0.005 0,-0.008 0.097,-6.011 -0.238,-12.743 -1.121,-20.776 -1.737,-15.807 -11.977,-24.898 -20.487,-28.195 -1.747,-0.394 -3.404,-0.714 -5.006,-0.978 10e-4,-10e-4 0.002,-0.002 0.003,-0.003 -0.077,-0.013 -0.15,-0.022 -0.226,-0.034 -0.576,-0.093 -1.144,-0.177 -1.705,-0.254 -0.193,-0.027 -0.388,-0.056 -0.579,-0.08 -0.074,-0.01 -0.151,-0.022 -0.226,-0.032 -0.003,0.002 -0.005,0.003 -0.008,0.005 -2.154,-0.27 -4.216,-0.426 -6.23,-0.452 -0.343,-0.005 -0.684,-0.005 -1.025,-0.003 z m 0.656,2.137 c -1.059,11.091 -1.479,29.824 3.36,40.133 -2.232,-2.134 -3.982,-4.744 -5.614,-7.384 -2.258,-2.846 -5.023,-14.096 -6.293,-13.472 -1.282,0.671 1.14,20.879 2.567,26.141 0.297,1.081 -1.099,2.971 -2.106,3.313 -6.051,-8.863 -7.232,-21.285 -7.741,-30.293 -0.015,-0.276 -0.026,-0.557 -0.039,-0.836 4.414,-8.703 10.171,-14.894 15.866,-17.602 z m -85.754,106.714 c -0.582,0.572 -1.123,1.16 -1.601,1.762 -0.065,0.093 -0.143,0.181 -0.231,0.269 -0.025,0.025 -0.056,0.05 -0.083,0.075 -0.068,0.062 -0.138,0.124 -0.216,0.184 -0.038,0.029 -0.079,0.058 -0.12,0.086 -0.073,0.052 -0.148,0.103 -0.229,0.153 -0.054,0.034 -0.111,0.066 -0.169,0.099 -0.08,0.047 -0.163,0.093 -0.25,0.138 -0.057,0.03 -0.115,0.059 -0.175,0.089 -0.096,0.047 -0.196,0.093 -0.298,0.139 -0.064,0.029 -0.128,0.058 -0.195,0.086 -0.049,0.021 -0.101,0.041 -0.151,0.062 -0.197,0.081 -0.413,0.159 -0.627,0.238 -0.232,0.085 -0.472,0.17 -0.724,0.253 -0.167,0.055 -0.333,0.111 -0.508,0.166 -0.275,0.087 -0.559,0.173 -0.85,0.259 -0.169,0.05 -0.334,0.101 -0.508,0.151 -0.426,0.124 -0.859,0.246 -1.308,0.373 -0.453,0.127 -0.901,0.254 -1.362,0.386 -0.182,1.565 -0.393,3.116 -0.794,4.571 -0.496,1.801 -6.246,3.478 -7.533,5.36 -0.58,0.849 -1.011,2.682 -1.481,4.488 3.688,-6.864 8.096,1.212 19.25,-19.065 0.056,-0.107 0.108,-0.213 0.163,-0.322 z m 94.27,20.812 c -5.332,6.718 -10.789,13.38 -16.939,19.238 -1.523,1.451 -4.259,3.127 -7.483,4.903 2.146,-3.283 4.561,-6.48 6.592,-9.807 0.798,-1.306 5.458,-7.847 7.344,-11.164 3.556,-0.953 7.069,-2.003 10.486,-3.17 z m 20.215,3.255 c 2.607,-0.141 1.484,5.346 0.619,7.168 -1.596,3.363 -13.123,9.329 -16.738,11.049 -0.608,0.29 -1.774,1.319 -2.496,0.95 -1.375,-0.703 2.332,-4.163 2.646,-4.474 0.854,-0.845 1.801,-1.587 2.641,-2.448 1.238,-1.271 2.493,-2.492 3.797,-3.695 2.827,-2.61 5.373,-5.481 8.175,-8.119 0.535,-0.276 0.984,-0.411 1.356,-0.431 z" />
				<path
   id="path3433"
   style="clip-rule:evenodd;fill:#3f4867;fill-rule:evenodd"
   d="m 877.157,380.734 c -0.521,0.42 -2.71,0.691 -4.046,4.139 -3.509,11.953 -2.539,21.389 3.132,34.83 -1.37,5.786 -2.485,11.774 -4.683,17.323 -1.555,0.665 -4.382,2.052 -6.832,4.294 -0.2,-0.065 -0.399,-0.131 -0.599,-0.192 -0.048,-0.015 -0.096,-0.026 -0.143,-0.04 -0.291,-0.086 -0.581,-0.167 -0.873,-0.243 -0.116,-0.03 -0.232,-0.057 -0.349,-0.085 -0.236,-0.058 -0.473,-0.112 -0.709,-0.163 -0.117,-0.025 -0.235,-0.048 -0.352,-0.071 -0.237,-0.046 -0.474,-0.088 -0.711,-0.126 -0.115,-0.019 -0.229,-0.039 -0.344,-0.056 -0.34,-0.049 -0.68,-0.092 -1.019,-0.124 -0.33,-0.031 -0.658,-0.05 -0.985,-0.063 -0.111,-0.005 -0.22,-0.005 -0.33,-0.008 -0.233,-0.005 -0.466,-0.005 -0.698,-10e-4 -0.102,0.002 -0.205,0.003 -0.307,0.006 -0.328,0.013 -0.657,0.032 -0.982,0.064 -0.324,0.033 -0.644,0.078 -0.964,0.132 -0.096,0.017 -0.191,0.035 -0.286,0.053 -0.238,0.044 -0.474,0.096 -0.708,0.153 -0.119,0.029 -0.237,0.056 -0.356,0.088 -0.054,0.013 -0.108,0.029 -0.162,0.044 -0.235,0.067 -0.469,0.137 -0.701,0.217 -0.577,0.198 -1.158,0.449 -1.74,0.743 -0.582,0.294 -1.166,0.632 -1.75,1.005 -1.948,1.244 -3.9,2.878 -5.805,4.582 -0.762,0.682 -1.515,1.375 -2.259,2.059 -0.743,0.685 -1.476,1.36 -2.194,2.006 -1.436,1.293 -2.815,2.468 -4.111,3.364 -2.846,0.932 -5.839,1.845 -8.922,2.701 -2.542,12.38 -4.462,24.799 -6.534,36.488 -1.023,5.772 -5.691,9.458 -7.445,14.55 4.958,-0.989 11.592,-1.963 15.434,-2.233 0.367,-0.026 0.709,-0.045 1.02,-0.057 22.9,0.247 49.537,-1.655 66.64,-12.115 0.025,0.035 0.047,0.07 0.072,0.104 2.657,-1.944 5.098,-4.648 7.318,-7.909 0.846,-7.5 2.293,-16.293 4.267,-26.906 3.574,-14.208 5.239,-26.526 2.815,-48.581 -1.737,-15.807 -11.977,-24.898 -20.487,-28.195 -4.536,-1.021 -8.521,-1.607 -12.312,-1.777 z m -77.219,81.543 c -2.484,0.179 -4.93,0.254 -7.309,0.203 -0.787,-0.017 -1.581,0.008 -2.378,0.064 -1.257,0.09 -2.52,0.272 -3.764,0.528 -2.856,9.247 -3.977,16.974 -5.964,26.039 -0.693,3.231 -0.685,6.818 -1.55,9.962 -0.496,1.801 -6.246,3.478 -7.533,5.36 -0.58,0.849 -1.011,2.682 -1.481,4.488 3.688,-6.864 8.096,1.212 19.25,-19.065 4.498,-8.695 7.001,-16.469 10.729,-27.579 z" />
				<path
   id="path3345"
   style="clip-rule:evenodd;fill:#3f4867;fill-rule:evenodd"
   d="m 832.321,393.664 c -7.613,5.678 -14.391,12.923 -22.61,17.425 -0.552,0.302 -1.163,0.557 -1.792,0.8 1.533,-0.003 3.005,0.057 3.545,1.125 0.57,1.126 -3.493,7.308 -3.952,8.556 -1.8,4.904 -2.67,9.808 -3.249,14.75 -4.475,12.447 -9.523,24.692 -14.082,37.115 -0.24,0.654 -0.494,1.3 -0.754,1.943 -1.152,2.051 -2.279,4.112 -3.309,6.204 -0.794,1.614 -1.685,3.181 -2.552,4.756 -0.621,1.129 -1.017,1.969 -1.025,1.934 -0.555,-2.521 0.671,-6.608 0.86,-9.157 0.115,-1.542 0.118,-3.088 0.137,-4.634 -1.04,4.792 -1.89,9.497 -3.016,14.63 -0.693,3.231 -0.685,6.818 -1.55,9.962 -0.184,0.667 -1.089,1.318 -2.221,1.967 0.111,0.019 0.219,0.039 0.341,0.05 3.203,-2.675 6.129,-5.687 8.814,-8.933 -1.344,2.876 -2.69,5.745 -4.168,8.553 2.102,-2.199 4.554,-5.551 7.471,-10.853 5.488,-10.611 7.975,-19.762 13.386,-35.399 1.816,-5.248 3.12,-16.766 4.76,-22.228 5.7,-17.178 16.166,-26.921 24.966,-38.566 z m -28.638,48.423 c -0.355,3.951 -0.689,7.932 -1.302,11.965 -2.47,3.345 -4.766,6.877 -6.85,10.465 2.798,-7.458 5.547,-14.915 8.152,-22.43 z" />
				<g
   id="g988"
   transform="matrix(0.86074228,0,0,0.86074228,40.136064,36.845286)">
					<path
   id="path4600"
   style="clip-rule:evenodd;fill:#505a79;fill-rule:evenodd"
   d="m 927.146,389.425 c 1.068,3.864 -0.015,6.802 -2.445,9.682 10.822,-3.597 16.664,-11.374 16.044,-21.239 2.643,3.913 2.908,9.598 0.219,12.525 5.865,-1.936 11.952,-7.428 9.901,-16.55 3.245,8.597 11.449,7.287 17.015,3.595 -4.273,-0.286 -6.558,-3.421 -7.68,-7.328 5.239,8.096 18.85,5.685 22.659,-1.989 -2.221,0.91 -3.909,1.161 -6.357,-1.717 8.721,3.787 17.435,-7.311 10.133,-15.899 -0.745,5.211 -7.628,7.183 -10.08,2.039 8.894,-0.273 10.127,-12.934 2.753,-20.182 6.404,1.79 7.694,10.595 6.336,15.867 5.998,-20.589 -13.266,-20.471 -22.588,-25.42 -7.869,-4.656 -9.596,-13.276 -13.889,-20.595 -5.901,-10.061 -17.455,-17.295 -29.435,-16.79 -8.154,0.343 -17.635,2.608 -23.243,8.893 -15.858,-0.687 -31.664,8.667 -35.556,24.767 -1.781,7.366 0.65,14.731 -0.933,22.037 -1.616,7.455 -6.749,11.3 -4.935,19.525 0.58,2.63 1.89,5.284 3.845,7.155 -4.324,-6.331 -2.773,-14.65 2.395,-19.761 -5.131,12.163 -0.5,21.472 8.967,25.807 0.355,7.514 -11.672,14.2 -16.79,7.828 1.573,7.722 10.555,10.44 16.484,6.049 0.644,7.251 8.803,16.712 16.806,14.568 -6.329,-1.184 -9.564,-9.577 -10.207,-15.295 1.428,6.293 8.612,11.906 15.173,9.648 1.648,4.602 -0.719,9.667 -4.903,11.402 6.195,2.799 15.96,-1.124 17.619,-7.307 1.491,2.487 1.915,5.581 0.524,7.939 12.802,-3.432 21.823,-10.816 22.168,-19.254 z" />
					<path
   id="path4654"
   style="clip-rule:evenodd;fill:#373f5e;fill-rule:evenodd"
   d="m 922.728,303.595 c -7.863,8.77 -21.569,6.392 -31.85,9.857 -13.316,4.488 -21.539,12.921 -20.878,27.004 0.089,1.899 -0.205,4.457 0.506,6.156 -1.465,8.275 -1.772,22.227 7.536,25.94 -7.656,0.658 -13.88,-5.017 -15.904,-12.118 0.679,4.98 2.255,8.11 4.239,11.144 0.003,0.002 0.005,0.003 0.008,0.005 0.278,0.202 0.563,0.398 0.854,0.589 0.037,0.024 0.074,0.048 0.111,0.072 0.254,0.165 0.513,0.323 0.776,0.479 0.065,0.038 0.129,0.076 0.194,0.114 0.242,0.14 0.49,0.275 0.74,0.408 0.078,0.041 0.155,0.084 0.234,0.125 0.319,0.164 0.643,0.323 0.974,0.474 1.419,0.484 3.091,1.16 3.957,1.07 -1.211,11.189 -17.31,15.497 -20.717,6.885 0.288,1.335 0.8,2.516 1.478,3.536 0.007,0.008 0.011,0.017 0.017,0.026 0.101,0.15 0.207,0.296 0.314,0.439 0.018,0.024 0.036,0.05 0.054,0.074 0.104,0.135 0.211,0.266 0.321,0.394 0.023,0.027 0.046,0.055 0.069,0.082 0.109,0.125 0.221,0.245 0.335,0.364 0.029,0.03 0.059,0.06 0.088,0.09 0.109,0.11 0.221,0.217 0.335,0.322 0.037,0.034 0.074,0.067 0.111,0.099 0.118,0.104 0.237,0.207 0.359,0.305 0.031,0.026 0.064,0.051 0.095,0.076 0.125,0.098 0.252,0.194 0.381,0.286 0.035,0.024 0.07,0.048 0.104,0.072 0.131,0.091 0.263,0.179 0.398,0.263 0.034,0.021 0.069,0.042 0.104,0.063 0.138,0.084 0.277,0.165 0.419,0.243 0.027,0.015 0.054,0.028 0.081,0.042 0.15,0.08 0.3,0.157 0.453,0.229 0.021,0.01 0.043,0.019 0.064,0.029 0.161,0.075 0.324,0.147 0.489,0.213 0.729,0.294 1.492,0.506 2.272,0.633 0.186,0.03 0.373,0.055 0.561,0.076 0.01,10e-4 0.021,0.002 0.032,0.003 0.16,0.017 0.32,0.029 0.481,0.039 0.047,0.003 0.094,0.007 0.141,0.008 0.138,0.007 0.277,0.008 0.416,0.01 0.071,10e-4 0.142,10e-4 0.213,10e-4 0.13,-10e-4 0.26,-0.007 0.39,-0.013 0.071,-0.003 0.143,-0.007 0.214,-0.01 0.136,-0.008 0.272,-0.022 0.408,-0.036 0.068,-0.007 0.135,-0.013 0.202,-0.022 0.141,-0.017 0.281,-0.038 0.422,-0.061 0.057,-0.01 0.115,-0.019 0.172,-0.029 0.143,-0.026 0.286,-0.054 0.428,-0.086 0.063,-0.015 0.126,-0.029 0.189,-0.045 0.141,-0.034 0.281,-0.07 0.421,-0.11 0.054,-0.015 0.108,-0.033 0.162,-0.05 0.144,-0.044 0.289,-0.089 0.432,-0.139 0.056,-0.02 0.11,-0.041 0.166,-0.062 0.141,-0.052 0.281,-0.104 0.42,-0.163 0.053,-0.022 0.104,-0.047 0.156,-0.069 0.142,-0.062 0.284,-0.125 0.423,-0.193 0.046,-0.022 0.09,-0.047 0.135,-0.07 0.147,-0.074 0.292,-0.149 0.436,-0.231 10e-4,0 10e-4,-0.001 10e-4,-0.001 10e-4,-10e-4 0.002,-10e-4 0.002,-10e-4 1.063,-0.653 1.765,-1.262 2.404,-2.123 1.011,-1.361 1.68,-2.263 2.401,-3.445 0.082,5.774 0.695,11.314 4.695,15.979 1.409,1.643 3.243,2.735 5.228,3.567 0.121,0.051 0.387,0.116 0.69,0.189 h 0.001 c 10e-4,0 0.002,0 0.003,0 0.18,0.001 0.359,-0.003 0.54,-0.01 0.049,-0.002 0.097,-0.005 0.146,-0.008 0.153,-0.008 0.307,-0.022 0.46,-0.038 0.103,-0.012 0.206,-0.027 0.308,-0.042 0.114,-0.017 0.228,-0.032 0.341,-0.053 0.224,-0.042 0.449,-0.09 0.673,-0.15 -0.593,-0.111 -1.159,-0.286 -1.698,-0.515 h -10e-4 c -0.719,-0.306 -1.39,-0.711 -2.015,-1.194 -0.156,-0.121 -0.31,-0.246 -0.46,-0.376 -1.053,-0.912 -1.964,-2.052 -2.738,-3.314 -0.111,-0.18 -0.218,-0.363 -0.323,-0.548 -1.05,-1.851 -1.822,-3.923 -2.332,-5.914 -0.306,-1.195 -0.518,-2.361 -0.639,-3.433 0.044,0.197 0.095,0.393 0.15,0.588 0.056,0.195 0.117,0.389 0.183,0.582 0.007,0.019 0.015,0.037 0.021,0.055 0.196,0.561 0.434,1.112 0.713,1.648 0.384,0.738 0.842,1.448 1.362,2.116 0.13,0.167 0.264,0.331 0.401,0.492 0.688,0.807 1.468,1.543 2.315,2.18 0.169,0.127 0.341,0.25 0.516,0.37 v 10e-4 c 0.174,0.119 0.352,0.233 0.531,0.344 0.177,0.11 0.358,0.215 0.54,0.316 10e-4,10e-4 0.003,10e-4 0.005,0.003 0.368,0.204 0.744,0.388 1.128,0.553 0.192,0.082 0.385,0.159 0.58,0.232 0.195,0.072 0.391,0.139 0.589,0.2 0.198,0.061 0.396,0.117 0.597,0.166 0.201,0.05 0.402,0.095 0.604,0.133 0.202,0.038 0.405,0.071 0.609,0.097 h 10e-4 c 0.204,0.026 0.408,0.046 0.613,0.06 0.205,0.013 0.412,0.021 0.618,0.022 0.412,0.001 0.826,-0.023 1.24,-0.076 0.207,-0.026 0.414,-0.06 0.62,-0.1 0.207,-0.041 0.413,-0.089 0.62,-0.144 0.206,-0.056 0.412,-0.118 0.617,-0.189 0.051,0.144 0.099,0.288 0.143,0.432 0.481,1.591 0.495,3.222 0.133,4.74 -0.131,0.552 -0.313,1.089 -0.54,1.604 -0.227,0.515 -0.5,1.006 -0.814,1.469 l -10e-4,10e-4 c -0.033,0.049 -0.072,0.094 -0.106,0.142 -0.127,0.18 -0.256,0.358 -0.395,0.528 -0.531,0.646 -1.15,1.216 -1.843,1.686 -0.347,0.235 -0.712,0.446 -1.094,0.628 -0.127,0.06 -0.256,0.118 -0.386,0.172 0.194,0.088 0.39,0.169 0.59,0.244 h 10e-4 c 0.4,0.149 0.813,0.272 1.235,0.371 0.211,0.049 0.425,0.092 0.64,0.129 h 10e-4 c 0.431,0.074 0.871,0.125 1.316,0.152 0.445,0.027 0.896,0.032 1.349,0.015 1.36,-0.053 2.742,-0.303 4.07,-0.721 0.664,-0.209 1.315,-0.46 1.942,-0.749 0.418,-0.193 0.826,-0.403 1.221,-0.628 0.79,-0.451 1.527,-0.966 2.189,-1.536 0.165,-0.142 0.326,-0.289 0.481,-0.438 0.311,-0.298 0.602,-0.61 0.871,-0.933 0.268,-0.324 0.513,-0.659 0.732,-1.006 0.11,-0.173 0.212,-0.35 0.308,-0.528 0.192,-0.358 0.357,-0.725 0.492,-1.103 0.067,-0.189 0.127,-0.38 0.179,-0.573 0.093,0.156 0.182,0.313 0.267,0.473 v 0.001 c 0.254,0.48 0.468,0.977 0.639,1.484 v 10e-4 c 0.171,0.507 0.297,1.024 0.375,1.541 v 10e-4 c 0.026,0.172 0.047,0.344 0.062,0.516 v 10e-4 c 0.015,0.172 0.024,0.344 0.027,0.515 v 0.001 c 10e-4,0.049 -0.003,0.097 -0.003,0.145 0,0.123 0.001,0.246 -0.005,0.368 -0.017,0.34 -0.057,0.676 -0.123,1.006 l -10e-4,10e-4 c -0.033,0.165 -0.072,0.328 -0.118,0.489 l -10e-4,0.001 c -0.046,0.161 -0.098,0.321 -0.157,0.478 -0.119,0.315 -0.264,0.621 -0.438,0.916 1.601,-0.429 3.142,-0.919 4.615,-1.466 0.736,-0.273 1.455,-0.561 2.156,-0.862 0.048,-0.02 0.094,-0.042 0.141,-0.063 0.651,-0.282 1.288,-0.574 1.906,-0.878 0.663,-0.326 1.306,-0.666 1.928,-1.017 0.623,-0.351 1.225,-0.714 1.805,-1.089 0.58,-0.374 1.138,-0.76 1.673,-1.156 0.535,-0.396 1.046,-0.802 1.533,-1.218 0.487,-0.416 0.951,-0.842 1.388,-1.277 0.438,-0.435 0.849,-0.88 1.234,-1.332 0.385,-0.453 0.744,-0.913 1.074,-1.382 0.331,-0.468 0.633,-0.945 0.907,-1.428 0.137,-0.241 0.266,-0.485 0.389,-0.73 0.244,-0.489 0.459,-0.986 0.642,-1.488 v -10e-4 c 0.092,-0.251 0.176,-0.503 0.252,-0.757 0.152,-0.508 0.273,-1.022 0.361,-1.54 0.088,-0.519 0.144,-1.042 0.165,-1.569 0.133,0.483 0.233,0.951 0.301,1.407 0.068,0.456 0.104,0.898 0.109,1.33 0.003,0.216 -0.002,0.429 -0.015,0.64 -0.025,0.421 -0.079,0.832 -0.161,1.235 -0.124,0.604 -0.311,1.188 -0.556,1.758 v 0.001 c -0.081,0.19 -0.17,0.378 -0.265,0.566 v 0.001 c -0.283,0.562 -0.622,1.113 -1.012,1.658 -0.26,0.364 -0.543,0.725 -0.847,1.085 2.367,-0.787 4.496,-1.774 6.371,-2.939 1.071,-0.665 2.06,-1.389 2.963,-2.167 0.903,-0.778 1.72,-1.61 2.448,-2.492 0.547,-0.662 1.043,-1.351 1.489,-2.067 0.148,-0.239 0.291,-0.48 0.428,-0.725 0.822,-1.467 1.439,-3.037 1.84,-4.696 v -10e-4 c 0.2,-0.83 0.347,-1.682 0.438,-2.554 v -10e-4 c 0.031,-0.291 0.055,-0.584 0.073,-0.879 v -10e-4 c 0.018,-0.295 0.031,-0.592 0.036,-0.892 v -0.001 c 0.011,-0.6 -0.002,-1.208 -0.041,-1.825 0.33,0.489 0.624,1.006 0.879,1.542 0.255,0.536 0.471,1.09 0.649,1.655 1.063,3.387 0.708,7.134 -1.309,9.329 2.933,-0.968 5.921,-2.825 7.92,-5.581 0.25,-0.344 0.484,-0.703 0.701,-1.075 0.108,-0.186 0.212,-0.376 0.311,-0.569 v -10e-4 c 0.199,-0.386 0.38,-0.787 0.539,-1.201 v -10e-4 c 0.159,-0.414 0.299,-0.843 0.416,-1.286 v -0.001 c 0.058,-0.221 0.111,-0.446 0.158,-0.674 v -0.001 c 0.094,-0.456 0.163,-0.927 0.207,-1.412 l 10e-4,-10e-4 c 0.11,-1.213 0.06,-2.513 -0.182,-3.903 v -10e-4 c -0.048,-0.278 -0.104,-0.559 -0.168,-0.844 0.406,1.075 0.889,1.995 1.435,2.774 v 10e-4 c 0.136,0.195 0.277,0.38 0.42,0.558 v 10e-4 c 0.432,0.533 0.897,0.989 1.389,1.374 v 10e-4 c 0.164,0.129 0.332,0.249 0.501,0.362 v 10e-4 c 0.169,0.113 0.342,0.218 0.517,0.316 0.35,0.196 0.711,0.364 1.079,0.503 0.184,0.07 0.37,0.132 0.558,0.188 0.376,0.112 0.76,0.197 1.149,0.257 1.167,0.18 2.383,0.137 3.599,-0.082 h 10e-4 c 0.202,-0.036 0.404,-0.077 0.606,-0.123 0.203,-0.046 0.405,-0.096 0.607,-0.151 1.813,-0.494 3.588,-1.344 5.153,-2.382 -0.534,-0.036 -1.037,-0.116 -1.51,-0.237 h -10e-4 c -0.71,-0.181 -1.354,-0.454 -1.937,-0.803 -0.195,-0.117 -0.382,-0.241 -0.563,-0.374 -0.362,-0.266 -0.699,-0.565 -1.01,-0.892 -0.623,-0.654 -1.147,-1.421 -1.586,-2.269 -0.219,-0.424 -0.417,-0.867 -0.595,-1.328 -0.178,-0.46 -0.337,-0.937 -0.477,-1.425 2.619,4.048 7.332,5.469 11.866,4.919 0.567,-0.069 1.131,-0.168 1.687,-0.297 0.835,-0.193 1.653,-0.454 2.441,-0.776 0.525,-0.215 1.037,-0.457 1.529,-0.726 0.739,-0.403 1.438,-0.865 2.079,-1.383 0.428,-0.345 0.831,-0.713 1.204,-1.106 0.56,-0.588 1.054,-1.229 1.467,-1.917 0.138,-0.229 0.266,-0.464 0.385,-0.704 -0.971,0.398 -1.841,0.67 -2.717,0.608 -0.25,-0.017 -0.502,-0.062 -0.755,-0.138 -0.127,-0.038 -0.255,-0.084 -0.383,-0.14 -0.129,-0.055 -0.258,-0.118 -0.389,-0.191 -0.131,-0.073 -0.264,-0.154 -0.398,-0.246 -0.134,-0.092 -0.271,-0.194 -0.409,-0.306 -0.276,-0.224 -0.56,-0.49 -0.854,-0.802 -0.147,-0.156 -0.297,-0.323 -0.45,-0.504 0.272,0.119 0.544,0.222 0.817,0.312 0.111,0.037 0.221,0.062 0.332,0.094 0.161,0.047 0.322,0.098 0.482,0.135 0.271,0.062 0.541,0.111 0.809,0.147 0.268,0.036 0.534,0.059 0.799,0.07 0.794,0.032 1.571,-0.049 2.316,-0.226 1.242,-0.296 2.399,-0.862 3.409,-1.633 0.606,-0.462 1.159,-0.998 1.646,-1.593 0.162,-0.198 0.318,-0.404 0.465,-0.614 0.441,-0.633 0.813,-1.319 1.101,-2.046 v -0.001 c 0.192,-0.485 0.347,-0.987 0.46,-1.503 v -10e-4 c 0.17,-0.774 0.248,-1.579 0.221,-2.399 v -0.001 c -0.018,-0.547 -0.084,-1.101 -0.2,-1.658 v -10e-4 c -0.058,-0.278 -0.128,-0.558 -0.212,-0.837 v -0.001 c -0.084,-0.28 -0.181,-0.559 -0.292,-0.838 v -0.001 c -0.111,-0.279 -0.235,-0.558 -0.374,-0.836 v -0.001 c -0.027,-0.055 -0.062,-0.11 -0.091,-0.165 -0.26,-0.501 -0.56,-0.998 -0.916,-1.49 -0.198,-0.273 -0.41,-0.544 -0.638,-0.812 -0.023,0.163 -0.052,0.322 -0.087,0.478 v 10e-4 c -0.035,0.156 -0.076,0.309 -0.122,0.459 v 0.001 c -0.138,0.449 -0.324,0.867 -0.55,1.252 -0.15,0.256 -0.318,0.498 -0.501,0.724 -0.183,0.226 -0.381,0.435 -0.591,0.627 -0.105,0.096 -0.213,0.189 -0.324,0.276 -0.333,0.263 -0.69,0.488 -1.064,0.669 -0.125,0.061 -0.251,0.116 -0.379,0.167 -0.256,0.102 -0.517,0.185 -0.783,0.248 -0.265,0.063 -0.533,0.105 -0.802,0.127 -1.48,0.117 -2.984,-0.406 -4.08,-1.728 -0.1,-0.12 -0.196,-0.246 -0.289,-0.38 -0.185,-0.267 -0.356,-0.561 -0.509,-0.882 0.255,-0.008 0.503,-0.029 0.746,-0.056 0.137,-0.017 0.269,-0.04 0.401,-0.062 0.092,-0.015 0.184,-0.029 0.273,-0.047 0.177,-0.036 0.35,-0.078 0.519,-0.125 0.034,-0.01 0.068,-0.018 0.102,-0.028 0.191,-0.056 0.378,-0.117 0.559,-0.185 0.003,-0.001 0.007,-0.002 0.008,-0.003 v -0.001 c 6.197,-3.884 5.098,-10.824 0.036,-12.603 1.919,4.941 -4.421,10.212 -10.331,9.197 4.353,-2.434 6.766,-6.847 3.643,-11.462 -3.071,-4.538 -8.705,-3.479 -12.859,-6.196 -3.633,-2.376 -3.978,-7.457 -6.76,-10.548 -4.136,-4.594 -9.635,-5.149 -14.998,-7.485 -3.524,-1.534 -6.5,-3.845 -9.736,-5.882 -1.808,-1.147 -3.551,-2.409 -5.423,-3.465 z m 39.371,50.789 c 0.952,6.071 5.821,13.116 12.002,14.859 -1.055,0.429 -2.242,0.338 -3.363,0.29 -7.402,-0.317 -12.689,-8.43 -8.639,-15.149 z" />
					<path
   id="path4685"
   style="fill:#697b9f"
   d="m 931.6,287.401 c -2.593,2.457 -5.253,4.736 -7.981,6.833 1.979,1.221 3.957,2.714 5.841,4.448 2.279,2.098 4.412,4.553 6.19,7.304 3.533,-3.052 6.662,-6.25 9.275,-9.497 -3.648,-3.984 -8.255,-7.171 -13.325,-9.088 z m -65.312,20.415 c -2.467,3.248 -4.329,7.02 -5.356,11.267 -0.642,2.655 -0.734,5.31 -0.667,7.962 1.363,0.412 2.742,0.765 4.136,1.065 0.002,-7.202 2.014,-14.301 5.867,-19.559 -1.316,-0.21 -2.64,-0.449 -3.98,-0.735 z m 6.431,1.087 c -4.02,4.974 -6.214,12.256 -6.162,19.622 17.592,3.045 37.096,-2.341 53.172,-11.411 -3.109,-5.584 -6.832,-10.121 -11.183,-13.662 -10.851,5.003 -22.724,7.103 -35.827,5.451 z m 47.88,-12.445 c -3.212,2.261 -6.521,4.258 -9.93,5.97 4.239,3.622 7.869,8.165 10.91,13.616 4.076,-2.411 7.908,-5.054 11.408,-7.849 -1.648,-2.623 -3.667,-4.986 -5.848,-6.994 -2.11,-1.942 -4.373,-3.543 -6.54,-4.743 z" />
				</g>
				<path
   id="path1029"
   style="clip-rule:evenodd;fill:#879fc9;fill-rule:evenodd"
   d="m 856.84,363.542 c -13.65,5.34 -20.861,16.726 -32.291,25.637 -3.573,2.786 -11.278,4.99 -12.751,9.181 -1.519,4.323 2.726,9.333 3.497,13.535 0.976,5.314 -2.597,8.782 -1.972,9.606 1.935,1.46 6.552,-3.04 8.69,-5.193 1.23,1.76 0.132,7.694 2.404,7.694 3.988,0 10.413,-9.217 12.067,-11.134 1.776,1.134 2.262,3.79 3.872,4.273 5.575,-0.155 16.051,-22.015 20.59,-26.719 1.765,-1.829 9.823,-6.67 9.872,-8.715 0.091,-3.801 -5.625,-4.675 -7.213,-7.495 -1.483,-2.633 -2.185,-11.831 -6.765,-10.67 z" />
				<path
   id="path1020"
   style="clip-rule:evenodd;fill:#f4d9c7;fill-rule:evenodd"
   d="m 864.149,382.537 c -7.402,-6.501 -11.005,-20.751 -13.02,-35.574 -6.553,14.777 -19.233,25.847 -28.874,31.508 10.524,17.577 10.642,26.63 3.586,43.082 10.864,-12.321 24.139,-29.495 38.308,-39.016 z" />
				<path
   id="path1022_1_"
   style="clip-rule:evenodd;fill:#e694a8;fill-rule:evenodd"
   d="m 851.129,346.962 c -6.552,14.777 -19.233,25.847 -28.874,31.508 2.549,4.257 4.482,8.013 5.856,11.496 6.749,1.518 10.938,2.746 15.15,1.308 4.88,-1.968 11.63,-9.524 15.942,-15.086 -4.185,-7.441 -6.571,-18.173 -8.074,-29.226 z" />
				<g
   id="g1018"
   transform="matrix(0.86074228,0,0,0.86074228,40.136064,36.845286)">
					<path
   id="rect861"
   style="fill:#f4d9c7"
   d="m 886.318,309.422 5.612,-1.504 c 15.86,-4.25 38.083,5.102 42.074,19.999 l 8.734,32.594 c 4.712,17.585 -16.393,39.012 -23.486,40.912 l -8.759,2.347 c -5.601,1.501 -25.1,-14.137 -28.763,-26.315 l -9.89,-32.882 c -3.053,-10.149 -1.382,-30.902 14.478,-35.151 z" />
					<path
   id="path4634"
   style="fill:#eebfb2"
   d="m 886.318,309.421 c -15.86,4.25 -17.531,25.002 -14.478,35.152 l 4.263,14.174 c 2.397,-3.868 5.604,-7.207 1.408,-12.72 3.629,3.644 4.696,5.411 4.454,8.993 -0.199,2.949 -2.881,5.441 -4.558,8.065 l 1.145,3.808 c 1.053,-3.921 7.927,-7.364 7.706,-12.893 -0.253,-6.323 -6.417,-9.131 -8.361,-14.552 -2.843,-7.926 2.34,-22.041 11.401,-19.39 -0.002,0.081 -0.007,0.16 -0.008,0.241 0.024,-0.077 0.052,-0.148 0.077,-0.223 0.023,0.007 0.045,0.01 0.068,0.017 0.024,-0.147 0.062,-0.305 0.093,-0.459 1.991,-5.006 6.921,-3.398 9.119,1.329 3.005,6.463 3.205,14.087 7.219,20.22 4.309,6.585 7.946,6.946 13.045,7.425 -8.492,-2.036 -10.557,-11.319 -11.383,-18.785 2.357,14.695 11.196,18.128 18.96,13.994 5.147,4.484 3.405,6.955 4.012,12.515 0.438,6.182 5.445,7.382 9.994,5.32 -4.819,-0.255 -6.486,-5.941 -4.669,-9.703 0.542,5.247 3.489,7.655 6.62,7.46 l -8.439,-31.495 c -3.991,-14.897 -26.214,-24.249 -42.074,-19.999 z m -6.588,61.387 0.405,1.345 c 1.449,0.523 2.966,0.586 3.948,0.323 -1.797,-0.175 -3.307,-0.648 -4.353,-1.668 z" />
					<path
   id="path4751"
   style="clip-rule:evenodd;fill:#ffffff;fill-rule:evenodd"
   d="m 878.275,365.969 3.455,11.486 c 3.075,10.225 17.311,22.882 25.115,25.794 -10.496,-7.237 -19.614,-17.974 -21.963,-21.69 -1.645,-2.603 -4.74,-10.594 -6.607,-15.59 z" />
					<path
   id="path2812"
   style="clip-rule:evenodd;fill:#e9a59d;fill-rule:evenodd"
   d="m 905.522,378.99 c -2.67,0.819 -5.044,2.394 -6.859,3.746 2.021,4.108 5.377,7.394 10.664,5.977 4.43,-1.187 10.92,-3.404 13.264,-12.531 -1.298,0.398 -3.056,0.693 -5.031,0.965 -4.024,0.553 -8.915,1.008 -12.038,1.843 z" />
					<path
   id="path1806_1_"
   style="fill:#f4d9c7"
   d="m 938.345,347.93 c -10e-4,7.676 3.704,13.897 8.276,13.896 4.572,-0.001 8.28,-6.223 8.281,-13.899 10e-4,-7.676 -3.704,-13.897 -8.276,-13.896 -4.572,10e-4 -8.28,6.224 -8.281,13.899 z" />
					<path
   id="path4632"
   style="clip-rule:evenodd;fill:#eebfb2;fill-rule:evenodd"
   d="m 945.286,334.215 c -4.002,1.102 -6.94,6.908 -6.941,13.715 -10e-4,4.601 1.356,8.904 3.622,11.491 2.064,0.047 4.259,-1.058 5.934,-3.256 2.719,1.075 4.599,0.536 5.829,-1.11 0.231,-0.649 0.43,-1.328 0.595,-2.031 -3.209,1.548 -6.511,-1.628 -8.1,-4.531 2.768,2.681 5.737,3.491 8.393,3.044 0.189,-1.177 0.285,-2.391 0.285,-3.609 10e-4,-7.676 -3.704,-13.898 -8.276,-13.897 v 0 c -0.45,0 -0.898,0.062 -1.341,0.184 z" />
					<path
   id="ellipse1808_1_"
   style="fill:#e694a8"
   d="m 947.233,338.451 c 0.835,-0.003 1.685,0.335 2.433,0.982 1.495,1.295 2.664,3.768 3.285,7.679 -0.821,-2.802 -2.313,-7.449 -5.665,-7.449 -0.518,0.002 -1.048,0.206 -1.566,0.638 -1.11,0.925 -2.041,2.928 -2.241,5.649 0.692,-1.334 1.7,-2.087 2.787,-2.084 2.196,0.005 4.108,3.03 4.27,6.755 0.162,3.725 -1.488,6.74 -3.684,6.734 -6.231,-0.001 -5.914,-14.745 -1.93,-18 0.681,-0.567 1.476,-0.901 2.311,-0.904 z" />
					<path
   id="path4647"
   style="clip-rule:evenodd;fill:#d57f96;fill-rule:evenodd"
   d="m 946.314,338.589 c -0.497,0.148 -0.967,0.411 -1.392,0.766 -3.98,3.251 -4.3,17.966 1.911,17.999 0.373,-0.353 0.731,-0.747 1.067,-1.189 0.307,0.121 0.602,0.219 0.888,0.3 0.786,-0.796 1.365,-2.074 1.617,-3.609 -1.737,-0.886 -3.252,-2.668 -4.18,-4.363 1.41,1.366 2.873,2.244 4.32,2.72 0.002,-0.195 0,-0.392 -0.008,-0.591 -0.162,-3.725 -2.073,-6.75 -4.27,-6.755 -1.088,-0.003 -2.094,0.75 -2.787,2.084 0.2,-2.721 1.13,-4.724 2.24,-5.649 0.518,-0.431 1.048,-0.636 1.566,-0.637 3.351,10e-4 4.844,4.647 5.665,7.449 -0.621,-3.911 -1.789,-6.383 -3.285,-7.679 -0.748,-0.648 -1.599,-0.985 -2.434,-0.982 -0.312,0 -0.62,0.047 -0.918,0.136 z" />
					<path
   id="path2756"
   style="clip-rule:evenodd;fill:#e694a8;fill-rule:evenodd"
   d="m 912.958,341.864 c -1.208,0.976 -2.567,3.419 -2.846,5.757 0,0 0.292,-1.015 0.844,-2.182 0.552,-1.167 1.38,-2.467 2.327,-3.021 2.029,-1.187 4.777,-1.447 6.446,-1.698 -2.002,-0.378 -5.553,0.446 -6.771,1.144 z" />
					<path
   id="path2760"
   style="clip-rule:evenodd;fill:#e694a8;fill-rule:evenodd"
   d="m 881.888,350.189 c -1.071,0.94 -2.24,3.332 -2.435,5.647 0,0 0.239,-1.001 0.711,-2.146 0.471,-1.145 1.188,-2.415 2.033,-2.942 1.81,-1.128 4.294,-1.318 5.799,-1.525 -1.825,-0.426 -5.022,0.304 -6.108,0.966 z" />
					<path
   id="path2770"
   style="fill:#e694a8"
   d="m 906.912,366.133 c -0.208,-0.106 -2.934,0.543 -5.641,1.268 -2.706,0.725 -5.392,1.526 -5.519,1.722 -0.254,0.392 6.716,3.605 7.385,3.425 0.671,-0.179 4.191,-6.203 3.775,-6.415 z" />
					<path
   id="path2784"
   style="clip-rule:evenodd;fill:#ffffff;fill-rule:evenodd"
   d="m 895.791,349.44 c 2.285,1.835 2.721,4.059 3.005,5.117 0.539,2.009 0.198,3.816 0.323,6.099 0.02,0.353 0.322,0.623 0.675,0.604 0.355,-0.019 0.627,-0.322 0.607,-0.676 -0.125,-2.264 -0.115,-3.805 -0.711,-6.027 -0.322,-1.2 -1.796,-3.728 -3.899,-5.117 z m 4.237,13.186 c -0.627,0.174 -1.081,0.843 -1.018,1.498 0.064,0.659 0.627,1.057 1.258,0.888 0.631,-0.169 1.092,-0.841 1.028,-1.5 0,0 0,0 0,0 -0.064,-0.659 -0.627,-1.057 -1.258,-0.888 -0.003,0 -0.007,10e-4 -0.01,0.002 z" />
					<path
   id="path2792"
   style="clip-rule:evenodd;fill:#e48b8e;fill-rule:evenodd"
   d="m 905.224,377.961 -0.008,0.005 c -2.945,0.902 -5.466,2.616 -7.335,4.019 -0.03,-0.002 -0.075,-0.008 -0.135,-0.029 -0.144,-0.051 -0.316,-0.163 -0.429,-0.33 -0.165,-0.244 -0.497,-0.309 -0.742,-0.145 -0.245,0.165 -0.311,0.497 -0.146,0.742 10e-4,10e-4 10e-4,0.002 0.002,0.003 0.26,0.384 0.619,0.618 0.956,0.738 0.169,0.06 0.332,0.092 0.5,0.095 0.168,0.003 0.35,-0.003 0.557,-0.166 l -0.008,0.008 c 1.84,-1.386 4.307,-3.061 7.086,-3.913 3.123,-0.835 8.014,-1.289 12.039,-1.842 2.015,-0.277 3.811,-0.578 5.116,-0.988 0.652,-0.205 1.185,-0.429 1.587,-0.752 0.402,-0.324 0.679,-0.871 0.538,-1.397 -0.075,-0.286 -0.368,-0.456 -0.654,-0.381 -10e-4,0 -0.003,0.001 -0.004,0.001 -0.285,0.077 -0.454,0.371 -0.377,0.656 0,0 0,10e-4 0,10e-4 0.029,0.107 0.042,0.113 -0.172,0.285 -0.214,0.172 -0.651,0.382 -1.238,0.567 -1.175,0.369 -2.944,0.673 -4.94,0.947 -3.991,0.548 -8.89,0.989 -12.185,1.872 z" />
					<path
   id="path2801"
   style="clip-rule:evenodd;fill:#ffffff;fill-rule:evenodd"
   d="m 905.522,378.99 c -2.477,0.759 -4.702,2.172 -6.46,3.452 2.32,4.019 6.318,3.777 9.549,2.911 3.895,-1.044 9.976,-3.89 13.098,-8.931 -1.17,0.282 -2.59,0.513 -4.148,0.726 -4.025,0.552 -8.916,1.007 -12.039,1.842 z" />
					<path
   id="path2814"
   style="clip-rule:evenodd;fill:#e48b8e;fill-rule:evenodd"
   d="m 905.652,374.311 c -0.715,0.19 -1.445,0.423 -2.194,0.704 -4.261,1.451 -5.24,5.378 -5.465,7.225 1.834,-1.497 4.275,-3.273 7.156,-4.169 l 0.008,-0.005 0.008,-10e-4 c 3.312,-0.888 8.266,-1.224 12.296,-1.712 1.897,-0.229 3.571,-0.499 4.747,-0.845 -6.059,-1.418 -10.828,-2.71 -16.557,-1.195 z" />
					<path
   id="path2823"
   style="fill:#e694a8"
   d="m 914.824,390.449 c -0.125,-0.062 -1.771,0.332 -3.405,0.769 -1.634,0.438 -3.256,0.92 -3.333,1.036 -0.154,0.232 4.034,2.096 4.438,1.988 0.404,-0.108 2.549,-3.669 2.3,-3.793 z" />
					<path
   id="path1966_1_"
   style="fill:#e694a8"
   d="m 926,345.953 1.277,6.033 1.91,5.864 -1.277,-6.033 z m 1.324,0.407 1.124,5.312 1.683,5.163 -1.125,-5.312 z m -2.242,0.696 1.125,5.313 1.681,5.162 -1.124,-5.311 z m 3.495,-0.551 1.028,4.857 1.539,4.72 -1.029,-4.857 z m -4.492,1.359 1.028,4.858 1.538,4.72 -1.029,-4.857 z m 5.785,-1.064 0.899,4.251 1.346,4.13 -0.9,-4.25 z m -6.737,2.042 0.899,4.251 1.347,4.13 -0.9,-4.25 z m 8.029,-1.747 0.771,3.643 1.154,3.541 -0.771,-3.643 z m -8.981,2.724 0.771,3.643 1.154,3.54 -0.771,-3.643 z m 10.235,-2.578 0.675,3.188 1.01,3.098 -0.675,-3.188 z m -11.233,3.387 0.675,3.188 1.01,3.098 -0.675,-3.188 z" />
					<path
   id="path4594"
   style="fill:#e694a8"
   d="m 882.302,357.661 1.319,6.022 1.869,5.875 -1.319,-6.022 z m 1.175,0.448 1.161,5.303 1.646,5.172 -1.161,-5.302 z m -1.946,0.616 1.161,5.303 1.645,5.172 -1.16,-5.302 z m 3.051,-0.432 1.061,4.848 1.505,4.729 -1.062,-4.848 z m -3.9,1.201 1.061,4.849 1.505,4.729 -1.062,-4.848 z m 5.045,-0.866 0.928,4.243 1.317,4.138 -0.929,-4.242 z m -5.849,1.804 0.928,4.243 1.317,4.137 -0.929,-4.242 z m 6.994,-1.469 0.796,3.636 1.129,3.547 -0.796,-3.636 z m -7.799,2.406 0.796,3.636 1.129,3.547 -0.796,-3.636 z m 8.904,-2.221 0.697,3.182 0.988,3.104 -0.697,-3.182 z m -9.753,2.99 0.697,3.182 0.988,3.104 -0.697,-3.182 z" />
					<path
   id="path4602"
   style="clip-rule:evenodd;fill:#505a79;fill-rule:evenodd"
   d="m 903.421,300.725 c -3.095,0.87 -6.098,2.229 -8.607,4.104 -11.544,-0.973 -25.344,7.29 -27.26,18.062 -1.304,7.332 2.182,13.669 1.029,19.457 -0.883,4.432 -7.721,10.195 -1.222,14.667 -2.598,-2.201 -2.126,-5.998 0.606,-7.885 -2.149,3.6 -1.041,6.47 2.161,7.446 -1.693,6.768 2.188,9.193 5.238,9.462 -8.739,-10.912 8.825,-13.86 1.404,-22.775 3.5,3.16 4.509,4.712 4.168,7.924 -0.497,4.686 -8.689,8.304 -5.417,13.255 1.552,2.341 5.196,2.799 7.026,2.308 -2.381,-0.142 -4.236,-0.774 -5.127,-2.45 -2.431,-4.572 7.885,-8.118 7.806,-14.146 -0.074,-5.652 -6.112,-7.992 -7.889,-12.789 -2.599,-7.013 2.943,-19.793 11.861,-17.675 -0.005,0.072 -0.012,0.144 -0.015,0.216 0.026,-0.07 0.055,-0.134 0.083,-0.202 0.023,0.005 0.044,0.008 0.067,0.013 0.028,-0.132 0.07,-0.275 0.106,-0.414 2.117,-4.537 6.964,-3.236 9.013,0.933 2.8,5.7 2.784,12.518 6.596,17.894 4.092,5.772 7.69,5.993 12.738,6.278 -8.37,-1.583 -10.159,-9.834 -10.768,-16.493 1.926,13.086 10.602,15.91 18.423,11.991 4.981,3.869 3.183,6.129 3.63,11.088 0.261,5.52 5.197,6.454 9.769,4.481 -4.775,-0.093 -6.27,-5.135 -4.361,-8.552 0.629,7.551 7.679,8.322 11.866,3.431 3.685,1.223 5.877,-0.254 7.008,-3.278 -3.409,2.074 -6.877,-0.845 -8.455,-3.541 9.062,7.875 21.027,-3.571 15.283,-12.388 -0.841,2.662 -4.488,4.772 -7.212,3.965 3.064,-0.892 3.673,-5.045 2.191,-7.322 -1.137,3.361 -5.66,4.233 -8.202,1.869 1.379,-5.145 -1.35,-10.105 -5.295,-13.903 3.882,2.169 7.657,5.675 7.959,10.195 -0.356,-8.157 -4.919,-11.766 -9.715,-13.639 -1.871,-0.73 -4.777,-1.19 -6.637,-1.934 -4.982,-1.992 -8.632,-8.669 -16.846,-10.393 -3.646,-0.763 -8.422,-0.547 -13.003,0.74 z m 46.2,25.228 c 0.007,0.156 0.015,0.31 0.019,0.47 -0.002,-0.158 -0.009,-0.314 -0.019,-0.47 z" />
					<path
   id="path4680"
   style="clip-rule:evenodd;fill:#373f5e;fill-rule:evenodd"
   d="m 912.148,327.244 c 3.731,9.684 13.344,11.857 20.946,5.357 -1.507,3.54 -4.99,6.055 -7.611,7.344 4.924,3.847 3.142,6.108 3.587,11.052 0.261,5.52 5.197,6.454 9.768,4.481 -4.775,-0.093 -6.27,-5.135 -4.36,-8.552 0.617,7.407 7.409,8.285 11.62,3.701 -0.536,0.25 -1.013,0.579 -1.664,0.68 -4.709,0.738 -7.395,-3.856 -7.544,-7.95 -0.13,-3.568 2.404,-9.239 -1.327,-11.835 -3.771,-2.624 -8.361,1.466 -12.312,1.963 -4.646,0.559 -8.469,-1.955 -11.103,-6.241 z m 34.458,23.19 c 0.081,0.024 0.162,0.049 0.242,0.071 -0.054,-0.068 -0.134,-0.094 -0.242,-0.071 z" />
					<path
   id="path4611"
   style="clip-rule:evenodd;fill:#e6d9e0;fill-rule:evenodd"
   d="m 900.689,381.327 c -0.576,0.37 -1.122,0.746 -1.626,1.113 1.122,1.944 2.638,2.885 4.268,3.247 -1.089,-1.278 -1.948,-2.777 -2.642,-4.36 z" />
					<path
   id="path4620_1_"
   style="clip-rule:evenodd;fill:#e6d9e0;fill-rule:evenodd"
   d="m 899.976,383.718 c 0.266,0.301 0.549,0.556 0.84,0.786 0.051,0.017 0.102,0.036 0.154,0.051 4.811,-0.482 10.578,-2.152 16.093,-5.259 -4.418,2.07 -11.209,3.979 -17.087,4.422 z" />
					<path
   id="path4630_1_"
   style="clip-rule:evenodd;fill:#eaada7;fill-rule:evenodd"
   d="m 899.785,378.4 c -0.173,0.25 -0.766,1.542 -0.16,1.677 0.529,0.118 1.317,-0.423 1.72,-0.652 0.626,-0.356 1.46,-0.724 1.81,-1.812 0.105,-0.326 0.505,-1.543 -0.087,-1.662 -0.962,-0.066 -2.553,1.194 -3.283,2.449 z" />
					<path
   id="path2750"
   style="clip-rule:evenodd;fill:#373f5e;fill-rule:evenodd"
   d="m 915.896,342.26 c -2.392,0.641 -4.914,4.099 -4.323,6.303 1.855,-5.939 12.033,-5.717 16.247,-4.298 -4.492,-3.123 -9.113,-2.758 -11.924,-2.005 z" />
					<path
   id="path2758"
   style="clip-rule:evenodd;fill:#373f5e;fill-rule:evenodd"
   d="m 884.482,350.678 c -2.009,0.538 -4.015,3.858 -3.425,6.062 1.34,-5.801 10.006,-5.174 13.647,-3.601 -3.946,-3.27 -7.862,-3.093 -10.222,-2.461 z" />
					<path
   id="path2766"
   style="clip-rule:evenodd;fill:#373f5e;fill-rule:evenodd"
   d="m 914.7,336.233 c -4.507,1.208 -8.472,4.343 -11.544,6.923 -0.362,0.304 -0.409,0.844 -0.105,1.206 0.304,0.362 0.844,0.409 1.206,0.105 3.034,-2.548 6.863,-5.502 10.887,-6.58 3.371,-0.903 5.768,-1.612 13.671,-1.354 -4.465,-0.795 -9.525,-1.53 -14.115,-0.3 z" />
					<path
   id="path2768"
   style="clip-rule:evenodd;fill:#373f5e;fill-rule:evenodd"
   d="m 882.448,346.351 c 3.243,-0.869 6.914,-0.074 9.818,0.655 0.342,0.086 0.584,0.473 0.54,0.865 -0.044,0.392 -0.356,0.641 -0.698,0.555 -2.868,-0.72 -6.384,-1.432 -9.28,-0.656 -2.425,0.65 -4.176,1.062 -8.927,4.373 2.428,-2.358 5.245,-4.907 8.547,-5.792 z" />
					<path
   id="path4822"
   style="fill:#697b9f"
   d="m 877.739,309.355 c -5.212,3.294 -9.216,8.094 -10.184,13.537 -0.354,1.991 -0.35,3.907 -0.186,5.76 3.238,0.511 6.537,0.743 9.866,0.721 1.487,-5.776 5.958,-11.109 11.964,-9.682 -0.005,0.072 -0.011,0.143 -0.015,0.216 0.026,-0.07 0.055,-0.134 0.082,-0.202 0.023,0.005 0.045,0.008 0.067,0.015 0.029,-0.132 0.07,-0.275 0.105,-0.414 2.117,-4.536 6.965,-3.235 9.013,0.933 0.831,1.692 1.413,3.485 1.922,5.307 6.748,-2.118 13.296,-5.013 19.356,-8.432 -3.109,-5.584 -6.831,-10.121 -11.183,-13.661 -9.448,4.356 -19.672,6.509 -30.807,5.902 z m 37.694,-9.544 c -1.566,0.934 -3.154,1.808 -4.764,2.617 4.239,3.622 7.869,8.165 10.91,13.616 3.478,-2.058 6.777,-4.285 9.845,-6.631 -4.137,-2.642 -7.83,-7.921 -15.001,-9.426 -0.32,-0.066 -0.653,-0.124 -0.99,-0.176 z" />
				</g>
				<path
   id="path1033"
   style="clip-rule:evenodd;fill:#cadafa;fill-rule:evenodd"
   d="m 857.655,363.442 c 0,0 -0.058,10e-4 -0.088,0.003 -0.03,0.002 -0.06,0.005 -0.089,0.007 2.602,3.577 0.398,9.024 -6.439,15.207 -6.837,6.183 -19.822,16.077 -20.988,22.586 -2.003,10.507 -0.094,14.601 -5.889,22.033 -1.284,-4.621 -0.222,-7.091 -1.639,-11.346 -1.501,-4.285 -6.66,-7.045 -7.913,-11.315 -1.359,-4.628 4.965,-7.054 8.609,-10.532 -3.878,2.391 -10.11,4.547 -11.42,8.274 -1.519,4.323 2.726,9.333 3.497,13.535 0.976,5.314 -2.597,8.782 -1.972,9.606 1.935,1.46 6.551,-3.04 8.69,-5.193 1.23,1.76 0.132,7.694 2.405,7.694 3.988,0 10.413,-9.217 12.068,-11.134 1.775,1.134 2.262,3.79 3.872,4.273 5.575,-0.154 16.051,-22.015 20.59,-26.719 1.765,-1.829 9.823,-6.671 9.872,-8.715 0.091,-3.8 -5.625,-4.675 -7.213,-7.494 -1.393,-2.468 -2.097,-10.706 -5.953,-10.77 z" />
				<path
   id="path1039"
   style="clip-rule:evenodd;fill:#b0c1ea;fill-rule:evenodd"
   d="m 830.582,399.735 c -0.055,0.005 -0.111,0.03 -0.167,0.066 -0.153,0.48 -0.278,0.961 -0.364,1.445 -0.498,2.613 -0.754,4.828 -0.947,6.798 0.805,-1.61 1.61,-3.368 2.269,-3.468 0.247,-0.037 1.493,4.88 1.58,5.257 0.159,0.691 0.446,1.605 0.232,2.313 -0.361,1.196 -2.968,3.227 -4.032,3.88 -0.421,0.258 -0.924,0.462 -1.382,0.714 -0.627,1.965 -1.639,3.948 -3.384,6.241 -0.003,0.005 -0.01,0.024 -0.012,0.024 -10e-4,0 -0.003,-0.003 -0.005,-0.003 -0.071,0.093 -0.137,0.183 -0.21,0.277 -1.284,-4.621 -0.221,-7.092 -1.639,-11.346 -1.256,-3.585 -5.065,-6.106 -7.012,-9.334 1.604,3.662 2.086,6.911 2.559,10.055 -0.114,3.562 -2.265,6.355 -4.816,8.527 -0.012,0.132 0.008,0.24 0.069,0.321 1.935,1.46 6.551,-3.04 8.69,-5.193 1.23,1.76 0.132,7.694 2.405,7.694 3.988,0 10.413,-9.217 12.067,-11.134 0.531,0.339 0.94,0.818 1.305,1.33 -0.581,-1.095 -1.022,-2.284 -1.427,-3.396 -0.566,-1.561 -4.066,-11.224 -5.779,-11.068 z m 8.374,16.228 c 0.327,0.457 0.676,0.844 1.109,1.061 -0.411,-0.309 -0.778,-0.667 -1.109,-1.061 z" />
				<path
   id="path1046_1_"
   style="clip-rule:evenodd;fill:#b0c1ea;fill-rule:evenodd"
   d="m 860.103,364.926 c 4.532,11.008 -2.304,14.121 -10.538,21.863 -1.522,1.431 -3.17,2.69 -4.326,4.461 -3.633,5.564 -3.37,16.432 -3.995,22.99 -0.089,0.936 -0.408,1.909 -0.753,2.889 5.607,-0.489 15.954,-22.04 20.457,-26.707 1.765,-1.829 9.823,-6.67 9.872,-8.715 0.091,-3.801 -5.625,-4.675 -7.213,-7.494 -1.028,-1.823 -1.682,-6.786 -3.504,-9.287 z m -1.435,16.685 c 0.361,1.094 1.757,4.097 1.137,4.822 -0.879,1.028 -6.093,4.794 -6.996,5.819 -3.691,4.338 -5.477,6.004 -7.805,12.74 0.191,-7.259 2.888,-13.29 5.316,-16.002 2.337,-2.214 5.201,-4.311 8.348,-7.379 z" />
				<path
   id="path3212"
   style="clip-rule:evenodd;fill:#3f4867;fill-rule:evenodd"
   d="m 801.301,427.221 c -1.148,-0.034 -2.796,1.46 -3.399,2.016 -1.092,1.007 -2.334,2.087 -3.277,3.331 -0.305,3.459 -0.308,7.061 -0.073,10.603 -0.215,0.435 -0.419,0.861 -0.626,1.288 0.082,-0.04 0.123,-0.068 0.212,-0.214 0.616,-1.007 0.953,-2.214 1.415,-3.288 1.464,-3.41 2.966,-6.922 4.816,-10.142 0.177,-0.308 1.804,-3.258 1.39,-3.479 -0.14,-0.074 -0.294,-0.11 -0.458,-0.115 z" />
				<path
   id="path3997"
   style="clip-rule:evenodd;fill:#2b3353;fill-rule:evenodd"
   d="m 902.159,494.582 c -0.204,0.13 -0.411,0.264 -0.611,0.385 -3.704,2.241 -7.84,4.163 -12.265,5.814 -0.197,0.074 -0.375,0.144 -0.54,0.204 -14.551,5.326 -32.164,7.72 -48.073,8.912 -0.018,0.001 -0.037,0.003 -0.055,0.005 -5.165,0.651 -17.314,3.622 -21.522,5.443 -0.98,0.424 -2.249,1.096 -3.725,1.879 -0.362,0.192 -0.765,0.403 -1.148,0.605 0.333,0.66 0.648,1.323 0.914,1.992 0.422,-0.223 0.865,-0.455 1.259,-0.664 1.473,-0.782 2.737,-1.445 3.567,-1.804 3.539,-1.531 16.194,-4.684 20.928,-5.281 15.992,-1.2 33.736,-3.591 48.606,-9.033 0.202,-0.074 0.384,-0.147 0.552,-0.209 4.284,-1.598 8.322,-3.456 12.004,-5.622 0.024,-0.855 0.061,-1.733 0.109,-2.626 z" />
			</g>
		</g>
		<g
   id="g4877">
			<g
   id="g5124">
				<g
   id="g4427"
   transform="matrix(2,0,0,2,296.6112,1.2724702)">
					<path
   id="rect4403"
   style="fill:#5b6f97"
   d="m 474.374,461.633 60.2,-38.176 v 16.871 l -60.2,38.176 z" />
					<path
   id="path4406"
   style="clip-rule:evenodd;fill:#4b5d86;fill-rule:evenodd"
   d="m 534.575,423.457 -24.563,15.576 c -1.291,3.252 -1.344,5.555 -1.413,9.472 l -34.225,21.565 v 8.434 l 60.201,-38.176 z" />
					<g
   id="g4401"
   transform="translate(-1.4199955,15.080492)">
						<path
   id="path4242"
   style="fill:#4b5d86"
   d="m 512.077,370.592 c -6.222,0 -5.186,22.772 2.308,50.742 7.494,27.969 18.661,50.742 24.884,50.742 0.07,0 0.137,-0.006 0.205,-0.011 v 0.003 h 7.272 l -2.371,-2.756 c 0.534,-1.415 0.88,-3.335 1.037,-5.698 l 0.101,0.633 c 0,0 3.033,-4.167 3.354,-6.827 0.321,-2.659 -1.289,-19.42 -2.662,-22.853 -0.862,-2.156 -3.797,-6.003 -5.863,-8.57 -0.381,-1.537 -0.779,-3.091 -1.2,-4.664 -1.456,-5.436 -3.053,-10.672 -4.724,-15.586 2.969,4.788 6.573,10.483 6.573,10.483 0,0 -3.636,-13.87 -4.488,-16.585 -0.852,-2.714 -7.528,-16.624 -9.482,-19.384 -1.954,-2.76 -4.644,-3.957 -4.644,-3.957 l -0.789,0.898 c -1.213,-1.841 -2.384,-3.34 -3.485,-4.439 l 1.246,-2.172 z m 5.377,9.463 c 4.463,1.304 11.396,14.665 16.985,32.306 -3.59,-7.517 -7.11,-13.058 -10.115,-15.712 l 1.225,-1.734 h -4.471 c -0.103,-0.012 -0.207,-0.018 -0.308,-0.018 -0.016,0 -0.033,0 -0.049,0 -0.089,0.002 -0.177,0.008 -0.264,0.018 -1.317,0.155 -2.314,1.298 -3,3.271 -0.537,-3.879 -0.932,-8.384 -0.573,-11.917 0.277,-2.712 0.443,-4.626 0.57,-6.214 z m 8.697,47.389 6.971,24.517 c -1.072,-2.228 -1.964,-4.103 -2.121,-4.509 -0.509,-1.317 -5.341,-17.816 -5.341,-17.816 l -0.102,-1.21 c 0.183,-0.365 0.38,-0.695 0.593,-0.982 z m 6.681,0 c 2.421,1.895 5.118,5.476 7.941,10.675 1.844,10.88 2.013,19.275 0.395,22.797 -0.14,-0.727 -0.301,-1.484 -0.508,-2.29 -0.082,-0.367 -0.17,-0.739 -0.266,-1.118 z" />
						<path
   id="path4204"
   style="fill:#697b9f"
   d="m 519.349,370.592 c -6.222,0 -5.186,22.772 2.308,50.742 7.494,27.969 18.661,50.742 24.884,50.742 6.222,0 5.187,-22.773 -2.307,-50.742 -7.494,-27.969 -18.663,-50.742 -24.885,-50.742 z m 2.505,9.349 c 4.412,0 11.79,13.842 17.677,32.42 -5.132,-10.747 -10.125,-17.464 -13.669,-17.464 -0.016,0 -0.033,0 -0.049,0 -3.51,0.062 -4.887,6.77 -4.262,17.47 -4.07,-18.582 -4.109,-32.426 0.303,-32.426 z m 9.388,47.503 8.549,30.063 c 0.108,0.379 0.219,0.751 0.333,1.117 0.225,0.807 0.47,1.565 0.719,2.292 -3.506,-3.521 -7.836,-11.916 -11.822,-22.797 0.038,-5.199 0.816,-8.78 2.221,-10.675 z m 6.681,0 c 2.42,1.895 5.118,5.476 7.941,10.675 1.845,10.88 2.013,19.275 0.395,22.797 -0.14,-0.727 -0.301,-1.484 -0.508,-2.29 -0.082,-0.367 -0.17,-0.739 -0.266,-1.118 z" />
						<path
   id="path4279"
   style="clip-rule:evenodd;fill:#5b6f97;fill-rule:evenodd"
   d="m 520.365,416.301 c 0.407,1.656 0.837,3.334 1.292,5.033 7.494,27.969 18.661,50.742 24.884,50.742 5.478,0 5.329,-17.657 0.1,-40.967 -2.28,-0.337 -4.461,-0.877 -6.561,-1.596 1.829,2.037 3.773,4.903 5.784,8.606 1.845,10.88 2.013,19.275 0.395,22.797 -0.14,-0.727 -0.301,-1.484 -0.508,-2.29 -0.082,-0.367 -0.17,-0.739 -0.266,-1.118 l -7.211,-28.667 c -6.613,-2.648 -12.414,-7.094 -17.909,-12.54 z m 10.877,11.143 8.549,30.063 c 0.108,0.379 0.219,0.751 0.333,1.117 0.225,0.807 0.47,1.565 0.72,2.292 -3.506,-3.521 -7.836,-11.916 -11.822,-22.797 0.037,-5.199 0.815,-8.78 2.22,-10.675 z" />
						<path
   id="path4227"
   style="fill:#ffffff"
   d="m 532.315,409.794 c 1.637,6.11 1.863,11.063 0.503,11.063 -1.359,0 -3.788,-4.953 -5.425,-11.063 v 0 c -1.637,-6.11 -1.863,-11.063 -0.503,-11.063 v 0 c 1.359,0.001 3.787,4.953 5.425,11.063 z" />
						<path
   id="path4299"
   style="clip-rule:evenodd;fill:#d5dcfd;fill-rule:evenodd"
   d="m 526.654,406.66 c 0.206,1.017 0.454,2.073 0.738,3.134 1.637,6.109 4.066,11.063 5.425,11.063 1.113,10e-4 1.188,-3.354 0.184,-8.184 -0.548,-0.098 -1.067,-0.198 -1.335,-0.32 -2.505,-1.143 -3.81,-3.386 -5.012,-5.693 z" />
						<path
   id="circle4229"
   style="fill:#cadafa"
   d="m 532.085,409.794 c 1.428,5.331 1.625,9.652 0.439,9.652 -1.186,0 -3.305,-4.321 -4.733,-9.652 v 0 c -1.429,-5.331 -1.625,-9.652 -0.439,-9.652 v 0 c 1.185,0 3.304,4.321 4.733,9.652 z" />
						<path
   id="path4284"
   style="fill:#c9d7e8"
   d="m 519.349,370.592 c -2.729,0 -4.061,4.384 -4.064,11.664 0.237,-6.241 1.592,-9.937 4.127,-9.937 6.38,0 17.832,23.35 25.516,52.029 0.639,2.386 1.228,4.731 1.775,7.033 -0.725,-3.249 -1.548,-6.608 -2.469,-10.047 -7.495,-27.969 -18.663,-50.742 -24.885,-50.742 z" />
						<path
   id="path4311"
   style="clip-rule:evenodd;fill:#abbeea;fill-rule:evenodd"
   d="m 527.322,407.888 c 0.14,0.627 0.297,1.266 0.468,1.906 1.428,5.33 3.547,9.65 4.733,9.652 0.943,0 1.034,-2.768 0.225,-6.822 -0.445,-0.083 -0.858,-0.169 -1.082,-0.271 -2.055,-0.937 -3.298,-2.619 -4.344,-4.465 z" />
						<path
   id="path4319"
   style="clip-rule:evenodd;fill:#e7f6ff;fill-rule:evenodd"
   d="m 528.299,403.013 c -0.668,0.488 -0.449,1.657 -0.278,2.266 0.38,1.287 1.645,2.737 2.245,2.497 0.333,-0.106 0.164,-1.034 0.143,-1.25 -0.113,-1.101 -1.049,-4.142 -2.11,-3.513 z" />
						<path
   id="path4269"
   style="fill:#7b8db6"
   d="m 517.485,370.592 c -0.231,0.177 -0.447,0.382 -0.64,0.618 -0.644,0.79 -1.105,1.87 -1.45,3.213 -0.69,2.686 -0.902,6.451 -0.691,11.083 0.421,9.263 2.561,21.978 6.318,35.999 3.757,14.02 8.433,26.736 12.965,35.979 2.266,4.621 4.493,8.373 6.58,11.005 1.295,1.633 2.531,2.873 3.749,3.579 h 2.069 c -6.251,-0.371 -17.296,-22.995 -24.728,-50.734 -7.494,-27.969 -8.53,-50.742 -2.308,-50.742 z m 29.258,101.472 c -0.017,10e-4 -0.034,10e-4 -0.051,0.004 h 0.055 z" />
					</g>
				</g>
				<g
   id="g1181"
   transform="scale(2)">
					<path
   id="rect1158_2_"
   style="fill:#373f5e"
   d="m 916.02,446.528 h 2.5 c 1.296,0 2.339,1.043 2.339,2.339 v 9.861 c 0,1.296 -1.043,2.339 -2.339,2.339 h -2.5 c -1.296,0 -2.339,-1.043 -2.339,-2.339 v -9.861 c 0,-1.296 1.043,-2.339 2.339,-2.339 z" />
					<path
   id="rect1161"
   style="fill:#2b3353"
   d="m 917.458,446.528 v 7.619 c -0.185,0.062 -0.368,0.128 -0.554,0.184 -1.064,0.316 -2.139,0.595 -3.222,0.845 v 3.552 c 0,1.296 1.042,2.339 2.338,2.339 h 1.438 1.063 c 0.081,0 0.161,-0.004 0.24,-0.012 1.182,-0.119 2.099,-1.112 2.099,-2.327 v -6.094 -3.766 c 0,-1.296 -1.043,-2.339 -2.339,-2.339 h -1.063 z" />
					<path
   id="rect1176"
   style="fill:#4f597a"
   d="m 915.411,448.656 c 0.354,0 0.64,0.285 0.64,0.64 v 1.859 c 0,0.355 -0.286,0.64 -0.64,0.64 -0.355,0 -0.64,-0.285 -0.64,-0.64 v -1.859 c 0,-0.355 0.286,-0.64 0.64,-0.64 z" />
				</g>
				<path
   id="path1177"
   style="clip-rule:evenodd;fill:#697b9f;fill-rule:evenodd"
   d="m 1340.129,462.481 c -75.767,0 -72.639,4.365 -105.321,69.827 -43.816,87.765 -135.81,294.08 -183.236,408.624 l -386.737,60.883 C 567.974,1015.006 523.486,1048.187 523.486,1080 H 1920 V 1039.823 804.218 462.481 Z m 38.679,95.312 h 460.106 c 7.343,0 13.253,5.911 13.253,13.253 v 329.429 c 0,7.343 -5.911,13.253 -13.253,13.253 H 1242.74 c -7.343,0 -16.058,-6.467 -13.255,-13.253 l 136.069,-329.429 c 2.805,-6.786 5.912,-13.253 13.254,-13.253 z" />
				<path
   id="path1085_1_"
   style="clip-rule:evenodd;fill:#5b6f97;fill-rule:evenodd"
   d="M 1920,894.348 C 1846.325,1004.957 1741.523,1054.449 1607.971,1080 H 1920 v -40.177 z" />
				<path
   id="rect1065_1_"
   style="fill:#889dbc;fill-opacity:0.9804"
   d="m 828.9,975.987 -164.065,25.828 c -36.993,5.037 -66.338,12.993 -88.492,22.672 H 1920 V 975.986 H 828.9 Z" />
				<path
   id="path1100_2_"
   style="fill:#7588ae"
   d="m 1848.182,975.987 c -22.12,18.931 -46.013,34.929 -71.655,48.501 H 1920 v -48.501 z" />
				<path
   id="path1004"
   style="clip-rule:evenodd;fill:#879cbc;fill-rule:evenodd"
   d="m 526.896,1064.807 c -2.281,5.041 -3.41,10.135 -3.41,15.193 H 1920 v -15.193 z" />
				<path
   id="path1105_1_"
   style="clip-rule:evenodd;fill:#7588ae;fill-rule:evenodd"
   d="m 1673.221,1064.807 c -20.922,5.867 -42.673,10.874 -65.25,15.193 H 1920 v -15.193 z" />
				<path
   id="rect1009"
   style="fill:#2b3353"
   d="M 1911.374,849.465 V 1080 H 1920 v -40.177 -190.358 z" />
				<path
   id="path1318"
   style="fill:#373f5e"
   d="m 1325.958,502.484 c -8.323,0 -11.865,7.355 -15.024,15.093 l -172.128,407.09 c -3.158,7.738 6.703,15.095 15.026,15.095 H 1920 V 502.484 Z m 52.85,55.309 h 460.106 c 7.343,0 13.253,5.911 13.253,13.253 v 329.429 c 0,7.343 -5.911,13.253 -13.253,13.253 H 1242.74 c -7.343,0 -16.058,-6.467 -13.255,-13.253 l 136.069,-329.429 c 2.805,-6.786 5.912,-13.253 13.254,-13.253 z" />
				<path
   id="path1090"
   style="clip-rule:evenodd;fill:#2b3353;fill-rule:evenodd"
   d="m 1920,894.348 c -10.959,16.453 -22.613,31.543 -34.941,45.414 H 1920 Z" />
				<path
   id="path1052"
   style="fill:#465480"
   d="m 1254.716,839.392 -0.872,0.234 c -15.995,4.286 -28.874,21.067 -28.874,37.627 v 10.91 22.413 10.91 c 0,16.56 12.878,33.341 28.874,37.627 l 16.166,4.332 c 15.996,4.286 28.874,-5.594 28.874,-22.153 v -12.279 -15.284 h -56.143 c -7.343,0 -16.058,-6.466 -13.255,-13.253 z" />
				<path
   id="path1165"
   style="fill:#45537f"
   d="m 1355.184,531.761 c -8.324,0 -11.865,7.357 -15.024,15.094 l -154.238,377.813 c -3.159,7.737 6.702,15.095 15.025,15.095 h 670.401 c 8.323,0 15.024,-6.733 15.024,-15.095 V 546.854 c 0,-8.363 -6.701,-15.094 -15.024,-15.094 h -516.164 z m 23.624,26.031 h 460.106 c 7.343,0 13.253,5.912 13.253,13.255 v 329.429 c 0,7.343 -5.91,13.253 -13.253,13.253 H 1242.74 c -7.343,0 -16.058,-6.467 -13.254,-13.253 l 136.069,-329.429 c 2.803,-6.787 5.91,-13.255 13.253,-13.255 z" />
				<g
   id="g4592_3_"
   transform="scale(2)">
					<path
   id="path4582"
   style="clip-rule:evenodd;fill:#ffffff;fill-rule:evenodd"
   d="m 609.414,444.748 -5.089,12.431 c -1.501,3.666 3.176,7.155 7.122,7.155 h 315.577 c 3.946,0 7.122,-3.191 7.122,-7.155 v -12.431 z" />
					<path
   id="path4585"
   style="clip-rule:evenodd;fill:#c9d7e8;fill-rule:evenodd"
   d="m 609.414,444.748 -0.962,2.349 h 325.693 v -2.349 z" />
				</g>
				<path
   id="path1167"
   style="fill:#4e608a"
   d="m 1357.683,534.714 c -8.208,0 -11.7,7.255 -14.817,14.885 L 1190.76,921.923 c -3.117,7.629 6.609,14.885 14.817,14.885 h 661.133 c 8.208,0 14.817,-6.638 14.817,-14.885 V 549.599 c 0,-8.247 -6.608,-14.885 -14.817,-14.885 z m 21.125,23.078 h 460.106 c 7.343,0 13.253,5.912 13.253,13.255 v 329.429 c 0,7.343 -5.91,13.253 -13.253,13.253 H 1242.74 c -7.343,0 -16.058,-6.467 -13.254,-13.253 l 136.069,-329.429 c 2.803,-6.787 5.91,-13.255 13.253,-13.255 z" />
				<path
   id="path1060"
   style="fill:#45537f"
   d="m 1254.716,839.392 -0.872,0.234 c -15.995,4.286 -28.874,21.067 -28.874,37.627 v 10.91 22.413 10.91 c 0,5.219 1.281,10.458 3.533,15.322 h 70.381 v -7.795 -15.284 h -56.143 c -1.377,0 -2.802,-0.226 -4.191,-0.641 -0.463,-0.138 -0.921,-0.297 -1.373,-0.475 -0.451,-0.178 -0.896,-0.376 -1.33,-0.591 -0.867,-0.43 -1.693,-0.93 -2.453,-1.49 -3.038,-2.24 -5.007,-5.426 -4.302,-8.787 0,-10e-4 0,-10e-4 0,-0.002 0.088,-0.42 0.218,-0.842 0.393,-1.266 z" />
				<path
   id="path1163"
   style="fill:#45537f"
   d="m 1369.123,542.855 c -7.892,0 -11.243,6.977 -14.245,14.309 L 1208.65,914.358 c -3.002,7.332 6.352,14.309 14.243,14.309 h 631.155 c 7.891,0 14.244,-6.382 14.244,-14.309 V 557.164 c 0,-7.928 -6.353,-14.309 -14.244,-14.309 z m 9.685,14.937 h 460.106 c 7.343,0 13.253,5.912 13.253,13.255 v 329.429 c 0,7.343 -5.91,13.253 -13.253,13.253 H 1242.74 c -7.343,0 -16.058,-6.467 -13.254,-13.253 l 136.069,-329.429 c 2.803,-6.787 5.91,-13.255 13.253,-13.255 z" />
				<path
   id="rect1303"
   style="fill:#697b9f"
   d="m 1277.242,822.266 c -2.31,0.006 -4.732,0.33 -7.231,0.999 l -16.167,4.332 c -15.996,4.286 -28.873,21.068 -28.873,37.628 v 10.91 22.413 10.91 c 0,16.56 12.877,33.34 28.873,37.626 l 16.167,4.332 c 15.996,4.286 28.873,-5.594 28.873,-22.154 V 916.984 895.94 878.745 857.701 845.423 c 0,-13.974 -9.169,-23.192 -21.642,-23.157 z" />
				<path
   id="path1324"
   style="clip-rule:evenodd;fill:#c9d7e8;fill-rule:evenodd"
   d="m 1249.468,502.922 c -4.188,8.091 -8.855,17.758 -14.66,29.387 -43.767,87.666 -135.607,293.623 -183.08,408.244 h 24.835 l 185.564,-430.312 c 3.594,-7.23 -5.054,-7.319 -12.659,-7.319 z" />
				<path
   id="path990"
   style="clip-rule:evenodd;fill:#4e608a;fill-rule:evenodd"
   d="m 1249.468,502.922 c -0.423,0.817 -0.876,1.724 -1.309,2.574 6.909,0.08 13.58,0.802 10.348,7.305 l -184.459,427.752 h 2.516 l 185.563,-430.312 c 3.594,-7.231 -5.054,-7.319 -12.659,-7.319 z" />
				<path
   id="path998"
   style="clip-rule:evenodd;fill:#879cbc;fill-rule:evenodd"
   d="m 1052.111,939.64 c -0.172,0.413 -0.369,0.881 -0.539,1.292 l -386.737,60.883 c -96.861,13.191 -141.349,46.372 -141.349,78.185 h 23.568 c 0,-17.753 33.311,-43.135 55.68,-50.331 61.258,-19.706 452.661,-81.062 473.829,-89.116 z" />
				<path
   id="path1023_1_"
   style="clip-rule:evenodd;fill:#373f5e;fill-rule:evenodd"
   d="m 1147.978,909.978 c -0.036,0 -0.072,0.001 -0.108,0.002 -1.491,0.036 -2.835,0.911 -3.47,2.262 -12.611,26.881 -17.157,44.281 -17.157,60.207 V 1080 h 7.881 V 972.449 c 0,-14.442 4.041,-30.5 16.409,-56.861 0.925,-1.968 0.079,-4.314 -1.889,-5.239 -10e-4,-0.001 0,-0.001 0,-0.002 -0.521,-0.243 -1.088,-0.368 -1.663,-0.369 z" />
				<path
   id="path1028"
   style="fill:#4e608a"
   d="m 1228.125,850.759 c -2.013,4.622 -3.155,9.552 -3.155,14.467 v 10.908 22.415 10.908 c 0,16.56 12.878,33.341 28.874,37.626 l 16.166,4.333 c 15.996,4.286 28.874,-5.595 28.874,-22.155 v -12.279 -21.044 -9.048 c -27.194,4.002 -65.093,1.301 -70.759,-36.131 z" />
				<path
   id="path1035"
   style="clip-rule:evenodd;fill:#8399b8;fill-rule:evenodd"
   d="m 1340.129,462.481 c -56.3,0 -69.04,2.434 -85.278,30.53 14.211,-18.009 31.25,-19.786 80.358,-19.786 H 1920 v -10.744 z" />
				<path
   id="path1047_1_"
   style="fill:#8399b8"
   d="m 1277.241,822.266 c -2.31,0.007 -4.732,0.329 -7.231,0.998 l -16.166,4.333 c -11.147,2.986 -20.773,12.045 -25.589,22.864 5.636,-7.872 13.737,-14.023 22.77,-16.443 l 17.285,-4.632 c 2.672,-0.715 5.263,-1.061 7.732,-1.068 11.987,-0.034 21.115,7.927 22.84,20.386 v -3.284 c 0,-13.971 -9.167,-23.189 -21.641,-23.154 z" />
				<path
   id="path1071"
   style="fill:#45537f"
   d="m 1325.958,502.484 c -4.365,0 -7.407,2.033 -9.777,5.073 H 1920 v -5.073 z" />
			</g>
		</g>
		<g
   id="g4474"
   transform="scale(2)">
			<g
   id="g3630"
   transform="translate(2.061746)">
				<path
   id="path3109"
   style="clip-rule:evenodd;fill:#505a79;fill-rule:evenodd"
   d="m 921.438,423.984 c 0.865,-5.498 3.946,-7.5 -0.573,-12.897 -0.191,-4.551 0.628,-12.049 -2.053,-20.582 -7.869,-24.609 -35.608,-17.202 -44.027,-7.155 -2.475,3.55 -5.71,23.098 -0.708,34.813 -0.558,6.834 0.275,13.799 0.86,19.764 -3.077,1.64 -11.916,7.516 -10.727,16.163 26.385,11.614 28.618,25.936 39.923,39.232 13.567,-11.834 18.809,-45.684 17.305,-69.338 z" />
				<path
   id="path3569"
   style="clip-rule:evenodd;fill:#3f4867;fill-rule:evenodd"
   d="m 913.13,380.441 c 0.437,6.277 0.214,13.54 -3.914,17.891 -1.697,1.789 -4.819,2.891 -5.981,5.118 -2.472,4.739 12.035,6.458 17.626,7.48 -0.169,-4.564 0.601,-11.984 -2.05,-20.426 -1.364,-4.265 -3.326,-7.568 -5.681,-10.063 z m -18.784,19.232 c -0.847,-0.026 -2.543,0.537 -4.619,1.521 -3.46,1.639 -12.971,7.651 -17.414,11.579 0.413,1.782 0.989,3.576 1.763,5.39 -0.051,0.628 -0.086,1.257 -0.115,1.886 1.744,-2.314 3.895,-4.282 5.946,-6.328 1.485,-1.481 2.986,-2.952 4.583,-4.313 2.167,-1.846 4.457,-3.527 6.675,-5.309 3.847,-3.089 4.42,-4.388 3.181,-4.426 z m 19.124,18.611 c -14.303,0.09 -31.263,4.557 -39.455,8.849 0.191,3.715 0.58,7.317 0.905,10.619 13.88,-7.079 26.371,-11.495 38.44,-13.888 -15.376,10.15 -20.168,15.736 -21.666,15.294 -1.534,-0.452 -7.285,-1.276 -19.294,0.344 -2.16,1.506 -4.814,3.8 -6.533,6.768 0.759,0.381 1.454,0.717 1.611,0.818 3.065,1.965 5.24,5.317 7.029,8.39 1.218,2.091 2.424,4.208 3.575,6.357 13.866,9.918 17.151,21.021 26.051,31.488 13.567,-11.833 18.81,-45.684 17.305,-69.337 0.32,-2.031 0.94,-3.583 1.369,-5.007 -2.877,-0.503 -6.036,-0.715 -9.337,-0.695 z m 6.935,9.626 c -0.766,4.984 -3.259,13.737 -4.172,16.458 -2.219,6.611 -3.283,13.493 -6.184,19.87 -0.526,1.156 -0.835,3.179 -2.027,3.868 -1.921,1.111 -2.687,-3.642 -2.646,-4.536 0.165,-3.622 2.805,-7.751 4.289,-10.919 1.044,-2.228 2.028,-4.482 3.069,-6.711 2.758,-5.906 5.635,-11.836 7.671,-18.03 z" />
			</g>
			<g
   id="g3626"
   transform="translate(2.061746)">
				<path
   id="path3113"
   style="clip-rule:evenodd;fill:#373f5e;fill-rule:evenodd"
   d="m 904.844,492.641 c -16.067,12.335 -42.943,16.608 -66.154,18.346 -4.949,0.624 -17.351,3.686 -21.225,5.361 -3.619,1.566 -13.025,7.561 -18.386,7.561 -3.37,0 -7.116,-4.566 -10.489,-5.177 -3.897,1.796 -9.781,6.407 -14.308,5.566 -8.423,-1.565 -15.999,-28.4 -13.418,-36.902 2.5,-7.116 17.905,-6.025 20.358,-8.953 3.955,-4.187 10.961,-7.407 17.654,-7.838 13.739,-0.884 29.312,-6.105 41.842,-11.429 4.857,-4.01 10.664,-12.6 16.617,-15.236 10.633,-4.707 26.146,5.139 31.331,10.764 7.049,6.652 18.827,23.285 16.178,37.937 z" />
				<path
   id="path3131"
   style="clip-rule:evenodd;fill:#879fc9;fill-rule:evenodd"
   d="m 768.973,482.791 c -3.219,-0.478 -4.238,3.293 -6.798,3.885 -2.964,0.685 -8.45,1.239 -12.539,3.638 -2.403,1.157 -3.887,6.413 2.201,18.994 5.811,13.648 10.668,16.647 14.757,16.647 4.876,0 5.908,-5.201 9.321,-6.815 1.912,-0.861 5.071,0.248 6.292,-1.803 3.52,-7.511 -0.966,-29.315 -13.234,-34.546 z" />
				<path
   id="path3148"
   style="clip-rule:evenodd;fill:#f4d9c7;fill-rule:evenodd"
   d="m 777.917,486.32 c -14.276,5.337 -33.291,11.4 -33.291,11.4 0,0 12.897,23.611 15.341,22.883 8.396,-2.499 32.402,-5.609 47.069,-6.589 -4.147,-8.14 -24.785,-18.303 -29.119,-27.694 z" />
				<path
   id="path3150"
   style="clip-rule:evenodd;fill:#f4d9c7;fill-rule:evenodd"
   d="m 744.627,497.72 c -8.422,3.206 -11.808,26.594 -16.314,39.146 -0.493,1.053 -1.113,2.086 -1.7,3.134 h 34.528 c 0.331,-1.541 0.707,-9.892 0.707,-13.869 -10e-4,-9.678 -5.59,-23.504 -17.221,-28.411 z" />
				<path
   id="path3498"
   style="clip-rule:evenodd;fill:#e694a8;fill-rule:evenodd"
   d="m 764.406,491.139 c -10.465,3.605 -19.779,6.581 -19.779,6.581 -0.342,0.13 -0.675,0.297 -1.001,0.491 7.856,4.443 14.458,13.413 17.627,22.044 3.802,-0.992 9.799,-2.055 16.503,-3.032 -1.374,-8.771 -7.12,-19.457 -13.35,-26.084 z" />
				<path
   id="path3161"
   style="clip-rule:evenodd;fill:#cadafa;fill-rule:evenodd"
   d="m 768.395,482.749 c -2.773,0.022 -3.82,3.372 -6.22,3.927 -2.964,0.685 -8.45,1.239 -12.539,3.638 -1.166,0.562 -2.113,2.094 -2.085,4.958 1.48,-5.013 6.452,0.257 9.311,6.878 1.904,4.622 9.56,21.498 6.371,23.053 1.175,0.545 2.295,0.752 3.362,0.752 4.876,0 5.908,-5.2 9.32,-6.814 1.912,-0.861 5.072,0.248 6.292,-1.803 3.521,-7.511 -0.966,-29.316 -13.234,-34.547 -0.201,-0.03 -0.394,-0.044 -0.578,-0.042 z" />
				<path
   id="path3514"
   style="clip-rule:evenodd;fill:#b0c1ea;fill-rule:evenodd"
   d="m 767.021,483.061 c -1.83,0.848 -2.888,3.161 -4.847,3.614 -0.57,0.132 -1.254,0.261 -1.982,0.397 2.505,1.964 2.927,4.808 3.654,8.208 1.137,6.381 2.722,13.043 3.555,18.766 0.369,4.6 1.399,9.393 -2.012,11.817 0.409,0.063 0.81,0.091 1.204,0.091 4.876,0 5.908,-5.2 9.32,-6.814 1.912,-0.861 5.072,0.248 6.292,-1.803 0.6,-1.279 0.961,-2.979 1.097,-4.935 -0.834,-8.126 -3.929,-16.073 -8.554,-22.692 -2.686,-3.848 -5.118,-6.038 -7.727,-6.649 z m -16.878,9.345 c -0.28,-0.005 -0.524,0.029 -0.725,0.107 -0.686,0.267 -1.097,1.013 -1.406,1.686 0.721,-1.164 1.815,-1.147 3.039,-0.335 1.991,0.721 4.07,2.609 5.639,3.622 0.793,0.512 3.833,3.032 4.583,2.506 0.928,-0.651 -0.169,-2.278 -0.803,-2.751 -1.595,-1.192 -7.62,-4.791 -10.327,-4.835 z m 21.305,16.27 c 1.225,0.148 3.227,6.788 3.089,7.823 -0.115,0.862 -2.498,2.555 -3.171,1.774 -0.682,-0.791 -0.315,-2.903 -0.289,-3.814 0.046,-1.64 -0.592,-5.777 0.254,-5.777 0.039,-0.009 0.078,-0.011 0.117,-0.006 z" />
				<path
   id="path3122"
   style="clip-rule:evenodd;fill:#505a79;fill-rule:evenodd"
   d="m 863.731,442.705 c -2.237,-0.017 -4.402,0.354 -6.396,1.237 -5.953,2.635 -11.76,11.225 -16.617,15.235 -12.53,5.324 -28.103,10.544 -41.842,11.428 -6.693,0.431 -13.7,3.652 -17.655,7.839 -2.143,2.559 -14.178,2.048 -18.848,6.628 3.589,3.715 11.101,18.7 14.47,26.659 1.48,4.191 -0.015,9.114 -1.291,12.667 4.313,-0.078 9.495,-4.033 13.036,-5.665 3.372,0.612 7.118,5.177 10.489,5.177 5.361,0 14.767,-5.996 18.386,-7.562 3.874,-1.676 16.276,-4.738 21.225,-5.362 23.211,-1.738 50.087,-6.011 66.155,-18.346 2.649,-14.652 -9.13,-31.285 -16.179,-37.936 -4.211,-4.569 -15.241,-11.926 -24.933,-11.999 z" />
				<path
   id="path3558"
   style="clip-rule:evenodd;fill:#3f4867;fill-rule:evenodd"
   d="m 861.398,446.734 c -3.152,-0.041 -6.563,0.474 -9.333,0.884 -3.272,2.966 -6.42,6.816 -9.301,9.677 12.282,-11.114 31.438,-2.233 47.856,17.421 -13.484,-7.709 -29.02,-14.845 -49.023,-16.306 -0.296,0.269 -0.589,0.527 -0.878,0.766 -4.736,2.012 -9.906,4.009 -15.248,5.763 8.08,1.862 27.365,12.732 34.948,21.687 -2.569,3.344 -28.572,7.573 -31.839,6.847 -4.872,-1.082 -11.41,-5.293 -16.372,-4.253 -6.641,1.391 -7.825,12.56 -13.209,15.805 -0.931,0.561 -3.574,2.22 -4.658,1.659 -2.106,-8.583 -9.872,-21.823 -14.704,-27.266 -1.366,0.525 -3.365,0.904 -5.532,1.319 7.816,9.799 9.942,22.279 10.436,27.306 -0.484,0.88 -2.092,1.776 -4.022,2.617 -0.898,-2.273 -2.224,-5.123 -4.171,-8.372 -4.943,-8.244 -9.587,-13.609 -9.587,-13.609 0,0 6.133,9.747 8.608,15.282 1.503,3.362 2.422,5.652 2.932,7.598 -0.453,0.174 -0.906,0.344 -1.353,0.509 1.289,4.116 -0.152,8.871 -1.394,12.329 4.313,-0.078 9.495,-4.033 13.036,-5.665 3.372,0.612 7.118,5.177 10.489,5.177 5.361,0 14.767,-5.996 18.386,-7.562 3.874,-1.676 16.276,-4.738 21.225,-5.362 23.211,-1.738 50.087,-6.011 66.155,-18.346 2.649,-14.652 -9.13,-31.284 -16.179,-37.935 -1.397,-1.516 -3.555,-3.337 -6.155,-5.099 7.829,9.469 10.772,20.986 10.553,26.524 -0.662,-0.388 -1.334,-0.774 -2.007,-1.161 -7.486,-11.26 -19.827,-28.234 -29.659,-28.234 z" />
				<path
   id="path3608"
   style="clip-rule:evenodd;fill:#3f4867;fill-rule:evenodd"
   d="m 814.513,468.083 c -4.339,1.052 -8.674,1.855 -12.873,2.288 1.026,0.904 2.05,1.811 3.031,2.762 2.671,2.588 5.185,5.085 8.242,7.239 0.27,0.19 1.301,1.165 1.667,0.739 0.784,-0.911 -1.646,-8.016 -1.838,-9.547 -0.163,-1.288 0.857,-2.552 1.771,-3.481 z" />
			</g>
		</g>
	</g><path
     id="path2981"
     style="fill:#de5e7f"
     d="m 841.27802,743.532 -6.318,-15.476 -15.476,-6.319 15.476,-6.318 6.318,-15.476 6.318,15.476 15.476,6.318 -15.476,6.319 z" /><path
     id="path2981_1_"
     style="fill:#de5e7f"
     d="m 1233.057,291.605 -6.318,-15.476 -15.476,-6.319 15.476,-6.318 6.318,-15.476 6.318,15.476 15.476,6.318 -15.476,6.319 z" /><path
     id="path5527"
     style="fill:#de5e7f"
     d="m 1429.205,248.016 -6.318,-15.476 -15.476,-6.318 15.476,-6.318 6.318,-15.476 6.319,15.476 15.476,6.318 -15.476,6.318 z" /><path
     id="path2977_2_"
     style="fill:#de5e7f"
     d="m 1099.086,397.997 7.138,-17.481 17.481,-7.138 -17.481,-7.137 -7.138,-17.481 -7.137,17.481 -17.481,7.137 17.481,7.138 z" /><path
     id="path2977_3_"
     style="fill:#de5e7f"
     d="m 758.64268,913.27245 7.137,-17.481 17.481,-7.138 -17.481,-7.137 -7.137,-17.481 -7.138,17.481 -17.481,7.137 17.481,7.138 z" /><path
     id="path2977_1_"
     style="fill:#de5e7f"
     d="m 935.382,552.628 7.137,-17.481 17.481,-7.138 -17.481,-7.137 -7.137,-17.481 -7.138,17.481 -17.481,7.137 17.481,7.138 z" /><g
     id="g4911">
		<path
   id="path2672"
   style="fill:#58688e"
   d="m 1453.355,446.289 c -49.571,0.174 -89.662,39.923 -89.662,88.895 10e-4,45.27 34.437,83.308 79.976,88.342 3.063,13.381 11.1,26.176 23.622,31.431 6.147,2.579 13.747,3.39 20.018,4.011 -13.634,-4.833 -19.29,-21.3 -20.622,-35.825 44.2,-6.382 76.969,-43.83 76.97,-87.96 0,-49.095 -40.286,-88.895 -89.982,-88.895 0,0 0,0 -10e-4,0 -0.106,10e-4 -0.213,10e-4 -0.319,10e-4 z" />
		<path
   id="path1116"
   style="fill:#fffff7"
   d="m 1434.743,488.917 c -0.848,0.479 -1.644,1.067 -2.358,1.758 l -1.634,1.584 -23.35,22.628 -1.635,1.584 c -2.881,2.792 -3.881,6.766 -2.832,10.035 v -0.002 l 0.379,1.448 0.122,0.463 0.023,0.078 10e-4,-0.001 c 0.318,1.21 0.905,2.337 1.772,3.289 l 21.336,23.46 c 3.15,3.46 8.749,3.276 12.555,-0.412 l 8.826,-8.554 2.213,-2.144 18.619,16.652 c 2.087,1.867 7.607,3.263 8.621,4.169 1.361,1.217 2.366,5.141 4.08,6.673 2.343,2.096 9.98,4.191 9.98,4.191 9.042,8.087 10.202,6.897 12.056,5.1 0.769,-0.745 1.428,-1.377 1.294,-2.435 v 0.005 -0.022 c -0.029,-0.213 -0.086,-0.442 -0.184,-0.693 v 0 l -0.267,-1.007 -0.194,-0.73 v 0.011 c -0.079,-0.567 -0.387,-1.259 -1.024,-2.153 -0.021,-0.027 -0.036,-0.054 -0.058,-0.082 -0.058,-0.08 -0.118,-0.162 -0.183,-0.246 -0.01,-0.013 -0.019,-0.025 -0.03,-0.039 -0.301,-0.394 -0.66,-0.824 -1.085,-1.297 -0.027,-0.03 -0.056,-0.062 -0.084,-0.092 -0.208,-0.229 -0.428,-0.467 -0.668,-0.717 0,-0.003 -0.01,-0.003 -0.01,-0.008 -0.238,-0.248 -0.496,-0.509 -0.766,-0.778 -0.054,-0.054 -0.109,-0.109 -0.164,-0.163 -0.274,-0.271 -0.56,-0.549 -0.867,-0.842 0,0 -10e-4,-0.001 0,-0.001 -0.306,-0.292 -0.635,-0.598 -0.975,-0.912 -0.076,-0.071 -0.155,-0.142 -0.233,-0.214 -0.35,-0.321 -0.712,-0.65 -1.099,-0.997 v 0 c 0,0 -0.042,-0.115 -0.081,-0.216 v -10e-4 c -0.21,-0.561 -0.949,-2.482 -1.938,-4.494 v -10e-4 c -0.016,-0.028 -0.029,-0.056 -0.046,-0.084 -0.269,-0.545 -0.553,-1.087 -0.85,-1.605 -0.054,-0.096 -0.109,-0.192 -0.164,-0.286 -0.068,-0.114 -0.135,-0.224 -0.204,-0.334 -0.067,-0.112 -0.136,-0.222 -0.206,-0.329 -0.21,-0.325 -0.421,-0.631 -0.635,-0.906 -0.024,-0.032 -0.048,-0.064 -0.073,-0.094 -0.029,-0.036 -0.057,-0.073 -0.086,-0.108 -0.042,-0.051 -0.084,-0.1 -0.126,-0.149 -0.027,-0.031 -0.053,-0.063 -0.081,-0.093 -0.047,-0.052 -0.093,-0.102 -0.14,-0.149 -0.023,-0.022 -0.046,-0.045 -0.066,-0.068 -0.064,-0.065 -0.128,-0.126 -0.191,-0.183 0,-0.006 0,-0.007 -0.014,-0.014 v 0 c -0.107,-0.095 -0.224,-0.188 -0.35,-0.278 v -10e-4 c -0.126,-0.09 -0.26,-0.177 -0.401,-0.262 v -0.001 c -0.141,-0.085 -0.29,-0.167 -0.444,-0.248 v 0 c -0.309,-0.161 -0.642,-0.314 -0.989,-0.461 v 0 c -0.519,-0.221 -1.068,-0.428 -1.611,-0.63 v 0 c -0.543,-0.202 -1.079,-0.398 -1.573,-0.596 v 0 c -0.165,-0.066 -0.325,-0.132 -0.479,-0.199 v 0 c -0.155,-0.067 -0.303,-0.134 -0.443,-0.203 v 0 c -0.153,-0.074 -0.294,-0.149 -0.428,-0.226 v 0 c -0.217,-0.124 -0.407,-0.251 -0.563,-0.384 -0.013,-0.013 -0.029,-0.023 -0.043,-0.037 0,-0.008 -0.01,-0.012 -0.017,-0.019 -0.032,-0.029 -0.064,-0.062 -0.097,-0.1 -0.01,-0.007 -0.017,-0.016 -0.025,-0.026 -0.029,-0.036 -0.057,-0.076 -0.091,-0.117 -0.045,-0.059 -0.093,-0.125 -0.137,-0.197 -0.049,-0.076 -0.101,-0.156 -0.153,-0.243 -10e-4,-0.003 0,-0.003 0,-0.004 -0.19,-0.316 -0.396,-0.705 -0.615,-1.133 v 0 c -0.98,-1.921 -2.241,-4.727 -3.684,-6.018 l -1.223,-1.094 -4.305,-3.851 -8.146,-7.284 -3.318,-2.967 1.229,-1.191 8.827,-8.554 c 2.264,-2.176 3.171,-4.899 2.737,-7.337 0,0 -10e-4,-0.001 -10e-4,-0.001 -0.056,-0.328 -0.142,-0.648 -0.25,-0.963 l -0.479,-1.842 c -0.184,-0.761 -0.503,-1.489 -0.956,-2.158 -0.151,-0.223 -0.317,-0.439 -0.497,-0.647 -0.09,-0.104 -0.185,-0.207 -0.282,-0.308 -0.098,-0.1 -0.199,-0.199 -0.304,-0.295 -0.105,-0.096 -0.214,-0.19 -0.327,-0.282 -0.113,-0.092 -0.229,-0.181 -0.349,-0.269 l -0.125,-0.091 c 0,0 10e-4,0.001 10e-4,0.001 l -11.259,-8.176 v 0 l -14.653,-10.64 c -3.12,-2.268 -7.768,-2.216 -11.443,-0.139 z m -1.311,9.185 c 0.391,-0.241 0.823,-0.415 1.267,-0.519 0.913,-0.212 1.871,-0.123 2.604,0.309 l 1.677,0.991 c 0,0.004 0.011,0.01 0.019,0.014 0.065,0.039 0.127,0.081 0.185,0.125 -0.141,0.328 -0.362,0.65 -0.668,0.946 l -6.8,6.59 -8.938,8.662 -6.799,6.589 c -1.202,1.165 -2.876,1.151 -3.755,-0.03 l -0.962,-1.294 c 0.016,-0.096 0.034,-0.193 0.057,-0.288 0.156,-0.646 0.494,-1.271 1.005,-1.766 l 4.719,-4.573 11.019,-10.679 4.719,-4.573 c 0.196,-0.191 0.415,-0.359 0.651,-0.504 z" />
	</g><g
     id="g4916">
		<path
   id="path2672_1_"
   style="fill:#58688e"
   d="m 1634.111,226.259 c 49.552,-1.394 90.88,37.067 92.429,86.014 1.431,45.247 -31.785,84.356 -77.142,90.828 -2.638,13.471 -10.266,26.514 -22.616,32.162 -6.062,2.773 -13.633,3.823 -19.881,4.643 13.474,-5.262 18.606,-21.9 19.478,-36.459 -44.38,-4.98 -78.318,-41.373 -79.714,-85.481 -1.553,-49.071 37.454,-90.125 87.125,-91.697 0,0 0,0 10e-4,0 0.106,-0.003 0.213,-0.007 0.32,-0.01 z" />
		<path
   style="fill:#fffff7"
   d="m 1679.364,295.423 c -11.08,-2.126 -18.275,-10.156 -39.593,-10.459 -5.672,-0.081 -10.735,0.573 -14.577,2.126 -12.76,5.158 -22.989,15.624 -30.675,23.923 -13.345,2.479 -22.244,4.141 -26.404,6.248 -1.349,0.862 -2.204,2.192 -2.616,3.734 v 0 c -1.236,4.626 1.522,11.169 6.963,12.765 1.188,0.426 4.855,0.818 10.188,1.166 -0.722,-1.615 -1.088,-3.409 -1.063,-5.224 0.053,-4.095 2.07,-7.831 5.252,-9.728 -1.92,1.623 -3.068,4.174 -3.104,6.899 -0.062,4.818 3.308,8.771 7.528,8.831 0,0 0,0 0,0 4.219,0.059 7.69,-3.797 7.753,-8.614 0.035,-2.724 -1.046,-5.307 -2.923,-6.984 3.132,1.987 5.051,5.779 4.999,9.873 -0.026,2.029 -0.538,4.013 -1.479,5.737 23.905,0.829 49.635,1.166 72.448,0.743 -0.766,-1.651 -1.155,-3.497 -1.131,-5.367 0.046,-3.511 1.539,-6.795 4.03,-8.862 -1.396,1.607 -2.193,3.768 -2.223,6.028 -0.062,4.817 3.307,8.771 7.527,8.832 4.22,0.061 7.692,-3.795 7.755,-8.613 0,-10e-4 0,-10e-4 0,-10e-4 0.04,-3.091 -1.356,-5.972 -3.67,-7.572 3.729,1.716 6.146,5.873 6.087,10.466 -0.021,1.56 -0.328,3.099 -0.903,4.517 0.278,-0.012 0.571,-0.025 0.826,-0.038 6.619,-0.214 11.283,-0.594 12.467,-1.169 4.99,-1.953 6.923,-12.812 3.321,-16.389 -1.335,-1.055 -2.668,-2.025 -4.677,-3.055 0.591,-10.94 -1.236,-22.309 -4.944,-23.188 -1.435,-0.34 -2.929,-0.479 -4.475,-0.479 l 0.883,-3.275 3.558,0.051 c 0.73,0.01 1.326,-0.598 1.335,-1.362 l 0.032,-2.529 c 0.01,-0.765 -0.57,-1.388 -1.299,-1.398 l -12.696,-0.181 c -0.73,-0.01 -1.325,0.597 -1.335,1.361 l -0.032,2.529 c -0.01,0.765 0.569,1.389 1.299,1.4 l 3.24,0.046 -0.966,4.284 z m -39.881,8.402 -32.624,5.917 -0.093,0.015 c 0,0 6.464,-11.735 22.112,-17.275 3.421,-1.211 7.08,-1.706 10.774,-1.717 z m 4.911,-0.296 0.162,-12.508 c 10.79,1.118 21.102,5.617 25.816,8.032 z"
   id="path4914" />
	</g></g>

</svg>
