<?xml version="1.0" encoding="UTF-8" standalone="no"?>
<!-- Generator: Adobe Illustrator 27.5.0, SVG Export Plug-In . SVG Version: 6.00 Build 0)  -->

<svg
   version="1.1"
   x="0px"
   y="0px"
   viewBox="0 0 1920 1080"
   style="enable-background:new 0 0 1920 1080;"
   xml:space="preserve"
   id="svg322"
   sodipodi:docname="About1.svg"
   xmlns:xlink="http://www.w3.org/1999/xlink"
   xmlns="http://www.w3.org/2000/svg"
   xmlns:svg="http://www.w3.org/2000/svg"><defs
   id="defs326">
	
	

	
</defs><sodipodi:namedview
   id="namedview324"
   pagecolor="#ffffff"
   bordercolor="#000000"
   borderopacity="0.25"/>

<g
   id="g286"
   transform="translate(329.56574,-37.309329)">
		<g
   id="g45">
			<defs
   id="defs8">
				<path
   id="SVGID_1_"
   d="m 722.371,292.596 c -31.128,-0.943 -61.388,2.112 -90.313,8.681 -36.894,8.379 -75.226,-1.521 -105.381,-24.368 -43.975,-33.318 -99.491,-52.185 -159.52,-49.486 -128.168,5.762 -231.42,111.419 -234.414,239.681 -2.574,110.248 67.469,204.463 165.647,238.274 37.441,12.894 67.417,41.264 82.314,77.954 53.007,130.545 181.038,222.61 330.613,222.61 203.276,0 366.845,-170.011 356.272,-375.6 C 1058.111,446.056 906.816,298.183 722.371,292.596 Z" />
			</defs>
			<clipPath
   id="SVGID_00000113338035578711735740000013215429828021882038_">
				<use
   xlink:href="#SVGID_1_"
   style="overflow:visible"
   id="use10" />
			</clipPath>
			<g
   clip-path="url(#SVGID_00000113338035578711735740000013215429828021882038_)"
   id="g43">
				<rect
   id="XMLID_441_"
   x="1000.189"
   y="135.739"
   style="fill:#fffffe"
   width="13.215"
   height="662.23297" />
				<g
   id="g41">
					<rect
   x="-241.321"
   y="135.433"
   style="fill:#d7e2ff"
   width="1344.827"
   height="735.60699"
   id="rect14" />
					<path
   id="XMLID_665_"
   style="fill:#ffffff"
   d="M 789.591,371.031 H 362.754 c 0,0 67.665,-61.55 138.854,-24.806 0,0 50.992,-53.791 86.971,-48.396 35.979,5.395 54.881,43.888 54.881,43.888 0,0 129.413,-36.292 146.131,29.314 z" />
					<path
   id="XMLID_664_"
   style="fill:#ffffff"
   d="M 576.172,576.042 H 149.336 c 0,0 67.665,-61.55 138.854,-24.806 0,0 50.992,-53.791 86.971,-48.396 35.978,5.395 54.881,43.888 54.881,43.888 0,0 129.413,-36.292 146.13,29.314 z" />
					<path
   id="XMLID_630_"
   style="fill:#ffffff"
   d="m -244.792,361.292 h 404.907 c 0,0 -46.246,-50.184 -132.516,-19.575 0,0 -6.129,-55.246 -84.753,-42.081 0,0 -21.725,-42.403 -71.145,-40.499 -49.42,1.904 -54.596,58.697 -54.596,58.697 0,0 -17.685,-30.972 -61.896,-7.65 z" />
					<path
   id="XMLID_629_"
   style="fill:#ffffff"
   d="M 1103.121,472.327 H 698.214 c 0,0 46.246,-50.184 132.516,-19.575 0,0 6.129,-55.246 84.753,-42.081 0,0 21.725,-42.403 71.145,-40.499 49.42,1.904 54.596,58.697 54.596,58.697 0,0 17.685,-30.972 61.896,-7.65 z" />
					<g
   id="XMLID_581_"
   style="opacity:0.43">
						<polygon
   id="XMLID_591_"
   style="fill:#fffffe"
   points="-244.792,615.596 66.669,135.739 49.226,135.739 -244.792,588.721 " />
						<polygon
   id="XMLID_590_"
   style="fill:#fffffe"
   points="99.763,829.58 149.257,829.58 599.609,135.739 540.309,135.739 92.863,825.102 " />
						<polygon
   id="XMLID_589_"
   style="fill:#fffffe"
   points="-133.075,829.58 317.277,135.739 299.834,135.739 -150.519,829.58 " />
						<polygon
   id="XMLID_588_"
   style="fill:#fffffe"
   points="-204.794,829.58 -171.831,829.58 278.521,135.739 219.221,135.739 -223.325,817.552 " />
						<polygon
   id="XMLID_587_"
   style="fill:#fffffe"
   points="-244.792,438.612 -244.792,529.975 11.095,135.739 -48.206,135.739 " />
						<polygon
   id="XMLID_586_"
   style="fill:#fffffe"
   points="493.512,829.58 551.26,829.58 1001.613,135.739 942.312,135.739 492.42,828.871 " />
						<polygon
   id="XMLID_585_"
   style="fill:#fffffe"
   points="581.377,823.778 590.317,829.58 676.251,829.58 1103.121,171.918 1103.121,135.739 1027.964,135.739 " />
						<polygon
   id="XMLID_584_"
   style="fill:#fffffe"
   points="716.689,829.58 1103.121,234.22 1103.121,207.346 699.246,829.58 " />
						<polygon
   id="XMLID_583_"
   style="fill:#fffffe"
   points="184.276,829.58 282.915,829.58 732.78,136.49 731.623,135.739 634.628,135.739 " />
						<polygon
   id="XMLID_582_"
   style="fill:#fffffe"
   points="473.863,829.58 924.216,135.739 906.772,135.739 456.42,829.58 " />
					</g>
					<rect
   x="-244.79201"
   y="791.58002"
   style="fill:#a2b2ea"
   width="1347.913"
   height="79.459999"
   id="rect31" />
					<rect
   id="XMLID_452_"
   x="-244.79201"
   y="808.39301"
   style="fill:#91a7e2"
   width="1347.913"
   height="2.6059999" />
					<rect
   id="XMLID_451_"
   x="-244.79201"
   y="842.02802"
   style="fill:#91a7e2"
   width="1347.913"
   height="2.6059999" />
					<rect
   id="XMLID_445_"
   x="-244.79201"
   y="787.55103"
   style="fill:#fffffe"
   width="1347.913"
   height="20.841" />
					<rect
   id="XMLID_444_"
   x="86.254997"
   y="135.739"
   style="fill:#fffffe"
   width="13.215"
   height="662.23297" />
					<rect
   id="XMLID_443_"
   x="395.23499"
   y="135.739"
   style="fill:#fffffe"
   width="13.215"
   height="662.23297" />
					<rect
   id="XMLID_442_"
   x="691.20898"
   y="135.739"
   style="fill:#fffffe"
   width="13.215"
   height="662.23297" />
					<rect
   id="XMLID_438_"
   x="-148.994"
   y="135.739"
   style="fill:#fffffe"
   width="13.215"
   height="662.23297" />
					<rect
   id="XMLID_437_"
   x="-244.79201"
   y="512.57501"
   style="fill:#fffffe"
   width="1347.913"
   height="11.428" />
				</g>
			</g>
		</g>
		
			<ellipse
   id="XMLID_00000105406739429861514310000006319564816368788915_"
   style="fill:#91a7e2"
   cx="610.77399"
   cy="864.05603"
   rx="457.29901"
   ry="32.939999" />
		<g
   id="g64">
			<path
   style="fill:#678cd6"
   d="m 233.655,458.736 c -10.082,0.993 -6.826,12.759 -6.826,27.905 0,15.145 -4.847,8.498 -0.429,27.444 4.418,18.947 -2.012,13.736 2.699,32.629 4.711,18.893 2.076,12.051 4.557,30.264 2.481,18.213 0.154,20.539 2.813,39.32 2.659,18.781 -3.324,21.107 0,41.383 3.324,20.276 -0.921,11.966 0.703,31.91 1.624,19.944 3.255,40.802 3.255,40.802 h 16.147 c 0,0 4.16,-19.006 4.825,-30.568 0.665,-11.563 0.665,-14.3 1.33,-27.391 0.665,-13.091 4.654,-20.736 1.496,-33.367 -3.158,-12.631 1.163,-12.299 -1.828,-30.913 -2.992,-18.614 -1.994,-30.569 -3.324,-40.885 -1.33,-10.316 -1.631,-20.509 -3.672,-32.641 -2.041,-12.132 -0.122,-15.495 -1.882,-26.163 -1.759,-10.667 -4.228,-14.854 -5.486,-27.22 -1.26,-12.366 -5.89,-23.345 -14.378,-22.509 z"
   id="path48" />
			<path
   style="fill:#678cd6"
   d="m 200.331,523.945 c 7.271,0.218 6.801,14.578 10.524,27.073 3.723,12.495 4.707,9.052 6.077,27.241 1.37,18.189 6.645,19.239 6.583,38.088 -0.063,18.85 -3.503,20.287 -0.153,33.856 3.35,13.569 3.666,15.569 4.903,27.161 1.238,11.593 -0.156,11.488 2.187,22.198 2.343,10.709 2.751,30.44 2.751,30.44 l -16.901,-0.076 c 0,0 -5.617,-13.461 -6.133,-27.018 -0.516,-13.557 -9.436,-32.169 -10.445,-44.429 -1.01,-12.26 -0.954,-24.552 -3.318,-37.054 -2.364,-12.501 -2.35,-15.626 -2.774,-28.83 -0.425,-13.204 -1.855,-17.965 -1.795,-31.32 0.059,-13.354 -3.026,-37.675 8.494,-37.33 z"
   id="path50" />
			<path
   style="fill:#678cd6"
   d="m 296.78,523.945 c -7.271,0.218 -6.801,14.578 -10.524,27.073 -3.723,12.495 -4.707,9.052 -6.077,27.241 -1.37,18.189 -6.645,19.239 -6.583,38.088 0.062,18.85 3.503,20.287 0.153,33.856 -3.35,13.569 -3.666,15.569 -4.903,27.161 -1.238,11.593 0.156,11.488 -2.187,22.198 -2.343,10.709 -2.752,30.44 -2.752,30.44 l 16.901,-0.076 c 0,0 5.617,-13.461 6.133,-27.018 0.516,-13.557 9.436,-32.169 10.446,-44.429 1.01,-12.26 0.954,-24.552 3.318,-37.054 2.364,-12.501 2.35,-15.626 2.774,-28.83 0.424,-13.204 1.855,-17.965 1.795,-31.32 -0.06,-13.354 3.025,-37.675 -8.494,-37.33 z"
   id="path52" />
			<path
   style="fill:none;stroke:#313f4a;stroke-width:0.5062;stroke-miterlimit:10"
   d="m 233.655,462.769 c 0,0 23.28,145.884 14.376,267.624"
   id="path54" />
			<path
   style="fill:none;stroke:#313f4a;stroke-width:0.5062;stroke-miterlimit:10"
   d="m 226.229,728.482 c 0,0 -22.374,-106.984 -26.363,-194.818"
   id="path56" />
			<path
   style="fill:none;stroke:#313f4a;stroke-width:0.5062;stroke-miterlimit:10"
   d="m 270.882,728.482 c 0,0 22.374,-106.984 26.363,-194.818"
   id="path58" />
			<path
   style="fill:#15244f"
   d="m 290.292,779.338 h -85.429 c -3.84,0 -6.953,-3.113 -6.953,-6.953 v -46.231 h 99.334 v 46.231 c 10e-4,3.841 -3.112,6.953 -6.952,6.953 z"
   id="path60" />
			<path
   style="fill:#0c193a"
   d="m 197.91,737.369 c 7.291,2.881 19.729,6.529 31.578,3.996 18.282,-3.908 20.941,-0.584 31.245,4.069 8.631,3.898 29.846,10.341 36.511,12.332 V 726.155 H 197.91 Z"
   id="path62" />
		</g>
		<g
   id="XMLID_00000043434598008374033850000014741757441107979948_">
			<path
   id="XMLID_00000012446578848675399670000016995363291835167669_"
   style="fill:#ef3e38"
   d="m 1059.415,756.049 c 0,0 -0.168,4.621 -0.815,11.212 -1.521,15.504 -5.602,41.863 -16.096,44.628 0,0 -21.67,5.225 -25.919,2.738 0,0 0.07,-73.48 -60.523,-90.994 -35.889,-10.342 -105.118,-9.219 -112.946,97.828 0,0 -407.178,-0.677 -434.59,4.41 0,0 -10.732,-1.694 -8.894,-18.398 0,0 0.115,-3.588 -0.407,-9.375 -1.878,-22.279 -12.678,-77.32 -72.416,-88.608 0,0 -85.668,-17.685 -101.595,78.509 -0.741,4.521 -1.343,9.275 -1.722,14.293 -0.465,4.987 -0.706,10.238 -0.781,15.752 0,0 -32.517,8.325 -46.249,-2.404 0,0 -33.806,0.969 -34.452,-0.828 l -1.584,-9.403 c 0,0 0.326,-0.394 0.86,-1.099 2.934,-3.75 11.758,-15.948 3.877,-16.712 0,0 -6.916,-27.801 -3.437,-57.822 3.801,-32.657 19.873,-67.92 70.498,-73.081 0,0 121.683,-27.44 154.775,-45.346 60.16,-32.566 161.834,-100.015 313.243,-94.941 65.385,2.203 173.114,-1.586 260.93,19.914 0,0 4.186,5.128 6.167,12.357 0,0 61.867,62.558 65.439,65.718 2.982,2.628 5.878,5.226 8.602,7.848 4.269,4.066 8.164,8.153 11.421,12.483 10.413,13.752 14.566,29.823 4.522,54.488 0,0.002 28.368,44.721 22.092,66.833 z" />
			<g
   id="XMLID_00000181051821768687980280000000624568998771013007_">
				<g
   id="XMLID_00000076605648296425210830000009649497963250193833_">
					<path
   id="XMLID_00000182500370207841765230000002472243661900864408_"
   style="fill:#15244f"
   d="m 243.695,821.433 -20.985,-3.387 c 0,0 -10.368,-106.527 85.481,-110.448 36.466,-1.492 98.589,21.52 92.075,113.287 0,0 -7.799,15.732 -24.385,18.565 0,0 45.566,-83.169 -46.606,-112.673 -32.519,-10.409 -95.634,14.939 -85.58,94.656 z" />
					<path
   id="XMLID_00000132051209376017797430000013734797449303012237_"
   style="fill:#15244f"
   d="m 856.074,820.107 -13.429,0.994 c 0,0 -9.435,-95.353 81.985,-104.437 36.317,-3.609 97.644,25.566 91.955,97.963 0,0 -1.493,-7.217 -12.354,-3.529 0,0 -0.579,-50.644 -55.259,-71.348 -31.934,-12.09 -93.28,1.59 -92.898,80.357 z" />
				</g>
				<g
   id="XMLID_00000121250182921204046700000016622550313187976367_">
					<g
   id="XMLID_00000181795413025820653980000016379452281862539928_">
						
							<ellipse
   id="XMLID_00000162334970151281914350000007239951627260082066_"
   transform="matrix(0.024,-0.9997,0.9997,0.024,-489.9852,1091.7878)"
   style="fill:#0c193a"
   cx="314.186"
   cy="796.84802"
   rx="73.795998"
   ry="76.18" />
						<path
   id="XMLID_00000054244619290928600650000016058616837578313099_"
   style="fill:#d7e2ff"
   d="m 366.573,799.678 c -0.72,29.978 -25.921,53.689 -56.288,52.959 -30.367,-0.73 -54.4,-25.623 -53.679,-55.601 0.72,-29.978 25.921,-53.689 56.288,-52.959 30.366,0.729 54.399,25.623 53.679,55.601 z" />
						<path
   id="XMLID_00000050657420780988159560000012590397331125971844_"
   style="fill:#0c193a"
   d="m 350.201,797.807 c -0.506,21.06 -17.843,37.725 -38.723,37.224 -20.88,-0.502 -37.396,-17.981 -36.89,-39.04 0.506,-21.059 17.843,-37.725 38.723,-37.223 20.879,0.501 37.396,17.98 36.89,39.039 z" />
						<path
   id="XMLID_00000155145677495746960710000018294803105163650968_"
   style="fill:#d7e2ff"
   d="m 358.996,806.722 1.233,-14.448 -29.712,-0.883 c -0.173,-0.537 -0.366,-1.065 -0.587,-1.579 L 352.797,772 343.52,760.855 321.932,780.949 c -0.492,-0.277 -1.001,-0.529 -1.519,-0.764 l 3.976,-29.407 -14.455,-1.144 -1.361,29.219 c -0.746,0.149 -1.473,0.344 -2.185,0.575 l -18.691,-23.122 -10.755,9.726 19.788,20.503 c -0.884,1.266 -1.612,2.642 -2.151,4.109 l -29.293,-1.894 -0.133,14.5 29.297,-0.682 c 0.156,0.457 0.324,0.909 0.516,1.35 l -22.742,19.734 10.096,10.409 20.624,-21.345 c 0.796,0.448 1.638,0.825 2.503,1.159 l -5.524,29.131 14.327,2.238 3.297,-30.722 c 0.557,-0.15 1.101,-0.329 1.636,-0.526 l -0.333,0.26 17.656,24.377 11.462,-8.882 -19.749,-22.761 c 0.783,-1.141 1.434,-2.37 1.94,-3.673 z" />
						<g
   id="XMLID_00000169552600275587166870000011824677112739594428_">
							<path
   id="XMLID_00000090272065895921782020000017286375712286053527_"
   style="fill:#a2b2ea"
   d="m 308.732,787.208 c -0.055,2.279 -1.947,4.082 -4.226,4.028 -2.28,-0.055 -4.083,-1.947 -4.028,-4.226 0.055,-2.279 1.947,-4.083 4.226,-4.028 2.279,0.054 4.083,1.946 4.028,4.226 z" />
							<path
   id="XMLID_00000005987558971260539920000005836564973941291670_"
   style="fill:#a2b2ea"
   d="m 326.449,789.608 c -0.055,2.279 -1.947,4.083 -4.226,4.028 -2.28,-0.055 -4.083,-1.947 -4.028,-4.226 0.055,-2.279 1.947,-4.083 4.226,-4.028 2.279,0.055 4.082,1.947 4.028,4.226 z" />
							<path
   id="XMLID_00000183230954681518666870000007911370784838318748_"
   style="fill:#a2b2ea"
   d="m 323.693,807.137 c -0.055,2.279 -1.947,4.083 -4.226,4.028 -2.279,-0.055 -4.083,-1.947 -4.028,-4.227 0.055,-2.279 1.947,-4.082 4.226,-4.028 2.28,0.055 4.083,1.947 4.028,4.227 z" />
							<path
   id="XMLID_00000159467810310820394870000017638788049817084603_"
   style="fill:#a2b2ea"
   d="m 305.797,804.732 c -0.055,2.28 -1.947,4.083 -4.226,4.028 -2.279,-0.055 -4.083,-1.947 -4.028,-4.226 0.055,-2.28 1.947,-4.083 4.226,-4.028 2.279,0.054 4.083,1.946 4.028,4.226 z" />
						</g>
					</g>
					<g
   id="XMLID_00000036950640962191147500000001282925952696976524_">
						<path
   id="XMLID_00000160903630872165697240000012887032788890602398_"
   style="fill:#0c193a"
   d="m 1006.816,806.307 c -0.979,40.744 -35.869,72.955 -77.93,71.945 -42.061,-1.01 -75.364,-34.86 -74.385,-75.604 0.979,-40.745 35.869,-72.956 77.93,-71.945 42.061,1.01 75.364,34.86 74.385,75.604 z" />
						<path
   id="XMLID_00000026875686924837528160000015148867913960003498_"
   style="fill:#d7e2ff"
   d="m 983.046,807.307 c -0.72,29.978 -25.921,53.689 -56.288,52.959 -30.366,-0.729 -54.4,-25.623 -53.679,-55.601 0.72,-29.978 25.921,-53.688 56.288,-52.959 30.366,0.73 54.399,25.623 53.679,55.601 z" />
						<path
   id="XMLID_00000064333007415261495130000011043116527163068336_"
   style="fill:#0c193a"
   d="m 966.674,805.437 c -0.506,21.06 -17.842,37.725 -38.722,37.224 -20.88,-0.502 -37.397,-17.98 -36.89,-39.04 0.506,-21.06 17.842,-37.725 38.722,-37.224 20.879,0.501 37.396,17.98 36.89,39.04 z" />
						<path
   id="XMLID_00000124873114782968026500000003709728776585048998_"
   style="fill:#d7e2ff"
   d="m 975.469,814.351 1.233,-14.448 -29.713,-0.883 c -0.172,-0.537 -0.366,-1.064 -0.587,-1.579 l 22.867,-17.811 -9.277,-11.145 -21.588,20.094 c -0.492,-0.278 -1,-0.53 -1.519,-0.764 l 3.976,-29.407 -14.455,-1.144 -1.361,29.219 c -0.746,0.149 -1.473,0.344 -2.185,0.575 l -18.691,-23.122 -10.755,9.726 19.789,20.503 c -0.885,1.265 -1.612,2.642 -2.151,4.109 l -29.293,-1.895 -0.133,14.5 29.297,-0.682 c 0.156,0.457 0.324,0.909 0.516,1.35 l -22.742,19.734 10.096,10.409 20.624,-21.345 c 0.796,0.448 1.638,0.825 2.503,1.159 l -5.524,29.131 14.327,2.238 3.297,-30.722 c 0.557,-0.15 1.101,-0.329 1.636,-0.526 l -0.333,0.26 17.655,24.377 11.462,-8.882 -19.749,-22.76 c 0.783,-1.141 1.434,-2.37 1.941,-3.674 z" />
						<g
   id="XMLID_00000170254760989481220560000001318002300733484974_">
							<path
   id="XMLID_00000047758676370432126090000002415486372664946087_"
   style="fill:#a2b2ea"
   d="m 925.205,794.837 c -0.055,2.279 -1.947,4.083 -4.226,4.028 -2.279,-0.055 -4.083,-1.947 -4.028,-4.226 0.055,-2.28 1.947,-4.083 4.226,-4.028 2.279,0.054 4.083,1.946 4.028,4.226 z" />
							<path
   id="XMLID_00000029735793270550885370000001869697508385576120_"
   style="fill:#a2b2ea"
   d="m 942.922,797.237 c -0.054,2.279 -1.947,4.083 -4.226,4.028 -2.279,-0.055 -4.082,-1.947 -4.028,-4.226 0.054,-2.279 1.947,-4.082 4.226,-4.028 2.279,0.055 4.082,1.947 4.028,4.226 z" />
							<path
   id="XMLID_00000176765066166980084880000002409504588296813705_"
   style="fill:#a2b2ea"
   d="m 940.166,814.766 c -0.054,2.279 -1.946,4.083 -4.226,4.028 -2.279,-0.055 -4.082,-1.947 -4.028,-4.226 0.055,-2.28 1.947,-4.083 4.226,-4.028 2.28,0.055 4.083,1.947 4.028,4.226 z" />
							<path
   id="XMLID_00000129916425106863855070000013737899016379917502_"
   style="fill:#a2b2ea"
   d="m 922.27,812.361 c -0.055,2.279 -1.947,4.082 -4.226,4.028 -2.279,-0.055 -4.083,-1.947 -4.028,-4.226 0.055,-2.279 1.947,-4.083 4.226,-4.028 2.28,0.055 4.083,1.947 4.028,4.226 z" />
						</g>
					</g>
				</g>
			</g>
			<g
   id="XMLID_00000155141158228746658690000014401568560578085282_">
				<path
   id="XMLID_00000183966037299648365720000009403409047993184651_"
   style="fill:#db221e"
   d="m 1021.378,622.248 c -0.058,-0.001 -0.115,0.026 -0.173,0.024 -9.107,1.218 -42.45,-6.277 -42.45,-6.277 -18.611,-0.16 -40.796,0.198 -65.605,0.952 -138.679,4.281 -359.79,21.289 -503.218,33.154 -82.926,6.913 -139.899,12.065 -139.899,12.065 -40.952,30.615 -128.024,67.763 -128.024,67.763 l -0.284,-0.15 c 3.801,-32.657 19.873,-67.92 70.498,-73.081 0,0 21.171,-4.777 48.281,-11.652 37.833,-9.576 87.198,-23.27 106.493,-33.694 60.16,-32.566 161.834,-100.015 313.243,-94.941 65.385,2.203 173.114,-1.586 260.93,19.914 0,0 4.186,5.128 6.167,12.357 0,0 0,0 0.028,0.03 1.543,1.559 54.211,54.819 64.008,64.333 0.701,0.706 1.179,1.148 1.404,1.355 2.982,2.628 5.878,5.225 8.601,7.848 z" />
				<path
   id="XMLID_00000139973309139452291920000000421211270510826923_"
   style="fill:#f45e55"
   d="m 666.017,660.06 c -0.148,6.144 -13.121,10.816 -28.977,10.435 -15.856,-0.381 -28.59,-5.671 -28.442,-11.815 0.148,-6.144 13.121,-10.816 28.977,-10.435 15.855,0.381 28.589,5.671 28.442,11.815 z" />
				<path
   id="XMLID_00000110443197292579679150000012996542072682058379_"
   style="fill:#f45e55"
   d="m 893.329,644.455 c -0.148,6.144 -13.121,10.816 -28.977,10.435 -15.856,-0.381 -28.59,-5.671 -28.442,-11.815 0.147,-6.144 13.121,-10.816 28.977,-10.435 15.855,0.381 28.59,5.671 28.442,11.815 z" />
				<path
   id="XMLID_00000049203675936590034680000005021716313720075919_"
   style="fill:#f45e55"
   d="m 980.241,673.713 c -0.244,10.174 -8.69,18.224 -18.864,17.98 -10.175,-0.245 -18.224,-8.691 -17.979,-18.865 0.244,-10.174 8.69,-18.224 18.864,-17.979 10.174,0.244 18.224,8.69 17.979,18.864 z" />
				<path
   id="XMLID_00000025430535969862843180000012866400171956476346_"
   style="fill:#ef3e38"
   d="m 414.634,601.475 c 0,0 -87.313,47.216 -50.469,48.101 l 45.767,0.525 c 0,0 -2.515,-27.255 4.702,-48.626 z" />
				<path
   id="XMLID_00000053544258624851187380000013616966004499472553_"
   style="fill:#ffffff"
   d="m 1037.321,689.218 c -15.349,1.556 -64.073,-43.681 -64.073,-43.681 -18.569,-23.427 57.718,-11.052 57.718,-11.052 l 1.833,0.245 c 10.413,13.752 14.565,29.824 4.522,54.488 z" />
				<path
   id="XMLID_00000090281013994681012750000003244953735511280789_"
   style="fill:#d7e2ff"
   d="m 496.881,564.16 c 22.127,-8.28 116.002,-41.453 178.546,-33.014 2.028,0.274 3.37,2.241 2.941,4.242 -3.021,14.088 -14.037,64.857 -20.485,86.493 -1.159,3.888 -4.592,6.643 -8.636,6.953 l -159.92,12.258 -9.929,-25.135 11.082,-45.151 c 1.026,-3.07 3.369,-5.511 6.401,-6.646 z" />
				<path
   id="XMLID_00000005960819422578481150000006585134504373622948_"
   style="fill:#d7e2ff"
   d="m 496.881,564.16 c 22.127,-8.28 116.002,-41.453 178.546,-33.014 2.028,0.274 3.37,2.241 2.941,4.242 -3.021,14.088 -14.037,64.857 -20.485,86.493 -1.159,3.888 -4.592,6.643 -8.636,6.953 l -159.92,12.258 -9.929,-25.135 11.082,-45.151 c 1.026,-3.07 3.369,-5.511 6.401,-6.646 z" />
				<path
   id="XMLID_00000000205151791833744610000010482230620780085379_"
   style="fill:#d7e2ff"
   d="m 496.881,564.16 c 22.127,-8.28 116.002,-41.453 178.546,-33.014 2.028,0.274 3.37,2.241 2.941,4.242 -3.021,14.088 -14.037,64.857 -20.485,86.493 -1.159,3.888 -4.592,6.643 -8.636,6.953 l -159.92,12.258 -9.929,-25.135 11.082,-45.151 c 1.026,-3.07 3.369,-5.511 6.401,-6.646 z" />
				<path
   id="XMLID_00000088096077257020147530000014051937078476969917_"
   style="fill:#d7e2ff"
   d="m 496.881,564.16 c 22.127,-8.28 116.002,-41.453 178.546,-33.014 2.028,0.274 3.37,2.241 2.941,4.242 -3.021,14.088 -14.037,64.857 -20.485,86.493 -1.159,3.888 -4.592,6.643 -8.636,6.953 l -159.92,12.258 -9.929,-25.135 11.082,-45.151 c 1.026,-3.07 3.369,-5.511 6.401,-6.646 z" />
				<path
   id="XMLID_00000059277538771073366070000007248865362580062616_"
   style="fill:#f45e55"
   d="m 223.491,802.295 c -0.465,4.987 -0.706,10.238 -0.781,15.752 0,0 -32.517,8.325 -46.249,-2.404 0,0 -33.806,0.969 -34.452,-0.828 l -1.584,-9.403 c 0,0 70.017,-0.443 81.569,-3.038 0.521,-0.131 1.038,-0.148 1.497,-0.079 z" />
				<path
   id="XMLID_00000152947951245382582700000015486462134903641754_"
   style="fill:#f45e55"
   d="m 173.691,795.813 c 0,0 -22.301,9.949 -32.406,8.5 2.934,-3.75 11.759,-15.948 3.877,-16.712 0,0 8.428,-51.878 30.064,-55.667 0,0 15.955,62.862 -1.535,63.879 z" />
				<path
   id="XMLID_00000081611738149094442950000004612298366281983935_"
   style="fill:#f45e55"
   d="m 173.691,795.813 c -4.467,-13.752 1.535,-63.879 1.535,-63.879 0,0 15.955,62.862 -1.535,63.879 z" />
				<path
   id="XMLID_00000035506481824053017280000012996002891535266176_"
   style="fill:#db221e"
   d="m 848.405,741.155 c -9.589,-0.23 -14.848,-20.465 -14.848,-20.465 1.459,-20.074 -18.64,-15.962 -26.372,-17.869 -124.699,-30.755 -344.493,5.648 -391.141,7.436 -3.838,0.147 -36.312,13.387 -36.273,14.087 -21.401,-24.402 -55.048,-30.694 -76.068,-28.822 -90.017,8.014 -79.31,91.943 -79.31,91.943 0,0 0.283,0.179 0.82,0.537 15.927,-96.195 101.595,-78.509 101.595,-78.509 49.099,9.309 73.246,50.465 72.416,88.608 0.15,-1.461 42.629,5.994 47.192,4.983 l 226.861,0.797 124.287,0.458 c 0,0 20.219,3.761 30.822,-23.849 0.519,-1.28 0.983,-2.648 1.449,-4.102 0,0 8.371,-16.029 19.914,-31.379 0.002,-2.471 -0.426,-3.832 -1.344,-3.854 z" />
				<path
   id="XMLID_00000061432224580509734320000006487645285779091641_"
   style="fill:#f45e55"
   d="m 448.127,791.634 c 0,0 179.086,-40.941 321.468,-18.849 z" />
				<path
   id="XMLID_00000069368651764622898700000011838179275978014122_"
   style="fill:#ef3e38"
   d="m 197.709,704.107 c 0,0 66.881,34.762 167.773,-59.526 l -95.449,17.586 c 0,-10e-4 -40.347,26.191 -72.324,41.94 z" />
				<path
   id="XMLID_00000057149930571037828130000008673150848173136010_"
   style="fill:#f45e55"
   d="m 1011.373,613.045 c -0.854,-0.308 -1.764,-0.703 -2.702,-1.128 -46.522,-20.91 -60.876,-61.931 -61.306,-63.206 1.543,1.56 54.211,54.82 64.008,64.334 z" />
				<path
   id="XMLID_00000008123888641578274980000015027283535004172681_"
   style="fill:#111111"
   d="m 861.042,523.628 c 0,0 12.95,-10.94 15.499,2.527 z" />
				
					<rect
   id="XMLID_00000170963436468289800750000001422089821326307517_"
   x="881.23499"
   y="494.71301"
   transform="matrix(0.8102,0.5862,-0.5862,0.8102,466.1528,-420.2075)"
   style="fill:#111111"
   width="1.345"
   height="29.915001" />
				<path
   id="XMLID_00000046320694045985625420000014106104842181403302_"
   style="fill:#f45e55"
   d="m 1058.599,767.261 c -1.521,15.504 -5.602,41.863 -16.096,44.628 0,0 -21.67,5.225 -25.919,2.738 0,0 0.07,-73.48 -60.523,-90.994 -35.889,-10.342 -105.118,-9.219 -112.946,97.828 0,0 -407.178,-0.677 -434.59,4.41 0,0 -10.732,-1.694 -8.894,-18.398 0,0 0.057,-4.767 -0.464,-10.554 0,0 365.828,-44.211 429.22,-16.432 0,0 33.623,-87.841 122.232,-69.425 0,0 35.066,5.151 58.71,37.318 0,0 30.96,26.597 48.376,19.116 0.318,-0.133 0.607,-0.213 0.894,-0.235 z" />
				<path
   id="XMLID_00000090993997490519469490000017096216225934043545_"
   style="fill:#f45e55"
   d="m 276.077,652.788 c 0,0 91.854,-20.477 115.987,-38.569 0,0 -58.315,36.04 -28.16,33.302 167.96,-15.246 549.981,-31.832 550.043,-30.943 1.39,19.974 -645.422,45.794 -645.422,45.794 0,0 9.973,-3.127 7.552,-9.584 z" />
				<path
   id="XMLID_00000163751791268838922530000007238211825863302791_"
   style="fill:#f45e55"
   d="m 941.171,536.325 c 0,0 -24.665,4.479 -30.862,9.41 -1.62,1.289 -3.738,1.703 -5.734,1.153 -13.814,-3.805 -58.486,-15.372 -104.906,-19.469 -10e-4,10e-4 77.579,-0.769 141.502,8.906 z" />
				<path
   id="XMLID_00000068668961286088745870000009065754383212459160_"
   style="fill:#ffffff"
   d="m 270.014,662.15 -0.883,0.924 c -0.33,0.384 -0.661,0.73 -1.03,1.077 -38.87,39.923 -97.15,37.165 -97.15,37.165 0,0 -0.986,-18.731 16.126,-33.124 4.878,-4.139 11.195,-7.896 19.416,-10.754 1.494,-0.561 3.065,-1.048 4.674,-1.498 0,0 22.241,-4.002 49.35,-10.899 l 0.342,0.143 c 0.001,0 28.587,6.927 9.155,16.966 z" />
				<path
   id="XMLID_00000036972791211124815830000000242446088778042037_"
   style="fill:#f45e55"
   d="m 828.386,780.489 c -10.603,27.61 -30.822,23.849 -30.822,23.849 l -124.287,-0.458 -226.86,-0.797 c -4.563,1.011 -8.42,1.32 -11.662,1.127 l -12.548,-9.788 c 0,0 324.357,-41.94 404.182,-14.527 0.672,0.231 1.369,0.406 1.997,0.594 z" />
				<g
   id="XMLID_00000072275417388285387130000002940392735944033197_">
					<path
   style="fill:#f45e55"
   d="m 800.376,805.86 c -1.869,0.042 -3.015,-0.152 -3.064,-0.161 l -350.747,-1.231 c -4.367,0.956 -8.37,1.333 -11.893,1.125 -6.12,-0.352 -10.803,-2.485 -13.914,-6.337 -4.825,-5.975 -4.235,-14.091 -4.011,-16.036 -8.128,-18.436 -12.642,-41.223 -13.418,-67.737 -1.029,-35.514 5.131,-65.512 5.194,-65.811 l 0.186,-0.892 0.892,-0.182 c 29.142,-5.98 163.279,-14.807 270.672,-21.161 118.367,-7.009 231.925,-12.671 233.058,-12.729 l 1.184,-0.059 0.24,1.161 c 14.193,67.958 -37.726,104.999 -38.251,105.365 l -0.152,0.093 c -7.64,3.966 -16.217,12.233 -25.495,24.573 -11.339,15.073 -19.713,31.028 -19.796,31.186 -0.383,1.272 -0.86,2.669 -1.391,3.982 -8.397,21.863 -22.976,24.71 -29.294,24.851 z m -354.109,-4.162 0.154,-10e-4 351.148,1.255 c 1.027,0.169 19.49,3.159 29.523,-22.959 0.515,-1.273 0.967,-2.609 1.422,-4.029 0.175,-0.38 8.649,-16.526 20.129,-31.789 9.494,-12.629 18.357,-21.147 26.344,-25.323 2.093,-1.508 50.058,-37.026 37.292,-101.317 -12.445,0.623 -119.999,6.044 -231.842,12.669 -106.23,6.282 -238.62,14.986 -269.38,20.929 -1.001,5.216 -5.88,32.511 -4.96,64.272 0.771,26.322 5.26,48.88 13.339,67.046 l 0.165,0.372 -0.063,0.402 c -0.013,0.087 -1.248,8.585 3.385,14.305 2.6,3.211 6.607,4.993 11.91,5.299 3.313,0.194 7.109,-0.17 11.282,-1.098 z"
   id="path116" />
				</g>
				<g
   id="XMLID_00000049905178560987393430000006525750787667937416_">
					<path
   style="fill:#f45e55"
   d="m 671.389,802.605 c -12.935,-29.767 6.093,-167.099 6.909,-172.93 l 2.742,0.382 c -0.198,1.422 -19.738,142.387 -7.111,171.446 z"
   id="path119" />
				</g>
			</g>
			<g
   id="XMLID_00000070109142489651190250000013621090471405054890_">
				<path
   id="XMLID_00000083087407727617081730000012061553465963546240_"
   style="fill:#0c193a"
   d="m 913.401,616.091 c -0.006,0.258 -0.07,0.544 -0.25,0.856 -64.711,2.007 -147.385,6.772 -231.747,12.472 -96.391,6.561 -194.965,14.361 -271.471,20.682 l -0.054,-0.145 c 0,0 -2.701,-51.398 15.439,-60.327 0,0 123.717,-73.842 277.035,-66.941 50.331,2.272 193.807,3.938 198.865,32.556 0,0 12.212,50.076 12.183,60.847 z" />
				<path
   id="XMLID_00000093156794270660251970000002607865174824529331_"
   style="fill:#d7e2ff"
   d="m 721.117,538.33 c -3.55,20.709 -14.269,83.684 -14.07,87.885 l 152.414,-6.871 c 0,0 29.473,-39.383 22.415,-66.13 -0.863,-3.267 -101.3,-21.405 -152.814,-21.532 -3.923,-0.01 -7.282,2.782 -7.945,6.648 z" />
				<path
   id="XMLID_00000145038379524071545640000011394674291477396403_"
   style="fill:#d7e2ff"
   d="m 432.943,596.649 c 9.538,-8.166 32.785,-17.998 44.819,-22.661 1.868,-0.724 3.806,0.839 3.482,2.816 -1.757,10.695 -6.789,39.954 -9.57,41.841 0,0 -30.375,8.846 -42.176,1.859 -10e-4,0 -3.318,-18.065 3.445,-23.855 z" />
				<path
   id="XMLID_00000012458813891606652550000012916027308506585777_"
   style="fill:#15244f"
   d="m 473.967,602.901 c 0,0 12.379,22.8 1.132,32.584 0,0 -33.154,4.949 -34.049,-17.575 0,-10e-4 1.918,-20.063 32.917,-15.009 z" />
				<g
   id="XMLID_00000039101767972465213970000004030757893453348512_">
					<defs
   id="defs128">
						<path
   id="XMLID_00000139288451389450258940000014322008174154011019_"
   d="m 721.117,538.33 c -3.55,20.709 -14.269,83.684 -14.07,87.885 l 152.414,-6.871 c 0,0 29.473,-39.383 22.415,-66.13 -0.863,-3.267 -101.3,-21.405 -152.814,-21.532 -3.923,-0.01 -7.282,2.782 -7.945,6.648 z" />
					</defs>
					<clipPath
   id="XMLID_00000173125668001513136460000011624076373389961349_">
						<use
   xlink:href="#XMLID_00000139288451389450258940000014322008174154011019_"
   style="overflow:visible"
   id="use130" />
					</clipPath>
					
						<g
   id="XMLID_00000157287561187039446060000004718058151072624547_"
   style="opacity:0.57"
   clip-path="url(#XMLID_00000173125668001513136460000011624076373389961349_)">
						
							<rect
   id="XMLID_00000099655264437150320150000017195836221080729993_"
   x="772.30603"
   y="494.33899"
   transform="matrix(0.7606,0.6493,-0.6493,0.7606,559.1201,-368.8787)"
   style="fill:#ffffff"
   width="14.752"
   height="158.543" />
						
							<rect
   id="XMLID_00000018918012142111604780000010422809183419707797_"
   x="799.92798"
   y="508.836"
   transform="matrix(0.7606,0.6493,-0.6493,0.7606,577.3201,-389.2345)"
   style="fill:#ffffff"
   width="32.903999"
   height="158.543" />
					</g>
				</g>
				<path
   id="XMLID_00000101091713944984919750000003144858263107966901_"
   style="fill:#d7e2ff"
   d="m 496.881,564.16 c 22.127,-8.28 116.002,-41.453 178.546,-33.014 2.028,0.274 3.37,2.241 2.941,4.242 -3.021,14.088 -14.037,64.857 -20.485,86.493 -1.159,3.888 -4.592,6.643 -8.636,6.953 l -159.92,12.258 -9.929,-25.135 11.082,-45.151 c 1.026,-3.07 3.369,-5.511 6.401,-6.646 z" />
				<g
   id="XMLID_00000115483815039958453850000004509387204546186159_">
					<defs
   id="defs139">
						<path
   id="XMLID_00000094618177870804727200000016166393226600744076_"
   d="m 496.881,564.16 c 22.127,-8.28 116.002,-41.453 178.546,-33.014 2.028,0.274 3.37,2.241 2.941,4.242 -3.021,14.088 -14.037,64.857 -20.485,86.493 -1.159,3.888 -4.592,6.643 -8.636,6.953 l -159.92,12.258 -9.929,-25.135 11.082,-45.151 c 1.026,-3.07 3.369,-5.511 6.401,-6.646 z" />
					</defs>
					<clipPath
   id="XMLID_00000129184332912454165170000004772458370080101532_">
						<use
   xlink:href="#XMLID_00000094618177870804727200000016166393226600744076_"
   style="overflow:visible"
   id="use141" />
					</clipPath>
					
						<g
   id="XMLID_00000166647717849244880000000000438406058037840773_"
   style="opacity:0.56"
   clip-path="url(#XMLID_00000129184332912454165170000004772458370080101532_)">
						
							<rect
   id="XMLID_00000060020842923652727440000007417550980401471621_"
   x="557.05499"
   y="490.539"
   transform="matrix(0.7938,0.6082,-0.6082,0.7938,473.1152,-221.8101)"
   style="fill:#ffffff"
   width="13.245"
   height="192.589" />
						
							<rect
   id="XMLID_00000052784736237069670150000009854678432076493478_"
   x="586.87903"
   y="500.28799"
   transform="matrix(0.7938,0.6082,-0.6082,0.7938,489.1419,-249.5999)"
   style="fill:#ffffff"
   width="51.601002"
   height="192.59" />
					</g>
				</g>
			</g>
		</g>
		<g
   id="g230">
			<path
   style="fill:#1f282e"
   d="m 494.428,852.585 c 0,0 -3.262,9.242 -2.356,18.484 0,0 7.974,2.718 15.041,2.718 7.068,0 21.384,3.081 23.015,0 1.631,-3.081 -20.84,-13.048 -23.015,-14.135 -2.175,-1.087 -2.9,-4.972 -2.9,-4.972 z"
   id="path150" />
			<path
   style="fill:#1f282e"
   d="m 363.358,839.832 c 0,0 -5.918,7.812 -7.866,16.892 0,0 6.77,5.015 13.502,7.164 6.732,2.149 19.434,9.438 21.925,7 2.491,-2.439 -15.885,-18.768 -17.626,-20.465 -1.741,-1.697 -1.25,-5.618 -1.25,-5.618 z"
   id="path152" />
			<path
   style="fill:#15244f"
   d="m 450.935,617.885 c 0,0 7.017,78.518 9.549,98.436 2.532,19.919 11.231,73.622 14.13,88.089 2.9,14.467 12.565,50.269 12.565,50.269 l 26.096,2.375 c 0,0 -6.517,-79.254 -7.125,-99.068 -0.608,-19.814 -1.091,-98.101 -2.541,-114.532 -1.45,-16.431 -5.739,-71.522 -5.739,-71.522 l -43.07,-15.464 -48.326,4.492 c 0,0 -16.914,56.398 -22.23,93.125 -5.316,36.728 -8.699,70.072 -8.699,70.072 0,0 -15.464,98.101 -16.431,116.465 l 21.263,7.732 c 0,0 29.962,-80.221 37.694,-110.183 7.735,-29.96 32.864,-120.286 32.864,-120.286 z"
   id="path154" />
			<path
   style="fill:#0c193a"
   d="m 387.285,636.699 c 6.923,-34.827 19.19,-75.738 19.19,-75.738 l 48.326,-4.492 43.07,15.464 c 0,0 2.242,28.797 4.032,50.961 -3.634,2.507 -9.736,5.669 -18.848,7.232 -14.834,2.543 -17.56,3.558 -30.518,5.459 -0.962,-10.528 -1.603,-17.699 -1.603,-17.699 0,0 -2.052,7.377 -5.159,18.593 -15.121,1.428 -43.827,-1.208 -58.49,0.22 z"
   id="path156" />
			<g
   id="g160">
				<path
   style="fill:#0c193a"
   d="m 492.973,855.789 1.143,-0.364 c -2.542,-7.976 -7.116,-36.696 -11.153,-62.035 -2.896,-18.183 -5.398,-33.885 -6.797,-39.889 -1.635,-7.01 -2.696,-20.311 -3.821,-34.393 -1.181,-14.789 -2.401,-30.081 -4.396,-39.055 -3.811,-17.16 -6.723,-49.375 -6.752,-49.698 L 460,630.461 c 0.029,0.324 2.949,32.616 6.778,49.853 1.976,8.891 3.191,24.142 4.369,38.89 1.128,14.129 2.191,27.473 3.848,34.571 1.391,5.959 4.01,22.399 6.781,39.803 4.047,25.381 8.628,54.148 11.197,62.211 z"
   id="path158" />
			</g>
			<g
   id="g164">
				<path
   style="fill:#0c193a"
   d="m 364.545,843.193 c 2.502,-23.403 11.435,-65.646 17.346,-93.6 3.348,-15.844 5.771,-27.292 5.991,-30.222 2.603,-34.282 12.796,-88.311 12.9,-88.852 l -1.181,-0.223 c -0.101,0.542 -10.307,54.637 -12.916,88.985 -0.215,2.851 -2.755,14.86 -5.97,30.064 -5.917,27.978 -14.857,70.258 -17.362,93.721 z"
   id="path162" />
			</g>
			<path
   style="fill:#5e4a3a"
   d="m 658.146,484.665 c 0,0 8.322,0.846 11.946,-0.081 3.624,-0.927 7.37,-1.907 12.806,-1.303 5.436,0.604 15.585,3.598 14.739,4.685 -0.846,1.087 -7.249,0.483 -7.249,0.483 0,0 -1.208,3.02 -4.228,3.262 -3.02,0.242 -4.777,3.262 -8.248,3.141 -3.471,-0.121 -7.941,-3.504 -7.941,-3.504 l -15.464,2.296 z"
   id="path166" />
			<path
   style="fill:#3e60b5"
   d="m 538.405,446.065 c 11.115,5.054 16.44,13.511 16.44,13.511 l 37.201,20.316 68.381,2.88 c 0,0 0.725,2.556 -1.691,16.017 0,0 -34.616,10.995 -55.485,13.92 -20.869,2.925 -34.875,2.2 -48.531,-2.633 -13.656,-4.833 -27.913,-11.287 -27.913,-11.287 l -9.786,-3.211 z"
   id="path168" />
			<path
   style="fill:#314fa5"
   d="m 526.806,498.789 -9.786,-3.211 16.564,-38.353 3.702,-1.19 c 0,0 1.36,9.581 1.118,20.454 -0.242,10.873 6.282,17.053 10.39,22.3 3.755,4.795 29.847,8.303 38.103,15.487 -12.466,0.568 -22.434,-0.752 -32.178,-4.2 -13.657,-4.833 -27.913,-11.287 -27.913,-11.287 z"
   id="path170" />
			<path
   style="fill:#5e4a3a"
   d="m 517.02,380.926 c 1.812,6.161 1.208,13.169 3.745,16.189 2.537,3.02 0.362,17.397 -1.208,18.968 -1.571,1.571 -12.081,-0.966 -12.081,-0.966 l -8.819,26.217 c 0,0 -18.605,2.779 -26.217,-13.41 l 13.894,-21.263 c 0,0 2.567,-5.225 1.027,-12.202 -1.54,-6.977 1.812,-15.585 5.98,-17.488 4.168,-1.905 23.679,3.955 23.679,3.955 z"
   id="path172" />
			<path
   style="fill:#453629"
   d="m 491.655,401.706 c 0,0 3.014,4.711 4.706,6.524 4.968,5.323 11.115,6.887 11.115,6.887 l -2.403,7.143 c 0,0 -5.676,0 -7.888,-5.693 -1.951,-5.022 -4.124,-6.276 -4.939,-9.266 -0.816,-2.991 -0.591,-5.595 -0.591,-5.595 z"
   id="path174" />
			<path
   style="fill:#0c193a"
   d="m 501.677,437.143 c 0,0 -18.122,6.485 -30.445,-13.087 0,0 -15.864,96.132 -10.469,111.373 5.395,15.241 41.156,-76.017 40.914,-98.286 z"
   id="path176" />
			<path
   style="fill:#3e60b5"
   d="m 477.426,420.291 c 0,0 -1.845,1.833 -4.986,15.122 -3.141,13.29 -7.732,67.898 -9.182,89.644 0,0 6.832,-10.632 14.168,-26.579 7.337,-15.948 21.23,-57.145 21.23,-57.145 l 3.655,-10.864 c 0,0 11.93,4.539 16.521,6.675 4.591,2.136 19.572,8.922 19.572,8.922 0,0 -0.967,16.894 -6.524,32.358 -5.557,15.464 -11.357,19.77 -16.189,32.96 -4.833,13.191 -9.907,31.796 -16.189,43.877 0,0 5.799,24.646 6.765,35.519 0.967,10.873 0.725,18.606 0.725,18.606 0,0 -13.852,10.325 -36.003,8.215 -5.074,-0.483 -5.557,-1.45 -6.524,-10.148 -0.966,-8.699 -5.557,-41.077 -5.557,-41.077 0,0 -5.316,18.122 -9.423,27.787 -4.108,9.665 -3.383,14.981 -9.665,16.914 -6.282,1.933 -42.527,-7.249 -51.225,-22.471 l 16.431,-41.318 5.074,-20.055 2.416,-43.01 c 0,0 -15.706,23.921 -29.237,33.828 -13.531,9.907 -31.895,4.108 -36.244,-2.658 -4.349,-6.766 -6.274,-15.471 -6.274,-15.471 0,0 29.229,-29.473 34.303,-36.238 5.074,-6.765 14.154,-19.599 22.955,-29.237 7.051,-7.722 16.491,-16.654 36.969,-16.31 16.011,0.268 42.438,2.154 42.438,2.154 z"
   id="path178" />
			<g
   id="g182">
				<path
   style="fill:#15244f"
   d="m 460.485,522.73 c 0.077,0 0.154,-0.011 0.234,-0.035 0.431,-0.128 0.675,-0.581 0.545,-1.012 l -12.294,-41.144 12.028,-9.765 c 0.242,-0.197 0.351,-0.513 0.279,-0.816 l -7.268,-31.121 17.766,-15.973 c 0.332,-0.301 0.362,-0.815 0.061,-1.149 -0.303,-0.335 -0.814,-0.362 -1.151,-0.061 l -18.123,16.294 c -0.221,0.198 -0.314,0.501 -0.247,0.79 l 7.26,31.093 -12.054,9.787 c -0.255,0.207 -0.362,0.549 -0.266,0.864 l 12.451,41.665 c 0.104,0.355 0.428,0.583 0.779,0.583 z"
   id="path180" />
			</g>
			<path
   style="fill:#314fa5"
   d="m 410.1,527.232 2.416,-43.01 c 0,0 16.901,-18.994 19.814,-28.512 3.383,-11.055 0,-21.022 0,-21.022 3.624,2.416 5.074,13.048 5.771,19.814 0.697,6.766 -2.629,6.766 -1.18,15.706 1.45,8.94 1.691,16.189 0,27.062 -1.692,10.873 1.933,35.036 -2.9,40.43 -4.833,5.394 -29.575,11.045 -29.575,11.045 v 0 l 0.58,-1.458 z"
   id="path184" />
			<path
   style="fill:#314fa5"
   d="m 347.035,515.392 c -4.349,-6.766 -6.274,-15.471 -6.274,-15.471 0,0 2.773,-2.797 6.754,-6.859 2.462,-1.775 5.482,-3.466 9.075,-4.639 11.627,-3.796 13.999,0.712 25.151,-4.271 9.39,-4.196 23.116,2.861 27.229,5.201 -5.397,7.582 -16.079,21.658 -25.691,28.696 -13.531,9.908 -31.895,4.108 -36.244,-2.657 z"
   id="path186" />
			
				<rect
   x="390.414"
   y="469.29401"
   transform="matrix(-0.9408,-0.3391,0.3391,-0.9408,636.3109,1117.652)"
   style="fill:#f8f8f8"
   width="50.742001"
   height="67.898003"
   id="rect188" />
			<polygon
   style="fill:#dbdbdb"
   points="401.946,534.342 435.66,522.924 443.644,500.771 392.677,492.532 380.406,526.578 "
   id="polygon190" />
			<g
   id="g194">
				<path
   style="fill:#15244f"
   d="m 458.908,567.189 c 0.043,0 0.085,-0.003 0.128,-0.011 0.444,-0.07 0.747,-0.488 0.675,-0.932 -0.016,-0.101 -1.606,-10.166 -1.08,-15.829 0.532,-5.705 5.366,-24.969 5.417,-25.163 0.109,-0.435 -0.154,-0.878 -0.59,-0.987 -0.441,-0.118 -0.878,0.154 -0.989,0.59 -0.199,0.796 -4.914,19.579 -5.459,25.408 -0.545,5.87 1.029,15.817 1.096,16.239 0.063,0.401 0.409,0.685 0.802,0.685 z"
   id="path192" />
			</g>
			<g
   id="g198">
				<path
   style="fill:#15244f"
   d="m 497.872,553.295 c 0.194,0 0.388,-0.069 0.542,-0.207 0.335,-0.3 0.364,-0.815 0.064,-1.149 l -7.792,-8.698 c -0.303,-0.335 -0.816,-0.36 -1.149,-0.064 -0.335,0.3 -0.364,0.815 -0.064,1.149 l 7.792,8.698 c 0.163,0.179 0.383,0.271 0.607,0.271 z"
   id="path196" />
			</g>
			<g
   id="g202">
				<path
   style="fill:#15244f"
   d="m 496.784,555.651 c 0.316,0 0.614,-0.185 0.747,-0.493 0.178,-0.414 -0.013,-0.891 -0.425,-1.068 0,0 -1.271,-0.545 -5.627,-2.36 -4.273,-1.779 -6.002,-2.992 -6.853,-4.807 -0.191,-0.408 -0.678,-0.578 -1.082,-0.391 -0.407,0.191 -0.582,0.675 -0.391,1.082 1.037,2.212 3.053,3.682 7.699,5.618 4.337,1.807 5.608,2.351 5.611,2.352 0.106,0.046 0.215,0.067 0.321,0.067 z"
   id="path200" />
			</g>
			<g
   id="g206">
				<path
   style="fill:#15244f"
   d="m 500.919,590.982 c 1.018,0 2.064,-0.043 3.135,-0.126 0.447,-0.035 0.782,-0.427 0.747,-0.875 -0.035,-0.448 -0.412,-0.775 -0.875,-0.747 -8.05,0.636 -14.41,-1.21 -18.939,-5.469 -6.56,-6.163 -7.377,-15.701 -7.478,-18.256 7.129,-1.304 21.792,0.935 21.944,0.959 0.465,0.073 0.862,-0.238 0.928,-0.681 0.069,-0.444 -0.234,-0.859 -0.678,-0.928 -0.652,-0.101 -16.059,-2.457 -23.205,-0.803 -0.364,0.084 -0.622,0.404 -0.63,0.778 -0.008,0.507 -0.122,12.472 7.994,20.108 4.266,4.013 9.997,6.04 17.057,6.04 z"
   id="path204" />
			</g>
			<g
   id="g210">
				<path
   style="fill:#15244f"
   d="m 410.696,582.342 c 1.888,0 3.906,-0.149 6.036,-0.504 13.153,-2.193 15.4,-18.074 15.421,-18.234 0.056,-0.421 -0.221,-0.814 -0.636,-0.903 -8.1,-1.721 -26.186,-10.017 -26.366,-10.101 -0.415,-0.186 -0.891,-0.008 -1.08,0.399 -0.189,0.408 -0.008,0.892 0.399,1.08 0.726,0.334 17.391,7.978 25.941,10.04 -0.598,3.01 -3.534,14.38 -13.945,16.114 -12.232,2.036 -20.814,-3.191 -20.902,-3.243 -0.372,-0.238 -0.88,-0.125 -1.12,0.259 -0.239,0.382 -0.122,0.883 0.258,1.121 0.308,0.19 6.485,3.97 15.994,3.972 z"
   id="path208" />
			</g>
			<path
   style="fill:#5e4a3a"
   d="m 407.925,506.089 c 0,0 14.739,0.242 17.276,0 2.537,-0.242 7.37,-5.437 10.753,-5.316 3.383,0.121 -3.624,2.658 -3.262,4.832 0.362,2.175 7.128,1.692 9.303,1.571 2.175,-0.121 2.416,2.658 0,3.383 0,0 0.967,1.691 -0.725,3.141 0,0 0,2.175 -1.933,3.383 0,0 0.983,1.691 -1.139,2.175 -2.123,0.483 -7.559,-3.262 -12.875,-3.503 -5.316,-0.242 -19.21,3.547 -19.21,3.547 z"
   id="path212" />
			<g
   id="g216">
				<path
   style="fill:#15244f"
   d="m 466.642,524.904 c 0.184,0 0.367,-0.061 0.519,-0.186 l 32.757,-27.062 c 0.21,-0.174 0.319,-0.44 0.29,-0.711 l -2.17,-21.142 16.761,-15.631 c 0.231,-0.218 0.316,-0.55 0.215,-0.854 l -9.384,-28.129 c -0.141,-0.425 -0.598,-0.653 -1.029,-0.515 -0.425,0.142 -0.657,0.604 -0.513,1.03 l 9.22,27.633 -16.676,15.55 c -0.186,0.174 -0.279,0.425 -0.253,0.679 l 2.167,21.112 -32.421,26.784 c -0.346,0.286 -0.396,0.799 -0.109,1.146 0.16,0.195 0.392,0.296 0.626,0.296 z"
   id="path214" />
			</g>
			<path
   style="fill:#f59d00"
   d="m 497.872,390.327 c 0.713,2.576 1.699,5.627 2.96,8.358 l -4.349,1.208 c 0,0 -0.604,-5.074 -3.987,-4.833 -3.383,0.242 -2.175,3.987 -0.967,5.92 1.208,1.933 -5.195,5.678 -5.195,5.678 0,0 -0.121,-6.403 -2.658,-10.511 -2.537,-4.107 -3.624,-15.343 3.866,-20.297 7.491,-4.954 25.25,-7.128 29.479,5.074 0,0 -8.558,1.296 -14.629,2.327 -3.31,0.563 -5.415,3.841 -4.52,7.076 z"
   id="path218" />
			<path
   style="fill:#3e60b5"
   d="m 411.55,501.426 c 0,0 -22.955,-3.432 -38.177,-6.573 -15.222,-3.141 -28.512,-0.144 -34.07,6.573 -5.557,6.717 -1.45,32.571 20.659,30.94 31.286,-2.308 53.279,-7.309 53.279,-7.309 z"
   id="path220" />
			<g
   id="g224">
				<path
   style="fill:#15244f"
   d="m 430.026,432.258 c 0.101,0 0.202,-0.019 0.301,-0.059 0.415,-0.165 0.62,-0.634 0.457,-1.052 -0.12,-0.303 -3.05,-7.431 -14.892,-9.02 -0.465,-0.048 -0.859,0.254 -0.915,0.699 -0.061,0.445 0.253,0.855 0.697,0.915 10.836,1.452 13.488,7.738 13.597,8.004 0.128,0.319 0.434,0.513 0.755,0.513 z"
   id="path222" />
			</g>
			<g
   id="g228">
				<path
   style="fill:#15244f"
   d="m 376.749,496.345 c 0.343,0 0.659,-0.217 0.774,-0.558 0.138,-0.427 -0.093,-0.887 -0.519,-1.028 -0.625,-0.206 -15.397,-4.969 -28.672,0.011 -0.42,0.158 -0.633,0.628 -0.473,1.048 0.157,0.423 0.617,0.638 1.048,0.476 12.727,-4.779 27.441,-0.04 27.587,0.011 0.084,0.026 0.17,0.04 0.255,0.04 z"
   id="path226" />
			</g>
		</g>
		<g
   id="g284">
			<path
   style="fill:#f86c6c"
   d="m 575.011,833.737 c 0,0 -6.524,25.129 -5.92,28.15 0.604,3.02 9.907,8.457 9.907,8.457 0,0 10.028,2.779 9.665,4.47 -0.363,1.691 -23.68,0.242 -27.908,0 -4.229,-0.242 -8.94,0.725 -10.028,-1.45 -1.087,-2.175 4.833,-12.444 5.195,-14.86 0.362,-2.416 1.933,-24.042 1.933,-24.042 z"
   id="path232" />
			<path
   style="fill:#f86c6c"
   d="m 641.157,833.737 c 0,0 -3.037,25.129 -2.433,28.15 0.604,3.02 9.907,8.457 9.907,8.457 0,0 10.028,2.779 9.665,4.47 -0.363,1.691 -23.68,0.242 -27.908,0 -4.229,-0.242 -8.94,0.725 -10.028,-1.45 -1.087,-2.175 4.833,-12.444 5.195,-14.86 0.362,-2.416 -1.553,-24.042 -1.553,-24.042 z"
   id="path234" />
			<path
   style="fill:#0c193a"
   d="m 550.728,873.364 c -0.679,-1.358 1.374,-5.872 3.1,-9.659 6.667,3.299 13.941,3.868 15.806,3.014 0.959,-0.439 1.195,-1.399 1.183,-2.318 2.852,2.825 8.182,5.943 8.182,5.943 0,0 10.028,2.779 9.665,4.47 -0.362,1.691 -23.68,0.242 -27.908,0 -4.229,-0.242 -8.941,0.725 -10.028,-1.45 z"
   id="path236" />
			<path
   style="fill:#0c193a"
   d="m 620.36,873.364 c -0.679,-1.358 1.374,-5.872 3.1,-9.659 6.667,3.299 13.941,3.868 15.806,3.014 0.959,-0.439 1.195,-1.399 1.183,-2.318 2.852,2.825 8.182,5.943 8.182,5.943 0,0 10.028,2.779 9.665,4.47 -0.362,1.691 -23.68,0.242 -27.908,0 -4.229,-0.242 -8.941,0.725 -10.028,-1.45 z"
   id="path238" />
			<path
   style="fill:#15244f"
   d="m 628.532,557.435 c 0,0 7.249,5.557 6.766,14.739 0,0 15.947,75.871 17.397,125.888 1.45,50.017 -10.148,141.353 -10.148,141.353 0,0 -6.765,2.175 -15.222,1.692 -8.457,-0.483 -15.706,4.731 -18.847,0.07 -3.141,-4.661 -4.591,-75.7 -4.108,-86.573 0.483,-10.873 -0.091,-28.995 -0.091,-28.995 0,0 -11.024,61.132 -26.73,111.149 0,0 -8.215,2.416 -17.397,1.45 -9.182,-0.967 -9.665,1.208 -12.806,0 -3.141,-1.208 0.242,-15.706 0,-32.62 -0.242,-16.914 8.215,-83.603 11.84,-94.477 3.624,-10.873 1.933,-58.716 2.416,-68.623 0.483,-9.907 -5.074,-67.414 8.215,-86.02 z"
   id="path240" />
			<g
   id="g244">
				<path
   style="fill:#15244f"
   d="m 589.389,619.893 c 0.069,0 0.136,-0.012 0.205,-0.037 0.311,-0.112 0.473,-0.456 0.359,-0.768 -9.959,-27.501 -2.696,-47.207 -2.622,-47.402 0.117,-0.31 -0.037,-0.657 -0.348,-0.775 -0.3,-0.117 -0.657,0.036 -0.774,0.347 -0.077,0.201 -7.494,20.325 2.617,48.24 0.087,0.242 0.319,0.395 0.563,0.395 z"
   id="path242" />
			</g>
			<path
   style="fill:#0c193a"
   d="m 562.365,580.722 c 1.283,-9.974 3.552,-18.793 7.451,-24.253 l 58.716,0.966 c 0,0 3.697,2.854 5.632,7.831 -2.618,1.119 -7.696,2.982 -12.519,2.982 -6.886,0 -19.934,-0.362 -26.639,1.993 -5.914,2.078 -20.562,10.908 -32.641,10.481 z"
   id="path246" />
			<g
   id="g252">
				<path
   style="fill:#0c193a"
   d="m 591.563,628.232 c 0,0 4.108,6.282 4.591,14.981 0.477,8.588 5.305,69.19 8.046,82.825 -0.75,4.099 -7.425,40.089 -17.429,78.373 0.009,-0.235 1.194,-30.926 -2.618,-53.673 -3.826,-22.834 -4.148,-30.445 0,-46.755 4.148,-16.31 9.584,-68.864 7.41,-75.751 z"
   id="path248" />
				<polygon
   style="fill:#453629"
   points="604.307,726.577 604.307,726.578 604.307,726.576 "
   id="polygon250" />
			</g>
			<g
   id="g256">
				<path
   style="fill:#3d2a2a"
   d="m 549.732,827.441 c 1.875,0 4.186,-0.336 6.794,-0.717 3.151,-0.46 6.731,-0.973 10.015,-0.904 7.994,0.205 14.533,-1.933 14.807,-2.024 0.316,-0.104 0.487,-0.443 0.383,-0.758 -0.104,-0.314 -0.441,-0.483 -0.755,-0.383 -0.067,0.02 -6.648,2.118 -14.408,1.965 -3.406,-0.076 -7.018,0.451 -10.214,0.916 -4.148,0.604 -8.057,1.171 -9.624,0.068 -0.269,-0.195 -0.644,-0.128 -0.835,0.142 -0.191,0.271 -0.128,0.645 0.144,0.836 0.882,0.628 2.14,0.859 3.693,0.859 z"
   id="path254" />
			</g>
			<g
   id="g260">
				<path
   style="fill:#3d2a2a"
   d="m 608.366,832.112 c 1.686,0 3.835,-0.338 6.217,-0.714 4.122,-0.65 8.797,-1.387 12.759,-0.693 7.321,1.282 16.373,-1.847 16.756,-1.981 0.311,-0.109 0.476,-0.452 0.367,-0.765 -0.112,-0.314 -0.449,-0.479 -0.766,-0.368 -0.09,0.032 -9.142,3.156 -16.15,1.931 -4.156,-0.73 -8.935,0.025 -13.153,0.69 -3.172,0.5 -5.906,0.935 -7.47,0.566 -0.319,-0.08 -0.646,0.126 -0.721,0.449 -0.074,0.322 0.125,0.645 0.449,0.721 0.496,0.115 1.071,0.164 1.712,0.164 z"
   id="path258" />
			</g>
			<path
   style="fill:#f86c6c"
   d="m 561.299,472.382 c -9.242,3.624 -10.692,26.096 -12.504,36.607 -1.812,10.511 -7.935,29.84 -0.966,37.936 8.215,9.544 28.875,-3.685 28.875,-3.685 z"
   id="path262" />
			<path
   style="fill:#ed3232"
   d="m 554.845,550.27 c 0.612,-0.151 4.181,-1.25 7.52,-7.031 2.73,-4.727 5.277,-18.182 5.277,-18.182 l 5.264,0.715 3.797,17.467 c 0,10e-4 -12.443,7.935 -21.858,7.031 z"
   id="path264" />
			<path
   style="fill:#f86c6c"
   d="m 612.222,422.274 c 0,0 -0.091,9.967 3.443,10.964 0,0 -1.631,13.139 -3.081,13.682 -1.45,0.544 -5.618,0.634 -5.618,0.634 l -4.531,21.203 -19.028,-0.453 c 0,0 10.33,-20.206 8.427,-24.737 -1.903,-4.53 -5.211,-17.397 -1.201,-23.015 4.011,-5.617 21.589,1.722 21.589,1.722 z"
   id="path266" />
			<path
   style="fill:#ed3232"
   d="m 592.04,445.125 c 0.006,-0.611 -0.039,-1.161 -0.205,-1.557 -0.61,-1.454 -1.363,-3.77 -1.975,-6.424 1.477,0.796 3.494,1.973 5.932,3.646 5.189,3.56 12.375,6.708 14.226,6.584 -1.525,0.147 -3.051,0.181 -3.051,0.181 l -1.57,7.346 c -0.441,0.034 -0.909,0.064 -1.451,0.084 -2.993,0.109 -8.225,-5.443 -11.906,-9.86 z"
   id="path268" />
			<path
   style="fill:#ed3232"
   d="m 614.759,470.167 c 0,0 -7.611,-3.04 -20.115,-3.221 -12.504,-0.181 -28.996,-0.181 -33.345,5.437 -4.349,5.618 -9.061,21.747 -5.074,33.888 3.987,12.142 12.686,43.855 12.686,43.855 l -3.806,8.517 c 0,0 34.935,3.23 64.802,2.064 1.991,-0.078 3.375,-2.004 2.861,-3.928 l -3.329,-12.452 c -10e-4,0 -2.883,-70.288 -14.68,-74.16 z"
   id="path270" />
			<path
   style="fill:#c61717"
   d="m 613.068,535.447 c -5.074,-11.84 -11.115,-19.056 -10.873,-32.62 0.387,-21.765 6.766,-27.344 6.766,-27.344 3.108,-2.211 7.619,0.562 12.346,5.407 6.375,20.644 8.132,63.437 8.132,63.437 l 3.329,12.452 c 0.514,1.925 -0.87,3.85 -2.861,3.928 -7.047,0.275 -14.373,0.304 -21.459,0.19 7.946,-5.907 8.774,-15.756 4.62,-25.45 z"
   id="path272" />
			<path
   style="fill:#0c193a"
   d="m 616.39,416.566 c 0.395,6.16 -9.967,11.055 -9.967,11.055 0,0 -0.544,7.611 -3.262,11.96 -2.718,4.349 -0.362,31.714 -6.886,34.613 -6.524,2.9 -18.847,0 -25.914,0 -7.068,0 -5.437,-8.155 -5.074,-11.598 0.362,-3.443 9.74,-27.976 11.055,-34.613 1.208,-6.101 5.074,-14.921 12.565,-15.525 -0.002,0 26.577,-10.028 27.483,4.108 z"
   id="path274" />
			<path
   style="fill:#f86c6c"
   d="m 613.672,470.207 c -10.436,1.252 -9.061,21.565 -4.712,34.07 4.349,12.504 22.12,57.628 38.515,58.353 16.395,0.725 45.753,-40.534 45.753,-40.534 h -11.961 l -28.92,16.432 c 0,0 -14.936,-31.17 -19.466,-43.856 -4.53,-12.685 -10.148,-25.552 -19.209,-24.465 z"
   id="path276" />
			<g
   id="g280">
				<path
   style="fill:#a63b3b"
   d="m 656.304,547.043 c 0.899,-4.486 -2.199,-7.768 -2.329,-7.905 l -0.867,0.831 c 0.029,0.029 2.792,2.98 2.021,6.837 z"
   id="path278" />
			</g>
			<path
   style="fill:#ed3232"
   d="m 663.793,532.025 17.475,-9.929 h 11.961 c 0,0 -2.016,2.829 -5.269,6.977 -7.691,0.229 -17.773,1.813 -24.167,2.952 z"
   id="path282" />
		</g>
	</g>

</svg>
