<?xml version="1.0" encoding="utf-8"?>
<!-- Generator: Adobe Illustrator 27.5.0, SVG Export Plug-In . SVG Version: 6.00 Build 0)  -->
<svg version="1.1" xmlns="http://www.w3.org/2000/svg" xmlns:xlink="http://www.w3.org/1999/xlink" x="0px" y="0px"
	 viewBox="0 0 500 500" style="enable-background:new 0 0 500 500;" xml:space="preserve">
<g id="BACKGROUND">
	<path style="fill:#DACDFF;" d="M461.812,300.924c0,75.015-80.122,74.011-178.958,74.011S44.243,391.026,44.243,316.011
		s139.775-212.731,238.611-212.731S461.812,225.909,461.812,300.924z"/>
	<path style="fill:#E8E0FF;" d="M458.4,377.285c0-32.826-89.162-22.107-199.149-22.107s-216.047-0.981-216.047,22.799
		c0,27.466,62.609,34.813,172.596,34.813C325.788,412.79,458.4,412.79,458.4,377.285z"/>
</g>
<g id="OBJECTS">
	<g>
		<g>
			<path style="fill:#9377C7;" d="M460.103,257.295c-5.619,5.792-8.756,12.534-8.776,12.567c-0.04,0.016,7.162-1.684,13.121-7.813
				c5.97-6.116,7.849-13.752,7.831-13.71C472.248,248.36,465.743,251.529,460.103,257.295z"/>
		</g>
		<g>
			<path style="fill:#9377C7;" d="M404.474,295.999c2.238-0.773,4.454-1.602,6.649-2.481c4.39-1.758,8.688-3.736,12.888-5.909
				c8.399-4.346,16.399-9.503,23.874-15.435c2.044-1.622,4.049-3.3,6.018-5.029c2.074-1.822,4.057-3.813,6.174-5.588
				c0.193-0.162,0.421,0.095,0.254,0.289c-3.151,3.665-6.954,6.756-10.639,9.772c-3.711,3.04-7.556,5.89-11.517,8.548
				c-7.921,5.316-16.317,9.857-25.095,13.517c-2.4,1.001-4.829,1.935-7.283,2.803c-2.578,0.913-5.201,1.919-7.891,2.44
				c-0.441,0.085-0.6-0.516-0.182-0.679C399.928,297.378,402.244,296.769,404.474,295.999z"/>
		</g>
		<g>
			<path style="fill:#9377C7;" d="M459.551,260.286c0.117-0.098,0.263,0.058,0.146,0.165c-2.343,2.155-4.581,4.515-6.617,6.989
				c-0.521,0.634-1.023,1.282-1.518,1.938c0.257-0.512,0.724-1.4,1.381-2.52C454.972,264.517,457.115,262.312,459.551,260.286z"/>
			<path style="fill:#9377C7;" d="M454.39,268.138c2.456-1.477,4.783-3.225,6.815-5.357c0.144-0.151,0.32,0.059,0.189,0.214
				c-1.838,2.163-3.994,3.942-6.337,5.413c-0.198,0.124-0.398,0.249-0.599,0.374c-1.894,0.787-3.132,1.078-3.132,1.081
				c0,0,0.027-0.058,0.078-0.164C452.417,269.211,453.43,268.715,454.39,268.138z"/>
		</g>
		<g>
			<g>
				<path style="fill:#9377C7;" d="M445.75,260.877c-0.747,7.91-1.444,14.682-1.644,14.61c0.19,0.141,7.128-4.82,7.824-12.981
					c0.717-8.083-0.081-14.557,0.143-14.512C451.846,248.015,446.52,253.041,445.75,260.877z"/>
			</g>
			<g>
				<path style="fill:#9377C7;" d="M447.005,263.652c0.038-0.142,0.244-0.09,0.211,0.06c-0.655,3.005-1.255,6.142-2.225,9.079
					c-0.247,0.752-0.507,1.494-0.802,2.222c0.088-0.507,0.25-1.403,0.412-2.606C445.591,269.564,446.199,266.602,447.005,263.652z"
					/>
				<path style="fill:#9377C7;" d="M446.596,272.669c1.743-2.396,2.747-5.056,3.163-7.855c0.029-0.199,0.292-0.123,0.275,0.072
					c-0.241,2.719-1.072,5.306-2.664,7.65c-0.134,0.197-0.273,0.396-0.417,0.595c-1.533,1.569-2.859,2.353-2.847,2.357
					c0,0,0.009-0.056,0.027-0.159C445.073,274.486,445.916,273.605,446.596,272.669z"/>
			</g>
			<path style="fill:#9377C7;" d="M444.107,275.487c-0.001,0,0.055-0.324,0.158-0.911c0.742-1.085,1.365-2.206,1.845-3.335
				c1.179-2.774,1.693-5.722,2.39-8.56c0.033-0.136,0.207-0.089,0.196,0.053c-0.22,2.97-0.904,5.881-2.072,8.663
				c-0.518,1.236-1.125,2.488-1.919,3.68C444.331,275.347,444.106,275.487,444.107,275.487z"/>
		</g>
		<g>
			<g>
				<path style="fill:#9377C7;" d="M458.46,277.527c-8.073-0.377-14.263-2.17-14.273-1.919c0.073-0.237,6.354-5.326,14.205-5.075
					c7.916,0.297,14.644,0.493,14.625,0.263C473.103,271.035,466.603,277.95,458.46,277.527z"/>
			</g>
			<g>
				<path style="fill:#9377C7;" d="M456.105,275.687c0.148-0.016,0.156-0.248,0.001-0.239c-3.093,0.17-6.216,0.038-9.198,0.134
					c-0.765,0.023-1.519,0.05-2.27,0.103c0.483,0.08,1.341,0.212,2.492,0.41C450.048,275.94,453.018,276.026,456.105,275.687z"/>
				<path style="fill:#9377C7;" d="M447.519,273.987c2.698-1.078,5.407-1.515,8.183-1.472c0.197,0.003,0.186-0.291-0.004-0.307
					c-2.654-0.214-5.244,0.073-7.831,1.03c-0.218,0.081-0.439,0.165-0.662,0.253c-1.87,1.092-3.019,2.125-3.019,2.116
					c0,0,0.053,0.01,0.151,0.027C445.407,274.981,446.465,274.408,447.519,273.987z"/>
			</g>
			<path style="fill:#9377C7;" d="M444.187,275.607c0,0.001,0.306,0.056,0.869,0.145c1.223-0.389,2.437-0.684,3.622-0.865
				c2.905-0.444,5.83-0.349,8.77-0.66c0.141-0.015,0.139-0.211-0.001-0.222c-2.94-0.225-5.856-0.121-8.756,0.311
				c-1.289,0.192-2.609,0.429-3.937,0.831C444.388,275.433,444.187,275.608,444.187,275.607z"/>
		</g>
		<g>
			<g>
				<path style="fill:#9377C7;" d="M433.771,270.043c-1.52,7.77-2.885,14.421-3.076,14.327c0.177,0.16,7.573-3.996,9.063-12.017
					c1.504-7.942,1.339-14.452,1.558-14.382C441.087,257.965,435.307,262.346,433.771,270.043z"/>
			</g>
			<g>
				<path style="fill:#9377C7;" d="M434.747,272.939c0.052-0.137,0.251-0.063,0.204,0.083c-0.947,2.911-1.853,5.96-3.109,8.768
					c-0.32,0.72-0.652,1.428-1.018,2.118c0.138-0.493,0.388-1.366,0.668-2.543C432.758,278.651,433.655,275.777,434.747,272.939z"/>
				<path style="fill:#9377C7;" d="M433.452,281.847c1.971-2.186,3.231-4.715,3.92-7.448c0.048-0.194,0.303-0.089,0.267,0.102
					c-0.507,2.672-1.587,5.148-3.403,7.299c-0.153,0.181-0.311,0.364-0.474,0.545c-1.68,1.387-3.078,2.019-3.067,2.024
					c0,0,0.014-0.055,0.042-0.155C431.756,283.482,432.683,282.701,433.452,281.847z"/>
			</g>
			<path style="fill:#9377C7;" d="M430.695,284.37c-0.002-0.001,0.087-0.315,0.248-0.888c0.846-0.995,1.577-2.039,2.166-3.107
				c1.447-2.624,2.248-5.494,3.22-8.234c0.046-0.131,0.215-0.066,0.19,0.074c-0.51,2.924-1.477,5.738-2.913,8.371
				c-0.638,1.17-1.365,2.346-2.274,3.442C430.932,284.255,430.694,284.369,430.695,284.37z"/>
		</g>
		<g>
			<g>
				<path style="fill:#9377C7;" d="M444.777,287.996c-7.992-1.278-13.979-3.745-14.014-3.497c0.097-0.228,6.853-4.585,14.632-3.454
					c7.841,1.183,14.505,2.141,14.508,1.911C459.967,283.202,452.837,289.326,444.777,287.996z"/>
			</g>
			<g>
				<path style="fill:#9377C7;" d="M442.615,285.906c0.149,0,0.179-0.229,0.025-0.237c-3.094-0.177-6.188-0.657-9.166-0.893
					c-0.764-0.062-1.517-0.119-2.27-0.15c0.474,0.133,1.314,0.359,2.44,0.684C436.565,285.481,439.512,285.897,442.615,285.906z"/>
				<path style="fill:#9377C7;" d="M434.24,283.259c2.792-0.77,5.529-0.902,8.286-0.548c0.196,0.025,0.214-0.269,0.026-0.305
					c-2.619-0.509-5.223-0.515-7.892,0.148c-0.225,0.056-0.453,0.115-0.683,0.178c-1.969,0.876-3.216,1.775-3.215,1.766
					c0,0,0.052,0.016,0.147,0.044C432.04,284.012,433.149,283.56,434.24,283.259z"/>
			</g>
			<path style="fill:#9377C7;" d="M430.763,284.498c0,0.001,0.3,0.089,0.85,0.241c1.256-0.25,2.494-0.409,3.691-0.456
				c2.935-0.117,5.835,0.304,8.79,0.324c0.141,0.001,0.159-0.194,0.02-0.22c-2.902-0.552-5.812-0.775-8.741-0.669
				c-1.302,0.047-2.64,0.136-4.001,0.387C430.981,284.347,430.763,284.499,430.763,284.498z"/>
		</g>
		<g>
			<g>
				<path style="fill:#9377C7;" d="M420.273,278.168c-2.326,7.54-4.39,13.988-4.57,13.873c0.161,0.18,7.975-3.092,10.29-10.882
					c2.325-7.711,2.831-14.189,3.042-14.095C428.809,267.031,422.609,270.703,420.273,278.168z"/>
			</g>
			<g>
				<path style="fill:#9377C7;" d="M420.942,281.157c0.066-0.13,0.257-0.033,0.194,0.106c-1.248,2.781-2.47,5.703-4.018,8.348
					c-0.395,0.678-0.801,1.342-1.239,1.986c0.19-0.474,0.531-1.312,0.934-2.448C418.362,286.6,419.557,283.849,420.942,281.157z"/>
				<path style="fill:#9377C7;" d="M418.718,289.855c2.195-1.943,3.715-4.308,4.686-6.941c0.069-0.187,0.311-0.053,0.255,0.132
					c-0.784,2.595-2.119,4.928-4.155,6.854c-0.171,0.162-0.348,0.325-0.53,0.486c-1.821,1.183-3.283,1.649-3.271,1.655
					c0,0,0.02-0.053,0.058-0.149C416.855,291.282,417.861,290.613,418.718,289.855z"/>
			</g>
			<path style="fill:#9377C7;" d="M415.703,292.041c-0.001-0.001,0.12-0.303,0.34-0.853c0.949-0.89,1.787-1.842,2.487-2.835
				c1.718-2.438,2.817-5.195,4.071-7.803c0.06-0.125,0.221-0.04,0.181,0.096c-0.813,2.844-2.071,5.526-3.779,7.975
				c-0.759,1.088-1.607,2.172-2.629,3.155C415.951,291.954,415.702,292.04,415.703,292.041z"/>
		</g>
		<g>
			<g>
				<path style="fill:#9377C7;" d="M429.359,297.276c-7.827-2.198-13.542-5.341-13.602-5.1c0.122-0.215,7.319-3.761,14.943-1.731
					c7.683,2.088,14.208,3.821,14.235,3.593C444.974,294.289,437.25,299.533,429.359,297.276z"/>
			</g>
			<g>
				<path style="fill:#9377C7;" d="M427.424,294.949c0.149,0.018,0.202-0.206,0.05-0.233c-3.063-0.535-6.097-1.371-9.042-1.951
					c-0.755-0.15-1.501-0.294-2.248-0.412c0.458,0.187,1.273,0.509,2.362,0.962C421.44,293.825,424.334,294.58,427.424,294.949z"/>
				<path style="fill:#9377C7;" d="M419.355,291.348c2.864-0.441,5.605-0.254,8.315,0.418c0.192,0.048,0.241-0.242,0.058-0.3
					c-2.555-0.811-5.149-1.118-7.879-0.77c-0.23,0.029-0.464,0.061-0.7,0.097c-2.055,0.642-3.394,1.391-3.392,1.382
					c0,0,0.05,0.022,0.143,0.061C417.082,291.841,418.236,291.52,419.355,291.348z"/>
			</g>
			<path style="fill:#9377C7;" d="M415.757,292.176c0,0.001,0.29,0.123,0.823,0.337c1.279-0.103,2.53-0.117,3.729-0.025
				c2.938,0.224,5.784,0.979,8.724,1.343c0.141,0.017,0.179-0.174,0.043-0.216c-2.832-0.886-5.708-1.446-8.639-1.68
				c-1.303-0.105-2.646-0.171-4.03-0.08C415.99,292.051,415.757,292.177,415.757,292.176z"/>
		</g>
		<g>
			<g>
				<path style="fill:#9377C7;" d="M406.66,284.399c-3.083,7.239-5.805,13.42-5.974,13.286c0.144,0.196,8.293-2.195,11.386-9.683
					c3.096-7.408,4.245-13.79,4.446-13.673C416.295,274.272,409.747,277.236,406.66,284.399z"/>
			</g>
			<g>
				<path style="fill:#9377C7;" d="M407.026,287.444c0.079-0.122,0.26-0.004,0.184,0.126c-1.527,2.626-3.046,5.397-4.862,7.855
					c-0.464,0.63-0.938,1.246-1.441,1.837c0.238-0.45,0.664-1.245,1.183-2.33C403.898,292.57,405.371,289.967,407.026,287.444z"/>
				<path style="fill:#9377C7;" d="M403.923,295.844c2.392-1.689,4.15-3.873,5.386-6.383c0.088-0.178,0.316-0.019,0.241,0.16
					c-1.044,2.493-2.614,4.665-4.845,6.355c-0.188,0.142-0.381,0.285-0.579,0.425c-1.941,0.975-3.451,1.277-3.441,1.285
					c0,0,0.025-0.05,0.074-0.142C401.915,297.058,402.99,296.504,403.923,295.844z"/>
			</g>
			<path style="fill:#9377C7;" d="M400.685,297.685c-0.002-0.001,0.151-0.288,0.427-0.811c1.04-0.78,1.975-1.634,2.775-2.544
				c1.965-2.234,3.342-4.854,4.857-7.308c0.072-0.117,0.224-0.016,0.172,0.115c-1.099,2.737-2.626,5.265-4.582,7.511
				c-0.869,0.998-1.828,1.982-2.95,2.846C400.943,297.626,400.685,297.684,400.685,297.685z"/>
		</g>
		<g>
			<g>
				<path style="fill:#9377C7;" d="M413.81,304.394c-7.598-3.047-13-6.801-13.084-6.568c0.145-0.2,7.705-2.932,15.111-0.073
					c7.46,2.922,13.791,5.366,13.841,5.143C429.692,303.148,421.467,307.505,413.81,304.394z"/>
			</g>
			<g>
				<path style="fill:#9377C7;" d="M412.111,301.867c0.147,0.034,0.223-0.183,0.073-0.226c-3.006-0.869-5.955-2.034-8.842-2.935
					c-0.74-0.232-1.471-0.458-2.207-0.658c0.44,0.236,1.222,0.647,2.266,1.217C406.244,300.09,409.061,301.16,412.111,301.867z"/>
				<path style="fill:#9377C7;" d="M404.41,297.399c2.909-0.122,5.63,0.365,8.268,1.332c0.187,0.069,0.265-0.214,0.089-0.292
					c-2.47-1.087-5.031-1.679-7.797-1.633c-0.233,0.004-0.471,0.01-0.71,0.019c-2.12,0.412-3.537,1.008-3.534,1
					c0,0,0.047,0.027,0.136,0.076C402.086,297.638,403.273,297.447,404.41,297.399z"/>
			</g>
			<path style="fill:#9377C7;" d="M400.726,297.825c-0.001,0.001,0.277,0.154,0.789,0.426c1.29,0.039,2.543,0.163,3.733,0.387
				c2.916,0.547,5.684,1.611,8.583,2.296c0.139,0.033,0.196-0.153,0.065-0.21c-2.739-1.193-5.557-2.066-8.464-2.622
				c-1.292-0.248-2.629-0.462-4.023-0.523C400.972,297.727,400.725,297.826,400.726,297.825z"/>
		</g>
	</g>
	<g>
		<g>
			<path style="fill:#E8E0FF;" d="M343.803,195.52c-2.808,7.599-2.966,15.048-2.971,15.087c-0.03,0.031,5.868-4.478,8.852-12.525
				c2.998-8.04,1.647-15.789,1.648-15.743C351.312,182.37,346.641,187.935,343.803,195.52z"/>
		</g>
		<g>
			<path style="fill:#E8E0FF;" d="M308.518,253.721c1.734-1.625,3.427-3.292,5.079-4.996c3.306-3.409,6.438-6.98,9.403-10.69
				c5.929-7.419,11.168-15.415,15.615-23.904c1.216-2.321,2.374-4.678,3.478-7.066c1.164-2.516,2.176-5.15,3.397-7.641
				c0.111-0.227,0.423-0.086,0.348,0.16c-1.407,4.643-3.64,9.028-5.796,13.296c-2.17,4.301-4.539,8.484-7.09,12.538
				c-5.103,8.109-10.95,15.704-17.502,22.652c-1.791,1.9-3.635,3.75-5.529,5.551c-1.99,1.892-3.981,3.888-6.231,5.468
				c-0.369,0.259-0.756-0.225-0.439-0.546C304.919,256.847,306.79,255.34,308.518,253.721z"/>
		</g>
		<g>
			<path style="fill:#E8E0FF;" d="M344.501,198.479c0.068-0.137,0.264-0.055,0.2,0.091c-1.276,2.931-2.372,6.006-3.238,9.103
				c-0.222,0.794-0.42,1.592-0.609,2.394c0.029-0.573,0.1-1.576,0.249-2.869C342.016,204.225,343.089,201.33,344.501,198.479z"/>
			<path style="fill:#E8E0FF;" d="M342.939,207.773c1.651-2.358,3.075-4.911,4.076-7.693c0.071-0.198,0.316-0.077,0.258,0.118
				c-0.811,2.731-2.066,5.241-3.616,7.548c-0.131,0.195-0.263,0.391-0.397,0.588c-1.415,1.497-2.429,2.271-2.428,2.273
				c0,0,0.001-0.064,0.005-0.182C341.568,209.563,342.294,208.694,342.939,207.773z"/>
		</g>
		<g>
			<g>
				<path style="fill:#E8E0FF;" d="M332.127,204.684c2.496,7.535,4.579,14.009,4.368,14.026c0.23,0.051,4.577-7.33,1.934-15.074
					c-2.592-7.681-5.923-13.269-5.7-13.321C332.529,190.428,329.681,197.207,332.127,204.684z"/>
			</g>
			<g>
				<path style="fill:#E8E0FF;" d="M334.388,206.705c-0.022-0.146,0.186-0.182,0.217-0.032c0.609,3.015,1.321,6.128,1.614,9.21
					c0.077,0.789,0.137,1.573,0.16,2.359c-0.123-0.499-0.335-1.384-0.67-2.55C335.471,212.688,334.837,209.732,334.388,206.705z"/>
				<path style="fill:#E8E0FF;" d="M337.638,215.112c0.629-2.905,0.479-5.747-0.266-8.477c-0.053-0.194,0.218-0.232,0.28-0.047
					c0.872,2.584,1.152,5.288,0.639,8.084c-0.043,0.235-0.09,0.474-0.142,0.715c-0.77,2.063-1.667,3.324-1.654,3.322
					c0,0-0.014-0.055-0.04-0.156C336.976,217.398,337.392,216.247,337.638,215.112z"/>
			</g>
			<path style="fill:#E8E0FF;" d="M336.495,218.709c-0.001,0-0.079-0.318-0.222-0.898c0.242-1.296,0.361-2.576,0.346-3.805
				c-0.037-3.018-0.752-5.923-1.256-8.803c-0.024-0.138,0.153-0.167,0.201-0.033c0.992,2.804,1.537,5.745,1.588,8.767
				c0.023,1.342-0.028,2.735-0.275,4.15C336.643,218.489,336.494,218.71,336.495,218.709z"/>
		</g>
		<g>
			<g>
				<path style="fill:#E8E0FF;" d="M350.431,214.682c-7.529,2.969-13.905,3.871-13.814,4.104
					c-0.029-0.247,3.667-7.475,10.942-10.468c7.353-2.978,13.58-5.56,13.47-5.762C361.204,202.74,358.043,211.727,350.431,214.682z"
					/>
			</g>
			<g>
				<path style="fill:#E8E0FF;" d="M347.539,213.967c0.129-0.076,0.043-0.29-0.095-0.219c-2.758,1.425-5.665,2.586-8.352,3.898
					c-0.689,0.335-1.368,0.669-2.033,1.026c0.474-0.126,1.311-0.357,2.442-0.648C342.106,216.685,344.855,215.544,347.539,213.967z"
					/>
				<path style="fill:#E8E0FF;" d="M339.01,215.938c2.033-2.092,4.332-3.604,6.887-4.704c0.181-0.078,0.053-0.343-0.127-0.279
					c-2.511,0.894-4.763,2.219-6.743,4.155c-0.167,0.163-0.335,0.331-0.503,0.503c-1.27,1.765-1.905,3.181-1.909,3.173
					c0,0,0.052-0.012,0.149-0.037C337.48,217.714,338.216,216.755,339.01,215.938z"/>
			</g>
			<path style="fill:#E8E0FF;" d="M336.616,218.786c0,0.001,0.302-0.075,0.852-0.224c0.961-0.857,1.953-1.626,2.963-2.277
				c2.477-1.598,5.187-2.712,7.749-4.203c0.123-0.071,0.042-0.25-0.09-0.202c-2.777,1.001-5.4,2.293-7.876,3.878
				c-1.101,0.704-2.212,1.463-3.264,2.375C336.73,218.544,336.617,218.787,336.616,218.786z"/>
		</g>
		<g>
			<g>
				<path style="fill:#E8E0FF;" d="M324.863,217.976c1.733,7.725,3.158,14.362,2.945,14.355c0.226,0.074,5.315-6.76,3.453-14.702
					c-1.816-7.875-4.583-13.756-4.355-13.782C326.695,203.937,323.174,210.313,324.863,217.976z"/>
			</g>
			<g>
				<path style="fill:#E8E0FF;" d="M326.917,220.222c-0.007-0.146,0.204-0.16,0.22-0.008c0.304,3.049,0.701,6.207,0.682,9.289
					c-0.004,0.789-0.023,1.572-0.079,2.353c-0.072-0.508-0.194-1.407-0.411-2.598C327.396,226.259,327.06,223.264,326.917,220.222z"
					/>
				<path style="fill:#E8E0FF;" d="M329.314,228.895c0.923-2.807,1.058-5.635,0.59-8.415c-0.033-0.197,0.241-0.206,0.285-0.016
					c0.611,2.65,0.618,5.356-0.177,8.067c-0.067,0.228-0.138,0.46-0.214,0.692c-0.978,1.958-2.002,3.109-1.989,3.109
					c0,0-0.009-0.056-0.024-0.159C328.421,231.085,328.954,229.991,329.314,228.895z"/>
			</g>
			<path style="fill:#E8E0FF;" d="M327.808,232.332c-0.002,0-0.047-0.324-0.131-0.913c0.373-1.256,0.622-2.511,0.731-3.729
				c0.268-2.991-0.153-5.943-0.366-8.846c-0.01-0.139,0.17-0.148,0.203-0.01c0.709,2.881,0.956,5.85,0.701,8.846
				c-0.113,1.331-0.305,2.704-0.695,4.079C327.978,232.129,327.807,232.331,327.808,232.332z"/>
		</g>
		<g>
			<g>
				<path style="fill:#E8E0FF;" d="M342.134,229.865c-7.817,2.113-14.279,2.316-14.212,2.556c-0.003-0.248,4.42-7.003,11.984-9.162
					c7.64-2.137,14.115-3.997,14.026-4.208C354.088,219.25,350.033,227.772,342.134,229.865z"/>
			</g>
			<g>
				<path style="fill:#E8E0FF;" d="M339.318,228.842c0.137-0.061,0.072-0.282-0.073-0.227c-2.898,1.108-5.918,1.94-8.735,2.946
					c-0.723,0.257-1.434,0.514-2.135,0.794c0.486-0.073,1.345-0.211,2.505-0.377C333.618,230.938,336.479,230.108,339.318,228.842z"
					/>
				<path style="fill:#E8E0FF;" d="M330.602,229.861c2.242-1.849,4.69-3.093,7.352-3.902c0.189-0.057,0.087-0.333-0.098-0.289
					c-2.598,0.609-4.98,1.673-7.153,3.374c-0.183,0.143-0.368,0.291-0.553,0.443c-1.447,1.609-2.225,2.942-2.228,2.934
					c0,0,0.053-0.007,0.152-0.021C328.893,231.452,329.725,230.584,330.602,229.861z"/>
			</g>
			<path style="fill:#E8E0FF;" d="M327.922,232.421c0,0.001,0.31-0.042,0.874-0.129c1.047-0.744,2.115-1.397,3.19-1.931
				c2.635-1.312,5.455-2.117,8.163-3.312c0.129-0.057,0.067-0.243-0.07-0.21c-2.874,0.686-5.623,1.677-8.257,2.976
				c-1.171,0.577-2.358,1.208-3.5,1.995C328.06,232.193,327.922,232.422,327.922,232.421z"/>
		</g>
		<g>
			<g>
				<path style="fill:#E8E0FF;" d="M315.792,230.941c0.904,7.845,1.609,14.585,1.398,14.553c0.219,0.098,6.045-6.099,5.031-14.168
					c-0.974-8-3.114-14.129-2.883-14.129C319.118,217.26,314.927,223.161,315.792,230.941z"/>
			</g>
			<g>
				<path style="fill:#E8E0FF;" d="M317.604,233.399c0.008-0.146,0.221-0.135,0.22,0.017c-0.023,3.053,0.034,6.226-0.318,9.278
					c-0.089,0.782-0.193,1.556-0.334,2.323c-0.017-0.511-0.042-1.417-0.13-2.62C317.434,239.431,317.421,236.427,317.604,233.399z"
					/>
				<path style="fill:#E8E0FF;" d="M319.066,242.26c1.225-2.676,1.664-5.461,1.494-8.267c-0.012-0.199,0.263-0.176,0.286,0.016
					c0.326,2.693,0.043,5.373-1.043,7.969c-0.091,0.219-0.188,0.44-0.289,0.661c-1.189,1.829-2.337,2.854-2.325,2.855
					c0,0-0.003-0.056-0.007-0.16C317.938,244.329,318.589,243.304,319.066,242.26z"/>
			</g>
			<path style="fill:#E8E0FF;" d="M317.19,245.495c-0.001,0-0.012-0.326-0.032-0.919c0.509-1.203,0.893-2.417,1.133-3.612
				c0.59-2.933,0.487-5.904,0.585-8.802c0.004-0.139,0.185-0.127,0.204,0.013c0.4,2.933,0.328,5.9-0.249,8.839
				c-0.256,1.306-0.596,2.645-1.135,3.962C317.382,245.314,317.189,245.495,317.19,245.495z"/>
		</g>
		<g>
			<g>
				<path style="fill:#E8E0FF;" d="M331.773,244.674c-8.036,1.204-14.521,0.677-14.479,0.922c0.025-0.246,5.177-6.441,12.96-7.715
					c7.859-1.245,14.519-2.34,14.452-2.559C344.842,235.536,339.89,243.497,331.773,244.674z"/>
			</g>
			<g>
				<path style="fill:#E8E0FF;" d="M329.07,243.342c0.143-0.045,0.102-0.271-0.048-0.233c-3.014,0.768-6.122,1.25-9.046,1.929
					c-0.75,0.173-1.49,0.347-2.22,0.546c0.494-0.017,1.368-0.057,2.545-0.09C323.149,244.77,326.098,244.273,329.07,243.342z"/>
				<path style="fill:#E8E0FF;" d="M320.249,243.363c2.44-1.578,5.02-2.533,7.766-3.03c0.195-0.035,0.123-0.32-0.067-0.298
					c-2.66,0.308-5.154,1.091-7.51,2.53c-0.199,0.121-0.399,0.247-0.601,0.376c-1.62,1.43-2.543,2.664-2.544,2.655
					c0,0,0.054-0.001,0.155-0.003C318.37,244.746,319.296,243.979,320.249,243.363z"/>
			</g>
			<path style="fill:#E8E0FF;" d="M317.294,245.596c0,0.001,0.314-0.006,0.888-0.03c1.127-0.619,2.265-1.145,3.398-1.553
				c2.775-1.001,5.679-1.479,8.512-2.354c0.136-0.042,0.093-0.232-0.047-0.215c-2.944,0.353-5.798,1.021-8.57,2.011
				c-1.232,0.439-2.487,0.93-3.715,1.581C317.457,245.386,317.294,245.597,317.294,245.596z"/>
		</g>
		<g>
			<g>
				<path style="fill:#E8E0FF;" d="M305.855,242.223c0.091,7.88,0.087,14.647-0.121,14.593c0.211,0.12,6.696-5.409,6.514-13.522
					c-0.147-8.04-1.661-14.344-1.431-14.32C310.591,229.014,305.799,234.41,305.855,242.223z"/>
			</g>
			<g>
				<path style="fill:#E8E0FF;" d="M307.414,244.855c0.024-0.144,0.236-0.111,0.219,0.04c-0.34,3.027-0.615,6.182-1.287,9.174
					c-0.171,0.767-0.356,1.523-0.578,2.27c0.037-0.509,0.107-1.411,0.145-2.615C306.615,250.824,306.915,247.84,307.414,244.855z"/>
				<path style="fill:#E8E0FF;" d="M307.953,253.805c1.507-2.525,2.236-5.242,2.357-8.044c0.008-0.199,0.281-0.147,0.285,0.047
					c0.047,2.707-0.515,5.336-1.874,7.796c-0.115,0.207-0.234,0.417-0.359,0.626c-1.382,1.688-2.641,2.584-2.628,2.586
					c0,0,0.003-0.056,0.01-0.16C306.606,255.739,307.365,254.792,307.953,253.805z"/>
			</g>
			<path style="fill:#E8E0FF;" d="M305.734,256.816c-0.002,0,0.022-0.325,0.065-0.916c0.637-1.14,1.148-2.304,1.514-3.464
				c0.898-2.848,1.103-5.807,1.502-8.671c0.019-0.137,0.199-0.106,0.203,0.035c0.096,2.952-0.284,5.889-1.17,8.745
				c-0.393,1.268-0.874,2.561-1.552,3.812C305.946,256.657,305.733,256.816,305.734,256.816z"/>
		</g>
		<g>
			<g>
				<path style="fill:#E8E0FF;" d="M320.423,257.56c-8.168,0.334-14.612-0.88-14.596-0.632c0.052-0.242,5.863-5.842,13.779-6.269
					c7.991-0.391,14.759-0.757,14.715-0.981C334.436,249.903,328.671,257.261,320.423,257.56z"/>
			</g>
			<g>
				<path style="fill:#E8E0FF;" d="M317.856,255.949c0.148-0.029,0.13-0.258-0.024-0.237c-3.097,0.439-6.259,0.585-9.259,0.947
					c-0.769,0.091-1.529,0.185-2.281,0.305c0.497,0.035,1.377,0.089,2.559,0.182C311.78,256.733,314.784,256.555,317.856,255.949z"
					/>
				<path style="fill:#E8E0FF;" d="M309.023,255.027c2.609-1.306,5.291-1.977,8.09-2.176c0.199-0.014,0.156-0.304-0.036-0.303
					c-2.694,0.02-5.272,0.531-7.781,1.707c-0.212,0.099-0.426,0.202-0.641,0.309c-1.772,1.246-2.827,2.373-2.827,2.364
					c0,0,0.054,0.005,0.155,0.013C306.995,256.199,308.003,255.537,309.023,255.027z"/>
			</g>
			<path style="fill:#E8E0FF;" d="M305.827,256.928c0,0.001,0.316,0.027,0.893,0.065c1.195-0.494,2.39-0.895,3.566-1.179
				c2.884-0.697,5.841-0.861,8.766-1.425c0.14-0.027,0.118-0.221-0.025-0.219c-2.982,0.034-5.908,0.393-8.788,1.078
				c-1.28,0.304-2.588,0.657-3.887,1.173C306.013,256.737,305.827,256.929,305.827,256.928z"/>
		</g>
	</g>
	<g>
		<g>
			<path style="fill:#E8E0FF;" d="M62.779,250.875c5.641,7.018,8.43,14.83,8.449,14.869c0.043,0.021-7.776-2.621-13.76-10.049
				c-5.997-7.415-7.298-16.087-7.283-16.038C50.218,239.684,57.112,243.883,62.779,250.875z"/>
		</g>
		<g>
			<path style="fill:#E8E0FF;" d="M120.542,299.669c-2.404-1.093-4.779-2.245-7.125-3.451c-4.692-2.412-9.258-5.058-13.696-7.911
				c-8.875-5.706-17.224-12.268-24.91-19.636c-2.102-2.015-4.155-4.088-6.162-6.213c-2.115-2.24-4.111-4.658-6.278-6.85
				c-0.198-0.2-0.477,0.061-0.312,0.294c3.12,4.399,7.024,8.228,10.803,11.962c3.807,3.764,7.781,7.33,11.904,10.696
				c8.245,6.732,17.096,12.652,26.462,17.636c2.561,1.363,5.16,2.654,7.795,3.875c2.768,1.284,5.575,2.676,8.507,3.536
				c0.481,0.141,0.719-0.509,0.272-0.735C125.444,301.677,122.937,300.759,120.542,299.669z"/>
		</g>
		<g>
			<path style="fill:#E8E0FF;" d="M63.084,254.252c-0.12-0.121-0.298,0.037-0.179,0.168c2.379,2.637,4.62,5.492,6.625,8.451
				c0.514,0.759,1.004,1.53,1.486,2.31c-0.233-0.595-0.66-1.629-1.274-2.941C67.732,259.429,65.58,256.756,63.084,254.252z"/>
			<path style="fill:#E8E0FF;" d="M68.005,263.508c-2.574-1.897-4.977-4.082-7.013-6.661c-0.144-0.183-0.361,0.032-0.231,0.217
				c1.818,2.593,4.028,4.794,6.476,6.673c0.206,0.158,0.416,0.318,0.626,0.478c2.021,1.073,3.365,1.526,3.365,1.528
				c0,0-0.024-0.067-0.07-0.19C70.085,264.906,69.011,264.25,68.005,263.508z"/>
		</g>
		<g>
			<g>
				<path style="fill:#E8E0FF;" d="M78.34,256.357c0.016,8.858,0.094,16.446,0.323,16.387c-0.226,0.136-7.416-6.098-7.35-15.228
					c0.034-9.046,1.586-16.148,1.333-16.122C72.897,241.443,78.291,247.579,78.34,256.357z"/>
			</g>
			<g>
				<path style="fill:#E8E0FF;" d="M76.663,259.305c-0.028-0.162-0.261-0.126-0.24,0.044c0.418,3.404,0.762,6.949,1.537,10.31
					c0.197,0.861,0.409,1.711,0.662,2.55c-0.046-0.572-0.133-1.583-0.19-2.935C77.624,266.015,77.254,262.664,76.663,259.305z"/>
				<path style="fill:#E8E0FF;" d="M76.19,269.355c-1.688-2.843-2.529-5.899-2.703-9.05c-0.012-0.224-0.312-0.167-0.313,0.051
					c-0.012,3.043,0.645,6.001,2.17,8.77c0.129,0.233,0.262,0.469,0.402,0.704c1.54,1.902,2.931,2.911,2.917,2.914
					c0,0-0.004-0.063-0.013-0.179C77.693,271.531,76.848,270.465,76.19,269.355z"/>
			</g>
			<path style="fill:#E8E0FF;" d="M78.663,272.744c0.002,0-0.028-0.365-0.082-1.028c-0.712-1.282-1.289-2.591-1.705-3.895
				c-1.023-3.202-1.291-6.528-1.772-9.751c-0.023-0.154-0.22-0.121-0.223,0.038c-0.061,3.319,0.399,6.622,1.409,9.832
				c0.448,1.426,0.992,2.879,1.751,4.286C78.429,272.565,78.664,272.744,78.663,272.744z"/>
		</g>
		<g>
			<g>
				<path style="fill:#E8E0FF;" d="M62.524,273.501c8.998,0.429,16.052-0.911,16.038-0.632c-0.057-0.271-6.505-6.578-15.243-7.124
					c-8.815-0.502-16.303-0.99-16.258-1.243C46.94,264.76,53.442,273.116,62.524,273.501z"/>
			</g>
			<g>
				<path style="fill:#E8E0FF;" d="M65.327,271.706c-0.163-0.034-0.147-0.291,0.023-0.266c3.416,0.514,6.895,0.695,10.195,1.115
					c0.846,0.106,1.681,0.215,2.508,0.352c-0.545,0.038-1.51,0.094-2.808,0.193C72.023,272.623,68.717,272.407,65.327,271.706z"/>
				<path style="fill:#E8E0FF;" d="M75.03,270.721c-2.884-1.479-5.845-2.249-8.931-2.493c-0.219-0.017-0.177-0.343,0.035-0.34
					c2.968,0.041,5.812,0.631,8.586,1.965c0.234,0.112,0.471,0.229,0.708,0.35c1.963,1.408,3.132,2.676,3.133,2.666
					c0,0-0.059,0.006-0.17,0.014C77.272,272.046,76.157,271.299,75.03,270.721z"/>
			</g>
			<path style="fill:#E8E0FF;" d="M78.562,272.869c0,0.001-0.346,0.03-0.979,0.07c-1.317-0.56-2.635-1.015-3.931-1.34
				c-3.179-0.797-6.434-0.999-9.665-1.653c-0.155-0.031-0.133-0.249,0.024-0.246c3.286,0.059,6.511,0.48,9.686,1.264
				c1.411,0.348,2.852,0.75,4.284,1.335C78.356,272.654,78.562,272.87,78.562,272.869z"/>
		</g>
		<g>
			<g>
				<path style="fill:#E8E0FF;" d="M90.693,267.787c0.888,8.783,1.72,16.307,1.942,16.224c-0.213,0.159-7.995-5.23-8.823-14.289
					c-0.853-8.973-0.001-16.18-0.251-16.126C83.815,253.615,89.779,259.084,90.693,267.787z"/>
			</g>
			<g>
				<path style="fill:#E8E0FF;" d="M89.313,270.898c-0.044-0.157-0.272-0.096-0.235,0.07c0.752,3.33,1.444,6.809,2.549,10.058
					c0.282,0.833,0.578,1.653,0.912,2.457c-0.103-0.562-0.29-1.556-0.48-2.892C90.933,277.447,90.233,274.164,89.313,270.898z"/>
				<path style="fill:#E8E0FF;" d="M89.834,280.922c-1.963-2.633-3.102-5.572-3.585-8.677c-0.034-0.22-0.327-0.13-0.307,0.085
					c0.288,3.019,1.233,5.88,3.027,8.458c0.151,0.217,0.308,0.436,0.47,0.654c1.723,1.716,3.209,2.564,3.196,2.569
					c0,0-0.011-0.062-0.031-0.177C91.549,282.914,90.6,281.95,89.834,280.922z"/>
			</g>
			<path style="fill:#E8E0FF;" d="M92.635,284.011c0.002-0.001-0.065-0.359-0.184-1.011c-0.836-1.193-1.541-2.428-2.085-3.676
				c-1.336-3.064-1.931-6.333-2.727-9.476c-0.038-0.15-0.231-0.095-0.219,0.062c0.265,3.298,1.049,6.523,2.373,9.596
				c0.587,1.365,1.274,2.747,2.17,4.059C92.384,283.858,92.636,284.01,92.635,284.011z"/>
		</g>
		<g>
			<g>
				<path style="fill:#E8E0FF;" d="M76.633,286.556c9.002-0.579,15.9-2.688,15.913-2.41c-0.084-0.263-7.135-5.808-15.884-5.369
					c-8.824,0.49-16.318,0.854-16.298,0.598C60.268,279.642,67.552,287.186,76.633,286.556z"/>
			</g>
			<g>
				<path style="fill:#E8E0FF;" d="M79.247,284.464c-0.166-0.015-0.175-0.273-0.003-0.266c3.452,0.129,6.935-0.079,10.264-0.029
					c0.854,0.011,1.696,0.027,2.535,0.072c-0.539,0.098-1.496,0.261-2.779,0.503C86.007,284.628,82.692,284.78,79.247,284.464z"/>
				<path style="fill:#E8E0FF;" d="M88.814,282.406c-3.019-1.147-6.044-1.581-9.14-1.478c-0.22,0.008-0.21-0.32,0.002-0.341
					c2.959-0.29,5.849-0.023,8.744,0.993c0.244,0.086,0.491,0.175,0.74,0.269c2.095,1.179,3.387,2.308,3.386,2.298
					c0,0-0.059,0.012-0.168,0.033C91.179,283.472,89.994,282.854,88.814,282.406z"/>
			</g>
			<path style="fill:#E8E0FF;" d="M92.546,284.146c0,0.001-0.342,0.068-0.969,0.178c-1.368-0.41-2.726-0.715-4.05-0.893
				c-3.246-0.438-6.507-0.275-9.788-0.563c-0.157-0.014-0.157-0.232,0-0.247c3.277-0.308,6.531-0.25,9.77,0.175
				c1.44,0.189,2.916,0.428,4.4,0.849C92.32,283.955,92.546,284.147,92.546,284.146z"/>
		</g>
		<g>
			<g>
				<path style="fill:#E8E0FF;" d="M104.839,278.221c1.806,8.612,3.434,15.986,3.647,15.877c-0.197,0.183-8.533-4.269-10.302-13.158
					c-1.788-8.802-1.684-16.045-1.928-15.963C96.51,264.965,103.014,269.691,104.839,278.221z"/>
			</g>
			<g>
				<path style="fill:#E8E0FF;" d="M103.79,281.469c-0.06-0.151-0.282-0.063-0.227,0.097c1.099,3.217,2.156,6.589,3.602,9.687
					c0.369,0.794,0.751,1.574,1.17,2.334c-0.162-0.546-0.454-1.512-0.785-2.815C106.093,287.78,105.049,284.602,103.79,281.469z"/>
				<path style="fill:#E8E0FF;" d="M105.364,291.355c-2.236-2.387-3.68-5.171-4.488-8.196c-0.057-0.215-0.34-0.092-0.297,0.12
					c0.603,2.962,1.845,5.692,3.907,8.043c0.174,0.198,0.353,0.397,0.538,0.595c1.9,1.504,3.474,2.175,3.461,2.181
					c0,0-0.017-0.06-0.049-0.172C107.285,293.135,106.237,292.287,105.364,291.355z"/>
			</g>
			<path style="fill:#E8E0FF;" d="M108.486,294.098c0.002-0.001-0.102-0.349-0.29-0.983c-0.961-1.088-1.794-2.232-2.469-3.408
				c-1.656-2.886-2.592-6.062-3.716-9.088c-0.054-0.145-0.241-0.068-0.211,0.087c0.61,3.242,1.73,6.351,3.375,9.248
				c0.73,1.287,1.561,2.579,2.594,3.778C108.219,293.976,108.486,294.097,108.486,294.098z"/>
		</g>
		<g>
			<g>
				<path style="fill:#E8E0FF;" d="M92.791,298.475c8.913-1.618,15.578-4.507,15.621-4.232c-0.113-0.251-7.736-4.942-16.407-3.489
					c-8.741,1.511-16.161,2.75-16.168,2.493C75.768,293.521,83.802,300.151,92.791,298.475z"/>
			</g>
			<g>
				<path style="fill:#E8E0FF;" d="M95.178,296.095c-0.167,0.004-0.203-0.25-0.031-0.263c3.455-0.272,6.907-0.881,10.235-1.216
					c0.853-0.087,1.696-0.169,2.537-0.222c-0.528,0.159-1.465,0.432-2.72,0.82C101.935,295.476,98.645,296.01,95.178,296.095z"/>
				<path style="fill:#E8E0FF;" d="M104.503,292.946c-3.133-0.79-6.195-0.87-9.271-0.409c-0.219,0.033-0.243-0.294-0.034-0.339
					c2.919-0.632,5.829-0.701,8.824-0.027c0.253,0.057,0.509,0.117,0.767,0.181c2.214,0.928,3.624,1.9,3.623,1.89
					c0,0-0.058,0.019-0.164,0.052C106.975,293.731,105.727,293.254,104.503,292.946z"/>
			</g>
			<path style="fill:#E8E0FF;" d="M108.412,294.242c0,0.001-0.334,0.106-0.948,0.288c-1.409-0.249-2.796-0.395-4.136-0.419
				c-3.284-0.06-6.52,0.48-9.82,0.574c-0.158,0.005-0.181-0.212-0.026-0.245c3.234-0.686,6.484-1.006,9.761-0.958
				c1.457,0.021,2.954,0.088,4.481,0.335C108.165,294.079,108.412,294.243,108.412,294.242z"/>
		</g>
		<g>
			<g>
				<path style="fill:#E8E0FF;" d="M119.308,286.566c2.678,8.357,5.064,15.504,5.265,15.372c-0.18,0.203-8.978-3.306-11.641-11.941
					c-2.674-8.546-3.294-15.75-3.529-15.641C109.654,274.315,116.617,278.292,119.308,286.566z"/>
			</g>
			<g>
				<path style="fill:#E8E0FF;" d="M118.588,289.907c-0.076-0.143-0.288-0.032-0.217,0.121c1.425,3.075,2.825,6.31,4.589,9.228
					c0.45,0.748,0.913,1.481,1.41,2.19c-0.218-0.525-0.609-1.452-1.073-2.711C121.533,295.924,120.165,292.881,118.588,289.907z"/>
				<path style="fill:#E8E0FF;" d="M121.168,299.556c-2.481-2.126-4.208-4.734-5.321-7.65c-0.079-0.207-0.348-0.054-0.284,0.152
					c0.903,2.876,2.422,5.452,4.724,7.561c0.194,0.178,0.394,0.356,0.599,0.532c2.054,1.286,3.699,1.78,3.687,1.787
					c0,0-0.023-0.058-0.067-0.165C123.272,301.113,122.137,300.386,121.168,299.556z"/>
			</g>
			<path style="fill:#E8E0FF;" d="M124.573,301.939c0.002-0.001-0.138-0.336-0.391-0.945c-1.074-0.975-2.024-2.021-2.819-3.115
				c-1.951-2.686-3.21-5.738-4.639-8.621c-0.068-0.138-0.247-0.041-0.202,0.11c0.938,3.153,2.373,6.119,4.314,8.817
				c0.861,1.199,1.825,2.391,2.981,3.469C124.293,301.846,124.574,301.938,124.573,301.939z"/>
		</g>
		<g>
			<g>
				<path style="fill:#E8E0FF;" d="M109.317,308.006c8.746-2.585,15.126-6.184,15.196-5.916c-0.14-0.237-8.25-4.063-16.763-1.668
					c-8.579,2.46-15.857,4.508-15.89,4.255C91.818,304.957,100.499,310.656,109.317,308.006z"/>
			</g>
			<g>
				<path style="fill:#E8E0FF;" d="M111.462,305.381c-0.166,0.023-0.229-0.226-0.058-0.258c3.426-0.649,6.818-1.632,10.115-2.329
					c0.845-0.18,1.68-0.354,2.517-0.498c-0.512,0.216-1.423,0.589-2.639,1.112C118.156,304.025,114.92,304.916,111.462,305.381z"/>
				<path style="fill:#E8E0FF;" d="M120.469,301.231c-3.216-0.441-6.286-0.186-9.313,0.61c-0.215,0.057-0.272-0.265-0.068-0.333
					c2.853-0.948,5.756-1.335,8.821-0.994c0.259,0.029,0.521,0.06,0.786,0.096c2.311,0.679,3.821,1.49,3.819,1.481
					c0,0-0.056,0.025-0.159,0.07C123.023,301.74,121.725,301.403,120.469,301.231z"/>
			</g>
			<path style="fill:#E8E0FF;" d="M124.513,302.09c0,0.001-0.324,0.142-0.92,0.39c-1.436-0.093-2.84-0.086-4.182,0.037
				c-3.292,0.301-6.473,1.191-9.762,1.647c-0.157,0.022-0.202-0.191-0.05-0.24c3.163-1.036,6.38-1.71,9.663-2.021
				c1.459-0.139,2.965-0.236,4.519-0.158C124.25,301.955,124.514,302.091,124.513,302.09z"/>
		</g>
	</g>
	<g>
		<g>
			<path style="fill:#9377C7;" d="M241.144,182.862c2.381,7.74,2.126,15.181,2.129,15.22c0.028,0.032-5.607-4.8-8.138-12.997
				c-2.546-8.191-0.769-15.845-0.773-15.799C234.38,169.318,238.732,175.135,241.144,182.862z"/>
		</g>
		<g>
			<path style="fill:#9377C7;" d="M273.125,242.923c-1.64-1.719-3.236-3.478-4.791-5.272c-3.109-3.588-6.037-7.328-8.789-11.197
				c-5.505-7.737-10.289-16.01-14.256-24.731c-1.085-2.384-2.11-4.801-3.079-7.246c-1.022-2.576-1.885-5.261-2.966-7.815
				c-0.099-0.233-0.417-0.11-0.356,0.139c1.146,4.712,3.132,9.213,5.047,13.593c1.927,4.414,4.059,8.721,6.38,12.91
				c4.642,8.379,10.056,16.287,16.207,23.589c1.682,1.997,3.419,3.947,5.209,5.851c1.88,2,3.757,4.104,5.914,5.808
				c0.354,0.279,0.766-0.182,0.468-0.52C276.543,246.245,274.76,244.636,273.125,242.923z"/>
		</g>
		<g>
			<path style="fill:#9377C7;" d="M240.284,185.775c-0.06-0.141-0.26-0.07-0.205,0.079c1.11,2.996,2.035,6.126,2.727,9.264
				c0.177,0.804,0.331,1.612,0.475,2.423c0.003-0.573-0.012-1.578-0.09-2.877C242.445,191.648,241.535,188.7,240.284,185.775z"/>
			<path style="fill:#9377C7;" d="M241.328,195.135c-1.516-2.446-2.796-5.073-3.64-7.905c-0.06-0.201-0.311-0.095-0.264,0.103
				c0.658,2.77,1.771,5.346,3.189,7.735c0.12,0.201,0.241,0.405,0.364,0.609c1.329,1.573,2.298,2.403,2.296,2.405
				c0,0,0.002-0.064,0.005-0.182C242.597,196.999,241.92,196.091,241.328,195.135z"/>
		</g>
		<g>
			<g>
				<path style="fill:#9377C7;" d="M252.286,192.665c-2.907,7.377-5.344,13.718-5.134,13.746c-0.233,0.037-4.161-7.572-1.096-15.148
					c3.011-7.516,6.644-12.904,6.424-12.967C252.673,178.42,255.139,185.344,252.286,192.665z"/>
			</g>
			<g>
				<path style="fill:#9377C7;" d="M249.918,194.554c0.03-0.144-0.176-0.193-0.214-0.044c-0.774,2.974-1.657,6.039-2.12,9.097
					c-0.12,0.783-0.224,1.562-0.29,2.345c0.15-0.491,0.411-1.362,0.81-2.506C248.506,200.461,249.303,197.548,249.918,194.554z"/>
				<path style="fill:#9377C7;" d="M246.21,202.758c-0.467-2.934-0.159-5.761,0.734-8.442c0.064-0.19-0.204-0.244-0.277-0.063
					c-1.013,2.528-1.442,5.211-1.085,8.029c0.03,0.237,0.064,0.478,0.102,0.721c0.654,2.102,1.479,3.41,1.467,3.408
					c0,0,0.017-0.054,0.048-0.154C246.744,205.075,246.393,203.904,246.21,202.758z"/>
			</g>
			<path style="fill:#9377C7;" d="M247.151,206.411c0.001,0,0.097-0.313,0.271-0.883c-0.17-1.306-0.218-2.59-0.135-3.816
				c0.204-3.009,1.078-5.867,1.74-8.712c0.032-0.136-0.144-0.175-0.198-0.044c-1.145,2.741-1.851,5.645-2.069,8.657
				c-0.097,1.338-0.124,2.73,0.044,4.156C247.016,206.183,247.152,206.411,247.151,206.411z"/>
		</g>
		<g>
			<g>
				<path style="fill:#9377C7;" d="M233.471,201.605c7.347,3.387,13.659,4.649,13.555,4.876c0.042-0.244-3.244-7.665-10.337-11.062
					c-7.171-3.387-13.241-6.315-13.12-6.51C223.384,189.082,226.04,198.226,233.471,201.605z"/>
			</g>
			<g>
				<path style="fill:#9377C7;" d="M236.395,201.056c-0.125-0.083-0.026-0.292,0.107-0.213c2.673,1.578,5.509,2.9,8.116,4.361
					c0.669,0.374,1.328,0.745,1.971,1.138c-0.466-0.152-1.288-0.43-2.4-0.785C241.665,204.074,238.986,202.781,236.395,201.056z"/>
				<path style="fill:#9377C7;" d="M244.795,203.504c-1.912-2.202-4.122-3.84-6.61-5.082c-0.177-0.088-0.034-0.345,0.142-0.271
					c2.456,1.034,4.629,2.483,6.497,4.527c0.158,0.172,0.316,0.349,0.474,0.53c1.169,1.833,1.725,3.282,1.729,3.274
					c0,0-0.051-0.015-0.146-0.046C246.224,205.362,245.543,204.364,244.795,203.504z"/>
			</g>
			<path style="fill:#9377C7;" d="M247.026,206.481c-0.001,0.001-0.298-0.092-0.838-0.272c-0.911-0.909-1.858-1.732-2.83-2.439
				c-2.382-1.734-5.025-2.999-7.498-4.631c-0.118-0.078-0.029-0.252,0.101-0.196c2.715,1.156,5.26,2.593,7.643,4.314
				c1.059,0.765,2.126,1.585,3.125,2.554C246.926,206.233,247.026,206.482,247.026,206.481z"/>
		</g>
		<g>
			<g>
				<path style="fill:#9377C7;" d="M258.797,206.337c-2.157,7.609-3.945,14.15-3.733,14.155c-0.23,0.061-4.929-7.045-2.632-14.863
					c2.248-7.754,5.334-13.465,5.108-13.504C257.746,192.227,260.906,198.787,258.797,206.337z"/>
			</g>
			<g>
				<path style="fill:#9377C7;" d="M256.623,208.462c0.015-0.146-0.195-0.172-0.219-0.021c-0.472,3.024-1.043,6.153-1.195,9.229
					c-0.04,0.788-0.064,1.57-0.051,2.352c0.1-0.502,0.272-1.393,0.554-2.568C255.812,214.458,256.312,211.489,256.623,208.462z"/>
				<path style="fill:#9377C7;" d="M253.752,216.979c-0.765-2.852-0.744-5.682-0.123-8.429c0.044-0.195-0.229-0.219-0.283-0.032
					c-0.756,2.609-0.913,5.309-0.27,8.058c0.054,0.231,0.113,0.467,0.176,0.703c0.867,2.008,1.825,3.215,1.813,3.214
					c0,0,0.012-0.055,0.032-0.157C254.522,219.214,254.05,218.093,253.752,216.979z"/>
			</g>
			<path style="fill:#9377C7;" d="M255.064,220.493c0.002,0,0.065-0.321,0.181-0.904c-0.303-1.275-0.482-2.54-0.523-3.761
				c-0.102-2.999,0.481-5.921,0.855-8.804c0.018-0.138-0.161-0.157-0.202-0.022c-0.867,2.834-1.278,5.782-1.189,8.785
				c0.039,1.334,0.154,2.715,0.467,4.108C254.905,220.281,255.065,220.493,255.064,220.493z"/>
		</g>
		<g>
			<g>
				<path style="fill:#9377C7;" d="M240.908,217.222c7.682,2.55,14.118,3.118,14.037,3.354c0.017-0.247-4.022-7.236-11.449-9.818
					c-7.504-2.564-13.861-4.785-13.76-4.992C229.57,205.956,233.143,214.688,240.908,217.222z"/>
			</g>
			<g>
				<path style="fill:#9377C7;" d="M243.774,216.361c-0.133-0.068-0.056-0.286,0.085-0.222c2.83,1.27,5.797,2.27,8.551,3.433
					c0.707,0.297,1.403,0.594,2.086,0.913c-0.481-0.1-1.331-0.286-2.478-0.517C249.345,218.774,246.536,217.784,243.774,216.361z"/>
				<path style="fill:#9377C7;" d="M252.414,217.87c-2.134-1.972-4.508-3.352-7.119-4.309c-0.185-0.068-0.069-0.337,0.114-0.283
					c2.558,0.755,4.876,1.951,6.949,3.771c0.175,0.153,0.351,0.311,0.527,0.473c1.354,1.687,2.057,3.061,2.06,3.053
					c0,0-0.053-0.01-0.151-0.029C254.03,219.554,253.248,218.641,252.414,217.87z"/>
			</g>
			<path style="fill:#9377C7;" d="M254.946,220.576c-0.001,0.001-0.307-0.059-0.865-0.179c-1.004-0.802-2.033-1.513-3.076-2.107
				c-2.557-1.458-5.325-2.421-7.96-3.765c-0.126-0.064-0.054-0.246,0.081-0.205c2.829,0.847,5.517,1.991,8.073,3.436
				c1.136,0.642,2.285,1.338,3.382,2.189C254.821,220.341,254.946,220.576,254.946,220.576z"/>
		</g>
		<g>
			<g>
				<path style="fill:#9377C7;" d="M267.129,219.785c-1.336,7.775-2.413,14.46-2.2,14.441c-0.224,0.086-5.693-6.426-4.235-14.42
					c1.414-7.927,3.888-13.92,3.659-13.933C264.568,205.948,268.423,212.072,267.129,219.785z"/>
			</g>
			<g>
				<path style="fill:#9377C7;" d="M265.185,222.134c0-0.146-0.213-0.148-0.221,0.004c-0.146,3.047-0.379,6.21-0.196,9.274
					c0.045,0.785,0.106,1.563,0.204,2.336c0.046-0.509,0.12-1.411,0.275-2.607C265.021,228.162,265.201,225.166,265.185,222.134z"/>
				<path style="fill:#9377C7;" d="M263.236,230.892c-1.074-2.739-1.358-5.543-1.033-8.332c0.023-0.198-0.252-0.191-0.286,0
					c-0.474,2.668-0.341,5.358,0.6,8.009c0.079,0.223,0.163,0.449,0.252,0.676c1.085,1.892,2.174,2.98,2.161,2.98
					c0,0,0.006-0.056,0.015-0.16C264.247,233.02,263.655,231.961,263.236,230.892z"/>
			</g>
			<path style="fill:#9377C7;" d="M264.929,234.226c0.001,0,0.03-0.325,0.082-0.916c-0.441-1.229-0.757-2.462-0.931-3.668
				c-0.426-2.959-0.158-5.918-0.096-8.814c0.003-0.139-0.178-0.137-0.205,0.001c-0.561,2.903-0.654,5.868-0.241,8.833
				c0.183,1.317,0.448,2.672,0.913,4.017C264.747,234.034,264.93,234.226,264.929,234.226z"/>
		</g>
		<g>
			<g>
				<path style="fill:#9377C7;" d="M250.425,232.582c7.951,1.656,14.45,1.496,14.395,1.739c-0.011-0.247-4.809-6.718-12.503-8.43
					c-7.772-1.687-14.356-3.155-14.277-3.371C237.892,222.726,242.392,230.949,250.425,232.582z"/>
			</g>
			<g>
				<path style="fill:#9377C7;" d="M253.196,231.406c-0.14-0.053-0.087-0.277,0.061-0.23c2.965,0.937,6.039,1.593,8.919,2.436
					c0.739,0.215,1.467,0.431,2.185,0.67c-0.492-0.045-1.362-0.134-2.534-0.234C259.024,233.166,256.11,232.503,253.196,231.406z"/>
				<path style="fill:#9377C7;" d="M261.995,231.926c-2.347-1.712-4.868-2.811-7.58-3.462c-0.193-0.046-0.105-0.326,0.083-0.293
					c2.637,0.457,5.082,1.38,7.352,2.949c0.191,0.132,0.385,0.269,0.578,0.409c1.537,1.518,2.389,2.801,2.392,2.793
					c0,0-0.054-0.004-0.154-0.012C263.793,233.412,262.912,232.595,261.995,231.926z"/>
			</g>
			<path style="fill:#9377C7;" d="M264.82,234.321c0,0.001-0.313-0.024-0.884-0.08c-1.09-0.681-2.197-1.271-3.304-1.741
				c-2.713-1.156-5.584-1.797-8.362-2.83c-0.133-0.049-0.08-0.237,0.059-0.212c2.918,0.518,5.727,1.347,8.439,2.491
				c1.205,0.508,2.43,1.068,3.618,1.788C264.669,234.103,264.82,234.322,264.82,234.321z"/>
		</g>
		<g>
			<g>
				<path style="fill:#9377C7;" d="M276.418,231.603c-0.527,7.857-0.898,14.608-0.687,14.566c-0.217,0.108-6.381-5.775-5.751-13.859
					c0.592-8.013,2.451-14.217,2.22-14.205C272.424,218.156,276.907,223.811,276.418,231.603z"/>
			</g>
			<g>
				<path style="fill:#9377C7;" d="M274.718,234.141c-0.016-0.145-0.229-0.124-0.22,0.028c0.172,3.039,0.271,6.202,0.776,9.225
					c0.128,0.774,0.271,1.54,0.451,2.298c-0.008-0.51-0.028-1.413,0-2.617C275.185,240.14,275.05,237.147,274.718,234.141z"/>
				<path style="fill:#9377C7;" d="M273.684,243.039c-1.363-2.604-1.941-5.356-1.906-8.158c0.003-0.199-0.272-0.162-0.287,0.031
					c-0.197,2.697,0.218,5.352,1.438,7.884c0.103,0.213,0.21,0.429,0.323,0.645c1.285,1.762,2.492,2.727,2.479,2.729
					c0,0,0-0.056-0.001-0.16C274.921,245.044,274.216,244.057,273.684,243.039z"/>
			</g>
			<path style="fill:#9377C7;" d="M275.732,246.169c0.002,0-0.004-0.326-0.014-0.918c-0.572-1.173-1.018-2.364-1.319-3.542
				c-0.738-2.892-0.779-5.856-1.018-8.736c-0.011-0.138-0.193-0.117-0.205,0.023c-0.259,2.94-0.043,5.892,0.683,8.79
				c0.322,1.288,0.73,2.604,1.337,3.891C275.529,245.998,275.733,246.169,275.732,246.169z"/>
		</g>
		<g>
			<g>
				<path style="fill:#9377C7;" d="M261.035,246.08c8.13,0.795,14.627-0.051,14.597,0.195c-0.038-0.245-5.526-6.16-13.4-7.034
					c-7.951-0.842-14.682-1.589-14.626-1.811C247.479,237.649,252.823,245.315,261.035,246.08z"/>
			</g>
			<g>
				<path style="fill:#9377C7;" d="M263.686,244.618c-0.146-0.037-0.116-0.265,0.037-0.235c3.065,0.614,6.212,0.938,9.185,1.468
					c0.762,0.135,1.515,0.271,2.259,0.433c-0.497,0.007-1.379,0.011-2.563,0.037C269.704,245.744,266.717,245.396,263.686,244.618z"
					/>
				<path style="fill:#9377C7;" d="M272.55,244.197c-2.531-1.45-5.169-2.272-7.951-2.629c-0.198-0.025-0.139-0.312,0.053-0.3
					c2.687,0.172,5.23,0.827,7.669,2.143c0.206,0.111,0.414,0.226,0.622,0.344c1.699,1.344,2.689,2.527,2.69,2.518
					c0,0-0.055,0.002-0.156,0.005C274.507,245.482,273.539,244.764,272.55,244.197z"/>
			</g>
			<path style="fill:#9377C7;" d="M275.632,246.275c0,0.001-0.316,0.009-0.894,0.015c-1.165-0.561-2.335-1.028-3.493-1.378
				c-2.839-0.859-5.78-1.189-8.667-1.917c-0.138-0.035-0.105-0.227,0.037-0.217c2.974,0.203,5.873,0.726,8.708,1.572
				c1.26,0.376,2.546,0.802,3.813,1.39C275.458,246.074,275.632,246.276,275.632,246.275z"/>
		</g>
	</g>
	<g>
		<g>
			<path style="fill:#7453B0;" d="M353.814,298.982c10.674,6.56,24.462,6.265,36.159,1.83c11.696-4.435,21.646-12.553,30.808-21.136
				c3.094-2.899,6.198-5.968,7.925-9.859c1.727-3.891,1.792-8.825-0.912-12.099c-6.233-7.547-19.329-0.445-27.799-5.278
				c-0.93-5.515,3.247-10.766,8.168-13.329c4.921-2.563,10.561-3.223,15.882-4.767c5.321-1.544,10.778-4.398,13.035-9.507
				c2.257-5.109-0.667-12.529-6.195-12.82c-3.521-0.185-7.602,2.253-10.233-0.12c-2.044-1.843-1.313-5.438,0.656-7.364
				c1.968-1.925,4.728-2.708,7.266-3.748c9.442-3.87,16.911-12.348,19.622-22.275c1.643-6.015,0.816-13.829-4.75-16.528
				c-6.528-3.165-13.553,2.949-18.273,8.498c-6.571,7.724-13.143,15.449-19.714,23.173c-2.966,3.487-8.678,6.969-11.318,3.224
				c-2.122-3.01,0.771-7.505-0.866-10.809c-1.644-3.318-6.641-3.014-9.656-0.895c-6.129,4.308-7.663,12.728-7.975,20.266
				c-0.312,7.538-0.067,15.63-4.195,21.917c-4.128,6.286-14.795,8.556-18.671,2.107c-1.512-2.516-1.587-5.617-2.299-8.471
				c-0.713-2.854-2.59-5.881-5.493-6.116c-3.337-0.269-5.687,3.179-7.058,6.266C325.916,248.187,332.607,278.507,353.814,298.982"/>
		</g>
		<path style="fill:none;stroke:#322700;stroke-width:0.5;stroke-miterlimit:10;" d="M351.428,291.568
			c28.273-41.425,47.258-69.241,75.531-110.666"/>
		<path style="fill:none;stroke:#322700;stroke-width:0.5;stroke-miterlimit:10;" d="M390.257,234.678c0,0-5.683-16.641-6.16-33.072
			"/>
		<path style="fill:none;stroke:#322700;stroke-width:0.5;stroke-miterlimit:10;" d="M370.749,264.573c0,0,8.969,11.857,38.375,6.2"
			/>
		<path style="fill:none;stroke:#322700;stroke-width:0.5;stroke-miterlimit:10;" d="M400.679,219.798c0,0,6.023,7.513,21.297,2.612
			"/>
		<path style="fill:none;stroke:#322700;stroke-width:0.5;stroke-miterlimit:10;" d="M360.535,278.226
			c0,0-19.74-22.684-14.898-39.958"/>
	</g>
	<g>
		<linearGradient id="SVGID_1_" gradientUnits="userSpaceOnUse" x1="415.7216" y1="299.3192" x2="436.2796" y2="299.3192">
			<stop  offset="0" style="stop-color:#699150"/>
			<stop  offset="0.53" style="stop-color:#3C6422"/>
			<stop  offset="1" style="stop-color:#1F3C00"/>
		</linearGradient>
		<path style="fill-rule:evenodd;clip-rule:evenodd;fill:url(#SVGID_1_);" d="M416.62,287.994c0,0,9.097,10.34,11.208,22.651
			C427.828,310.645,408.501,302.275,416.62,287.994z"/>
		<polygon style="fill-rule:evenodd;clip-rule:evenodd;fill:#BCA8CC;" points="416.296,289.637 423.278,299.319 420.516,297.027 
			421.494,299.814 422.957,300.8 423.935,302.439 423.935,304.245 423.278,304.245 424.898,305.224 424.898,306.216 
			424.578,306.705 422.471,306.705 421.005,305.065 418.571,303.26 416.131,300.628 416.131,298.005 415.325,295.055 		"/>
		<path style="fill-rule:evenodd;clip-rule:evenodd;fill:#21031A;" d="M432.822,355.526c0.028-0.002,0.056-0.003,0.084-0.005
			c4.218-0.236,7.086-4.43,5.845-8.511l-9.313-30.605l-42.743-18.064l-39.462,1.474l-197.215,0.739l-48.591,7.753l-8.206,47.218
			H432.822z"/>
		<path style="fill-rule:evenodd;clip-rule:evenodd;fill:#D4F4F3;" d="M309.809,231.012l-8.323,2.005l-4.017,2.583
			c0,0,23.102,4.74,46.843,39.081l33.616-4.065C377.927,270.617,356.936,246.152,309.809,231.012z"/>
		<path style="fill-rule:evenodd;clip-rule:evenodd;fill:#161341;" d="M102.715,259.131l-1.981-1.117
			c-3.621-0.192-16.091,29.203-10.8,33.574C89.934,291.588,107.098,274.272,102.715,259.131z"/>
		<path style="fill-rule:evenodd;clip-rule:evenodd;fill:#632DC6;" d="M450.324,342.718l-0.462,6.498
			c-0.164,2.31-1.727,4.276-3.923,4.936l0,0c0,0-0.001,0-0.002,0.001c-5.718,1.715-11.616-2.016-12.636-7.956
			c-2.092-12.197-9.444-30.832-34.848-30.542c-35.801-1.108-34.109,37.271-34.109,37.271H164.491c0,0,2.15-38.96-39.111-37.271
			c-34.598,1.301-29.799,41.703-29.799,41.703l-5.119-1.474c0,0-1.987-12.474-3.748-24.289c-1.328-8.915-0.96-17.974,0.783-26.815
			c0.252-1.279,0.411-2.605,0.411-3.915c0,0,8.397-45.059,24.478-62.043c2.139-4.087-9.642-4.754-7.418-7.82
			c2.352-0.312,137.702-17.77,204.845,0.011l-8.322,2.001c0,0,29.671,11.348,43.921,39.412l32.874-3.689
			c17.922,4.087,36.855,7.637,50.86,17.522c7.237,5.099,13.143,11.886,16.932,21.319c0.034,0.086,0.068,0.171,0.102,0.257
			c1.077,2.74,1.565,5.683,1.526,8.631l-0.309,23.295L450.324,342.718z"/>
		<path style="fill-rule:evenodd;clip-rule:evenodd;fill:#2C1341;" d="M451.006,337.349l-1.067,11.863
			c-0.209,2.32-1.794,4.278-4.003,4.945l0,0c0,0-0.001,0-0.002,0.001c-5.721,1.711-11.617-2.023-12.637-7.964
			c-2.092-12.195-9.443-30.826-34.843-30.535c-35.802-1.107-34.111,37.262-34.111,37.262l-199.853,0.004
			c0,0,2.151-38.954-39.112-37.266c-34.595,1.302-29.798,41.702-29.798,41.702l-8.547-2.154c0,0-1.857-11.961-3.606-23.391
			c2.103-0.634,7.519-1.095,8.001-1.184c5.862-18.778,21.242-28.442,37.371-29.441c28.784-1.783,41.478,28.126,44.479,44.563
			c52.458-0.264,128.736-0.522,178.547-0.772c10.053-57.809,67.407-54.012,88.991-14.253c0,0,2.408,0.187,5.081,0.429
			C449,331.44,451.288,334.214,451.006,337.349z"/>
		<path style="fill-rule:evenodd;clip-rule:evenodd;fill:#D4F4F3;" d="M138.466,238.067c-10.9,0.951-13.851,25.472-15.53,36.08
			h101.713l4.44-42.207C214.756,232.124,151.421,233.074,138.466,238.067L138.466,238.067z M335.527,274.147
			c-5.111-9.377-34.482-40.365-77.769-41.93c-7.564-0.273-15.095-0.359-22.439-0.31l-2.933,42.24H335.527z"/>
		<path style="fill-rule:evenodd;clip-rule:evenodd;fill:#2C1341;" d="M327.558,263.226c0,0-4.382,8.122,1.466,14.769
			C329.025,277.995,349.483,269.874,327.558,263.226z"/>
		<path style="fill-rule:evenodd;clip-rule:evenodd;fill:#FFFFFF;" d="M446.078,307.577c-6.566,3.991-18.22-5.324-21.168-10.326
			c-3.235-5.453-3.182-11.326,4.236-10.993C436.383,291.356,442.289,298.144,446.078,307.577z"/>
		<path style="fill-rule:evenodd;clip-rule:evenodd;fill:#2C1341;" d="M233.496,285.747l-0.004-1.305
			c-0.007-1.205,0.724-2.185,1.632-2.191l19.404-0.108c0.908-0.006,1.648,0.968,1.654,2.171l0.005,1.305L233.496,285.747z"/>
		<path style="fill-rule:evenodd;clip-rule:evenodd;fill:#161341;" d="M157.624,286.286l-0.005-1.304
			c-0.005-1.205,0.727-2.186,1.633-2.19l19.403-0.108c0.908-0.005,1.648,0.966,1.653,2.172l0.006,1.304L157.624,286.286z"/>
		<g>
			<path style="fill-rule:evenodd;clip-rule:evenodd;fill:#1F1E24;" d="M378.53,367.827c10.736,10.744,28.056,10.657,38.686-0.195
				c10.63-10.852,10.544-28.356-0.191-39.101c-10.737-10.744-28.057-10.657-38.687,0.194
				C367.708,339.578,367.795,357.083,378.53,367.827L378.53,367.827z M411.937,362.35L411.937,362.35
				c-7.743,7.903-20.359,7.967-28.179,0.141c-7.82-7.826-7.882-20.577-0.141-28.48c7.743-7.904,20.359-7.967,28.179-0.142
				C419.617,341.694,419.679,354.445,411.937,362.35z"/>
			<path style="fill-rule:evenodd;clip-rule:evenodd;fill:#FFFFFF;" d="M397.665,325.327c12.485-0.063,22.659,10.118,22.721,22.738
				c0.062,12.621-10.01,22.903-22.498,22.965c-12.485,0.063-22.659-10.119-22.721-22.738
				C375.106,335.673,385.179,325.39,397.665,325.327z"/>
			<path style="fill-rule:evenodd;clip-rule:evenodd;fill:#1F1E24;" d="M397.678,328.046c-11.001,0.056-19.876,9.114-19.821,20.233
				c0.055,11.12,9.017,20.089,20.018,20.033c11.002-0.055,19.876-9.113,19.821-20.233
				C417.643,336.959,408.679,327.991,397.678,328.046z"/>
			<path style="fill-rule:evenodd;clip-rule:evenodd;fill:#632DC6;" d="M401.77,353.588c2.692-2.749,2.671-7.184-0.049-9.906
				c-2.72-2.722-7.108-2.7-9.801,0.05c-2.693,2.749-2.671,7.184,0.048,9.906C394.688,356.359,399.076,356.336,401.77,353.588z"/>
			<path style="fill-rule:evenodd;clip-rule:evenodd;fill:#FFFFFF;" d="M395.529,370.267l-1.26-15.234l-11.45,9.989l-2.022-2.025
				l9.768-11.671l-15.084-1.121l-0.015-2.877l15.072-1.272l-9.881-11.572l2.001-2.044l11.549,9.872l1.108-15.246l2.846-0.014
				l1.259,15.234l11.451-9.988l2.022,2.024l-9.768,11.672l15.084,1.121l0.014,2.876l-15.072,1.273l9.882,11.572l-2.002,2.044
				l-11.548-9.873l-1.109,15.246L395.529,370.267L395.529,370.267z M395.515,351.954l2.693-0.015l1.895-1.934l-0.013-2.725
				l-1.914-1.915l-2.694,0.013l-1.896,1.936l0.014,2.722L395.515,351.954z"/>
		</g>
		<g>
			<path style="fill-rule:evenodd;clip-rule:evenodd;fill:#1F1E24;" d="M109.655,367.827c10.736,10.744,28.056,10.657,38.686-0.195
				c10.63-10.852,10.544-28.356-0.192-39.101c-10.736-10.744-28.056-10.657-38.686,0.194
				C98.833,339.578,98.919,357.083,109.655,367.827L109.655,367.827z M143.062,362.35L143.062,362.35
				c-7.743,7.903-20.359,7.967-28.179,0.141c-7.82-7.826-7.882-20.577-0.14-28.48c7.743-7.904,20.359-7.967,28.179-0.142
				C150.742,341.694,150.804,354.445,143.062,362.35z"/>
			<path style="fill-rule:evenodd;clip-rule:evenodd;fill:#FFFFFF;" d="M128.79,325.327c12.485-0.063,22.659,10.118,22.721,22.738
				c0.062,12.621-10.01,22.903-22.498,22.965c-12.485,0.063-22.659-10.119-22.72-22.738
				C106.231,335.673,116.304,325.39,128.79,325.327z"/>
			<path style="fill-rule:evenodd;clip-rule:evenodd;fill:#1F1E24;" d="M128.803,328.046c-11.002,0.056-19.876,9.114-19.821,20.233
				c0.055,11.12,9.017,20.089,20.018,20.033c11.002-0.055,19.876-9.113,19.821-20.233
				C148.767,336.959,139.804,327.991,128.803,328.046z"/>
			<path style="fill-rule:evenodd;clip-rule:evenodd;fill:#596F56;" d="M132.895,353.588c2.692-2.749,2.671-7.184-0.049-9.906
				c-2.721-2.722-7.108-2.7-9.801,0.05c-2.693,2.749-2.672,7.184,0.048,9.906C125.813,356.359,130.201,356.336,132.895,353.588z"/>
			<path style="fill-rule:evenodd;clip-rule:evenodd;fill:#FFFFFF;" d="M126.653,370.267l-1.259-15.234l-11.451,9.989l-2.022-2.025
				l9.768-11.671l-15.084-1.121l-0.015-2.877l15.072-1.272l-9.881-11.572l2.001-2.044l11.549,9.872l1.108-15.246l2.846-0.014
				l1.259,15.234l11.451-9.988l2.022,2.024l-9.768,11.672l15.084,1.121l0.015,2.876l-15.072,1.273l9.882,11.572l-2.002,2.044
				l-11.548-9.873l-1.109,15.246L126.653,370.267L126.653,370.267z M126.64,351.954l2.694-0.015l1.895-1.934l-0.013-2.725
				l-1.914-1.915l-2.695,0.013l-1.896,1.936l0.013,2.722L126.64,351.954z"/>
		</g>
	</g>
	<g>
		<g>
			<path style="fill:#623CA3;" d="M131.568,368.838c5.411-8.569,5.637-19.957,2.6-29.769c-3.037-9.812-8.973-18.316-15.293-26.188
				c-2.134-2.659-4.4-5.331-7.345-6.897c-2.945-1.566-6.749-1.799-9.364,0.313c-6.027,4.869-0.978,15.933-4.985,22.746
				c-4.285,0.567-8.199-3.07-10.014-7.224c-1.815-4.153-2.139-8.831-3.156-13.277c-1.016-4.446-3.039-9.053-6.906-11.101
				c-3.867-2.048-9.688,0.095-10.094,4.646c-0.259,2.899,1.488,6.354-0.428,8.439c-1.489,1.62-4.239,0.885-5.659-0.809
				c-1.421-1.694-1.933-4-2.653-6.132c-2.675-7.931-8.971-14.402-16.54-17c-4.586-1.574-10.642-1.176-12.907,3.319
				c-2.656,5.271,1.83,11.29,5.955,15.386c5.743,5.703,11.486,11.405,17.229,17.108c2.592,2.574,5.091,7.414,2.115,9.456
				c-2.392,1.642-5.764-0.909-8.367,0.322c-2.614,1.236-2.543,5.37-1.007,7.934c3.122,5.213,9.567,6.786,15.373,7.317
				c5.805,0.531,12.056,0.623,16.77,4.258c4.714,3.634,6.114,12.519,1.012,15.482c-1.991,1.156-4.385,1.105-6.611,1.589
				c-2.225,0.484-4.622,1.923-4.899,4.31c-0.317,2.744,2.266,4.808,4.602,6.052C91.465,390.012,115.076,385.592,131.568,368.838"/>
		</g>
		<path style="fill:none;stroke:#322700;stroke-width:0.5;stroke-miterlimit:10;" d="M125.77,370.537
			c-31.029-24.834-51.864-41.509-82.893-66.343"/>
		<path style="fill:none;stroke:#322700;stroke-width:0.5;stroke-miterlimit:10;" d="M83.157,336.432c0,0-13.025,4.084-25.716,3.882
			"/>
		<path style="fill:none;stroke:#322700;stroke-width:0.5;stroke-miterlimit:10;" d="M105.579,353.615c0,0,9.442-6.969,6.044-31.439
			"/>
		<path style="fill:none;stroke:#322700;stroke-width:0.5;stroke-miterlimit:10;" d="M72.02,327.292c0,0,5.994-4.697,2.715-17.477"
			/>
		<path style="fill:none;stroke:#322700;stroke-width:0.5;stroke-miterlimit:10;" d="M115.776,362.539
			c0,0-18.149,15.464-31.316,10.841"/>
	</g>
	<g>
		<g>
			<path id="XMLID_2_" style="fill:#FFFFFF;" d="M231.201,369.079l-99.659,20.447c-6.189,1.27-12.28-2.809-13.537-9.064
				l-45.23-225.199c-1.256-6.255,2.779-12.412,8.968-13.682l99.658-20.447c6.189-1.27,12.281,2.809,13.537,9.064l45.231,225.199
				C241.426,361.653,237.39,367.81,231.201,369.079z"/>
			<path style="fill:#2C1341;" d="M177.844,119.346l-93.753,19.236c-8.951,1.837-14.83,10.315-13.106,18.9l44.326,220.698
				c1.724,8.584,10.409,14.074,19.36,12.238l93.753-19.236c8.951-1.837,14.83-10.315,13.106-18.899l-44.327-220.698
				C195.48,123,186.795,117.509,177.844,119.346z M237.474,353.114c1.295,6.45-3.106,12.797-9.831,14.176l-93.753,19.236
				c-6.725,1.38-13.227-2.73-14.522-9.18L75.041,156.649c-1.295-6.45,3.106-12.798,9.832-14.177l21.59-4.43
				c1.953-0.401,3.842,0.793,4.218,2.666l0.044,0.22v0c0.596,2.967,3.586,4.857,6.68,4.222l34.55-7.089
				c3.093-0.635,5.118-3.554,4.522-6.521c-0.015-0.074-0.037-0.145-0.056-0.217l0.012-0.003l0,0
				c-0.376-1.873,0.902-3.717,2.855-4.118l19.338-3.968c6.725-1.38,13.227,2.73,14.522,9.18L237.474,353.114z"/>
		</g>
		<g>
			<defs>
				<polygon id="SVGID_00000074437771172274155750000010370098245363569555_" points="228.929,309.973 110.934,333.519 
					84.004,200.559 201.83,176.18 				"/>
			</defs>
			<clipPath id="SVGID_00000083810979289208862870000010077827663875148178_">
				<use xlink:href="#SVGID_00000074437771172274155750000010370098245363569555_"  style="overflow:visible;"/>
			</clipPath>
			<polygon style="clip-path:url(#SVGID_00000083810979289208862870000010077827663875148178_);fill:#E8E0FF;" points="
				238.03,354.905 120.204,379.284 84.004,200.559 201.83,176.18 			"/>
			<polygon style="clip-path:url(#SVGID_00000083810979289208862870000010077827663875148178_);fill:#C0B0FF;" points="
				132.878,264.148 97.221,271.526 90.287,237.288 125.944,229.91 			"/>
			<polygon style="clip-path:url(#SVGID_00000083810979289208862870000010077827663875148178_);fill:#7159D1;" points="
				169.16,330.007 125.668,339.006 114.359,283.168 157.85,274.169 			"/>
			
				<ellipse style="clip-path:url(#SVGID_00000083810979289208862870000010077827663875148178_);fill:#C0B0FF;" cx="159.293" cy="233.122" rx="14.675" ry="14.832"/>
			
				<ellipse style="clip-path:url(#SVGID_00000083810979289208862870000010077827663875148178_);fill:#C0B0FF;" cx="213.935" cy="359.89" rx="14.675" ry="14.832"/>
			
				<ellipse style="clip-path:url(#SVGID_00000083810979289208862870000010077827663875148178_);fill:#7159D1;" cx="140.224" cy="189.496" rx="12.692" ry="12.827"/>
			<polygon style="clip-path:url(#SVGID_00000083810979289208862870000010077827663875148178_);fill:#C0B0FF;" points="
				188.256,365.203 120.204,379.284 115.768,357.384 183.82,343.303 			"/>
			<polygon style="clip-path:url(#SVGID_00000083810979289208862870000010077827663875148178_);fill:#C0B0FF;" points="
				222.116,276.336 179.571,285.139 174.273,258.984 216.819,250.181 			"/>
			<polygon style="clip-path:url(#SVGID_00000083810979289208862870000010077827663875148178_);fill:#C0B0FF;" points="
				206.361,195.755 176.89,201.853 172.902,182.165 202.374,176.068 			"/>
			<polygon style="clip-path:url(#SVGID_00000083810979289208862870000010077827663875148178_);fill:#7159D1;" points="
				113.41,215.239 83.939,221.337 77.576,189.92 107.047,183.822 			"/>
			
				<rect x="181.088" y="244.768" style="clip-path:url(#SVGID_00000083810979289208862870000010077827663875148178_);fill:#C0B0FF;" width="0" height="0"/>
			<polygon style="clip-path:url(#SVGID_00000083810979289208862870000010077827663875148178_);fill:#7159D1;" points="
				214.329,237.89 196.113,241.66 191.097,216.897 209.314,213.128 			"/>
			<polygon style="clip-path:url(#SVGID_00000083810979289208862870000010077827663875148178_);fill:#7159D1;" points="
				229.474,312.662 188.29,321.183 183.655,298.297 224.839,289.776 			"/>
		</g>
		<g>
			<path style="fill-rule:evenodd;clip-rule:evenodd;fill:#632DC6;" d="M202.349,362.483l-43.136,8.925
				c-4.38,0.906-8.657-1.948-9.553-6.374l-0.118-0.582c-0.897-4.427,1.927-8.749,6.306-9.656l43.136-8.925
				c4.38-0.906,8.657,1.948,9.553,6.374l0.118,0.582C209.552,357.254,206.729,361.577,202.349,362.483z"/>
			
				<text transform="matrix(0.9721 -0.1882 0.1862 0.9825 172.6477 362.1246)" style="fill:#FFFFFF; font-family:'MyriadPro-Regular'; font-size:7.451px;">start</text>
		</g>
		<g>
			<polygon style="fill-rule:evenodd;clip-rule:evenodd;fill:#632DC6;" points="112.041,183.208 93.491,187.058 89.682,168.309 
				108.232,164.46 			"/>
			<g>
				
					<line style="fill-rule:evenodd;clip-rule:evenodd;fill:none;stroke:#7159D1;stroke-linecap:round;stroke-miterlimit:10;" x1="114.791" y1="166.621" x2="165.096" y2="156.18"/>
				
					<line style="fill-rule:evenodd;clip-rule:evenodd;fill:none;stroke:#7159D1;stroke-linecap:round;stroke-miterlimit:10;" x1="116.009" y1="172.615" x2="156.551" y2="164.2"/>
				
					<line style="fill-rule:evenodd;clip-rule:evenodd;fill:none;stroke:#7159D1;stroke-linecap:round;stroke-miterlimit:10;" x1="117.227" y1="178.609" x2="138.243" y2="174.247"/>
			</g>
		</g>
		
			<line style="fill-rule:evenodd;clip-rule:evenodd;fill:none;stroke:#7159D1;stroke-linecap:round;stroke-miterlimit:10;" x1="130.355" y1="339.496" x2="214.222" y2="323.169"/>
		
			<line style="fill-rule:evenodd;clip-rule:evenodd;fill:none;stroke:#7159D1;stroke-linecap:round;stroke-miterlimit:10;" x1="139.217" y1="343.889" x2="203.776" y2="331.321"/>
		
			<line style="fill-rule:evenodd;clip-rule:evenodd;fill:none;stroke:#7159D1;stroke-linecap:round;stroke-miterlimit:10;" x1="158.406" y1="347.483" x2="193.604" y2="340.63"/>
	</g>
	<g>
		<g>
			<g>
				<path style="fill:#FFFFFF;" d="M217.725,211.76c1.609,0,1.611-2.5,0-2.5C216.116,209.26,216.113,211.76,217.725,211.76
					L217.725,211.76z"/>
			</g>
		</g>
		<g>
			<g>
				<path style="fill:#FFFFFF;" d="M217.725,218.126c0.804,0,0.806-1.25,0-1.25C216.92,216.876,216.919,218.126,217.725,218.126
					L217.725,218.126z"/>
			</g>
		</g>
	</g>
	<g>
		<g>
			<g>
				<path style="fill:#FFFFFF;" d="M395.658,169.972c1.609,0,1.611-2.5,0-2.5C394.05,167.472,394.047,169.972,395.658,169.972
					L395.658,169.972z"/>
			</g>
		</g>
		<g>
			<g>
				<path style="fill:#FFFFFF;" d="M399.988,174.8c0.804,0,0.806-1.25,0-1.25C399.183,173.55,399.182,174.8,399.988,174.8
					L399.988,174.8z"/>
			</g>
		</g>
	</g>
	<g>
		<g>
			<g>
				<path style="fill:#FFFFFF;" d="M69.149,272.436c1.609,0,1.611-2.5,0-2.5C67.54,269.936,67.537,272.436,69.149,272.436
					L69.149,272.436z"/>
			</g>
		</g>
		<g>
			<g>
				<path style="fill:#FFFFFF;" d="M75.268,276.201c1.609,0,1.611-2.5,0-2.5C73.66,273.701,73.657,276.201,75.268,276.201
					L75.268,276.201z"/>
			</g>
		</g>
		<g>
			<g>
				<path style="fill:#FFFFFF;" d="M69.149,278.802c0.804,0,0.806-1.25,0-1.25C68.344,277.552,68.343,278.802,69.149,278.802
					L69.149,278.802z"/>
			</g>
		</g>
	</g>
	<g>
		<g>
			<g>
				<path style="fill:#FFFFFF;" d="M215.596,133.637c1.609,0,1.611-2.5,0-2.5C213.987,131.137,213.985,133.637,215.596,133.637
					L215.596,133.637z"/>
			</g>
		</g>
		<g>
			<g>
				<path style="fill:#FFFFFF;" d="M211.709,139.719c1.609,0,1.611-2.5,0-2.5C210.1,137.219,210.098,139.719,211.709,139.719
					L211.709,139.719z"/>
			</g>
		</g>
		<g>
			<g>
				<path style="fill:#FFFFFF;" d="M208.681,132.825c0.804,0,0.806-1.25,0-1.25C207.877,131.575,207.875,132.825,208.681,132.825
					L208.681,132.825z"/>
			</g>
		</g>
	</g>
	<g>
		<g>
			<g>
				<path style="fill:#FFFFFF;" d="M321.498,156.86c1.609,0,1.611-2.5,0-2.5C319.889,154.36,319.887,156.86,321.498,156.86
					L321.498,156.86z"/>
			</g>
		</g>
		<g>
			<g>
				<path style="fill:#FFFFFF;" d="M325.267,163.018c1.609,0,1.611-2.5,0-2.5C323.658,160.518,323.655,163.018,325.267,163.018
					L325.267,163.018z"/>
			</g>
		</g>
		<g>
			<g>
				<path style="fill:#FFFFFF;" d="M318.365,162.469c0.804,0,0.806-1.25,0-1.25C317.561,161.219,317.559,162.469,318.365,162.469
					L318.365,162.469z"/>
			</g>
		</g>
	</g>
	<g>
		<g>
			<g>
				<path style="fill:#FFFFFF;" d="M447.365,286.692c1.609,0,1.611-2.5,0-2.5C445.756,284.192,445.753,286.692,447.365,286.692
					L447.365,286.692z"/>
			</g>
		</g>
		<g>
			<g>
				<path style="fill:#FFFFFF;" d="M440.356,285.191c1.609,0,1.611-2.5,0-2.5C438.748,282.691,438.745,285.191,440.356,285.191
					L440.356,285.191z"/>
			</g>
		</g>
		<g>
			<g>
				<path style="fill:#FFFFFF;" d="M445.071,279.471c0.804,0,0.806-1.25,0-1.25C444.267,278.221,444.265,279.471,445.071,279.471
					L445.071,279.471z"/>
			</g>
		</g>
	</g>
	<g>
		<g>
			<g>
				<path style="fill:#FFFFFF;" d="M359.893,369.9c1.609,0,1.611-2.5,0-2.5C358.284,367.4,358.282,369.9,359.893,369.9
					L359.893,369.9z"/>
			</g>
		</g>
		<g>
			<g>
				<path style="fill:#FFFFFF;" d="M364.607,364.179c0.804,0,0.806-1.25,0-1.25C363.803,362.929,363.802,364.179,364.607,364.179
					L364.607,364.179z"/>
			</g>
		</g>
	</g>
	<g>
		<g>
			<g>
				<path style="fill:#FFFFFF;" d="M143.564,396.539c1.609,0,1.611-2.5,0-2.5C141.955,394.039,141.952,396.539,143.564,396.539
					L143.564,396.539z"/>
			</g>
		</g>
		<g>
			<g>
				<path style="fill:#FFFFFF;" d="M136.931,397.9c0.804,0,0.806-1.25,0-1.25C136.127,396.65,136.125,397.9,136.931,397.9
					L136.931,397.9z"/>
			</g>
		</g>
	</g>
	<g>
		<g>
			<path style="fill:#632DC6;" d="M288.919,171.55l-21.197-41.192c-6.176-17.166,6.402-35.316,24.475-35.316h0
				c18.072,0,30.65,18.15,24.475,35.316l-21.198,41.192C294.094,174.231,290.298,174.231,288.919,171.55z"/>
			<ellipse style="fill:#DACDFF;" cx="292.196" cy="120.847" rx="14.473" ry="14.628"/>
		</g>
		<ellipse style="fill:#C0B0FF;" cx="292.196" cy="180.119" rx="14.473" ry="1.778"/>
	</g>
</g>
</svg>
