<?xml version="1.0" encoding="UTF-8" standalone="no"?>
<!-- Generator: Adobe Illustrator 27.5.0, SVG Export Plug-In . SVG Version: 6.00 Build 0)  -->

<svg
   version="1.1"
   x="0px"
   y="0px"
   viewBox="0 0 1920 1080"
   style="enable-background:new 0 0 1920 1080;"
   xml:space="preserve"
   id="svg902"
   sodipodi:docname="SignIn.svg"
  
	

	
	
	

		
		
	<radialGradient
   xlink:href="#SVGID_00000034076847132841611680000002513316468984836488_"
   id="radialGradient2270"
   gradientUnits="userSpaceOnUse"
   cx="1100.1227"
   cy="584.08197"
   r="10.3713" /><radialGradient
   xlink:href="#SVGID_00000160157864864953055780000003700644766603877820_"
   id="radialGradient2272"
   gradientUnits="userSpaceOnUse"
   cx="1568.1003"
   cy="581.28967"
   r="10.5956" /><radialGradient

   xlink:href="#SVGID_00000034076847132841611680000002513316468984836488_"
   id="radialGradient2274"
   gradientUnits="userSpaceOnUse"
   cx="1100.1227"
   cy="584.08197"
   r="10.3713" /><radialGradient

   xlink:href="#SVGID_00000160157864864953055780000003700644766603877820_"
   id="radialGradient2276"
   gradientUnits="userSpaceOnUse"
   cx="1568.1003"
   cy="581.28967"
   r="10.5956" /></defs><sodipodi:namedview
   id="namedview904"
   pagecolor="#ffffff"
   bordercolor="#000000"
   borderopacity="0.25"
 />



<g
   id="g2268"
   transform="translate(-334.32372,-31.978791)"><g
     id="g709"><g
       id="g700">
		<g
   style="opacity:0.61"
   id="g553">
			<defs
   id="defs526">
				<path
   id="SVGID_1_"
   style="opacity:0.61"
   d="m 1222.091,887.889 h 465.13 c 104.381,-87.672 155.4,-231.355 116.36,-373.717 -49.522,-180.586 -231.673,-294.202 -415.697,-259.576 -31.057,5.844 -60.383,15.461 -87.621,28.27 -34.741,16.338 -74.889,14.873 -109.752,-1.205 -50.839,-23.446 -109.971,-30.057 -168.88,-14.311 -125.775,33.62 -205.104,160.822 -180.142,288.598 21.456,109.83 111.393,187.956 216.062,200.089 39.916,4.627 75.803,26.218 98.558,59.338 18.728,27.26 40.993,51.597 65.982,72.514 z" />
			</defs>
			<clipPath
   id="SVGID_00000012472887644343779500000003215598637139582611_">
				<use
   xlink:href="#SVGID_1_"
   style="overflow:visible"
   id="use528" />
			</clipPath>
			<g
   clip-path="url(#SVGID_00000012472887644343779500000003215598637139582611_)"
   id="g551">
				
					<rect
   id="XMLID_00000105401148108565410820000012048426095231840675_"
   x="1793.999"
   y="185.57899"
   style="fill:#fffffe"
   width="11.865"
   height="594.59003" />
				<g
   id="g549">
					<rect
   x="679.30103"
   y="185.30299"
   style="fill:#d7e2ff"
   width="1207.462"
   height="746.39099"
   id="rect532" />
					<g
   id="XMLID_00000155142636383500904960000011294785312536728711_"
   style="opacity:0.43">
						<polygon
   id="XMLID_00000157995362971693483300000013863000462325899932_"
   style="fill:#fffffe"
   points="676.184,753.124 955.832,185.579 940.17,185.579 676.184,721.338 " />
						<polygon
   id="XMLID_00000110447500455378604160000006827183827157246886_"
   style="fill:#fffffe"
   points="985.545,1006.212 1029.984,1006.212 1434.336,185.579 1381.093,185.579 979.35,1000.915 " />
						<polygon
   id="XMLID_00000069360775370096746530000013351999697462982545_"
   style="fill:#fffffe"
   points="776.49,1006.212 1180.842,185.579 1165.18,185.579 760.828,1006.212 " />
						<polygon
   id="XMLID_00000168092092479194391160000010824884108956823227_"
   style="fill:#fffffe"
   points="712.097,1006.212 741.693,1006.212 1146.045,185.579 1092.802,185.579 695.459,991.986 " />
						<polygon
   id="XMLID_00000146494405075512099190000011816970597730025348_"
   style="fill:#fffffe"
   points="676.184,543.799 676.184,651.856 905.934,185.579 852.691,185.579 " />
						<polygon
   id="XMLID_00000134246300995270095090000006541261899020794257_"
   style="fill:#fffffe"
   points="1339.076,1006.212 1390.925,1006.212 1795.278,185.579 1742.034,185.579 1338.095,1005.374 " />
						<polygon
   id="XMLID_00000156553921162666493140000010229561222498741418_"
   style="fill:#fffffe"
   points="1417.966,999.349 1425.993,1006.212 1503.149,1006.212 1886.417,228.369 1886.417,185.579 1818.937,185.579 " />
						<polygon
   id="XMLID_00000064335507393394873440000000024882749252780206_"
   style="fill:#fffffe"
   points="1539.457,1006.212 1886.417,302.056 1886.417,270.271 1523.796,1006.212 " />
						<polygon
   id="XMLID_00000108268902947279057610000000274372283283564174_"
   style="fill:#fffffe"
   points="1061.426,1006.212 1149.99,1006.212 1553.904,186.467 1552.865,185.579 1465.777,185.579 " />
						<polygon
   id="XMLID_00000167360432562252961050000002755271117798708126_"
   style="fill:#fffffe"
   points="1321.434,1006.212 1725.786,185.579 1710.124,185.579 1305.772,1006.212 " />
					</g>
					
						<rect
   id="XMLID_00000023267667006191901230000007743664321694695856_"
   x="973.41699"
   y="185.57899"
   style="fill:#fffffe"
   width="11.865"
   height="783.24902" />
					
						<rect
   id="XMLID_00000124866891204752278680000008495636890901042874_"
   x="1250.837"
   y="185.57899"
   style="fill:#fffffe"
   width="11.865"
   height="783.24902" />
					
						<rect
   id="XMLID_00000161630673351879978010000017993980465609416593_"
   x="1516.58"
   y="185.57899"
   style="fill:#fffffe"
   width="11.865"
   height="783.24902" />
					
						<rect
   id="XMLID_00000101802458179441763130000003974438500914139327_"
   x="762.19702"
   y="185.57899"
   style="fill:#fffffe"
   width="11.865"
   height="783.24902" />
				</g>
			</g>
		</g>
		<path
   id="XMLID_00000074430546818157168290000011198004044901073041_"
   style="fill:#d7e2ff"
   d="m 1833.562,875.591 c 0,45.295 -254.6,82.014 -568.663,82.014 -314.064,0 -568.663,-36.719 -568.663,-82.014 0,-45.296 254.598,-82.015 568.663,-82.015 314.063,0 568.663,36.719 568.663,82.015 z" />
		<g
   id="g698">
			<path
   style="fill:#1f282e"
   d="m 1608.767,863.585 c 0,0 -8.422,13.717 -14.919,16.845 -6.497,3.128 -19.973,6.016 -19.973,10.347 0,4.331 31.042,5.294 41.87,0 0,0 15.401,1.444 19.491,0 4.091,-1.444 -2.647,-15.882 -2.647,-15.882 l -0.962,-11.31 z"
   id="path556" />
			<path
   style="fill:#1f282e"
   d="m 1788.614,863.411 c 0,0 -6.139,15.237 -12.144,19.491 -6.005,4.255 -19.073,9.455 -18.335,13.814 0.738,4.359 32.138,0.04 42.132,-7.131 0,0 15.743,-1.17 19.614,-3.32 3.871,-2.15 -5.368,-15.531 -5.368,-15.531 l -3.972,-15.388 z"
   id="path558" />
			<path
   style="fill:#314fa5"
   d="m 1610.891,516.594 c 0,0 -10.148,8.611 -5.997,17.221 0,0 -16.76,82.416 -21.065,127.314 -4.305,44.898 1.23,89.181 4.92,112.552 3.69,23.372 11.071,58.429 11.071,67.04 0,8.61 -3.075,16.606 1.23,22.757 0,0 27.062,3.075 39.978,0 0,0 1.23,-7.381 0,-18.451 -1.23,-11.071 6.15,-68.27 7.38,-83.646 1.23,-15.376 0,-24.602 0,-31.367 0,-6.765 7.995,-11.071 3.075,-19.681 0,0 6.891,-17.837 1.6,-29.522 l 23.002,-83.467 c 0,0 14.761,49.025 31.982,100.688 17.221,51.664 67.655,166.813 67.655,166.813 0,0 4.305,0.751 14.761,0 10.456,-0.752 14.761,-2.597 23.986,-6.287 9.226,-3.69 9.226,-3.69 9.226,-3.69 0,0 -6.766,-14.761 -9.226,-25.216 -2.46,-10.456 -17.836,-78.111 -27.062,-94.102 -9.226,-15.991 -11.071,-27.062 -11.686,-36.287 -0.615,-9.226 -5.535,-42.438 -8.611,-47.973 -3.075,-5.536 -13.531,-59.044 -16.606,-68.885 -3.075,-9.841 -1.012,-60.088 -20.296,-80.57 10e-4,-10e-4 -108.246,6.764 -119.317,14.759 z"
   id="path560" />
			<path
   style="fill:#15244f"
   d="m 1647.793,587.939 c 0.923,-25.216 -3.075,-27.677 3.69,-31.982 6.765,-4.305 11.993,5.536 14.146,9.841 2.153,4.305 7.38,20.296 10.456,31.545 l -23.002,83.467 c 5.291,11.686 -1.6,29.522 -1.6,29.522 2.492,4.36 1.669,7.616 0.252,10.647 -20.005,-23.198 -15.214,-65.747 -13.167,-78.609 2.152,-13.531 8.303,-29.214 9.225,-54.431 z"
   id="path562" />
			<path
   style="fill:#15244f"
   d="m 1604.894,533.815 c -4.151,-8.61 5.997,-17.221 5.997,-17.221 11.071,-7.996 119.318,-14.761 119.318,-14.761 3.393,3.603 6.113,8.139 8.328,13.202 -34.292,26.185 -94.182,29.235 -94.182,29.235 l -3.019,-5.843 -1.538,5.843 c -7.79,0 -27.315,-3.435 -35.988,-5.036 0.686,-3.457 1.084,-5.419 1.084,-5.419 z"
   id="path564" />
			<g
   id="g568">
				<path
   style="fill:#0c193a"
   d="m 1809.286,846.536 1.757,-0.56 -43.052,-135.31 c -0.076,-0.193 -4.953,-11.867 -7.97,-27.336 -1.329,-6.818 -6.346,-27.015 -12.155,-50.4 -7.569,-30.483 -16.149,-65.035 -18.592,-78.208 -4.248,-22.897 -6.126,-42.933 -6.142,-43.134 l -1.84,0.17 c 0.019,0.201 1.901,20.316 6.164,43.3 2.454,13.226 11.041,47.806 18.618,78.316 5.805,23.361 10.814,43.537 12.136,50.307 3.056,15.668 8.001,27.505 8.05,27.622 z"
   id="path566" />
			</g>
			<g
   id="g572">
				<path
   style="fill:#0c193a"
   d="m 1771.615,856.267 c 25.937,-0.596 47.221,-12.825 47.433,-12.948 l -0.932,-1.594 c -0.208,0.121 -21.098,12.113 -46.547,12.698 z"
   id="path570" />
			</g>
			<g
   id="g576">
				<path
   style="fill:#0c193a"
   d="m 1619.978,854.507 c 12.651,0 21.621,-2.238 21.753,-2.272 l -0.454,-1.787 c -0.201,0.049 -19.966,4.964 -42.125,-0.006 l -0.401,1.799 c 7.569,1.7 14.865,2.266 21.227,2.266 z"
   id="path574" />
			</g>
			<path
   style="fill:#0c193a"
   d="m 1609.046,499.143 c 0,0 -4.152,7.15 -1.615,9.225 l -2.537,11.662 c 0,0 18.451,6.097 33.674,6.559 l 5.786,-9.226 1.363,9.226 c 0,0 11.763,3.69 31.828,0 20.066,-3.69 23.357,-4.152 41.431,-8.073 18.074,-3.921 21.995,-12.261 21.995,-12.261 0,0 -8.072,-8.266 -7.611,-11.494 0.461,-3.229 -5.074,-9.226 -5.074,-9.226 z"
   id="path578" />
			<g
   id="g586">
				<path
   style="fill:#314fa5"
   d="m 1607.966,304.666 -5.347,-23.64 c 0,0 0.198,-8.731 0.095,-16.03 -0.038,-2.732 -1.226,-5.314 -3.339,-7.046 -4.899,-4.015 -14.838,-9.736 -26.306,-2.816 0,0 -18.011,-9.287 -36.585,10.694 -18.574,19.981 1.97,34.052 22.796,32.364 20.825,-1.687 48.686,6.474 48.686,6.474 z"
   id="path580" />
				<path
   style="fill:#ed3232"
   d="m 1587.422,282.433 c 0,0 -0.844,-7.88 3.658,-7.88 4.503,0 9.568,12.383 4.222,16.885 l 36.022,30.675 c 0,0 -8.443,29.269 -29.268,27.861 l -18.574,-31.238 c 0,0 -3.94,5.628 -7.88,4.221 -3.94,-1.407 -17.167,-16.323 -17.167,-16.323 0,0 2.814,-3.658 -1.126,-8.443 -3.94,-4.785 -8.443,-9.569 -9.287,-13.227 -0.844,-3.659 13.227,-7.598 21.669,-10.413 8.444,-2.812 17.731,7.882 17.731,7.882 z"
   id="path582" />
				<path
   style="fill:#ff8f8f"
   d="m 1548.023,284.966 c -0.844,-3.658 13.227,-7.598 21.669,-10.413 8.443,-2.814 17.73,7.88 17.73,7.88 0,0 -0.844,-7.88 3.658,-7.88 4.503,0 9.569,12.383 4.222,16.886 l 36.022,30.675 c 0,0 -8.443,29.269 -29.268,27.861 l -9.879,-16.615 c 3.871,-2.876 7.217,-7.782 5.49,-16.04 -2.039,-9.749 0.461,-13.224 0,-18.451 -0.461,-5.228 -3.537,-6.305 -3.383,-4.152 0.927,12.974 -10.802,24.019 -10.802,24.019 0,0 -3.94,5.628 -7.88,4.221 -3.94,-1.407 -17.167,-16.323 -17.167,-16.323 0,0 2.815,-3.658 -1.126,-8.443 -3.939,-4.782 -8.442,-9.567 -9.286,-13.225 z"
   id="path584" />
			</g>
			<path
   style="fill:#ed3232"
   d="m 1748.353,461.548 c 0,0 16.913,5.843 31.982,2.461 15.068,-3.383 19.681,-22.757 15.991,-35.365 -3.691,-12.608 -13.531,-26.754 -26.139,-38.44 -12.608,-11.686 -17.837,-27.985 -24.909,-31.675 -7.073,-3.69 -30.137,-31.982 -41.515,-40.285 -11.378,-8.303 -31.982,-9.225 -44.283,-4.613 0,0 -24.211,-3.56 -29.481,0.834 -5.269,4.394 -10.656,17.661 -22.032,18.848 0,0 -7.564,3.383 -18.311,2.46 0,0 -34.152,15.991 -41.67,33.212 -7.517,17.221 -7.21,30.445 -8.132,43.975 -0.923,13.531 -11.378,47.973 -11.378,60.582 0,12.608 -2.461,25.525 -7.073,35.365 -4.612,9.841 -8.918,28.907 -8.918,28.907 l 24.602,18.143 c 0,0 20.911,-10.455 26.447,-20.296 5.536,-9.84 11.686,-32.289 16.606,-42.438 4.92,-10.148 12.301,-46.743 12.301,-46.743 0,0 5.487,19.066 6.28,31.982 0.793,12.916 2.692,22.142 10.353,23.986 7.661,1.845 45.794,-0.307 58.402,0 12.608,0.308 53.201,-7.073 60.582,-13.53 7.38,-6.458 4.305,-29.215 4.305,-29.215 z"
   id="path588" />
			<g
   id="g592">
				<path
   style="fill:#c61717"
   d="m 1673.855,370.675 c 0.121,0 0.242,-0.023 0.36,-0.072 0.469,-0.197 0.689,-0.738 0.492,-1.208 -11.386,-27.016 7.709,-48.395 7.902,-48.607 0.344,-0.377 0.318,-0.96 -0.061,-1.304 -0.367,-0.341 -0.958,-0.318 -1.302,0.059 -0.201,0.221 -20.095,22.442 -8.243,50.568 0.152,0.352 0.493,0.564 0.852,0.564 z"
   id="path590" />
			</g>
			<g
   id="g596">
				<path
   style="fill:#c61717"
   d="m 1670.13,372.521 c 0.186,0 0.371,-0.055 0.534,-0.17 0.417,-0.295 0.515,-0.871 0.22,-1.287 -7.558,-10.615 -6.729,-19.328 -6.721,-19.415 0.053,-0.507 -0.311,-0.962 -0.818,-1.017 -0.553,-0.064 -0.962,0.312 -1.015,0.814 -0.042,0.381 -0.943,9.459 7.047,20.689 0.181,0.251 0.465,0.386 0.753,0.386 z"
   id="path594" />
			</g>
			<g
   id="g600">
				<path
   style="fill:#c61717"
   d="m 1747.891,414.959 c 0,0 3.229,-7.227 9.841,-8.457 6.612,-1.23 14.3,-0.153 13.069,-1.537 -1.23,-1.384 -14.146,-5.689 -20.449,-1.845 0,0 5.359,-5.382 9.06,-6.305 3.702,-0.922 -2.449,-3.998 -7.062,-2.152 -4.613,1.845 -14.607,-3.536 -16.145,-10.764 -1.537,-7.227 -10.148,-27.984 -14.607,-29.061 l -61.119,14.569 71.883,47.55 z"
   id="path598" />
			</g>
			<path
   style="fill:#0c193a"
   d="m 1621.347,313.477 c -1,9.917 -13.38,19.835 -13.38,19.835 0,0 6.615,10.302 14.457,9.994 7.842,-0.307 12.147,-23.525 11.378,-25.524 -0.769,-1.999 -10.983,-8.508 -15.749,-6.971 z"
   id="path602" />
			<path
   style="fill:#0c193a"
   d="m 1607.966,333.312 c 0,0 3.386,17.067 -1.688,18.144 -5.074,1.076 -15.102,-7.534 -16.623,-9.995 -1.521,-2.46 -2.039,-9.745 0.373,-11.715 l 2.149,3.614 c 0,10e-4 7.329,3.181 15.789,-0.048 z"
   id="path604" />
			<g
   id="g652">
				<g
   id="g644">
					<g
   id="g642">
						<path
   style="fill:#839add"
   d="m 1780.448,565.75 -74.177,-111.128 -30.446,20.322 74.177,111.129 c 3.18,4.765 9.603,6.045 14.367,2.865 l 13.214,-8.82 c 4.75,-3.171 6.046,-9.603 2.865,-14.368 z"
   id="path606" />
						
							<rect
   x="1727.3521"
   y="452.67001"
   transform="matrix(0.8317,-0.5552,0.5552,0.8317,-0.0065,1049.2887)"
   style="fill:#d7e2ff"
   width="7.3210001"
   height="143.97"
   id="rect608" />
						<g
   id="g640">
							<path
   style="fill:#314fa5"
   d="m 1745.72,427.964 c 4.038,9.098 -0.571,19.518 -8.026,26.432 -2.602,2.413 -4.206,5.709 -4.244,9.257 l -0.068,6.417 c -0.041,3.818 -1.964,7.369 -5.14,9.489 l -37.635,25.121 c -3.128,2.088 -7.076,2.523 -10.583,1.167 l -6.345,-2.453 c -3.252,-1.258 -6.846,-1.026 -10.012,0.436 -9.263,4.278 -20.713,4.566 -27.591,-2.679 -62.958,-66.321 -38.445,-113.786 -9.763,-133.341 v 0 c 0,-10e-4 0,-0.002 0,-0.003 10e-4,-0.001 0,-0.003 0.01,-0.004 v 0 c 29.061,-18.988 82.298,-23.42 119.397,60.161 z"
   id="path610" />
							<path
   style="fill:#ed3232"
   d="m 1716.182,466.337 c 2.223,3.331 -3.437,11.013 -12.643,17.157 -9.206,6.145 -18.472,8.426 -20.695,5.095 -2.223,-3.331 3.438,-11.012 12.644,-17.157 9.206,-6.145 18.471,-8.426 20.694,-5.095 z"
   id="path612" />
							<path
   style="fill:#6a86c6"
   d="m 1719.919,444.138 -59.01,39.389 c -9.457,6.313 -22.36,3.74 -28.672,-5.718 v 0 c -6.313,-9.457 -3.74,-22.36 5.718,-28.673 l 59.01,-39.389 c 9.457,-6.313 22.36,-3.74 28.672,5.718 v 0 c 6.312,9.458 3.739,22.36 -5.718,28.673 z"
   id="path614" />
							<path
   style="fill:#6a86c6"
   d="m 1682.843,410.021 -38.828,25.917 c -9.457,6.313 -22.36,3.74 -28.672,-5.718 v 0 c -6.313,-9.457 -3.74,-22.36 5.718,-28.672 l 38.828,-25.917 c 9.457,-6.313 22.36,-3.74 28.672,5.718 v 0 c 6.312,9.457 3.739,22.359 -5.718,28.672 z"
   id="path616" />
							<path
   style="fill:#314fa5"
   d="m 1624.109,406.115 c -6.963,4.648 -8.846,14.093 -4.198,21.057 4.648,6.963 14.093,8.847 21.056,4.199 l 38.828,-25.917 c 6.963,-4.648 8.848,-14.094 4.2,-21.058 -4.648,-6.963 -14.095,-8.847 -21.058,-4.199 z"
   id="path618" />
							<g
   id="g624">
								<path
   style="fill:#314fa5"
   d="m 1658.328,478.657 16.167,-10.791 c 3.879,-2.589 4.925,-7.833 2.335,-11.712 l -7.491,-11.223 c -2.589,-3.879 -7.833,-4.925 -11.712,-2.335 l -16.634,11.103 c -7.252,4.84 -8.979,14.911 -3.561,21.929 4.935,6.389 14.182,7.511 20.896,3.029 z"
   id="path620" />
								<path
   style="fill:#314fa5"
   d="m 1720.443,417.645 c -4.934,-6.39 -14.18,-7.512 -20.895,-3.03 l -16.104,10.749 c -3.879,2.589 -4.925,7.833 -2.336,11.712 l 7.491,11.223 c 2.589,3.879 7.833,4.925 11.712,2.336 l 16.57,-11.06 c 7.252,-4.842 8.98,-14.913 3.562,-21.93 z"
   id="path622" />
							</g>
							<g
   id="g630">
								<path
   style="fill:#ffffff"
   d="m 1662.357,459.57 -3.483,-5.218 c -0.931,-1.394 -2.823,-1.772 -4.217,-0.841 l -5.218,3.483 c -1.394,0.931 -1.771,2.822 -0.841,4.217 l 3.483,5.218 c 0.83,1.243 2.421,1.671 3.745,1.091 l 0.916,1.372 c 1.123,1.682 3.405,2.137 5.087,1.014 1.682,-1.123 2.137,-3.405 1.014,-5.087 l -0.916,-1.372 c 1.044,-1 1.26,-2.634 0.43,-3.877 z m -4.48,8.564 -0.886,-1.328 3.832,-2.558 0.886,1.328 c 0.705,1.057 0.42,2.49 -0.637,3.195 -1.056,0.706 -2.49,0.42 -3.195,-0.637 z m 3.345,-7.807 c 0.513,0.769 0.305,1.812 -0.463,2.325 l -5.218,3.483 c -0.769,0.513 -1.812,0.305 -2.325,-0.464 l -3.483,-5.218 c -0.513,-0.769 -0.305,-1.812 0.464,-2.325 l 5.218,-3.483 c 0.769,-0.513 1.812,-0.305 2.325,0.464 z"
   id="path626" />
								<path
   style="fill:#ffffff"
   d="m 1656.707,462.92 c -0.557,0.211 -1.21,0.08 -1.644,-0.329 -0.376,-0.355 -0.537,-0.815 -0.513,-1.261 0.032,-0.588 -0.097,-1.173 -0.423,-1.663 l -0.657,-0.984 c -0.2,-0.299 -0.18,-0.712 0.083,-0.957 0.335,-0.312 0.853,-0.24 1.096,0.124 l 0.677,1.015 c 0.332,0.497 0.838,0.831 1.398,1.039 0.303,0.113 0.575,0.318 0.769,0.608 0.564,0.843 0.226,2.024 -0.786,2.408 z"
   id="path628" />
							</g>
							<g
   id="g636">
								<path
   style="fill:#ffffff"
   d="m 1708.905,428.407 -3.483,-5.218 c -0.931,-1.394 -2.822,-1.772 -4.217,-0.841 l -5.218,3.483 c -1.394,0.931 -1.772,2.822 -0.841,4.217 l 3.483,5.218 c 0.931,1.394 2.823,1.771 4.217,0.841 l 4.525,-3.021 0.886,1.328 c 0.705,1.057 0.419,2.49 -0.638,3.195 -0.418,0.279 -0.903,0.412 -1.403,0.384 l -0.074,1.362 c 0.797,0.044 1.569,-0.168 2.234,-0.612 1.682,-1.123 2.137,-3.405 1.015,-5.087 l -0.916,-1.372 c 1.045,-1 1.26,-2.634 0.43,-3.877 z m -1.134,0.757 c 0.513,0.769 0.305,1.812 -0.464,2.325 l -5.218,3.483 c -0.769,0.513 -1.812,0.305 -2.325,-0.464 l -3.483,-5.218 c -0.513,-0.769 -0.305,-1.812 0.464,-2.325 l 5.218,-3.483 c 0.769,-0.513 1.812,-0.305 2.325,0.464 z"
   id="path632" />
								<path
   style="fill:#ffffff"
   d="m 1703.256,431.757 c -0.557,0.211 -1.21,0.08 -1.644,-0.329 -0.376,-0.355 -0.537,-0.815 -0.512,-1.261 0.032,-0.588 -0.097,-1.173 -0.424,-1.663 l -0.657,-0.984 c -0.199,-0.299 -0.18,-0.712 0.083,-0.957 0.335,-0.312 0.853,-0.241 1.096,0.124 l 0.677,1.015 c 0.332,0.497 0.838,0.831 1.398,1.039 0.303,0.113 0.575,0.318 0.769,0.608 0.563,0.843 0.226,2.024 -0.786,2.408 z"
   id="path634" />
							</g>
							<path
   style="fill:#ffffff"
   d="m 1658.352,395.51 1.659,-1.107 c 1.039,-0.693 2.448,-0.412 3.142,0.627 l 1.793,2.686 c 0.645,0.966 0.384,2.278 -0.583,2.923 -0.336,0.224 -0.516,0.613 -0.47,1.014 l 0.319,2.765 c 0.178,1.544 -0.514,3.038 -1.806,3.901 l -5.227,3.489 c -1.697,1.133 -3.797,1.466 -5.762,0.915 l -2.495,-0.7 c -1.05,-0.295 -2.173,-0.116 -3.081,0.489 l -2.07,1.382 c -1.389,0.927 -3.272,0.551 -4.199,-0.837 l -1.172,-1.755 c -0.63,-0.943 -0.374,-2.223 0.569,-2.853 l 3.189,-2.129 c -0.416,-1.41 0.117,-2.988 1.383,-3.833 1.267,-0.845 2.928,-0.733 4.071,0.192 l 5.285,-3.528 c -0.415,-1.411 0.118,-2.988 1.384,-3.833 1.266,-0.845 2.927,-0.732 4.071,0.192 z m -11.481,8.714 c -0.58,-0.739 -1.647,-0.91 -2.429,-0.388 -0.781,0.522 -1.033,1.572 -0.573,2.391 l 0.368,0.655 -4.367,2.915 c -0.199,0.133 -0.253,0.403 -0.12,0.603 l 1.172,1.755 c 0.43,0.644 1.305,0.819 1.949,0.389 l 2.07,-1.382 c 1.302,-0.869 2.913,-1.125 4.42,-0.702 l 2.495,0.7 c 1.508,0.423 3.12,0.167 4.423,-0.702 l 5.227,-3.489 c 0.784,-0.523 1.203,-1.43 1.095,-2.366 l -0.318,-2.765 c -0.117,-1.009 0.336,-1.985 1.18,-2.549 0.222,-0.148 0.283,-0.45 0.134,-0.672 l -1.793,-2.687 c -0.197,-0.295 -0.597,-0.375 -0.892,-0.178 l -2.837,1.894 -0.464,-0.591 c -0.581,-0.739 -1.647,-0.91 -2.429,-0.388 -0.782,0.522 -1.033,1.572 -0.573,2.392 l 0.368,0.655 -7.641,5.1 z"
   id="path638" />
						</g>
					</g>
				</g>
				<path
   style="opacity:0.25;fill:#1f282e"
   d="m 1648.479,437.285 h 8.018 c 0,0 10.629,2.903 19.281,0 l 67.866,41.991 11.484,-2.659 -12.074,-37.9 -76.194,-16.223 -22.505,1.845 z"
   id="path646" />
				<path
   style="fill:#0c193a"
   d="m 1721.836,416.788 c 3.512,-3.352 7.177,-4.01 12.242,-5.488 5.065,-1.477 9.287,-3.588 13.93,-1.688 4.644,1.899 6.121,18.996 11.82,21.107 5.699,2.111 -16.041,5.91 -16.041,5.91 l 15.83,8.232 c 0,0 -2.744,1.266 -3.799,5.488 -1.055,4.221 -2.111,13.297 -8.021,14.986 -5.91,1.689 -16.93,-2.649 -20.263,-5.699 -9.92,-9.076 -10.342,-38.415 -5.698,-42.848 z"
   id="path648" />
				<path
   style="fill:#ff8f8f"
   d="m 1725.75,419.418 c 0,0 -45.283,1.381 -50.771,-1.152 -5.488,-2.533 -14.986,-7.388 -20.052,-7.598 -5.065,-0.211 -19.418,3.025 -19.207,4.784 0.211,1.759 9.076,-0.005 9.076,-0.005 0,0 -7.599,5.774 -5.91,9.995 1.688,4.221 4.644,4.221 6.121,7.176 1.477,2.955 2.532,2.955 4.643,1.477 2.111,-1.477 4.433,-3.166 4.433,-3.166 0,0 13.086,4.01 20.685,-1.266 0,0 39.45,19.43 52.345,24.484 7.47,2.928 11.978,-9.059 10.553,-18.785 -1.614,-11.024 -5.24,-15.05 -11.916,-15.944 z"
   id="path650" />
			</g>
			<path
   style="fill:#0c193a"
   d="m 1521.814,557.71 c 9.237,5.679 12.224,5.074 19.374,2.076 7.15,-2.998 9.226,-8.303 13.608,-10.148 4.382,-1.845 5.535,-7.15 -1.845,-15.914 -7.38,-8.764 -9.687,-9.917 -9.687,-9.917 l -12.685,12.224 4.151,-12.224 c 0,0 -4.844,0 -12.686,-2.307 -7.842,-2.306 -10.609,-2.306 -13.838,2.998 -3.229,5.305 -4.382,12.545 -3.229,16.075 1.153,3.529 10.216,13.067 16.837,17.137 z"
   id="path654" />
			<path
   style="fill:#ff8f8f"
   d="m 1509.409,539.735 -34.827,46.589 c 0,0 -5.535,5.074 -14.53,7.15 -8.995,2.076 -15.914,5.074 -15.223,6.689 0.692,1.615 17.99,-0.692 22.833,0 4.844,0.692 8.073,2.787 13.839,0.586 5.766,-2.201 8.764,-10.734 11.071,-12.81 2.307,-2.076 31.692,-23.986 38.842,-30.675 7.15,-6.689 -14.577,-27.466 -22.005,-17.529 z"
   id="path656" />
			<g
   id="g660">
				<path
   style="fill:#a63b3b"
   d="m 1456.47,601.326 c 0.023,0 0.045,0 0.068,-0.002 0.507,-0.038 0.89,-0.479 0.852,-0.986 -0.087,-1.187 1.31,-1.549 4.294,-2.043 1.401,-0.231 2.851,-0.471 4.12,-0.964 2.086,-0.805 3.067,-1.583 3.181,-2.522 0.072,-0.606 -0.258,-1.07 -0.56,-1.284 -0.424,-0.297 -0.992,-0.189 -1.287,0.227 -0.185,0.267 -0.212,0.598 -0.095,0.88 -0.212,0.18 -0.723,0.521 -1.905,0.977 -1.091,0.424 -2.446,0.647 -3.756,0.865 -2.836,0.468 -6.051,1 -5.831,3.995 0.033,0.488 0.438,0.857 0.919,0.857 z"
   id="path658" />
			</g>
			<g
   id="g664">
				<path
   style="fill:#c61717"
   d="m 1568.684,400.89 c 0.922,3.921 9.456,17.068 13.838,23.449 4.382,6.381 6.458,9.764 9.917,22.142 0,0 -7.381,36.595 -12.301,46.743 -1.609,3.317 -3.35,7.956 -5.156,13.032 0,-10e-4 0,-0.002 0,-0.002 0.995,-9.729 -1.456,-33.403 -1.456,-45.627 0,-12.224 -7.38,-8.303 -10.609,-24.217 -3.228,-15.916 4.844,-39.441 5.767,-35.52 z"
   id="path662" />
			</g>
			<g
   id="g668">
				<path
   style="fill:#c61717"
   d="m 1535.24,483.921 c 0.284,0 0.568,-0.133 0.746,-0.381 4.536,-6.265 11.749,-7.23 11.821,-7.238 0.504,-0.064 0.863,-0.524 0.803,-1.028 -0.068,-0.507 -0.538,-0.842 -1.026,-0.805 -0.329,0.04 -8.069,1.053 -13.09,7.988 -0.299,0.413 -0.208,0.99 0.204,1.289 0.163,0.118 0.353,0.175 0.542,0.175 z"
   id="path666" />
			</g>
			<g
   id="g672">
				<path
   style="fill:#c61717"
   d="m 1532.839,480.197 c 0.28,0 0.557,-0.127 0.738,-0.369 l 8.629,-11.5 c 0.307,-0.407 0.223,-0.984 -0.186,-1.291 -0.405,-0.307 -0.984,-0.223 -1.291,0.186 l -8.629,11.5 c -0.307,0.407 -0.223,0.984 0.186,1.291 0.167,0.124 0.36,0.183 0.553,0.183 z"
   id="path670" />
			</g>
			<g
   id="g676">
				<path
   style="fill:#c61717"
   d="m 1567.069,397.659 c 0.117,0 0.239,-0.023 0.352,-0.07 0.469,-0.195 0.697,-0.735 0.5,-1.204 -0.053,-0.133 -5.494,-13.359 -6.395,-22.342 -0.045,-0.505 -0.519,-0.901 -1.007,-0.825 -0.507,0.051 -0.879,0.504 -0.825,1.011 0.924,9.254 6.297,22.31 6.524,22.861 0.147,0.355 0.488,0.569 0.851,0.569 z"
   id="path674" />
			</g>
			<g
   id="g680">
				<path
   style="fill:#c61717"
   d="m 1563.839,399.043 c 0.216,0 0.428,-0.074 0.606,-0.225 0.382,-0.333 0.424,-0.916 0.091,-1.301 -7.452,-8.597 -9.909,-23.38 -9.932,-23.529 -0.083,-0.502 -0.579,-0.839 -1.06,-0.763 -0.504,0.081 -0.844,0.555 -0.765,1.058 0.102,0.625 2.563,15.443 10.364,24.442 0.181,0.21 0.439,0.318 0.696,0.318 z"
   id="path678" />
			</g>
			<g
   id="g684">
				<path
   style="fill:#c61717"
   d="m 1592.439,430.95 c 0.042,0 0.083,-0.002 0.125,-0.008 0.504,-0.068 0.859,-0.534 0.788,-1.039 -0.019,-0.159 -2.189,-16.096 -2.779,-21.153 -0.057,-0.504 -0.515,-0.856 -1.022,-0.808 -0.507,0.059 -0.871,0.517 -0.81,1.024 0.591,5.072 2.764,21.026 2.787,21.187 0.059,0.462 0.456,0.797 0.911,0.797 z"
   id="path682" />
			</g>
			<g
   id="g688">
				<path
   style="fill:#c61717"
   d="m 1652.174,344.236 c 0.057,0 0.117,-0.006 0.178,-0.017 0.5,-0.098 0.826,-0.585 0.727,-1.085 -2.632,-13.292 7.88,-22.17 7.986,-22.259 0.394,-0.324 0.447,-0.905 0.125,-1.299 -0.326,-0.392 -0.912,-0.447 -1.299,-0.121 -0.469,0.388 -11.465,9.678 -8.622,24.038 0.087,0.44 0.473,0.743 0.905,0.743 z"
   id="path686" />
			</g>
			<g
   id="g692">
				<path
   style="fill:#c61717"
   d="m 1774.954,415.882 c 0.242,0 0.481,-0.095 0.663,-0.28 0.356,-0.367 0.345,-0.95 -0.019,-1.304 -0.345,-0.337 -8.618,-8.205 -18.8,-6.346 -0.5,0.091 -0.833,0.572 -0.742,1.073 0.095,0.498 0.553,0.85 1.075,0.74 9.194,-1.672 17.1,5.782 17.183,5.858 0.178,0.173 0.409,0.259 0.64,0.259 z"
   id="path690" />
			</g>
			<g
   id="g696">
				<path
   style="fill:#0c193a"
   d="m 1664.791,566.176 1.681,-0.757 c -0.106,-0.237 -10.663,-23.741 -13.514,-31.019 l -1.719,0.674 c 2.87,7.317 13.446,30.866 13.552,31.102 z"
   id="path694" />
			</g>
		</g>
	</g><path
       style="fill:#edc969"
       d="m 1593.43,839.138 c -0.101,0.067 -0.168,0.135 -0.269,0.202 -0.134,0.134 -0.302,0.235 -0.47,0.37 -0.437,0.269 -0.908,0.572 -1.479,0.841 -0.639,0.303 -1.379,0.605 -2.287,0.908 -0.908,0.303 -1.95,0.572 -3.16,0.841 -1.143,0.235 -2.454,0.504 -3.967,0.74 -0.773,0.135 -1.648,0.269 -2.556,0.404 -0.672,0.067 -1.412,0.168 -2.186,0.269 -0.269,0.034 -0.572,0.067 -0.874,0.134 -0.201,0 -0.403,0.034 -0.639,0.067 -0.773,0.067 -1.547,0.168 -2.387,0.269 -0.639,0.067 -1.278,0.135 -1.951,0.202 -0.841,0.101 -1.748,0.168 -2.656,0.269 -0.538,0.067 -1.076,0.101 -1.648,0.168 -0.773,0.067 -1.581,0.135 -2.388,0.202 -7.599,0.672 -17.316,1.379 -29.756,2.186 -1.614,0.101 -3.262,0.202 -4.976,0.303 -7.297,0.437 -15.434,0.941 -24.579,1.446 -1.58,0.101 -3.228,0.202 -4.875,0.269 -1.581,0.101 -3.195,0.202 -4.808,0.269 -2.253,0.135 -4.573,0.269 -6.926,0.404 -0.572,0.034 -1.11,0.067 -1.681,0.101 -1.48,0.067 -2.993,0.134 -4.54,0.235 -2.051,0.101 -4.136,0.235 -6.288,0.336 -2.622,0.134 -5.313,0.303 -8.07,0.437 -6.557,0.336 -13.517,0.706 -20.746,1.076 -50.234,2.421 -115.431,4.842 -177.534,6.422 -77.099,2.017 -149.525,2.757 -182.88,0.74 -2.219,-0.134 -4.371,-0.269 -6.456,-0.404 -1.681,-0.101 -3.295,-0.235 -4.875,-0.336 -1.614,-0.101 -3.161,-0.202 -4.674,-0.336 -0.74,-0.034 -1.48,-0.101 -2.186,-0.168 -0.269,0 -0.538,-0.034 -0.807,-0.067 -1.547,-0.101 -3.06,-0.235 -4.506,-0.37 -0.067,0 -0.168,0 -0.235,-0.034 -2.286,-0.202 -4.438,-0.404 -6.523,-0.639 -1.379,-0.135 -2.724,-0.303 -4.035,-0.437 -0.639,-0.067 -1.244,-0.135 -1.883,-0.235 -1.714,-0.202 -3.362,-0.404 -4.909,-0.639 7.33,-1.547 16.038,-3.329 25.42,-5.144 26.966,-5.212 59.581,-10.591 81.033,-11.096 14.693,-0.336 61.128,-2.017 117.515,-3.934 55.849,-1.883 121.483,-4.001 175.718,-5.346 10.726,-0.269 20.981,-0.504 30.631,-0.706 11.129,-0.202 21.452,-0.37 30.698,-0.471 19.637,-0.235 34.532,-0.168 42.366,0.303 9.751,0.572 19.065,2.253 27.639,4.539 5.92,1.543 11.467,3.426 16.645,5.41 z"
       id="path702" /><g
       id="g810">
			<path
   style="fill:#f49211"
   d="m 1244.667,407.641 c 0,0 17.481,-18.442 23.794,-19.414 6.313,-0.971 15.533,20.15 15.533,20.15 z"
   id="path704" />
			<path
   style="fill:#05042b"
   d="M 886.787,725.227 838.53,697.063 c 0,0 -3.701,-69.223 18.636,-63.018 22.337,6.204 29.621,91.182 29.621,91.182 z"
   id="path706" />
			<path
   style="fill:#0c193a"
   d="m 850.903,853.388 c 0,0 8.864,3.715 32.291,2.018 11.561,-0.838 21.241,-9.131 23.934,-20.488 4.981,-21.004 9.966,-61.81 2.09,-131.794 0,0 3.437,-28.492 -58.315,-24.422 z"
   id="path708" />
			<path
   style="fill:#0c193a"
   d="m 1576.787,833.725 c -0.168,3.497 -0.37,6.859 -0.606,10.121 -1.816,25.05 -5.346,43.576 -8.877,56.69 -4.371,16.24 -20.073,28.109 -38.835,29.32 -37.995,2.421 -52.386,-2.892 -52.386,-2.892 v -250.06 c 11.466,-0.672 21.553,-0.74 30.429,-0.303 23.1,1.11 37.928,5.447 47.41,10.726 18.695,10.457 16.778,24.512 16.778,24.512 2.589,20.309 4.337,38.869 5.38,55.849 0.74,11.6 1.109,22.461 1.244,32.615 0.169,12.138 -0.067,23.267 -0.537,33.422 z"
   id="path710" />
			<path
   style="fill:#15244f"
   d="m 1507.521,801.917 c 0,9.247 -0.269,18.291 -0.74,26.966 -0.37,6.927 -0.908,13.651 -1.58,20.073 -4.674,45.762 -15.938,78.007 -29.118,78.007 -12.878,0 -23.94,-30.799 -28.816,-74.88 -0.773,-7.027 -1.379,-14.391 -1.816,-22.024 -0.538,-9.045 -0.807,-18.459 -0.807,-28.143 0,-1.11 0,-2.219 0.034,-3.295 0.101,-16.677 1.009,-32.548 2.623,-46.972 0.874,-8.103 1.983,-15.77 3.295,-22.864 1.816,-10.087 4.001,-19.065 6.523,-26.563 2.589,-7.801 5.481,-14.021 8.608,-18.359 3.228,-4.506 6.725,-6.96 10.356,-6.96 3.463,0 6.792,2.219 9.886,6.321 3.295,4.338 6.354,10.793 9.078,18.997 2.488,7.498 4.707,16.476 6.523,26.563 1.681,9.179 3.026,19.3 4.035,30.127 1.143,12.239 1.782,25.386 1.883,39.071 0.033,1.312 0.033,2.623 0.033,3.935 z"
   id="path712" />
			<polygon
   style="fill:#05042b"
   points="935.67,811.662 923.368,609.257 1006.242,594.765 1074.225,822.102 "
   id="polygon714" />
			<path
   style="fill:#0c193a"
   d="m 976.82,947.141 c 0,0 13.462,5.319 49.042,2.89 17.558,-1.199 32.26,-13.072 36.351,-29.331 7.566,-30.07 15.136,-88.486 3.174,-188.675 0,0 5.22,-40.79 -88.567,-34.963 z"
   id="path716" />
			<path
   style="fill:#f7a937"
   d="m 1600.491,770.714 c -0.841,18.325 -2.32,30.261 -2.32,30.261 0,0 0.034,1.009 0.034,2.724 0.135,8.002 0,31.136 -4.404,35.137 -0.101,0.135 -0.235,0.235 -0.37,0.303 -0.101,0.067 -0.168,0.135 -0.269,0.202 -0.134,0.134 -0.302,0.269 -0.47,0.37 -0.437,0.269 -0.908,0.572 -1.479,0.841 -0.639,0.336 -1.379,0.639 -2.287,0.908 -0.908,0.303 -1.95,0.572 -3.16,0.841 -1.143,0.269 -2.454,0.504 -3.967,0.74 -0.773,0.135 -1.648,0.269 -2.556,0.404 -0.672,0.067 -1.412,0.168 -2.186,0.269 -0.269,0.034 -0.572,0.067 -0.874,0.134 -0.201,0 -0.403,0.034 -0.639,0.067 -0.773,0.067 -1.547,0.168 -2.387,0.269 -0.639,0.067 -1.278,0.135 -1.951,0.202 -0.841,0.101 -1.748,0.202 -2.656,0.269 -0.538,0.067 -1.076,0.101 -1.648,0.168 -0.773,0.067 -1.581,0.135 -2.388,0.202 -7.599,0.672 -17.316,1.379 -29.756,2.186 -1.614,0.101 -3.262,0.202 -4.976,0.303 -7.297,0.437 -15.434,0.941 -24.579,1.446 -1.58,0.101 -3.228,0.202 -4.875,0.269 -1.581,0.101 -3.195,0.202 -4.808,0.269 -2.253,0.135 -4.573,0.269 -6.926,0.404 -0.572,0.034 -1.11,0.067 -1.681,0.101 -1.48,0.067 -2.993,0.134 -4.54,0.235 -2.051,0.101 -4.136,0.235 -6.288,0.336 -2.622,0.134 -5.313,0.303 -8.07,0.437 -6.557,0.336 -13.517,0.706 -20.746,1.076 -50.234,2.421 -115.431,4.842 -177.534,6.422 -77.099,2.017 -149.525,2.757 -182.88,0.74 -2.219,-0.134 -4.371,-0.269 -6.456,-0.404 -1.681,-0.101 -3.295,-0.235 -4.875,-0.336 -1.614,-0.134 -3.161,-0.235 -4.674,-0.37 -0.74,-0.034 -1.48,-0.101 -2.186,-0.135 -0.269,0 -0.538,-0.034 -0.807,-0.067 -1.547,-0.134 -3.06,-0.269 -4.506,-0.37 -0.067,0 -0.168,0 -0.235,-0.034 -2.286,-0.202 -4.472,-0.437 -6.523,-0.639 -1.379,-0.135 -2.724,-0.303 -4.035,-0.437 -0.639,-0.067 -1.244,-0.135 -1.883,-0.235 -1.714,-0.202 -3.362,-0.437 -4.909,-0.639 h -0.034 c -0.673,-0.101 -1.345,-0.202 -2.017,-0.303 -1.076,-0.168 -2.118,-0.336 -3.093,-0.504 -1.008,-0.168 -1.95,-0.37 -2.892,-0.538 -1.816,-0.37 -3.497,-0.74 -5.044,-1.143 -0.437,-0.101 -0.874,-0.235 -1.278,-0.336 -0.706,-0.202 -1.379,-0.404 -2.017,-0.605 -0.672,-0.235 -1.345,-0.437 -1.95,-0.672 -1.243,-0.437 -2.353,-0.908 -3.362,-1.446 -0.538,-0.235 -1.008,-0.504 -1.445,-0.773 0,0 0,0.034 -0.034,0 -0.437,-0.269 -0.874,-0.538 -1.278,-0.807 -0.403,-0.269 -0.773,-0.538 -1.143,-0.841 -1.11,-0.874 -2.051,-1.849 -2.825,-2.892 -0.47,-0.639 -0.908,-1.345 -1.311,-2.085 -0.773,-1.513 -1.379,-3.161 -1.883,-4.943 -0.101,-0.437 -0.202,-0.841 -0.303,-1.311 -0.134,-0.471 -0.235,-0.941 -0.336,-1.412 -0.437,-1.849 -0.908,-5.582 -1.546,-10.692 -0.067,-0.605 -0.135,-1.244 -0.236,-1.849 -0.135,-1.11 -0.269,-2.286 -0.437,-3.497 -0.034,-0.504 -0.101,-1.042 -0.168,-1.58 -2.287,-19.132 -5.817,-49.797 -11.063,-77.738 -3.026,-16.173 -6.657,-31.438 -10.928,-43.038 -4.775,-12.878 -10.39,-21.217 -16.913,-21.217 -0.437,0 -0.841,0.034 -1.244,0.134 -0.034,0 -0.067,0 -0.101,0.034 -0.404,0.067 -0.807,0.168 -1.21,0.336 -0.303,0.101 -0.605,0.235 -0.908,0.437 -0.067,0 -0.135,0.034 -0.202,0.101 -0.101,0.067 -0.201,0.135 -0.336,0.202 -0.067,0.034 -0.101,0.067 -0.168,0.134 -0.235,0.135 -0.504,0.303 -0.739,0.538 -0.135,0.101 -0.303,0.235 -0.438,0.37 -0.067,0.067 -0.168,0.135 -0.235,0.235 -0.034,0 -0.067,0.067 -0.067,0.067 -0.202,0.168 -0.404,0.37 -0.606,0.605 -0.033,0.034 -0.101,0.101 -0.134,0.168 -0.168,0.168 -0.336,0.37 -0.504,0.572 -0.067,0.101 -0.135,0.168 -0.202,0.269 -0.134,0.168 -0.268,0.336 -0.403,0.538 -0.303,0.404 -0.605,0.841 -0.874,1.311 -0.034,0.034 -0.034,0.067 -0.067,0.101 -0.034,0.034 -0.034,0.034 -0.034,0.067 -0.437,0.706 -0.874,1.446 -1.278,2.253 0,0.067 -0.034,0.134 -0.067,0.168 0,0.034 -0.033,0.034 -0.033,0.034 -0.337,0.672 -0.639,1.379 -0.941,2.118 -0.068,0.101 -0.101,0.202 -0.135,0.336 -0.067,0.135 -0.134,0.269 -0.202,0.437 -0.068,0.134 -0.135,0.303 -0.168,0.437 -0.033,0.067 -0.067,0.101 -0.067,0.168 -0.034,0.067 -0.067,0.101 -0.067,0.168 -0.067,0.135 -0.134,0.269 -0.168,0.404 -0.068,0.134 -0.101,0.269 -0.168,0.404 v 0.101 c -0.034,0.034 -0.034,0.067 -0.034,0.101 -0.067,0.101 -0.101,0.202 -0.134,0.303 -0.067,0.134 -0.101,0.269 -0.135,0.404 -0.101,0.269 -0.201,0.572 -0.302,0.874 -0.067,0.235 -0.168,0.471 -0.236,0.706 -0.101,0.269 -0.202,0.572 -0.303,0.874 0,0.034 -0.034,0.067 -0.034,0.101 v 0.101 c -0.067,0.101 -0.101,0.235 -0.134,0.37 -0.034,0.067 -0.067,0.135 -0.067,0.202 -0.134,0.404 -0.235,0.841 -0.37,1.278 -0.034,0.135 -0.067,0.269 -0.135,0.404 -0.068,0.202 -0.101,0.37 -0.168,0.572 -0.033,0.235 -0.101,0.471 -0.168,0.706 -0.034,0.067 -0.034,0.168 -0.067,0.235 -0.034,0.168 -0.101,0.336 -0.135,0.504 -0.135,0.471 -0.235,0.908 -0.37,1.379 0,0.034 -0.034,0.067 0,0.101 -0.034,0.034 -0.034,0.067 -0.034,0.101 -0.034,0.067 -0.067,0.168 -0.067,0.235 -0.134,0.538 -0.268,1.11 -0.403,1.681 -0.135,0.538 -0.235,1.076 -0.37,1.614 -0.134,0.639 -0.269,1.278 -0.403,1.917 -0.034,0.135 -0.068,0.269 -0.101,0.404 -0.101,0.471 -0.168,0.941 -0.269,1.412 -0.068,0.37 -0.168,0.74 -0.235,1.143 v 0.168 c -0.101,0.471 -0.201,0.941 -0.269,1.412 -0.101,0.504 -0.202,1.042 -0.303,1.58 -0.068,0.437 -0.168,0.908 -0.235,1.379 0,0.034 -0.034,0.067 -0.034,0.135 v 0.168 c -0.034,0.168 -0.067,0.303 -0.101,0.437 v 0.134 c -0.033,0.202 -0.067,0.404 -0.101,0.605 -0.068,0.336 -0.135,0.706 -0.168,1.042 -0.168,1.11 -0.337,2.219 -0.504,3.329 0,0.067 -0.034,0.101 -0.034,0.168 0,0.067 -0.034,0.168 0,0.235 -0.101,0.572 -0.168,1.177 -0.269,1.816 -0.034,0.303 -0.067,0.605 -0.135,0.941 -0.101,0.639 -0.168,1.244 -0.236,1.883 -0.067,0.639 -0.168,1.311 -0.235,1.984 -0.067,0.504 -0.134,1.042 -0.202,1.547 -0.034,0.269 -0.067,0.538 -0.101,0.841 -0.101,0.807 -0.168,1.614 -0.269,2.421 0,0.067 -0.034,0.135 -0.034,0.202 v 0.269 c -0.067,0.74 -0.168,1.446 -0.235,2.219 0,0.134 -0.033,0.303 -0.033,0.471 -0.067,0.572 -0.135,1.177 -0.202,1.748 -0.034,0.37 -0.067,0.773 -0.101,1.177 -0.067,0.74 -0.134,1.513 -0.202,2.286 -0.034,0.134 -0.034,0.269 -0.034,0.403 -0.067,0.74 -0.134,1.513 -0.201,2.253 -0.034,0.235 -0.034,0.504 -0.067,0.74 -0.033,0.471 -0.067,0.941 -0.101,1.412 0,0.135 -0.034,0.303 -0.034,0.471 0,0.034 -0.034,0.101 -0.034,0.134 v 0.336 c -0.034,0.135 -0.034,0.235 -0.034,0.37 0,0.067 -0.034,0.168 -0.034,0.269 0,0.034 0,0.067 0,0.067 v 0.303 c -0.067,0.471 -0.101,0.941 -0.135,1.412 -0.034,0.336 -0.034,0.639 -0.067,0.941 0,0.168 -0.034,0.336 -0.034,0.471 -0.034,0.336 -0.034,0.706 -0.068,1.11 -0.034,0.101 -0.034,0.202 -0.034,0.269 v 0.37 c -0.034,0.101 -0.034,0.202 -0.034,0.336 -0.101,1.21 -0.168,2.421 -0.235,3.665 -0.033,0.403 -0.067,0.807 -0.101,1.21 v 0.235 c 0,0.336 -0.034,0.706 -0.068,1.076 -0.067,1.345 -0.134,2.69 -0.202,4.035 -0.034,0.202 -0.034,0.403 -0.034,0.605 0,0.134 -0.034,0.269 -0.034,0.403 -0.034,0.504 -0.067,1.009 -0.067,1.547 v 0.168 c -0.034,0.101 -0.034,0.202 -0.034,0.303 v 0.37 c -0.034,0.471 -0.067,0.941 -0.067,1.412 -0.034,0.101 -0.034,0.202 -0.034,0.303 0,0.235 -0.033,0.437 -0.033,0.672 v 0.404 c -0.034,0.303 -0.034,0.572 -0.034,0.874 0,0.067 -0.034,0.134 -0.034,0.202 v 0.37 c -0.034,0.437 -0.034,0.874 -0.067,1.311 -0.034,0.672 -0.034,1.345 -0.067,2.017 -0.034,0.202 -0.034,0.404 -0.034,0.605 0,0.336 -0.034,0.706 -0.034,1.076 -0.034,0.471 -0.034,0.908 -0.068,1.379 v 0.605 c 0,0.168 -0.034,0.336 -0.034,0.504 v 0.135 c 0,0.235 0,0.437 -0.034,0.639 0.034,0.034 0.034,0.101 0,0.168 0,0.37 0,0.74 -0.034,1.076 0,0.471 -0.034,0.941 -0.034,1.412 0,0.437 -0.034,0.841 -0.034,1.244 v 0.235 c -0.034,0.672 -0.034,1.345 -0.067,2.017 v 0.404 c -0.034,0.74 -0.034,1.479 -0.067,2.186 v 0.437 c -0.034,0.74 -0.034,1.446 -0.068,2.152 v 0.706 c 0,0.538 -0.034,1.076 -0.034,1.614 v 0.235 c 0,0.404 -0.034,0.841 -0.034,1.244 v 0.807 c -0.034,0.403 -0.034,0.807 -0.034,1.177 0,1.11 -0.033,2.219 -0.033,3.329 0,0.404 -0.034,0.841 -0.034,1.244 v 1.715 c 0,0.134 0,0.235 -0.034,0.37 v 0.908 c -0.034,4.808 -0.034,9.28 -0.034,13.281 0,1.042 0.034,2.085 0.034,3.06 v 3.194 c 0.034,0.269 0.034,0.504 0,0.773 0.034,0.672 0.034,1.345 0.034,1.984 0.034,2.085 0.067,3.9 0.067,5.38 0.034,0.336 0.034,0.672 0.034,0.975 0,0.034 0,0.034 0,0.034 0,0.538 0.034,1.009 0.034,1.446 0,1.446 0.034,2.219 0.034,2.219 l -0.201,-0.101 c -0.303,-0.168 -0.841,-0.437 -1.614,-0.874 -3.631,-1.883 -12.138,-6.422 -22.36,-11.836 -4.439,-2.354 -9.179,-4.875 -13.954,-7.431 -18.09,-9.549 -36.919,-19.569 -42.534,-22.595 -0.706,-0.404 -1.21,-0.672 -1.479,-0.807 -0.067,-0.034 -0.168,-0.101 -0.236,-0.235 -0.134,-0.168 -0.269,-0.471 -0.403,-0.874 -0.068,-0.235 -0.135,-0.471 -0.202,-0.74 0,-0.034 0,-0.034 0,-0.067 -0.236,-0.841 -0.471,-1.95 -0.672,-3.329 -0.101,-0.672 -0.202,-1.412 -0.303,-2.219 -0.101,-0.74 -0.202,-1.547 -0.303,-2.387 -0.067,-0.572 -0.134,-1.177 -0.201,-1.816 -0.269,-2.589 -0.539,-5.514 -0.807,-8.776 -0.101,-1.379 -0.202,-2.858 -0.303,-4.337 -0.37,-4.304 -0.672,-9.045 -1.009,-14.021 0,-0.135 0,-0.269 -0.034,-0.37 -0.101,-1.379 -0.168,-2.791 -0.269,-4.237 -0.067,-1.412 -0.168,-2.824 -0.269,-4.27 -0.269,-4.102 -0.538,-8.339 -0.807,-12.609 -0.067,-1.076 -0.135,-2.152 -0.202,-3.194 -0.067,-1.21 -0.168,-2.387 -0.235,-3.598 -0.201,-3.026 -0.404,-6.086 -0.605,-9.146 -0.034,-0.74 -0.101,-1.446 -0.135,-2.186 v -0.034 c -0.067,-1.278 -0.168,-2.555 -0.269,-3.833 -0.101,-1.379 -0.202,-2.724 -0.269,-4.102 -0.202,-2.623 -0.404,-5.245 -0.605,-7.801 -0.034,-0.437 -0.067,-0.874 -0.101,-1.345 -0.068,-1.042 -0.168,-2.051 -0.236,-3.06 -0.067,-1.009 -0.168,-1.984 -0.236,-2.992 0,-0.067 -0.034,-0.135 -0.034,-0.168 -0.201,-2.387 -0.403,-4.707 -0.605,-6.96 -0.034,-0.336 -0.067,-0.672 -0.101,-1.009 -0.135,-1.446 -0.269,-2.824 -0.403,-4.203 v -0.168 c -0.067,-0.471 -0.101,-0.941 -0.168,-1.379 v -0.202 c -0.202,-1.917 -0.437,-3.766 -0.638,-5.514 -0.067,-0.672 -0.168,-1.311 -0.236,-1.95 -0.101,-0.807 -0.202,-1.58 -0.303,-2.32 -0.101,-0.74 -0.201,-1.479 -0.302,-2.186 -0.101,-0.706 -0.202,-1.412 -0.303,-2.051 -0.303,-2.017 -0.639,-3.867 -1.009,-5.481 0,-0.202 -0.068,-0.403 -0.101,-0.572 -0.067,-0.336 -0.134,-0.672 -0.235,-0.975 -0.336,-1.479 -0.706,-2.757 -1.076,-3.766 -0.101,-0.37 -0.235,-0.672 -0.37,-0.941 -0.034,-0.101 -0.067,-0.202 -0.134,-0.303 -0.101,-0.235 -0.201,-0.403 -0.303,-0.572 -0.235,-0.403 -0.471,-0.74 -0.739,-0.941 -3.094,-2.488 -5.481,0.437 -7.33,7.498 -1.008,3.732 -1.816,8.675 -2.488,14.559 -0.201,1.816 -0.404,3.732 -0.605,5.716 -0.034,0.504 -0.067,1.009 -0.101,1.547 -0.605,6.893 -1.042,14.794 -1.311,23.469 -0.034,0.034 -0.034,0.101 0,0.168 -0.303,8.406 -0.471,17.518 -0.504,27.168 l -4.674,6.086 v -2.286 c 0.034,-7.7 0.168,-33.153 1.244,-54.605 0,-0.538 0.034,-1.042 0.067,-1.547 0.101,-1.95 0.202,-3.867 0.303,-5.716 0.337,-5.481 0.74,-10.491 1.244,-14.559 0.168,-1.412 0.336,-2.69 0.538,-3.867 0.303,-1.816 0.639,-3.531 1.009,-5.111 3.866,-16.543 11.129,-20.611 11.129,-20.611 0,0 9.247,-18.829 30.564,-36.314 4.102,-3.396 8.608,-6.691 13.618,-9.818 0,0 0,0 0.034,-0.034 0,-0.034 0.034,-0.067 0.034,-0.101 0.034,-0.067 0.068,-0.202 0.168,-0.37 0.101,-0.235 0.235,-0.572 0.403,-1.009 0.101,-0.235 0.235,-0.538 0.37,-0.841 0.134,-0.269 0.269,-0.605 0.403,-0.941 0.236,-0.538 0.505,-1.11 0.807,-1.748 0.101,-0.269 0.236,-0.538 0.37,-0.807 0.135,-0.403 0.336,-0.807 0.538,-1.244 0,-0.034 0.034,-0.034 0.034,-0.067 v -0.034 c 6.792,-14.963 24.108,-50.671 48.687,-83.522 2.657,-3.531 5.38,-7.027 8.171,-10.457 5.615,-6.893 11.567,-13.517 17.787,-19.636 12.845,-12.71 26.966,-23.301 41.996,-29.757 3.531,-1.547 7.162,-2.824 10.827,-3.867 39.374,-11.096 118.356,-14.593 196.06,-14.559 13.248,0 26.462,0.101 39.441,0.303 2.186,0.034 4.405,0.067 6.591,0.101 0.975,0 1.984,0.034 2.959,0.034 4.808,0.101 9.549,0.202 14.256,0.303 47.847,1.076 90.414,3.127 116.54,5.077 77.705,5.851 78.68,29.152 78.68,29.152 l 64.087,85.472 31.001,25.352 1.042,0.874 c 0,0 6.893,1.143 9.247,13.416 1.379,7.061 1.278,17.753 -2.421,33.96 -0.168,0.706 -0.336,1.412 -0.504,2.152 0,0 10.222,40.315 16.509,93.205 3.269,27.334 3.168,54.132 2.327,73.668 z"
   id="path718" />
			<path
   style="fill:#b5c5ea"
   d="m 1535.547,524.908 c -24.304,8.501 -62.177,13.378 -230.182,8.992 -168.005,-4.36 -217.049,-17.956 -217.049,-17.956 0,0 -11.172,-38.364 -11.172,-56.347 0,-17.956 4.85,-23.296 32.533,-31.062 27.683,-7.765 136.943,-9.727 136.943,-9.727 0,0 4.36,5.34 10.681,7.302 6.294,1.934 101.468,3.379 105.364,3.379 3.896,0 9.7,-8.229 9.7,-8.229 0,0 68.472,3.869 95.664,17.956 6.785,3.515 20.408,20.135 33.623,37.819 0.082,0.082 0.137,0.136 0.137,0.136 17.219,22.997 33.758,47.737 33.758,47.737 z"
   id="path720" />
			<path
   style="fill:#15244f"
   d="m 1535.547,524.908 c -24.304,8.501 -62.177,13.378 -230.182,8.992 -168.005,-4.36 -217.049,-17.956 -217.049,-17.956 0,0 -11.172,-38.364 -11.172,-56.347 0,-17.956 4.85,-23.296 32.533,-31.062 27.683,-7.765 136.943,-9.727 136.943,-9.727 0,0 4.36,5.34 10.681,7.302 6.294,1.934 101.468,3.379 105.364,3.379 3.896,0 9.7,-8.229 9.7,-8.229 0,0 68.472,3.869 95.664,17.956 6.785,3.515 20.408,20.135 33.623,37.819 -1.417,-1.39 -13.079,-12.67 -27.792,-21.307 0,0 -117.026,-37.383 -365.164,-3.896 0,0 -13.117,2.767 -9.221,62.002 0,0 27.207,4.984 69.682,8.417 95.822,7.743 267.466,16.174 366.39,2.657 z"
   id="path722" />
			<path
   style="fill:#f49211"
   d="m 1561.759,557.849 -8.256,136.18 c -0.164,2.834 -0.654,5.586 -1.444,8.202 -4.496,15.449 -18.746,26.566 -35.475,26.566 h -334.43 c -19.999,0 -37.819,-10.518 -47.818,-26.566 -4.169,-6.703 -7.003,-14.386 -8.038,-22.697 L 1110.495,553.98 Z"
   id="path724" />
			<path
   style="fill:#f49211"
   d="m 1552.059,702.231 c -4.496,15.449 -18.746,26.566 -35.475,26.566 h -334.43 c -19.999,0 -37.819,-10.518 -47.818,-26.566 z"
   id="path726" />
			<path
   style="fill:#f7a937"
   d="m 1172.637,665.985 h -101.002 c 0,0 74.457,-64.098 112.009,-72.515 37.552,-8.417 199.416,-17.481 273.873,-7.769 74.457,9.712 90.647,20.405 104.242,38.043 13.594,17.638 20.717,42.241 20.717,42.241 z"
   id="path728" />
			<path
   style="fill:#fcbe6b"
   d="m 1172.637,665.985 c 0,0 51.149,-55.034 77.695,-56.329 26.546,-1.295 185.172,0.648 212.365,4.532 27.193,3.885 54.386,51.796 54.386,51.796 0,0 -11.654,15.539 -23.956,16.834 -12.302,1.295 -214.307,5.179 -255.744,3.237 -41.437,-1.942 -64.746,-20.07 -64.746,-20.07 z"
   id="path730" />
			<path
   style="fill:#fcbe6b"
   d="m 1593.8,838.835 c -0.101,0.135 -0.235,0.235 -0.37,0.303 -0.101,0.067 -0.168,0.135 -0.269,0.202 -0.134,0.134 -0.302,0.235 -0.47,0.37 -0.437,0.269 -0.908,0.572 -1.479,0.841 -0.639,0.303 -1.379,0.605 -2.287,0.908 -0.908,0.303 -1.95,0.572 -3.16,0.841 -1.143,0.235 -2.454,0.504 -3.967,0.74 -0.773,0.135 -1.648,0.269 -2.556,0.404 -0.672,0.067 -1.412,0.168 -2.186,0.269 -0.269,0.034 -0.572,0.067 -0.874,0.134 -0.201,0 -0.403,0.034 -0.639,0.067 -0.773,0.067 -1.547,0.168 -2.387,0.269 -0.639,0.067 -1.278,0.135 -1.951,0.202 -0.841,0.101 -1.748,0.168 -2.656,0.269 -0.538,0.067 -1.076,0.101 -1.648,0.168 -0.773,0.067 -1.581,0.135 -2.388,0.202 -7.599,0.672 -17.316,1.379 -29.756,2.186 -1.614,0.101 -3.262,0.202 -4.976,0.303 -7.297,0.437 -15.434,0.941 -24.579,1.446 -1.58,0.101 -3.228,0.202 -4.875,0.269 -1.581,0.101 -3.195,0.202 -4.808,0.269 -2.253,0.135 -4.573,0.269 -6.926,0.404 -0.572,0.034 -1.11,0.067 -1.681,0.101 -1.48,0.067 -2.993,0.134 -4.54,0.235 -2.051,0.101 -4.136,0.235 -6.288,0.336 -2.622,0.134 -5.313,0.303 -8.07,0.437 -6.557,0.336 -13.517,0.706 -20.746,1.076 -50.234,2.421 -115.431,4.842 -177.534,6.422 -77.099,2.017 -149.525,2.757 -182.88,0.74 -2.219,-0.134 -4.371,-0.269 -6.456,-0.404 -1.681,-0.101 -3.295,-0.235 -4.875,-0.336 -1.614,-0.101 -3.161,-0.202 -4.674,-0.336 -0.74,-0.034 -1.48,-0.101 -2.186,-0.168 -0.269,0 -0.538,-0.034 -0.807,-0.067 -1.547,-0.101 -3.06,-0.235 -4.506,-0.37 -0.067,0 -0.168,0 -0.235,-0.034 -2.286,-0.202 -4.438,-0.404 -6.523,-0.639 -1.379,-0.135 -2.724,-0.303 -4.035,-0.437 -0.639,-0.067 -1.244,-0.135 -1.883,-0.235 -1.714,-0.202 -3.362,-0.404 -4.909,-0.639 h -0.034 c -0.673,-0.101 -1.345,-0.202 -2.017,-0.303 -1.076,-0.168 -2.118,-0.336 -3.093,-0.504 -1.008,-0.168 -1.95,-0.37 -2.892,-0.538 -1.816,-0.336 -3.497,-0.74 -5.044,-1.143 -0.437,-0.101 -0.874,-0.235 -1.278,-0.336 -0.706,-0.202 -1.379,-0.404 -2.017,-0.605 -0.672,-0.202 -1.345,-0.437 -1.95,-0.672 -1.243,-0.437 -2.353,-0.908 -3.362,-1.446 -0.538,-0.235 -1.008,-0.504 -1.445,-0.773 0,0 0,0.034 -0.034,0 -0.437,-0.269 -0.874,-0.538 -1.278,-0.807 -0.403,-0.269 -0.773,-0.538 -1.143,-0.841 -1.11,-0.874 -2.051,-1.849 -2.825,-2.892 -0.47,-0.639 -0.908,-1.345 -1.311,-2.085 -0.773,-1.513 -1.379,-3.161 -1.883,-4.943 -0.101,-0.437 -0.202,-0.841 -0.303,-1.311 -0.134,-0.471 -0.235,-0.941 -0.336,-1.412 -0.437,-1.849 -0.908,-5.582 -1.546,-10.692 -0.067,-0.605 -0.135,-1.244 -0.236,-1.849 l 2.555,-0.572 9.348,-2.085 c 1.277,-0.269 2.623,-0.538 3.967,-0.841 0.403,-0.067 0.807,-0.168 1.21,-0.269 11.869,-2.488 26.462,-5.313 41.996,-7.868 0.168,-0.034 0.336,-0.067 0.538,-0.101 20.679,-3.362 43.038,-6.12 62.977,-6.792 11.062,-0.37 67.449,-1.479 135.403,-2.656 56.791,-0.975 121.684,-1.984 174.945,-2.623 11.029,-0.134 21.552,-0.269 31.405,-0.37 11.499,-0.134 22.057,-0.202 31.405,-0.269 20.241,-0.168 34.935,-0.134 41.324,0.067 10.658,0.336 20.208,1.21 28.513,2.253 8.339,1.042 15.366,2.253 20.88,3.396 0.135,8 10e-4,31.133 -4.404,35.134 z"
   id="path732" />
			<path
   style="fill:#0c193a"
   d="m 1409.137,668.898 h -110.911 c -6.784,0 -12.284,-5.5 -12.284,-12.284 v -20.586 c 0,-6.784 5.5,-12.284 12.284,-12.284 h 110.911 c 6.784,0 12.285,5.5 12.285,12.284 v 20.586 c 0,6.784 -5.5,12.284 -12.285,12.284 z"
   id="path734" />
			<path
   style="fill:#f49211"
   d="m 867.124,788.114 c -4.85,-2.67 -7.057,-136.208 -15.776,-143.265 -8.747,-7.03 -12.098,29.372 -12.343,80.134 l -4.66,6.076 c 0,-1.471 0,-61.687 3.406,-82.559 3.379,-20.871 12.125,-25.721 12.125,-25.721 0,0 13.269,-0.817 14.577,53.241 1.281,54.058 -0.49,92.748 2.671,112.094 z"
   id="path736" />
			<ellipse
   style="fill:#15244f"
   cx="976.82001"
   cy="822.10199"
   rx="29.422001"
   ry="125.04"
   id="ellipse738" />
			<path
   style="fill:#263968"
   d="m 993.141,817.895 c 0,11.416 -0.436,22.315 -1.253,32.342 -2.616,32.914 -9.182,56.238 -16.838,56.238 -9.972,0 -18.092,-39.671 -18.092,-88.58 0,-48.936 8.12,-88.607 18.092,-88.607 7.548,0 14.005,22.588 16.73,54.712 0.871,10.435 1.361,21.879 1.361,33.895 z"
   id="path740" />
			<path
   style="fill:#0c193a"
   d="m 993.141,817.895 c 0,11.416 -0.436,22.315 -1.253,32.342 -14.468,-2.724 -25.475,-16.539 -25.475,-33.132 0,-16.566 10.953,-30.326 25.367,-33.105 0.871,10.435 1.361,21.879 1.361,33.895 z"
   id="path742" />
			<ellipse
   style="fill:#15244f"
   cx="850.90302"
   cy="766.04498"
   rx="18.327999"
   ry="87.343002"
   id="ellipse744" />
			<path
   style="fill:#263968"
   d="m 861.071,763.107 c 0,7.975 -0.272,15.588 -0.781,22.592 -1.629,22.991 -5.72,39.283 -10.49,39.283 -6.212,0 -11.27,-27.711 -11.27,-61.875 0,-34.183 5.058,-61.894 11.27,-61.894 4.702,0 8.724,15.778 10.422,38.217 0.543,7.29 0.849,15.283 0.849,23.677 z"
   id="path746" />
			<path
   style="fill:#0c193a"
   d="m 861.071,763.107 c 0,7.975 -0.272,15.588 -0.781,22.592 -9.013,-1.903 -15.87,-11.553 -15.87,-23.144 0,-11.572 6.824,-21.183 15.802,-23.125 0.543,7.29 0.849,15.283 0.849,23.677 z"
   id="path748" />
			<path
   style="fill:#f49211"
   d="m 1006.247,553.98 -33.023,72.886 -5.886,50.407 c -14.55,11.825 -17.711,76.728 -18.228,118.552 -0.191,16.103 0,28.8 0.109,33.705 0.027,1.444 0.055,2.207 0.055,2.207 l -0.218,-0.109 c -4.55,-2.425 -77.245,-40.925 -81.932,-43.513 -0.3,-0.163 -0.572,-0.79 -0.844,-1.853 -0.273,-4.006 -0.6,-8.883 -0.954,-14.305 -1.716,-28.31 -3.706,-71.496 -0.654,-85.365 4.659,-21.225 11.989,-96.945 30.844,-105.092 18.882,-8.147 110.731,-27.52 110.731,-27.52 z"
   id="path750" />
			<path
   style="opacity:0.55;fill:#6a194c"
   d="m 907.3,787.287 c -0.016,0 -0.035,0 -0.05,0 -0.753,-0.029 -1.339,-0.663 -1.312,-1.413 l 3.598,-95.048 c 1.088,-28.681 7.636,-56.48 19.469,-82.623 l 19.03,-42.048 c 0.309,-0.688 1.125,-0.988 1.801,-0.68 0.687,0.31 0.99,1.118 0.679,1.803 l -19.03,42.048 c -11.684,25.819 -18.152,53.274 -19.224,81.601 l -3.597,95.048 c -0.031,0.734 -0.635,1.312 -1.364,1.312 z"
   id="path752" />
			<path
   style="fill:#0c193a"
   d="M 914.467,619.748 895.4,620.87 c -2.588,0.152 -4.81,-1.822 -4.962,-4.41 v 0 c -0.152,-2.588 1.822,-4.809 4.41,-4.962 l 19.067,-1.122 c 2.588,-0.152 4.81,1.822 4.962,4.41 v 0 c 0.153,2.589 -1.822,4.81 -4.41,4.962 z"
   id="path754" />
			<path
   style="fill:#0c193a"
   d="m 966.766,608.126 -19.067,1.122 c -2.588,0.152 -4.81,-1.822 -4.962,-4.41 v 0 c -0.152,-2.588 1.822,-4.809 4.41,-4.962 l 19.067,-1.122 c 2.588,-0.152 4.81,1.822 4.962,4.41 v 0 c 0.153,2.589 -1.822,4.81 -4.41,4.962 z"
   id="path756" />
			<path
   style="fill:#15244f"
   d="m 1056.736,474.174 c 0,0 -24.277,60.216 -42.451,68.472 -0.981,0.436 -2.207,0.954 -3.678,1.498 -1.199,0.436 -2.507,0.927 -3.978,1.417 -0.954,0.327 -1.989,0.681 -3.079,1.036 -1.607,0.517 -3.351,1.09 -5.204,1.662 -1.172,0.354 -2.371,0.736 -3.624,1.117 -0.191,0.054 -0.381,0.109 -0.545,0.164 -0.899,0.272 -1.799,0.545 -2.725,0.817 -1.008,0.3 -2.043,0.626 -3.079,0.926 -1.008,0.3 -2.043,0.6 -3.079,0.899 -2.643,0.763 -5.367,1.553 -8.174,2.343 -0.763,0.245 -1.553,0.463 -2.343,0.681 -3.215,0.899 -6.512,1.825 -9.836,2.752 -4.877,1.335 -9.809,2.67 -14.686,4.006 -0.382,0.081 -0.736,0.191 -1.09,0.272 v 0.027 c -6.158,1.635 -12.206,3.242 -17.929,4.768 -0.082,0.027 -0.163,0.055 -0.245,0.055 -4.578,1.199 -8.964,2.343 -12.997,3.406 -1.335,0.354 -2.643,0.681 -3.897,1.008 -1.88,0.49 -3.678,0.954 -5.367,1.39 -3.352,0.845 -6.24,1.58 -8.583,2.18 -0.763,0.191 -1.471,0.382 -2.098,0.545 -1.281,0.327 -2.262,0.572 -2.943,0.736 -0.409,0.109 -0.708,0.191 -0.872,0.218 -0.055,0 -0.109,0.027 -0.137,0.027 0,-0.027 0.027,-0.054 0.027,-0.109 0.054,-0.082 0.082,-0.191 0.163,-0.354 0.109,-0.245 0.245,-0.572 0.409,-1.008 0.109,-0.245 0.246,-0.545 0.354,-0.845 0.272,-0.545 0.545,-1.226 0.899,-1.962 0.082,-0.245 0.191,-0.491 0.327,-0.736 0.109,-0.245 0.218,-0.518 0.354,-0.79 0.163,-0.409 0.381,-0.845 0.599,-1.308 2.834,-6.158 7.656,-15.994 14.605,-28.255 0.654,-1.145 1.308,-2.316 2.016,-3.515 1.253,-2.18 2.561,-4.441 3.978,-6.757 0.763,-1.308 1.553,-2.616 2.37,-3.924 8.12,-13.269 18.228,-28.337 30.435,-44.113 10.844,-14.005 22.179,-23.759 33.132,-30.462 28.555,-17.465 54.467,-14.25 61.96,-11.798 10.357,3.406 11.011,33.514 11.011,33.514 z"
   id="path758" />
			<path
   style="fill:#b5c5ea"
   d="m 1048.48,478.697 c 0,0 -13.051,32.397 -27.22,52.914 -2.016,2.97 -4.087,5.667 -6.131,8.01 -1.526,1.744 -3.024,3.27 -4.523,4.523 -1.199,0.436 -2.507,0.927 -3.978,1.417 -0.981,0.327 -1.989,0.654 -3.079,1.036 -1.607,0.517 -3.351,1.09 -5.204,1.662 -1.172,0.354 -2.371,0.736 -3.624,1.117 -0.191,0.054 -0.381,0.109 -0.545,0.164 -0.899,0.272 -1.799,0.545 -2.725,0.817 -1.008,0.3 -2.043,0.626 -3.079,0.926 -1.008,0.3 -2.043,0.6 -3.079,0.899 -2.643,0.763 -5.367,1.553 -8.174,2.343 -0.763,0.245 -1.553,0.463 -2.343,0.681 -3.215,0.899 -6.512,1.825 -9.836,2.752 -4.877,1.335 -9.809,2.67 -14.686,4.006 -0.382,0.109 -0.736,0.191 -1.09,0.3 -6.131,1.662 -12.206,3.27 -17.929,4.768 -0.082,0.027 -0.163,0.055 -0.245,0.055 -4.578,1.226 -8.964,2.37 -12.997,3.406 -1.335,0.354 -2.643,0.681 -3.897,1.008 -1.88,0.49 -3.678,0.954 -5.367,1.39 -3.352,0.845 -6.24,1.58 -8.583,2.18 -0.763,0.191 -1.471,0.382 -2.098,0.545 -1.281,0.327 -2.262,0.572 -2.943,0.736 -0.409,0.109 -0.708,0.163 -0.872,0.218 -0.055,0 -0.109,0.027 -0.137,0.027 0,-0.027 0.027,-0.054 0.027,-0.109 0.054,-0.082 0.082,-0.191 0.163,-0.354 0.109,-0.245 0.245,-0.572 0.409,-1.008 0.109,-0.245 0.246,-0.545 0.354,-0.845 0.272,-0.545 0.545,-1.226 0.899,-1.962 0.082,-0.245 0.191,-0.491 0.327,-0.736 0.109,-0.245 0.218,-0.518 0.354,-0.79 0.163,-0.409 0.381,-0.845 0.599,-1.308 2.834,-6.158 7.656,-15.994 14.605,-28.255 0.654,-1.145 1.308,-2.316 2.016,-3.515 1.253,-2.18 2.561,-4.441 3.978,-6.757 0.763,-1.308 1.553,-2.616 2.37,-3.924 8.12,-13.269 18.228,-28.337 30.435,-44.113 10.844,-14.005 22.179,-23.759 33.132,-30.462 3.215,-1.58 6.376,-2.888 9.455,-3.978 2.834,-1.035 5.586,-1.88 8.256,-2.561 17.22,-4.414 30.898,-2.398 35.993,-0.736 0.981,0.327 1.907,0.899 2.698,1.662 1.798,1.662 3.188,4.223 4.278,7.22 3.709,10.026 4.036,24.631 4.036,24.631 z"
   id="path760" />
			<path
   style="fill:#15244f"
   d="m 1001.479,445.919 c -7.03,21.498 -27.847,85.392 -36.538,112.04 -4.877,1.335 -9.809,2.67 -14.686,4.006 -0.382,0.109 -0.736,0.191 -1.09,0.3 v -0.027 l 44.058,-113.756 c 2.834,-1.037 5.585,-1.882 8.256,-2.563 z"
   id="path762" />
			<path
   style="fill:#15244f"
   d="m 1044.447,454.065 -23.187,77.545 c -2.016,2.97 -4.087,5.667 -6.131,8.01 l 25.04,-92.776 c 1.799,1.663 3.189,4.225 4.278,7.221 z"
   id="path764" />
			<path
   style="fill:#f49211"
   d="m 883.226,592.175 c 5.081,3.482 12.463,-3.237 13.273,-5.179 0.809,-1.942 1.457,-42.57 -1.619,-49.045 -3.075,-6.475 -36.095,-0.648 -42.732,2.266 -6.636,2.914 -7.122,5.989 -6.636,11.33 0.486,5.341 3.237,20.071 8.093,23.147 4.856,3.075 24.603,4.694 25.413,6.798 0.81,2.104 1.997,9.167 4.208,10.683 z"
   id="path766" />
			<path
   style="fill:#b5c5ea"
   d="m 891.481,572.913 c 1.321,-1.761 1.295,-33.182 0,-33.667 -1.295,-0.486 -30.036,-1.574 -39.05,6.313 -4.31,3.771 -0.931,23.956 5.058,26.707 5.989,2.751 31.564,3.884 33.992,0.647 z"
   id="path768" />
			<path
   style="fill:#ed3232"
   d="m 1203.733,554.77 c 0,0 -0.953,0.845 -2.616,2.289 -9.781,8.556 -44.249,37.982 -56.973,39.644 -10.981,1.417 -38.419,3.052 -58.908,3.27 -7.275,0.082 -13.651,0 -18.146,-0.354 -17.138,-1.281 -29.127,-14.25 -34.631,-21.362 -5.504,-7.112 -5.177,-24.931 -2.67,-25.912 2.506,-0.953 173.944,2.425 173.944,2.425 z"
   id="path770" />
			<path
   style="fill:#f76161"
   d="m 1085.236,599.973 c -7.275,0.082 -13.651,0 -18.146,-0.354 -17.138,-1.281 -29.127,-14.25 -34.631,-21.362 -5.504,-7.112 -5.177,-24.931 -2.67,-25.912 l 41.851,19.754 z"
   id="path772" />
			<path
   style="fill:#f76161"
   d="m 1203.733,554.77 c 0,0 -0.953,0.845 -2.616,2.289 l -129.478,15.04 -41.851,-19.754 c 2.507,-0.953 173.945,2.425 173.945,2.425 z"
   id="path774" />
			
				<radialGradient
   id="SVGID_00000034076847132841611680000002513316468984836488_"
   cx="1100.1227"
   cy="584.08197"
   r="10.3713"
   gradientUnits="userSpaceOnUse"><stop
     offset="0"
     style="stop-color:#FF0050"
     id="stop776" /><stop
     offset="0.3019"
     style="stop-color:#FA1348"
     id="stop778" /><stop
     offset="0.7183"
     style="stop-color:#F52740"
     id="stop780" /><stop
     offset="1"
     style="stop-color:#F32E3D"
     id="stop782" /></radialGradient><circle
   style="fill:url(#radialGradient2270)"
   cx="1100.123"
   cy="584.08197"
   r="10.371"
   id="circle785" /><g
   id="g802">
				<path
   style="fill:#ed3232"
   d="m 1584.592,567.74 c 1.362,7.057 1.28,17.738 -2.425,33.95 -9.864,-0.627 -18.583,-1.389 -23.677,-2.098 -12.425,-1.771 -47.355,-30.743 -56.892,-39.844 -1.608,-1.553 -2.561,-2.452 -2.561,-2.452 0,0 36.756,-3.125 75.256,-3.861 l 1.063,0.872 c -10e-4,0 6.866,1.145 9.236,13.433 z"
   id="path787" />
				<path
   style="fill:#f76161"
   d="m 1584.592,567.74 -82.994,-7.992 c -1.608,-1.553 -2.561,-2.452 -2.561,-2.452 0,0 36.756,-3.125 75.256,-3.861 l 1.063,0.872 c -10e-4,0 6.866,1.145 9.236,13.433 z"
   id="path789" />
				
					<radialGradient
   id="SVGID_00000160157864864953055780000003700644766603877820_"
   cx="1568.1003"
   cy="581.28967"
   r="10.5956"
   gradientUnits="userSpaceOnUse">
					<stop
   offset="0"
   style="stop-color:#FF0050"
   id="stop791" />
					<stop
   offset="0.3019"
   style="stop-color:#FA1348"
   id="stop793" />
					<stop
   offset="0.7183"
   style="stop-color:#F52740"
   id="stop795" />
					<stop
   offset="1"
   style="stop-color:#F32E3D"
   id="stop797" />
				</radialGradient>
				<path
   style="fill:url(#radialGradient2272)"
   d="m 1578.223,581.303 c 0,6.076 -4.523,11.035 -10.136,11.035 -5.585,0 -10.109,-4.959 -10.109,-11.035 0,-6.103 4.523,-11.062 10.109,-11.062 5.613,0 10.136,4.959 10.136,11.062 z"
   id="path800" />
			</g><path
   style="fill:#f7a937"
   d="m 949.274,831.736 -0.218,-0.109 c -4.55,-2.425 -77.245,-40.925 -81.932,-43.513 -0.3,-0.163 -0.572,-0.79 -0.844,-1.853 -0.273,-4.006 -0.6,-8.883 -0.954,-14.305 27.574,7.82 63.022,17.874 83.784,23.869 -0.191,16.103 0,28.8 0.109,33.705 0.027,1.443 0.055,2.206 0.055,2.206 z"
   id="path804" />
			<path
   style="fill:#f49211"
   d="m 1023.631,819.775 -11.88,2.643 c -4.795,-39.072 -15.967,-147.052 -39.508,-147.052 -27.192,0 -22.969,156.37 -22.969,156.37 -12.289,-78.989 -10.518,-219.665 26.375,-203.617 36.892,16.022 47.6,183.046 47.982,191.656 z"
   id="path806" />
			<path
   style="fill:#f7a937"
   d="m 1014.285,821.846 -2.316,2.425 c -0.054,-0.599 -0.136,-1.226 -0.218,-1.853 -4.795,-39.072 -15.967,-147.052 -39.508,-147.052 -25.285,0 -23.405,135.172 -23.024,154.163 l -0.327,-0.354 c 0,0 -10.136,-188.44 22.397,-176.779 32.533,11.635 43.214,168.986 42.996,169.45 z"
   id="path808" />
		</g><g
       id="g1995">
			<path
   style="fill:#f49211"
   d="m 1244.667,407.641 c 0,0 17.481,-18.442 23.794,-19.414 6.313,-0.971 15.533,20.15 15.533,20.15 z"
   id="path1887" />
			<path
   style="fill:#05042b"
   d="M 886.787,725.227 838.53,697.063 c 0,0 -3.701,-69.223 18.636,-63.018 22.337,6.204 29.621,91.182 29.621,91.182 z"
   id="path1889" />
			<path
   style="fill:#0c193a"
   d="m 850.903,853.388 c 0,0 8.864,3.715 32.291,2.018 11.561,-0.838 21.241,-9.131 23.934,-20.488 4.981,-21.004 9.966,-61.81 2.09,-131.794 0,0 3.437,-28.492 -58.315,-24.422 z"
   id="path1891" />
			<path
   style="fill:#0c193a"
   d="m 1576.787,833.725 c -0.168,3.497 -0.37,6.859 -0.606,10.121 -1.816,25.05 -5.346,43.576 -8.877,56.69 -4.371,16.24 -20.073,28.109 -38.835,29.32 -37.995,2.421 -52.386,-2.892 -52.386,-2.892 v -250.06 c 11.466,-0.672 21.553,-0.74 30.429,-0.303 23.1,1.11 37.928,5.447 47.41,10.726 18.695,10.457 16.778,24.512 16.778,24.512 2.589,20.309 4.337,38.869 5.38,55.849 0.74,11.6 1.109,22.461 1.244,32.615 0.169,12.138 -0.067,23.267 -0.537,33.422 z"
   id="path1893" /><path
   style="fill:#15244f"
   d="m 1507.521,801.917 c 0,9.247 -0.269,18.291 -0.74,26.966 -0.37,6.927 -0.908,13.651 -1.58,20.073 -4.674,45.762 -15.938,78.007 -29.118,78.007 -12.878,0 -23.94,-30.799 -28.816,-74.88 -0.773,-7.027 -1.379,-14.391 -1.816,-22.024 -0.538,-9.045 -0.807,-18.459 -0.807,-28.143 0,-1.11 0,-2.219 0.034,-3.295 0.101,-16.677 1.009,-32.548 2.623,-46.972 0.874,-8.103 1.983,-15.77 3.295,-22.864 1.816,-10.087 4.001,-19.065 6.523,-26.563 2.589,-7.801 5.481,-14.021 8.608,-18.359 3.228,-4.506 6.725,-6.96 10.356,-6.96 3.463,0 6.792,2.219 9.886,6.321 3.295,4.338 6.354,10.793 9.078,18.997 2.488,7.498 4.707,16.476 6.523,26.563 1.681,9.179 3.026,19.3 4.035,30.127 1.143,12.239 1.782,25.386 1.883,39.071 0.033,1.312 0.033,2.623 0.033,3.935 z"
   id="path1895" /><polygon
   style="fill:#05042b"
   points="935.67,811.662 923.368,609.257 1006.242,594.765 1074.225,822.102 "
   id="polygon1897" />
			<path
   style="fill:#0c193a"
   d="m 976.82,947.141 c 0,0 13.462,5.319 49.042,2.89 17.558,-1.199 32.26,-13.072 36.351,-29.331 7.566,-30.07 15.136,-88.486 3.174,-188.675 0,0 5.22,-40.79 -88.567,-34.963 z"
   id="path1899" />
			<path
   style="fill:#f7a937"
   d="m 1600.491,770.714 c -0.841,18.325 -2.32,30.261 -2.32,30.261 0,0 0.034,1.009 0.034,2.724 0.135,8.002 0,31.136 -4.404,35.137 -0.101,0.135 -0.235,0.235 -0.37,0.303 -0.101,0.067 -0.168,0.135 -0.269,0.202 -0.134,0.134 -0.302,0.269 -0.47,0.37 -0.437,0.269 -0.908,0.572 -1.479,0.841 -0.639,0.336 -1.379,0.639 -2.287,0.908 -0.908,0.303 -1.95,0.572 -3.16,0.841 -1.143,0.269 -2.454,0.504 -3.967,0.74 -0.773,0.135 -1.648,0.269 -2.556,0.404 -0.672,0.067 -1.412,0.168 -2.186,0.269 -0.269,0.034 -0.572,0.067 -0.874,0.134 -0.201,0 -0.403,0.034 -0.639,0.067 -0.773,0.067 -1.547,0.168 -2.387,0.269 -0.639,0.067 -1.278,0.135 -1.951,0.202 -0.841,0.101 -1.748,0.202 -2.656,0.269 -0.538,0.067 -1.076,0.101 -1.648,0.168 -0.773,0.067 -1.581,0.135 -2.388,0.202 -7.599,0.672 -17.316,1.379 -29.756,2.186 -1.614,0.101 -3.262,0.202 -4.976,0.303 -7.297,0.437 -15.434,0.941 -24.579,1.446 -1.58,0.101 -3.228,0.202 -4.875,0.269 -1.581,0.101 -3.195,0.202 -4.808,0.269 -2.253,0.135 -4.573,0.269 -6.926,0.404 -0.572,0.034 -1.11,0.067 -1.681,0.101 -1.48,0.067 -2.993,0.134 -4.54,0.235 -2.051,0.101 -4.136,0.235 -6.288,0.336 -2.622,0.134 -5.313,0.303 -8.07,0.437 -6.557,0.336 -13.517,0.706 -20.746,1.076 -50.234,2.421 -115.431,4.842 -177.534,6.422 -77.099,2.017 -149.525,2.757 -182.88,0.74 -2.219,-0.134 -4.371,-0.269 -6.456,-0.404 -1.681,-0.101 -3.295,-0.235 -4.875,-0.336 -1.614,-0.134 -3.161,-0.235 -4.674,-0.37 -0.74,-0.034 -1.48,-0.101 -2.186,-0.135 -0.269,0 -0.538,-0.034 -0.807,-0.067 -1.547,-0.134 -3.06,-0.269 -4.506,-0.37 -0.067,0 -0.168,0 -0.235,-0.034 -2.286,-0.202 -4.472,-0.437 -6.523,-0.639 -1.379,-0.135 -2.724,-0.303 -4.035,-0.437 -0.639,-0.067 -1.244,-0.135 -1.883,-0.235 -1.714,-0.202 -3.362,-0.437 -4.909,-0.639 h -0.034 c -0.673,-0.101 -1.345,-0.202 -2.017,-0.303 -1.076,-0.168 -2.118,-0.336 -3.093,-0.504 -1.008,-0.168 -1.95,-0.37 -2.892,-0.538 -1.816,-0.37 -3.497,-0.74 -5.044,-1.143 -0.437,-0.101 -0.874,-0.235 -1.278,-0.336 -0.706,-0.202 -1.379,-0.404 -2.017,-0.605 -0.672,-0.235 -1.345,-0.437 -1.95,-0.672 -1.243,-0.437 -2.353,-0.908 -3.362,-1.446 -0.538,-0.235 -1.008,-0.504 -1.445,-0.773 0,0 0,0.034 -0.034,0 -0.437,-0.269 -0.874,-0.538 -1.278,-0.807 -0.403,-0.269 -0.773,-0.538 -1.143,-0.841 -1.11,-0.874 -2.051,-1.849 -2.825,-2.892 -0.47,-0.639 -0.908,-1.345 -1.311,-2.085 -0.773,-1.513 -1.379,-3.161 -1.883,-4.943 -0.101,-0.437 -0.202,-0.841 -0.303,-1.311 -0.134,-0.471 -0.235,-0.941 -0.336,-1.412 -0.437,-1.849 -0.908,-5.582 -1.546,-10.692 -0.067,-0.605 -0.135,-1.244 -0.236,-1.849 -0.135,-1.11 -0.269,-2.286 -0.437,-3.497 -0.034,-0.504 -0.101,-1.042 -0.168,-1.58 -2.287,-19.132 -5.817,-49.797 -11.063,-77.738 -3.026,-16.173 -6.657,-31.438 -10.928,-43.038 -4.775,-12.878 -10.39,-21.217 -16.913,-21.217 -0.437,0 -0.841,0.034 -1.244,0.134 -0.034,0 -0.067,0 -0.101,0.034 -0.404,0.067 -0.807,0.168 -1.21,0.336 -0.303,0.101 -0.605,0.235 -0.908,0.437 -0.067,0 -0.135,0.034 -0.202,0.101 -0.101,0.067 -0.201,0.135 -0.336,0.202 -0.067,0.034 -0.101,0.067 -0.168,0.134 -0.235,0.135 -0.504,0.303 -0.739,0.538 -0.135,0.101 -0.303,0.235 -0.438,0.37 -0.067,0.067 -0.168,0.135 -0.235,0.235 -0.034,0 -0.067,0.067 -0.067,0.067 -0.202,0.168 -0.404,0.37 -0.606,0.605 -0.033,0.034 -0.101,0.101 -0.134,0.168 -0.168,0.168 -0.336,0.37 -0.504,0.572 -0.067,0.101 -0.135,0.168 -0.202,0.269 -0.134,0.168 -0.268,0.336 -0.403,0.538 -0.303,0.404 -0.605,0.841 -0.874,1.311 -0.034,0.034 -0.034,0.067 -0.067,0.101 -0.034,0.034 -0.034,0.034 -0.034,0.067 -0.437,0.706 -0.874,1.446 -1.278,2.253 0,0.067 -0.034,0.134 -0.067,0.168 0,0.034 -0.033,0.034 -0.033,0.034 -0.337,0.672 -0.639,1.379 -0.941,2.118 -0.068,0.101 -0.101,0.202 -0.135,0.336 -0.067,0.135 -0.134,0.269 -0.202,0.437 -0.068,0.134 -0.135,0.303 -0.168,0.437 -0.033,0.067 -0.067,0.101 -0.067,0.168 -0.034,0.067 -0.067,0.101 -0.067,0.168 -0.067,0.135 -0.134,0.269 -0.168,0.404 -0.068,0.134 -0.101,0.269 -0.168,0.404 v 0.101 c -0.034,0.034 -0.034,0.067 -0.034,0.101 -0.067,0.101 -0.101,0.202 -0.134,0.303 -0.067,0.134 -0.101,0.269 -0.135,0.404 -0.101,0.269 -0.201,0.572 -0.302,0.874 -0.067,0.235 -0.168,0.471 -0.236,0.706 -0.101,0.269 -0.202,0.572 -0.303,0.874 0,0.034 -0.034,0.067 -0.034,0.101 v 0.101 c -0.067,0.101 -0.101,0.235 -0.134,0.37 -0.034,0.067 -0.067,0.135 -0.067,0.202 -0.134,0.404 -0.235,0.841 -0.37,1.278 -0.034,0.135 -0.067,0.269 -0.135,0.404 -0.068,0.202 -0.101,0.37 -0.168,0.572 -0.033,0.235 -0.101,0.471 -0.168,0.706 -0.034,0.067 -0.034,0.168 -0.067,0.235 -0.034,0.168 -0.101,0.336 -0.135,0.504 -0.135,0.471 -0.235,0.908 -0.37,1.379 0,0.034 -0.034,0.067 0,0.101 -0.034,0.034 -0.034,0.067 -0.034,0.101 -0.034,0.067 -0.067,0.168 -0.067,0.235 -0.134,0.538 -0.268,1.11 -0.403,1.681 -0.135,0.538 -0.235,1.076 -0.37,1.614 -0.134,0.639 -0.269,1.278 -0.403,1.917 -0.034,0.135 -0.068,0.269 -0.101,0.404 -0.101,0.471 -0.168,0.941 -0.269,1.412 -0.068,0.37 -0.168,0.74 -0.235,1.143 v 0.168 c -0.101,0.471 -0.201,0.941 -0.269,1.412 -0.101,0.504 -0.202,1.042 -0.303,1.58 -0.068,0.437 -0.168,0.908 -0.235,1.379 0,0.034 -0.034,0.067 -0.034,0.135 v 0.168 c -0.034,0.168 -0.067,0.303 -0.101,0.437 v 0.134 c -0.033,0.202 -0.067,0.404 -0.101,0.605 -0.068,0.336 -0.135,0.706 -0.168,1.042 -0.168,1.11 -0.337,2.219 -0.504,3.329 0,0.067 -0.034,0.101 -0.034,0.168 0,0.067 -0.034,0.168 0,0.235 -0.101,0.572 -0.168,1.177 -0.269,1.816 -0.034,0.303 -0.067,0.605 -0.135,0.941 -0.101,0.639 -0.168,1.244 -0.236,1.883 -0.067,0.639 -0.168,1.311 -0.235,1.984 -0.067,0.504 -0.134,1.042 -0.202,1.547 -0.034,0.269 -0.067,0.538 -0.101,0.841 -0.101,0.807 -0.168,1.614 -0.269,2.421 0,0.067 -0.034,0.135 -0.034,0.202 v 0.269 c -0.067,0.74 -0.168,1.446 -0.235,2.219 0,0.134 -0.033,0.303 -0.033,0.471 -0.067,0.572 -0.135,1.177 -0.202,1.748 -0.034,0.37 -0.067,0.773 -0.101,1.177 -0.067,0.74 -0.134,1.513 -0.202,2.286 -0.034,0.134 -0.034,0.269 -0.034,0.403 -0.067,0.74 -0.134,1.513 -0.201,2.253 -0.034,0.235 -0.034,0.504 -0.067,0.74 -0.033,0.471 -0.067,0.941 -0.101,1.412 0,0.135 -0.034,0.303 -0.034,0.471 0,0.034 -0.034,0.101 -0.034,0.134 v 0.336 c -0.034,0.135 -0.034,0.235 -0.034,0.37 0,0.067 -0.034,0.168 -0.034,0.269 0,0.034 0,0.067 0,0.067 v 0.303 c -0.067,0.471 -0.101,0.941 -0.135,1.412 -0.034,0.336 -0.034,0.639 -0.067,0.941 0,0.168 -0.034,0.336 -0.034,0.471 -0.034,0.336 -0.034,0.706 -0.068,1.11 -0.034,0.101 -0.034,0.202 -0.034,0.269 v 0.37 c -0.034,0.101 -0.034,0.202 -0.034,0.336 -0.101,1.21 -0.168,2.421 -0.235,3.665 -0.033,0.403 -0.067,0.807 -0.101,1.21 v 0.235 c 0,0.336 -0.034,0.706 -0.068,1.076 -0.067,1.345 -0.134,2.69 -0.202,4.035 -0.034,0.202 -0.034,0.403 -0.034,0.605 0,0.134 -0.034,0.269 -0.034,0.403 -0.034,0.504 -0.067,1.009 -0.067,1.547 v 0.168 c -0.034,0.101 -0.034,0.202 -0.034,0.303 v 0.37 c -0.034,0.471 -0.067,0.941 -0.067,1.412 -0.034,0.101 -0.034,0.202 -0.034,0.303 0,0.235 -0.033,0.437 -0.033,0.672 v 0.404 c -0.034,0.303 -0.034,0.572 -0.034,0.874 0,0.067 -0.034,0.134 -0.034,0.202 v 0.37 c -0.034,0.437 -0.034,0.874 -0.067,1.311 -0.034,0.672 -0.034,1.345 -0.067,2.017 -0.034,0.202 -0.034,0.404 -0.034,0.605 0,0.336 -0.034,0.706 -0.034,1.076 -0.034,0.471 -0.034,0.908 -0.068,1.379 v 0.605 c 0,0.168 -0.034,0.336 -0.034,0.504 v 0.135 c 0,0.235 0,0.437 -0.034,0.639 0.034,0.034 0.034,0.101 0,0.168 0,0.37 0,0.74 -0.034,1.076 0,0.471 -0.034,0.941 -0.034,1.412 0,0.437 -0.034,0.841 -0.034,1.244 v 0.235 c -0.034,0.672 -0.034,1.345 -0.067,2.017 v 0.404 c -0.034,0.74 -0.034,1.479 -0.067,2.186 v 0.437 c -0.034,0.74 -0.034,1.446 -0.068,2.152 v 0.706 c 0,0.538 -0.034,1.076 -0.034,1.614 v 0.235 c 0,0.404 -0.034,0.841 -0.034,1.244 v 0.807 c -0.034,0.403 -0.034,0.807 -0.034,1.177 0,1.11 -0.033,2.219 -0.033,3.329 0,0.404 -0.034,0.841 -0.034,1.244 v 1.715 c 0,0.134 0,0.235 -0.034,0.37 v 0.908 c -0.034,4.808 -0.034,9.28 -0.034,13.281 0,1.042 0.034,2.085 0.034,3.06 v 3.194 c 0.034,0.269 0.034,0.504 0,0.773 0.034,0.672 0.034,1.345 0.034,1.984 0.034,2.085 0.067,3.9 0.067,5.38 0.034,0.336 0.034,0.672 0.034,0.975 0,0.034 0,0.034 0,0.034 0,0.538 0.034,1.009 0.034,1.446 0,1.446 0.034,2.219 0.034,2.219 l -0.201,-0.101 c -0.303,-0.168 -0.841,-0.437 -1.614,-0.874 -3.631,-1.883 -12.138,-6.422 -22.36,-11.836 -4.439,-2.354 -9.179,-4.875 -13.954,-7.431 -18.09,-9.549 -36.919,-19.569 -42.534,-22.595 -0.706,-0.404 -1.21,-0.672 -1.479,-0.807 -0.067,-0.034 -0.168,-0.101 -0.236,-0.235 -0.134,-0.168 -0.269,-0.471 -0.403,-0.874 -0.068,-0.235 -0.135,-0.471 -0.202,-0.74 0,-0.034 0,-0.034 0,-0.067 -0.236,-0.841 -0.471,-1.95 -0.672,-3.329 -0.101,-0.672 -0.202,-1.412 -0.303,-2.219 -0.101,-0.74 -0.202,-1.547 -0.303,-2.387 -0.067,-0.572 -0.134,-1.177 -0.201,-1.816 -0.269,-2.589 -0.539,-5.514 -0.807,-8.776 -0.101,-1.379 -0.202,-2.858 -0.303,-4.337 -0.37,-4.304 -0.672,-9.045 -1.009,-14.021 0,-0.135 0,-0.269 -0.034,-0.37 -0.101,-1.379 -0.168,-2.791 -0.269,-4.237 -0.067,-1.412 -0.168,-2.824 -0.269,-4.27 -0.269,-4.102 -0.538,-8.339 -0.807,-12.609 -0.067,-1.076 -0.135,-2.152 -0.202,-3.194 -0.067,-1.21 -0.168,-2.387 -0.235,-3.598 -0.201,-3.026 -0.404,-6.086 -0.605,-9.146 -0.034,-0.74 -0.101,-1.446 -0.135,-2.186 v -0.034 c -0.067,-1.278 -0.168,-2.555 -0.269,-3.833 -0.101,-1.379 -0.202,-2.724 -0.269,-4.102 -0.202,-2.623 -0.404,-5.245 -0.605,-7.801 -0.034,-0.437 -0.067,-0.874 -0.101,-1.345 -0.068,-1.042 -0.168,-2.051 -0.236,-3.06 -0.067,-1.009 -0.168,-1.984 -0.236,-2.992 0,-0.067 -0.034,-0.135 -0.034,-0.168 -0.201,-2.387 -0.403,-4.707 -0.605,-6.96 -0.034,-0.336 -0.067,-0.672 -0.101,-1.009 -0.135,-1.446 -0.269,-2.824 -0.403,-4.203 v -0.168 c -0.067,-0.471 -0.101,-0.941 -0.168,-1.379 v -0.202 c -0.202,-1.917 -0.437,-3.766 -0.638,-5.514 -0.067,-0.672 -0.168,-1.311 -0.236,-1.95 -0.101,-0.807 -0.202,-1.58 -0.303,-2.32 -0.101,-0.74 -0.201,-1.479 -0.302,-2.186 -0.101,-0.706 -0.202,-1.412 -0.303,-2.051 -0.303,-2.017 -0.639,-3.867 -1.009,-5.481 0,-0.202 -0.068,-0.403 -0.101,-0.572 -0.067,-0.336 -0.134,-0.672 -0.235,-0.975 -0.336,-1.479 -0.706,-2.757 -1.076,-3.766 -0.101,-0.37 -0.235,-0.672 -0.37,-0.941 -0.034,-0.101 -0.067,-0.202 -0.134,-0.303 -0.101,-0.235 -0.201,-0.403 -0.303,-0.572 -0.235,-0.403 -0.471,-0.74 -0.739,-0.941 -3.094,-2.488 -5.481,0.437 -7.33,7.498 -1.008,3.732 -1.816,8.675 -2.488,14.559 -0.201,1.816 -0.404,3.732 -0.605,5.716 -0.034,0.504 -0.067,1.009 -0.101,1.547 -0.605,6.893 -1.042,14.794 -1.311,23.469 -0.034,0.034 -0.034,0.101 0,0.168 -0.303,8.406 -0.471,17.518 -0.504,27.168 l -4.674,6.086 v -2.286 c 0.034,-7.7 0.168,-33.153 1.244,-54.605 0,-0.538 0.034,-1.042 0.067,-1.547 0.101,-1.95 0.202,-3.867 0.303,-5.716 0.337,-5.481 0.74,-10.491 1.244,-14.559 0.168,-1.412 0.336,-2.69 0.538,-3.867 0.303,-1.816 0.639,-3.531 1.009,-5.111 3.866,-16.543 11.129,-20.611 11.129,-20.611 0,0 9.247,-18.829 30.564,-36.314 4.102,-3.396 8.608,-6.691 13.618,-9.818 0,0 0,0 0.034,-0.034 0,-0.034 0.034,-0.067 0.034,-0.101 0.034,-0.067 0.068,-0.202 0.168,-0.37 0.101,-0.235 0.235,-0.572 0.403,-1.009 0.101,-0.235 0.235,-0.538 0.37,-0.841 0.134,-0.269 0.269,-0.605 0.403,-0.941 0.236,-0.538 0.505,-1.11 0.807,-1.748 0.101,-0.269 0.236,-0.538 0.37,-0.807 0.135,-0.403 0.336,-0.807 0.538,-1.244 0,-0.034 0.034,-0.034 0.034,-0.067 v -0.034 c 6.792,-14.963 24.108,-50.671 48.687,-83.522 2.657,-3.531 5.38,-7.027 8.171,-10.457 5.615,-6.893 11.567,-13.517 17.787,-19.636 12.845,-12.71 26.966,-23.301 41.996,-29.757 3.531,-1.547 7.162,-2.824 10.827,-3.867 39.374,-11.096 118.356,-14.593 196.06,-14.559 13.248,0 26.462,0.101 39.441,0.303 2.186,0.034 4.405,0.067 6.591,0.101 0.975,0 1.984,0.034 2.959,0.034 4.808,0.101 9.549,0.202 14.256,0.303 47.847,1.076 90.414,3.127 116.54,5.077 77.705,5.851 78.68,29.152 78.68,29.152 l 64.087,85.472 31.001,25.352 1.042,0.874 c 0,0 6.893,1.143 9.247,13.416 1.379,7.061 1.278,17.753 -2.421,33.96 -0.168,0.706 -0.336,1.412 -0.504,2.152 0,0 10.222,40.315 16.509,93.205 3.269,27.334 3.168,54.132 2.327,73.668 z"
   id="path1901" />
			<path
   style="fill:#b5c5ea"
   d="m 1535.547,524.908 c -24.304,8.501 -62.177,13.378 -230.182,8.992 -168.005,-4.36 -217.049,-17.956 -217.049,-17.956 0,0 -11.172,-38.364 -11.172,-56.347 0,-17.956 4.85,-23.296 32.533,-31.062 27.683,-7.765 136.943,-9.727 136.943,-9.727 0,0 4.36,5.34 10.681,7.302 6.294,1.934 101.468,3.379 105.364,3.379 3.896,0 9.7,-8.229 9.7,-8.229 0,0 68.472,3.869 95.664,17.956 6.785,3.515 20.408,20.135 33.623,37.819 0.082,0.082 0.137,0.136 0.137,0.136 17.219,22.997 33.758,47.737 33.758,47.737 z"
   id="path1903" />
			<path
   style="fill:#15244f"
   d="m 1535.547,524.908 c -24.304,8.501 -62.177,13.378 -230.182,8.992 -168.005,-4.36 -217.049,-17.956 -217.049,-17.956 0,0 -11.172,-38.364 -11.172,-56.347 0,-17.956 4.85,-23.296 32.533,-31.062 27.683,-7.765 136.943,-9.727 136.943,-9.727 0,0 4.36,5.34 10.681,7.302 6.294,1.934 101.468,3.379 105.364,3.379 3.896,0 9.7,-8.229 9.7,-8.229 0,0 68.472,3.869 95.664,17.956 6.785,3.515 20.408,20.135 33.623,37.819 -1.417,-1.39 -13.079,-12.67 -27.792,-21.307 0,0 -117.026,-37.383 -365.164,-3.896 0,0 -13.117,2.767 -9.221,62.002 0,0 27.207,4.984 69.682,8.417 95.822,7.743 267.466,16.174 366.39,2.657 z"
   id="path1905" />
			<path
   style="fill:#f49211"
   d="m 1561.759,557.849 -8.256,136.18 c -0.164,2.834 -0.654,5.586 -1.444,8.202 -4.496,15.449 -18.746,26.566 -35.475,26.566 h -334.43 c -19.999,0 -37.819,-10.518 -47.818,-26.566 -4.169,-6.703 -7.003,-14.386 -8.038,-22.697 L 1110.495,553.98 Z"
   id="path1907" />
			<path
   style="fill:#f49211"
   d="m 1552.059,702.231 c -4.496,15.449 -18.746,26.566 -35.475,26.566 h -334.43 c -19.999,0 -37.819,-10.518 -47.818,-26.566 z"
   id="path1909" />
			<path
   style="fill:#f7a937"
   d="m 1172.637,665.985 h -101.002 c 0,0 74.457,-64.098 112.009,-72.515 37.552,-8.417 199.416,-17.481 273.873,-7.769 74.457,9.712 90.647,20.405 104.242,38.043 13.594,17.638 20.717,42.241 20.717,42.241 z"
   id="path1911" />
			<path
   style="fill:#fcbe6b"
   d="m 1172.637,665.985 c 0,0 51.149,-55.034 77.695,-56.329 26.546,-1.295 185.172,0.648 212.365,4.532 27.193,3.885 54.386,51.796 54.386,51.796 0,0 -11.654,15.539 -23.956,16.834 -12.302,1.295 -214.307,5.179 -255.744,3.237 -41.437,-1.942 -64.746,-20.07 -64.746,-20.07 z"
   id="path1913" />
			<path
   style="fill:#fcbe6b"
   d="m 1593.8,838.835 c -0.101,0.135 -0.235,0.235 -0.37,0.303 -0.101,0.067 -0.168,0.135 -0.269,0.202 -0.134,0.134 -0.302,0.235 -0.47,0.37 -0.437,0.269 -0.908,0.572 -1.479,0.841 -0.639,0.303 -1.379,0.605 -2.287,0.908 -0.908,0.303 -1.95,0.572 -3.16,0.841 -1.143,0.235 -2.454,0.504 -3.967,0.74 -0.773,0.135 -1.648,0.269 -2.556,0.404 -0.672,0.067 -1.412,0.168 -2.186,0.269 -0.269,0.034 -0.572,0.067 -0.874,0.134 -0.201,0 -0.403,0.034 -0.639,0.067 -0.773,0.067 -1.547,0.168 -2.387,0.269 -0.639,0.067 -1.278,0.135 -1.951,0.202 -0.841,0.101 -1.748,0.168 -2.656,0.269 -0.538,0.067 -1.076,0.101 -1.648,0.168 -0.773,0.067 -1.581,0.135 -2.388,0.202 -7.599,0.672 -17.316,1.379 -29.756,2.186 -1.614,0.101 -3.262,0.202 -4.976,0.303 -7.297,0.437 -15.434,0.941 -24.579,1.446 -1.58,0.101 -3.228,0.202 -4.875,0.269 -1.581,0.101 -3.195,0.202 -4.808,0.269 -2.253,0.135 -4.573,0.269 -6.926,0.404 -0.572,0.034 -1.11,0.067 -1.681,0.101 -1.48,0.067 -2.993,0.134 -4.54,0.235 -2.051,0.101 -4.136,0.235 -6.288,0.336 -2.622,0.134 -5.313,0.303 -8.07,0.437 -6.557,0.336 -13.517,0.706 -20.746,1.076 -50.234,2.421 -115.431,4.842 -177.534,6.422 -77.099,2.017 -149.525,2.757 -182.88,0.74 -2.219,-0.134 -4.371,-0.269 -6.456,-0.404 -1.681,-0.101 -3.295,-0.235 -4.875,-0.336 -1.614,-0.101 -3.161,-0.202 -4.674,-0.336 -0.74,-0.034 -1.48,-0.101 -2.186,-0.168 -0.269,0 -0.538,-0.034 -0.807,-0.067 -1.547,-0.101 -3.06,-0.235 -4.506,-0.37 -0.067,0 -0.168,0 -0.235,-0.034 -2.286,-0.202 -4.438,-0.404 -6.523,-0.639 -1.379,-0.135 -2.724,-0.303 -4.035,-0.437 -0.639,-0.067 -1.244,-0.135 -1.883,-0.235 -1.714,-0.202 -3.362,-0.404 -4.909,-0.639 h -0.034 c -0.673,-0.101 -1.345,-0.202 -2.017,-0.303 -1.076,-0.168 -2.118,-0.336 -3.093,-0.504 -1.008,-0.168 -1.95,-0.37 -2.892,-0.538 -1.816,-0.336 -3.497,-0.74 -5.044,-1.143 -0.437,-0.101 -0.874,-0.235 -1.278,-0.336 -0.706,-0.202 -1.379,-0.404 -2.017,-0.605 -0.672,-0.202 -1.345,-0.437 -1.95,-0.672 -1.243,-0.437 -2.353,-0.908 -3.362,-1.446 -0.538,-0.235 -1.008,-0.504 -1.445,-0.773 0,0 0,0.034 -0.034,0 -0.437,-0.269 -0.874,-0.538 -1.278,-0.807 -0.403,-0.269 -0.773,-0.538 -1.143,-0.841 -1.11,-0.874 -2.051,-1.849 -2.825,-2.892 -0.47,-0.639 -0.908,-1.345 -1.311,-2.085 -0.773,-1.513 -1.379,-3.161 -1.883,-4.943 -0.101,-0.437 -0.202,-0.841 -0.303,-1.311 -0.134,-0.471 -0.235,-0.941 -0.336,-1.412 -0.437,-1.849 -0.908,-5.582 -1.546,-10.692 -0.067,-0.605 -0.135,-1.244 -0.236,-1.849 l 2.555,-0.572 9.348,-2.085 c 1.277,-0.269 2.623,-0.538 3.967,-0.841 0.403,-0.067 0.807,-0.168 1.21,-0.269 11.869,-2.488 26.462,-5.313 41.996,-7.868 0.168,-0.034 0.336,-0.067 0.538,-0.101 20.679,-3.362 43.038,-6.12 62.977,-6.792 11.062,-0.37 67.449,-1.479 135.403,-2.656 56.791,-0.975 121.684,-1.984 174.945,-2.623 11.029,-0.134 21.552,-0.269 31.405,-0.37 11.499,-0.134 22.057,-0.202 31.405,-0.269 20.241,-0.168 34.935,-0.134 41.324,0.067 10.658,0.336 20.208,1.21 28.513,2.253 8.339,1.042 15.366,2.253 20.88,3.396 0.135,8 10e-4,31.133 -4.404,35.134 z"
   id="path1915" />
			<path
   style="fill:#0c193a"
   d="m 1409.137,668.898 h -110.911 c -6.784,0 -12.284,-5.5 -12.284,-12.284 v -20.586 c 0,-6.784 5.5,-12.284 12.284,-12.284 h 110.911 c 6.784,0 12.285,5.5 12.285,12.284 v 20.586 c 0,6.784 -5.5,12.284 -12.285,12.284 z"
   id="path1917" />
			<path
   style="fill:#f49211"
   d="m 867.124,788.114 c -4.85,-2.67 -7.057,-136.208 -15.776,-143.265 -8.747,-7.03 -12.098,29.372 -12.343,80.134 l -4.66,6.076 c 0,-1.471 0,-61.687 3.406,-82.559 3.379,-20.871 12.125,-25.721 12.125,-25.721 0,0 13.269,-0.817 14.577,53.241 1.281,54.058 -0.49,92.748 2.671,112.094 z"
   id="path1919" />
			<ellipse
   style="fill:#15244f"
   cx="976.82001"
   cy="822.10199"
   rx="29.422001"
   ry="125.04"
   id="ellipse1921" />
			<path
   style="fill:#263968"
   d="m 993.141,817.895 c 0,11.416 -0.436,22.315 -1.253,32.342 -2.616,32.914 -9.182,56.238 -16.838,56.238 -9.972,0 -18.092,-39.671 -18.092,-88.58 0,-48.936 8.12,-88.607 18.092,-88.607 7.548,0 14.005,22.588 16.73,54.712 0.871,10.435 1.361,21.879 1.361,33.895 z"
   id="path1923" />
			<path
   style="fill:#0c193a"
   d="m 993.141,817.895 c 0,11.416 -0.436,22.315 -1.253,32.342 -14.468,-2.724 -25.475,-16.539 -25.475,-33.132 0,-16.566 10.953,-30.326 25.367,-33.105 0.871,10.435 1.361,21.879 1.361,33.895 z"
   id="path1925" />
			<ellipse
   style="fill:#15244f"
   cx="850.90302"
   cy="766.04498"
   rx="18.327999"
   ry="87.343002"
   id="ellipse1927" />
			<path
   style="fill:#263968"
   d="m 861.071,763.107 c 0,7.975 -0.272,15.588 -0.781,22.592 -1.629,22.991 -5.72,39.283 -10.49,39.283 -6.212,0 -11.27,-27.711 -11.27,-61.875 0,-34.183 5.058,-61.894 11.27,-61.894 4.702,0 8.724,15.778 10.422,38.217 0.543,7.29 0.849,15.283 0.849,23.677 z"
   id="path1929" />
			<path
   style="fill:#0c193a"
   d="m 861.071,763.107 c 0,7.975 -0.272,15.588 -0.781,22.592 -9.013,-1.903 -15.87,-11.553 -15.87,-23.144 0,-11.572 6.824,-21.183 15.802,-23.125 0.543,7.29 0.849,15.283 0.849,23.677 z"
   id="path1931" />
			<path
   style="fill:#f49211"
   d="m 1006.247,553.98 -33.023,72.886 -5.886,50.407 c -14.55,11.825 -17.711,76.728 -18.228,118.552 -0.191,16.103 0,28.8 0.109,33.705 0.027,1.444 0.055,2.207 0.055,2.207 l -0.218,-0.109 c -4.55,-2.425 -77.245,-40.925 -81.932,-43.513 -0.3,-0.163 -0.572,-0.79 -0.844,-1.853 -0.273,-4.006 -0.6,-8.883 -0.954,-14.305 -1.716,-28.31 -3.706,-71.496 -0.654,-85.365 4.659,-21.225 11.989,-96.945 30.844,-105.092 18.882,-8.147 110.731,-27.52 110.731,-27.52 z"
   id="path1933" />
			<path
   style="opacity:0.55;fill:#6a194c"
   d="m 907.3,787.287 c -0.016,0 -0.035,0 -0.05,0 -0.753,-0.029 -1.339,-0.663 -1.312,-1.413 l 3.598,-95.048 c 1.088,-28.681 7.636,-56.48 19.469,-82.623 l 19.03,-42.048 c 0.309,-0.688 1.125,-0.988 1.801,-0.68 0.687,0.31 0.99,1.118 0.679,1.803 l -19.03,42.048 c -11.684,25.819 -18.152,53.274 -19.224,81.601 l -3.597,95.048 c -0.031,0.734 -0.635,1.312 -1.364,1.312 z"
   id="path1935" />
			<path
   style="fill:#0c193a"
   d="M 914.467,619.748 895.4,620.87 c -2.588,0.152 -4.81,-1.822 -4.962,-4.41 v 0 c -0.152,-2.588 1.822,-4.809 4.41,-4.962 l 19.067,-1.122 c 2.588,-0.152 4.81,1.822 4.962,4.41 v 0 c 0.153,2.589 -1.822,4.81 -4.41,4.962 z"
   id="path1937" />
			<path
   style="fill:#0c193a"
   d="m 966.766,608.126 -19.067,1.122 c -2.588,0.152 -4.81,-1.822 -4.962,-4.41 v 0 c -0.152,-2.588 1.822,-4.809 4.41,-4.962 l 19.067,-1.122 c 2.588,-0.152 4.81,1.822 4.962,4.41 v 0 c 0.153,2.589 -1.822,4.81 -4.41,4.962 z"
   id="path1939" />
			<path
   style="fill:#15244f"
   d="m 1056.736,474.174 c 0,0 -24.277,60.216 -42.451,68.472 -0.981,0.436 -2.207,0.954 -3.678,1.498 -1.199,0.436 -2.507,0.927 -3.978,1.417 -0.954,0.327 -1.989,0.681 -3.079,1.036 -1.607,0.517 -3.351,1.09 -5.204,1.662 -1.172,0.354 -2.371,0.736 -3.624,1.117 -0.191,0.054 -0.381,0.109 -0.545,0.164 -0.899,0.272 -1.799,0.545 -2.725,0.817 -1.008,0.3 -2.043,0.626 -3.079,0.926 -1.008,0.3 -2.043,0.6 -3.079,0.899 -2.643,0.763 -5.367,1.553 -8.174,2.343 -0.763,0.245 -1.553,0.463 -2.343,0.681 -3.215,0.899 -6.512,1.825 -9.836,2.752 -4.877,1.335 -9.809,2.67 -14.686,4.006 -0.382,0.081 -0.736,0.191 -1.09,0.272 v 0.027 c -6.158,1.635 -12.206,3.242 -17.929,4.768 -0.082,0.027 -0.163,0.055 -0.245,0.055 -4.578,1.199 -8.964,2.343 -12.997,3.406 -1.335,0.354 -2.643,0.681 -3.897,1.008 -1.88,0.49 -3.678,0.954 -5.367,1.39 -3.352,0.845 -6.24,1.58 -8.583,2.18 -0.763,0.191 -1.471,0.382 -2.098,0.545 -1.281,0.327 -2.262,0.572 -2.943,0.736 -0.409,0.109 -0.708,0.191 -0.872,0.218 -0.055,0 -0.109,0.027 -0.137,0.027 0,-0.027 0.027,-0.054 0.027,-0.109 0.054,-0.082 0.082,-0.191 0.163,-0.354 0.109,-0.245 0.245,-0.572 0.409,-1.008 0.109,-0.245 0.246,-0.545 0.354,-0.845 0.272,-0.545 0.545,-1.226 0.899,-1.962 0.082,-0.245 0.191,-0.491 0.327,-0.736 0.109,-0.245 0.218,-0.518 0.354,-0.79 0.163,-0.409 0.381,-0.845 0.599,-1.308 2.834,-6.158 7.656,-15.994 14.605,-28.255 0.654,-1.145 1.308,-2.316 2.016,-3.515 1.253,-2.18 2.561,-4.441 3.978,-6.757 0.763,-1.308 1.553,-2.616 2.37,-3.924 8.12,-13.269 18.228,-28.337 30.435,-44.113 10.844,-14.005 22.179,-23.759 33.132,-30.462 28.555,-17.465 54.467,-14.25 61.96,-11.798 10.357,3.406 11.011,33.514 11.011,33.514 z"
   id="path1941" />
			<path
   style="fill:#b5c5ea"
   d="m 1048.48,478.697 c 0,0 -13.051,32.397 -27.22,52.914 -2.016,2.97 -4.087,5.667 -6.131,8.01 -1.526,1.744 -3.024,3.27 -4.523,4.523 -1.199,0.436 -2.507,0.927 -3.978,1.417 -0.981,0.327 -1.989,0.654 -3.079,1.036 -1.607,0.517 -3.351,1.09 -5.204,1.662 -1.172,0.354 -2.371,0.736 -3.624,1.117 -0.191,0.054 -0.381,0.109 -0.545,0.164 -0.899,0.272 -1.799,0.545 -2.725,0.817 -1.008,0.3 -2.043,0.626 -3.079,0.926 -1.008,0.3 -2.043,0.6 -3.079,0.899 -2.643,0.763 -5.367,1.553 -8.174,2.343 -0.763,0.245 -1.553,0.463 -2.343,0.681 -3.215,0.899 -6.512,1.825 -9.836,2.752 -4.877,1.335 -9.809,2.67 -14.686,4.006 -0.382,0.109 -0.736,0.191 -1.09,0.3 -6.131,1.662 -12.206,3.27 -17.929,4.768 -0.082,0.027 -0.163,0.055 -0.245,0.055 -4.578,1.226 -8.964,2.37 -12.997,3.406 -1.335,0.354 -2.643,0.681 -3.897,1.008 -1.88,0.49 -3.678,0.954 -5.367,1.39 -3.352,0.845 -6.24,1.58 -8.583,2.18 -0.763,0.191 -1.471,0.382 -2.098,0.545 -1.281,0.327 -2.262,0.572 -2.943,0.736 -0.409,0.109 -0.708,0.163 -0.872,0.218 -0.055,0 -0.109,0.027 -0.137,0.027 0,-0.027 0.027,-0.054 0.027,-0.109 0.054,-0.082 0.082,-0.191 0.163,-0.354 0.109,-0.245 0.245,-0.572 0.409,-1.008 0.109,-0.245 0.246,-0.545 0.354,-0.845 0.272,-0.545 0.545,-1.226 0.899,-1.962 0.082,-0.245 0.191,-0.491 0.327,-0.736 0.109,-0.245 0.218,-0.518 0.354,-0.79 0.163,-0.409 0.381,-0.845 0.599,-1.308 2.834,-6.158 7.656,-15.994 14.605,-28.255 0.654,-1.145 1.308,-2.316 2.016,-3.515 1.253,-2.18 2.561,-4.441 3.978,-6.757 0.763,-1.308 1.553,-2.616 2.37,-3.924 8.12,-13.269 18.228,-28.337 30.435,-44.113 10.844,-14.005 22.179,-23.759 33.132,-30.462 3.215,-1.58 6.376,-2.888 9.455,-3.978 2.834,-1.035 5.586,-1.88 8.256,-2.561 17.22,-4.414 30.898,-2.398 35.993,-0.736 0.981,0.327 1.907,0.899 2.698,1.662 1.798,1.662 3.188,4.223 4.278,7.22 3.709,10.026 4.036,24.631 4.036,24.631 z"
   id="path1943" />
			<path
   style="fill:#15244f"
   d="m 1001.479,445.919 c -7.03,21.498 -27.847,85.392 -36.538,112.04 -4.877,1.335 -9.809,2.67 -14.686,4.006 -0.382,0.109 -0.736,0.191 -1.09,0.3 v -0.027 l 44.058,-113.756 c 2.834,-1.037 5.585,-1.882 8.256,-2.563 z"
   id="path1945" />
			<path
   style="fill:#15244f"
   d="m 1044.447,454.065 -23.187,77.545 c -2.016,2.97 -4.087,5.667 -6.131,8.01 l 25.04,-92.776 c 1.799,1.663 3.189,4.225 4.278,7.221 z"
   id="path1947" />
			<path
   style="fill:#f49211"
   d="m 883.226,592.175 c 5.081,3.482 12.463,-3.237 13.273,-5.179 0.809,-1.942 1.457,-42.57 -1.619,-49.045 -3.075,-6.475 -36.095,-0.648 -42.732,2.266 -6.636,2.914 -7.122,5.989 -6.636,11.33 0.486,5.341 3.237,20.071 8.093,23.147 4.856,3.075 24.603,4.694 25.413,6.798 0.81,2.104 1.997,9.167 4.208,10.683 z"
   id="path1949" />
			<path
   style="fill:#b5c5ea"
   d="m 891.481,572.913 c 1.321,-1.761 1.295,-33.182 0,-33.667 -1.295,-0.486 -30.036,-1.574 -39.05,6.313 -4.31,3.771 -0.931,23.956 5.058,26.707 5.989,2.751 31.564,3.884 33.992,0.647 z"
   id="path1951" />
			<path
   style="fill:#ed3232"
   d="m 1203.733,554.77 c 0,0 -0.953,0.845 -2.616,2.289 -9.781,8.556 -44.249,37.982 -56.973,39.644 -10.981,1.417 -38.419,3.052 -58.908,3.27 -7.275,0.082 -13.651,0 -18.146,-0.354 -17.138,-1.281 -29.127,-14.25 -34.631,-21.362 -5.504,-7.112 -5.177,-24.931 -2.67,-25.912 2.506,-0.953 173.944,2.425 173.944,2.425 z"
   id="path1953" />
			<path
   style="fill:#f76161"
   d="m 1085.236,599.973 c -7.275,0.082 -13.651,0 -18.146,-0.354 -17.138,-1.281 -29.127,-14.25 -34.631,-21.362 -5.504,-7.112 -5.177,-24.931 -2.67,-25.912 l 41.851,19.754 z"
   id="path1955" />
			<path
   style="fill:#f76161"
   d="m 1203.733,554.77 c 0,0 -0.953,0.845 -2.616,2.289 l -129.478,15.04 -41.851,-19.754 c 2.507,-0.953 173.945,2.425 173.945,2.425 z"
   id="path1957" />
			
				<radialGradient
   id="radialGradient1967"
   cx="1100.1227"
   cy="584.08197"
   r="10.3713"
   gradientUnits="userSpaceOnUse">
				<stop
   offset="0"
   style="stop-color:#FF0050"
   id="stop1959" />
				<stop
   offset="0.3019"
   style="stop-color:#FA1348"
   id="stop1961" />
				<stop
   offset="0.7183"
   style="stop-color:#F52740"
   id="stop1963" />
				<stop
   offset="1"
   style="stop-color:#F32E3D"
   id="stop1965" />
			</radialGradient>
			<circle
   style="fill:url(#radialGradient2274)"
   cx="1100.123"
   cy="584.08197"
   r="10.371"
   id="circle1969" />
			<g
   id="g1987">
				<path
   style="fill:#ed3232"
   d="m 1584.592,567.74 c 1.362,7.057 1.28,17.738 -2.425,33.95 -9.864,-0.627 -18.583,-1.389 -23.677,-2.098 -12.425,-1.771 -47.355,-30.743 -56.892,-39.844 -1.608,-1.553 -2.561,-2.452 -2.561,-2.452 0,0 36.756,-3.125 75.256,-3.861 l 1.063,0.872 c -10e-4,0 6.866,1.145 9.236,13.433 z"
   id="path1971" />
				<path
   style="fill:#f76161"
   d="m 1584.592,567.74 -82.994,-7.992 c -1.608,-1.553 -2.561,-2.452 -2.561,-2.452 0,0 36.756,-3.125 75.256,-3.861 l 1.063,0.872 c -10e-4,0 6.866,1.145 9.236,13.433 z"
   id="path1973" />
				
					<radialGradient
   id="radialGradient1983"
   cx="1568.1003"
   cy="581.28967"
   r="10.5956"
   gradientUnits="userSpaceOnUse">
					<stop
   offset="0"
   style="stop-color:#FF0050"
   id="stop1975" />
					<stop
   offset="0.3019"
   style="stop-color:#FA1348"
   id="stop1977" />
					<stop
   offset="0.7183"
   style="stop-color:#F52740"
   id="stop1979" />
					<stop
   offset="1"
   style="stop-color:#F32E3D"
   id="stop1981" />
				</radialGradient>
				<path
   style="fill:url(#radialGradient2276)"
   d="m 1578.223,581.303 c 0,6.076 -4.523,11.035 -10.136,11.035 -5.585,0 -10.109,-4.959 -10.109,-11.035 0,-6.103 4.523,-11.062 10.109,-11.062 5.613,0 10.136,4.959 10.136,11.062 z"
   id="path1985" />
			</g>
			<path
   style="fill:#f7a937"
   d="m 949.274,831.736 -0.218,-0.109 c -4.55,-2.425 -77.245,-40.925 -81.932,-43.513 -0.3,-0.163 -0.572,-0.79 -0.844,-1.853 -0.273,-4.006 -0.6,-8.883 -0.954,-14.305 27.574,7.82 63.022,17.874 83.784,23.869 -0.191,16.103 0,28.8 0.109,33.705 0.027,1.443 0.055,2.206 0.055,2.206 z"
   id="path1989" />
			<path
   style="fill:#f49211"
   d="m 1023.631,819.775 -11.88,2.643 c -4.795,-39.072 -15.967,-147.052 -39.508,-147.052 -27.192,0 -22.969,156.37 -22.969,156.37 -12.289,-78.989 -10.518,-219.665 26.375,-203.617 36.892,16.022 47.6,183.046 47.982,191.656 z"
   id="path1991" />
			<path
   style="fill:#f7a937"
   d="m 1014.285,821.846 -2.316,2.425 c -0.054,-0.599 -0.136,-1.226 -0.218,-1.853 -4.795,-39.072 -15.967,-147.052 -39.508,-147.052 -25.285,0 -23.405,135.172 -23.024,154.163 l -0.327,-0.354 c 0,0 -10.136,-188.44 22.397,-176.779 32.533,11.635 43.214,168.986 42.996,169.45 z"
   id="path1993" />
		</g></g></g></svg>
